M48
; DRILL file KiCad 10.0.6 date 2026-09-25T18:09:48
; FORMAT={-:-/ absolute / metric / decimal}
; #@! TF.CreationDate,2026-09-25T18:09:48+01:00
; #@! TF.GenerationSoftware,Kicad,Pcbnew,10.0.6
; #@! TF.FileFunction,Plated,1,2,PTH
FMAT,2
METRIC
; #@! TA.AperFunction,Plated,PTH,ViaDrill
T1C0.300
; #@! TA.AperFunction,Plated,PTH,ViaDrill
T2C0.600
; #@! TA.AperFunction,Plated,PTH,ComponentDrill
T3C1.000
%
G90
G05
T1
X118.2Y-80.05
X118.75Y-83.7
X119.8Y-76.1
X120.9Y-77.0
X120.9Y-80.05
X121.4Y-84.55
X123.6Y-82.775
X123.9Y-80.05
X124.88Y-76.1
X126.1Y-80.3
T2
X114.5Y-93.0
X120.5Y-87.0
X126.5Y-86.5
X129.5Y-82.0
X146.0Y-77.5
X147.0Y-79.37
X147.7Y-82.7
X149.0Y-93.0
X150.0Y-89.5
X152.0Y-82.0
X152.0Y-90.5
X152.55Y-86.1
X153.5Y-93.0
X154.5Y-82.7
X156.5Y-88.0
X158.516Y-90.037
T3
X108.37Y-72.23
X108.37Y-74.77
X110.91Y-72.23
X110.91Y-74.77
X113.45Y-72.23
X113.45Y-74.77
X115.99Y-72.23
X115.99Y-74.77
X118.53Y-72.23
X118.53Y-74.77
X121.07Y-72.23
X121.07Y-74.77
X123.61Y-72.23
X123.61Y-74.77
X126.15Y-72.23
X126.15Y-74.77
X128.69Y-72.23
X128.69Y-74.77
X131.23Y-72.23
X131.23Y-74.77
X133.77Y-72.23
X133.77Y-74.77
X136.31Y-72.23
X136.31Y-74.77
X138.85Y-72.23
X138.85Y-74.77
X141.39Y-72.23
X141.39Y-74.77
X143.93Y-72.23
X143.93Y-74.77
X146.47Y-72.23
X146.47Y-74.77
X149.01Y-72.23
X149.01Y-74.77
X151.55Y-72.23
X151.55Y-74.77
X154.09Y-72.23
X154.09Y-74.77
X156.63Y-72.23
X156.63Y-74.77
M30
