G04 #@! TF.GenerationSoftware,KiCad,Pcbnew,10.0.6*
G04 #@! TF.CreationDate,2026-09-26T13:13:05+01:00*
G04 #@! TF.ProjectId,phonkyo,70686f6e-6b79-46f2-9e6b-696361645f70,rev?*
G04 #@! TF.SameCoordinates,Original*
G04 #@! TF.FileFunction,Copper,L2,Bot*
G04 #@! TF.FilePolarity,Positive*
%FSLAX46Y46*%
G04 Gerber Fmt 4.6, Leading zero omitted, Abs format (unit mm)*
G04 Created by KiCad (PCBNEW 10.0.6) date 2026-09-26 13:13:05*
%MOMM*%
%LPD*%
G01*
G04 APERTURE LIST*
G04 #@! TA.AperFunction,ComponentPad*
%ADD10R,1.700000X1.700000*%
G04 #@! TD*
G04 #@! TA.AperFunction,ComponentPad*
%ADD11O,1.700000X1.700000*%
G04 #@! TD*
G04 #@! TA.AperFunction,SMDPad,CuDef*
%ADD12R,1.000000X1.500000*%
G04 #@! TD*
G04 #@! TA.AperFunction,ViaPad*
%ADD13C,0.600000*%
G04 #@! TD*
G04 #@! TA.AperFunction,ViaPad*
%ADD14C,0.900000*%
G04 #@! TD*
G04 #@! TA.AperFunction,Conductor*
%ADD15C,0.300000*%
G04 #@! TD*
G04 #@! TA.AperFunction,Conductor*
%ADD16C,0.500000*%
G04 #@! TD*
G04 #@! TA.AperFunction,Conductor*
%ADD17C,0.200000*%
G04 #@! TD*
G04 APERTURE END LIST*
D10*
X108370000Y-74770000D03*
D11*
X108370000Y-72230000D03*
X110910000Y-74770000D03*
X110910000Y-72230000D03*
X113450000Y-74770000D03*
X113450000Y-72230000D03*
X115990000Y-74770000D03*
X115990000Y-72230000D03*
X118530000Y-74770000D03*
X118530000Y-72230000D03*
X121070000Y-74770000D03*
X121070000Y-72230000D03*
X123610000Y-74770000D03*
X123610000Y-72230000D03*
X126150000Y-74770000D03*
X126150000Y-72230000D03*
X128690000Y-74770000D03*
X128690000Y-72230000D03*
X131230000Y-74770000D03*
X131230000Y-72230000D03*
X133770000Y-74770000D03*
X133770000Y-72230000D03*
X136310000Y-74770000D03*
X136310000Y-72230000D03*
X138850000Y-74770000D03*
X138850000Y-72230000D03*
X141390000Y-74770000D03*
X141390000Y-72230000D03*
X143930000Y-74770000D03*
X143930000Y-72230000D03*
X146470000Y-74770000D03*
X146470000Y-72230000D03*
X149010000Y-74770000D03*
X149010000Y-72230000D03*
X151550000Y-74770000D03*
X151550000Y-72230000D03*
X154090000Y-74770000D03*
X154090000Y-72230000D03*
X156630000Y-74770000D03*
X156630000Y-72230000D03*
D12*
X122550000Y-82775000D03*
X121250000Y-82775000D03*
D13*
X120900000Y-80050000D03*
X121400000Y-84550000D03*
D14*
X147000000Y-79370000D03*
X146000000Y-77500000D03*
D13*
X123600000Y-77000000D03*
D14*
X114500000Y-93000000D03*
X126500000Y-86500000D03*
X152550000Y-86100000D03*
D13*
X126100000Y-80300000D03*
D14*
X156500000Y-88000000D03*
X152000000Y-82000000D03*
X154500000Y-82700000D03*
D13*
X126300000Y-78000000D03*
X118750000Y-83700000D03*
D14*
X129500000Y-82000000D03*
X153500000Y-93000000D03*
X149000000Y-93000000D03*
X152000000Y-90500000D03*
D13*
X122340000Y-76100000D03*
X118200000Y-80050000D03*
D14*
X158516246Y-90037142D03*
D13*
X155340000Y-76300000D03*
X123900000Y-80050000D03*
X124880000Y-76100000D03*
D14*
X147700000Y-82700000D03*
X150000000Y-89500000D03*
D13*
X132430000Y-78000000D03*
X123600000Y-82775000D03*
X129699999Y-78000000D03*
D14*
X120500000Y-87000000D03*
D15*
X120900000Y-79700000D02*
X120900000Y-80050000D01*
X123600000Y-77000000D02*
X120900000Y-79700000D01*
X120900000Y-80050000D02*
X120900000Y-82300000D01*
D16*
X146000000Y-78370000D02*
X147000000Y-79370000D01*
X146000000Y-77500000D02*
X146000000Y-78370000D01*
D15*
X121250000Y-83400000D02*
X121400000Y-84550000D01*
D17*
X110000000Y-98000000D02*
X110000000Y-97500000D01*
X122340000Y-76100000D02*
X122340000Y-76500000D01*
X122340000Y-76500000D02*
X118790000Y-80050000D01*
X118790000Y-80050000D02*
X118200000Y-80050000D01*
X155500000Y-81000000D02*
X158500000Y-84000000D01*
X155340000Y-76300000D02*
X155340000Y-80840000D01*
X158500000Y-84000000D02*
X158500000Y-84500000D01*
X158500000Y-90020896D02*
X158516246Y-90037142D01*
X155340000Y-80840000D02*
X155500000Y-81000000D01*
X158500000Y-84500000D02*
X158500000Y-90020896D01*
X124880000Y-79070000D02*
X123900000Y-80050000D01*
X124880000Y-76100000D02*
X124880000Y-79070000D01*
X148500000Y-83500000D02*
X148500000Y-85500000D01*
X149000000Y-85500000D02*
X150000000Y-86500000D01*
X148500000Y-85500000D02*
X149000000Y-85500000D01*
X150000000Y-86500000D02*
X150000000Y-89500000D01*
X147700000Y-82700000D02*
X148500000Y-83500000D01*
D15*
X132430000Y-75270000D02*
X132430000Y-78000000D01*
X132430000Y-73570000D02*
X132430000Y-75267057D01*
X133770000Y-72230000D02*
X132430000Y-73570000D01*
D17*
X123600000Y-82775000D02*
X122550000Y-82775000D01*
D15*
X120697057Y-87000000D02*
X120500000Y-87000000D01*
X120700000Y-87000000D02*
X129699999Y-78000000D01*
G04 #@! TA.AperFunction,Conductor*
G36*
X162003472Y-70050695D02*
G01*
X162323297Y-70068656D01*
X162337094Y-70070210D01*
X162649457Y-70123283D01*
X162663014Y-70126377D01*
X162967469Y-70214089D01*
X162980595Y-70218682D01*
X163273312Y-70339930D01*
X163285826Y-70345956D01*
X163452593Y-70438125D01*
X163563132Y-70499218D01*
X163574906Y-70506616D01*
X163833312Y-70689964D01*
X163844180Y-70698632D01*
X164080418Y-70909749D01*
X164090250Y-70919581D01*
X164301367Y-71155819D01*
X164310038Y-71166691D01*
X164493383Y-71425093D01*
X164500781Y-71436867D01*
X164654039Y-71714166D01*
X164660072Y-71726694D01*
X164781317Y-72019405D01*
X164785910Y-72032530D01*
X164873622Y-72336985D01*
X164876716Y-72350542D01*
X164929787Y-72662894D01*
X164931344Y-72676712D01*
X164949305Y-72996527D01*
X164949500Y-73003480D01*
X164949500Y-96996519D01*
X164949305Y-97003472D01*
X164931344Y-97323287D01*
X164929787Y-97337105D01*
X164876716Y-97649457D01*
X164873622Y-97663014D01*
X164785910Y-97967469D01*
X164781317Y-97980594D01*
X164660072Y-98273305D01*
X164654039Y-98285833D01*
X164500781Y-98563132D01*
X164493383Y-98574906D01*
X164310038Y-98833308D01*
X164301367Y-98844180D01*
X164090250Y-99080418D01*
X164080418Y-99090250D01*
X163844180Y-99301367D01*
X163833308Y-99310038D01*
X163574906Y-99493383D01*
X163563132Y-99500781D01*
X163285833Y-99654039D01*
X163273305Y-99660072D01*
X162980594Y-99781317D01*
X162967469Y-99785910D01*
X162663014Y-99873622D01*
X162649457Y-99876716D01*
X162337105Y-99929787D01*
X162323287Y-99931344D01*
X162003472Y-99949305D01*
X161996519Y-99949500D01*
X103003481Y-99949500D01*
X102996528Y-99949305D01*
X102676712Y-99931344D01*
X102662894Y-99929787D01*
X102350542Y-99876716D01*
X102336985Y-99873622D01*
X102032530Y-99785910D01*
X102019405Y-99781317D01*
X101726694Y-99660072D01*
X101714166Y-99654039D01*
X101436867Y-99500781D01*
X101425093Y-99493383D01*
X101166691Y-99310038D01*
X101155819Y-99301367D01*
X100919581Y-99090250D01*
X100909749Y-99080418D01*
X100698632Y-98844180D01*
X100689961Y-98833308D01*
X100506616Y-98574906D01*
X100499218Y-98563132D01*
X100465764Y-98502602D01*
X100345956Y-98285826D01*
X100339930Y-98273312D01*
X100218682Y-97980594D01*
X100214089Y-97967469D01*
X100126377Y-97663014D01*
X100123283Y-97649457D01*
X100077464Y-97379786D01*
X100070210Y-97337094D01*
X100068656Y-97323297D01*
X100050695Y-97003472D01*
X100050500Y-96996519D01*
X100050500Y-96393713D01*
X102149500Y-96393713D01*
X102149500Y-96606286D01*
X102167468Y-96719735D01*
X102182754Y-96816243D01*
X102241329Y-96996519D01*
X102248444Y-97018414D01*
X102344951Y-97207820D01*
X102469890Y-97379786D01*
X102620213Y-97530109D01*
X102792179Y-97655048D01*
X102792181Y-97655049D01*
X102792184Y-97655051D01*
X102981588Y-97751557D01*
X103183757Y-97817246D01*
X103393713Y-97850500D01*
X103393714Y-97850500D01*
X103606286Y-97850500D01*
X103606287Y-97850500D01*
X103816243Y-97817246D01*
X104018412Y-97751557D01*
X104207816Y-97655051D01*
X104229789Y-97639086D01*
X104379786Y-97530109D01*
X104379788Y-97530106D01*
X104379792Y-97530104D01*
X104530104Y-97379792D01*
X104530106Y-97379788D01*
X104530109Y-97379786D01*
X104655048Y-97207820D01*
X104655047Y-97207820D01*
X104655051Y-97207816D01*
X104751557Y-97018412D01*
X104817246Y-96816243D01*
X104850500Y-96606287D01*
X104850500Y-96393713D01*
X104817246Y-96183757D01*
X104751557Y-95981588D01*
X104695288Y-95871153D01*
X119699500Y-95871153D01*
X119699500Y-96028846D01*
X119730261Y-96183489D01*
X119730264Y-96183501D01*
X119790602Y-96329172D01*
X119790609Y-96329185D01*
X119878210Y-96460288D01*
X119878213Y-96460292D01*
X119989707Y-96571786D01*
X119989711Y-96571789D01*
X120120814Y-96659390D01*
X120120827Y-96659397D01*
X120266498Y-96719735D01*
X120266503Y-96719737D01*
X120421153Y-96750499D01*
X120421156Y-96750500D01*
X120421158Y-96750500D01*
X120578844Y-96750500D01*
X120578845Y-96750499D01*
X120733497Y-96719737D01*
X120879179Y-96659394D01*
X121010289Y-96571789D01*
X121121789Y-96460289D01*
X121209394Y-96329179D01*
X121269737Y-96183497D01*
X121300500Y-96028842D01*
X121300500Y-95871158D01*
X121300500Y-95871155D01*
X121300499Y-95871153D01*
X134199500Y-95871153D01*
X134199500Y-96028846D01*
X134230261Y-96183489D01*
X134230264Y-96183501D01*
X134290602Y-96329172D01*
X134290609Y-96329185D01*
X134378210Y-96460288D01*
X134378213Y-96460292D01*
X134489707Y-96571786D01*
X134489711Y-96571789D01*
X134620814Y-96659390D01*
X134620827Y-96659397D01*
X134766498Y-96719735D01*
X134766503Y-96719737D01*
X134921153Y-96750499D01*
X134921156Y-96750500D01*
X134921158Y-96750500D01*
X135078844Y-96750500D01*
X135078845Y-96750499D01*
X135233497Y-96719737D01*
X135379179Y-96659394D01*
X135510289Y-96571789D01*
X135621789Y-96460289D01*
X135666274Y-96393713D01*
X160149500Y-96393713D01*
X160149500Y-96606286D01*
X160167468Y-96719735D01*
X160182754Y-96816243D01*
X160241329Y-96996519D01*
X160248444Y-97018414D01*
X160344951Y-97207820D01*
X160469890Y-97379786D01*
X160620213Y-97530109D01*
X160792179Y-97655048D01*
X160792181Y-97655049D01*
X160792184Y-97655051D01*
X160981588Y-97751557D01*
X161183757Y-97817246D01*
X161393713Y-97850500D01*
X161393714Y-97850500D01*
X161606286Y-97850500D01*
X161606287Y-97850500D01*
X161816243Y-97817246D01*
X162018412Y-97751557D01*
X162207816Y-97655051D01*
X162229789Y-97639086D01*
X162379786Y-97530109D01*
X162379788Y-97530106D01*
X162379792Y-97530104D01*
X162530104Y-97379792D01*
X162530106Y-97379788D01*
X162530109Y-97379786D01*
X162655048Y-97207820D01*
X162655047Y-97207820D01*
X162655051Y-97207816D01*
X162751557Y-97018412D01*
X162817246Y-96816243D01*
X162850500Y-96606287D01*
X162850500Y-96393713D01*
X162817246Y-96183757D01*
X162751557Y-95981588D01*
X162655051Y-95792184D01*
X162655049Y-95792181D01*
X162655048Y-95792179D01*
X162530109Y-95620213D01*
X162379786Y-95469890D01*
X162207820Y-95344951D01*
X162018414Y-95248444D01*
X162018413Y-95248443D01*
X162018412Y-95248443D01*
X161816243Y-95182754D01*
X161816241Y-95182753D01*
X161816240Y-95182753D01*
X161654957Y-95157208D01*
X161606287Y-95149500D01*
X161393713Y-95149500D01*
X161345042Y-95157208D01*
X161183760Y-95182753D01*
X161183757Y-95182754D01*
X161005699Y-95240609D01*
X160981585Y-95248444D01*
X160792179Y-95344951D01*
X160620213Y-95469890D01*
X160469890Y-95620213D01*
X160344951Y-95792179D01*
X160248444Y-95981585D01*
X160182753Y-96183760D01*
X160149500Y-96393713D01*
X135666274Y-96393713D01*
X135709394Y-96329179D01*
X135769737Y-96183497D01*
X135800500Y-96028842D01*
X135800500Y-95871158D01*
X135800500Y-95871155D01*
X135800499Y-95871153D01*
X135769738Y-95716510D01*
X135769737Y-95716503D01*
X135729851Y-95620208D01*
X135709397Y-95570827D01*
X135709390Y-95570814D01*
X135621789Y-95439711D01*
X135621786Y-95439707D01*
X135510292Y-95328213D01*
X135510288Y-95328210D01*
X135379185Y-95240609D01*
X135379172Y-95240602D01*
X135233501Y-95180264D01*
X135233489Y-95180261D01*
X135078845Y-95149500D01*
X135078842Y-95149500D01*
X134921158Y-95149500D01*
X134921155Y-95149500D01*
X134766510Y-95180261D01*
X134766498Y-95180264D01*
X134620827Y-95240602D01*
X134620814Y-95240609D01*
X134489711Y-95328210D01*
X134489707Y-95328213D01*
X134378213Y-95439707D01*
X134378210Y-95439711D01*
X134290609Y-95570814D01*
X134290602Y-95570827D01*
X134230264Y-95716498D01*
X134230261Y-95716510D01*
X134199500Y-95871153D01*
X121300499Y-95871153D01*
X121269738Y-95716510D01*
X121269737Y-95716503D01*
X121229851Y-95620208D01*
X121209397Y-95570827D01*
X121209390Y-95570814D01*
X121121789Y-95439711D01*
X121121786Y-95439707D01*
X121010292Y-95328213D01*
X121010288Y-95328210D01*
X120879185Y-95240609D01*
X120879172Y-95240602D01*
X120733501Y-95180264D01*
X120733489Y-95180261D01*
X120578845Y-95149500D01*
X120578842Y-95149500D01*
X120421158Y-95149500D01*
X120421155Y-95149500D01*
X120266510Y-95180261D01*
X120266498Y-95180264D01*
X120120827Y-95240602D01*
X120120814Y-95240609D01*
X119989711Y-95328210D01*
X119989707Y-95328213D01*
X119878213Y-95439707D01*
X119878210Y-95439711D01*
X119790609Y-95570814D01*
X119790602Y-95570827D01*
X119730264Y-95716498D01*
X119730261Y-95716510D01*
X119699500Y-95871153D01*
X104695288Y-95871153D01*
X104655051Y-95792184D01*
X104647023Y-95781134D01*
X104530109Y-95620213D01*
X104379786Y-95469890D01*
X104207820Y-95344951D01*
X104018414Y-95248444D01*
X104018413Y-95248443D01*
X104018412Y-95248443D01*
X103816243Y-95182754D01*
X103816241Y-95182753D01*
X103816240Y-95182753D01*
X103654957Y-95157208D01*
X103606287Y-95149500D01*
X103393713Y-95149500D01*
X103345042Y-95157208D01*
X103183760Y-95182753D01*
X103183757Y-95182754D01*
X103005699Y-95240609D01*
X102981585Y-95248444D01*
X102792179Y-95344951D01*
X102620213Y-95469890D01*
X102469890Y-95620213D01*
X102344951Y-95792179D01*
X102248444Y-95981585D01*
X102182753Y-96183760D01*
X102149500Y-96393713D01*
X100050500Y-96393713D01*
X100050500Y-88871153D01*
X119699500Y-88871153D01*
X119699500Y-89028846D01*
X119730261Y-89183489D01*
X119730264Y-89183501D01*
X119790602Y-89329172D01*
X119790609Y-89329185D01*
X119878210Y-89460288D01*
X119878213Y-89460292D01*
X119989707Y-89571786D01*
X119989711Y-89571789D01*
X120120814Y-89659390D01*
X120120827Y-89659397D01*
X120266498Y-89719735D01*
X120266503Y-89719737D01*
X120421153Y-89750499D01*
X120421156Y-89750500D01*
X120421158Y-89750500D01*
X120578844Y-89750500D01*
X120578845Y-89750499D01*
X120733497Y-89719737D01*
X120879179Y-89659394D01*
X121010289Y-89571789D01*
X121121789Y-89460289D01*
X121209394Y-89329179D01*
X121269737Y-89183497D01*
X121300500Y-89028842D01*
X121300500Y-88871158D01*
X121300500Y-88871155D01*
X121300499Y-88871153D01*
X134199500Y-88871153D01*
X134199500Y-89028846D01*
X134230261Y-89183489D01*
X134230264Y-89183501D01*
X134290602Y-89329172D01*
X134290609Y-89329185D01*
X134378210Y-89460288D01*
X134378213Y-89460292D01*
X134489707Y-89571786D01*
X134489711Y-89571789D01*
X134620814Y-89659390D01*
X134620827Y-89659397D01*
X134766498Y-89719735D01*
X134766503Y-89719737D01*
X134921153Y-89750499D01*
X134921156Y-89750500D01*
X134921158Y-89750500D01*
X135078844Y-89750500D01*
X135078845Y-89750499D01*
X135233497Y-89719737D01*
X135379179Y-89659394D01*
X135510289Y-89571789D01*
X135621789Y-89460289D01*
X135709394Y-89329179D01*
X135769737Y-89183497D01*
X135800500Y-89028842D01*
X135800500Y-88871158D01*
X135800500Y-88871155D01*
X135800499Y-88871153D01*
X135769738Y-88716510D01*
X135769737Y-88716503D01*
X135769735Y-88716498D01*
X135709397Y-88570827D01*
X135709390Y-88570814D01*
X135621789Y-88439711D01*
X135621786Y-88439707D01*
X135510292Y-88328213D01*
X135510288Y-88328210D01*
X135379185Y-88240609D01*
X135379172Y-88240602D01*
X135233501Y-88180264D01*
X135233489Y-88180261D01*
X135078845Y-88149500D01*
X135078842Y-88149500D01*
X134921158Y-88149500D01*
X134921155Y-88149500D01*
X134766510Y-88180261D01*
X134766498Y-88180264D01*
X134620827Y-88240602D01*
X134620814Y-88240609D01*
X134489711Y-88328210D01*
X134489707Y-88328213D01*
X134378213Y-88439707D01*
X134378210Y-88439711D01*
X134290609Y-88570814D01*
X134290602Y-88570827D01*
X134230264Y-88716498D01*
X134230261Y-88716510D01*
X134199500Y-88871153D01*
X121300499Y-88871153D01*
X121269738Y-88716510D01*
X121269737Y-88716503D01*
X121269735Y-88716498D01*
X121209397Y-88570827D01*
X121209390Y-88570814D01*
X121121789Y-88439711D01*
X121121786Y-88439707D01*
X121010292Y-88328213D01*
X121010288Y-88328210D01*
X120879185Y-88240609D01*
X120879172Y-88240602D01*
X120733501Y-88180264D01*
X120733489Y-88180261D01*
X120578845Y-88149500D01*
X120578842Y-88149500D01*
X120421158Y-88149500D01*
X120421155Y-88149500D01*
X120266510Y-88180261D01*
X120266498Y-88180264D01*
X120120827Y-88240602D01*
X120120814Y-88240609D01*
X119989711Y-88328210D01*
X119989707Y-88328213D01*
X119878213Y-88439707D01*
X119878210Y-88439711D01*
X119790609Y-88570814D01*
X119790602Y-88570827D01*
X119730264Y-88716498D01*
X119730261Y-88716510D01*
X119699500Y-88871153D01*
X100050500Y-88871153D01*
X100050500Y-87064071D01*
X119849499Y-87064071D01*
X119874497Y-87189738D01*
X119874499Y-87189744D01*
X119923533Y-87308124D01*
X119923538Y-87308133D01*
X119994723Y-87414668D01*
X119994726Y-87414672D01*
X120085327Y-87505273D01*
X120085331Y-87505276D01*
X120191866Y-87576461D01*
X120191872Y-87576464D01*
X120191873Y-87576465D01*
X120310256Y-87625501D01*
X120310260Y-87625501D01*
X120310261Y-87625502D01*
X120435928Y-87650500D01*
X120435931Y-87650500D01*
X120564071Y-87650500D01*
X120648615Y-87633682D01*
X120689744Y-87625501D01*
X120808127Y-87576465D01*
X120914669Y-87505276D01*
X121005276Y-87414669D01*
X121076465Y-87308127D01*
X121125501Y-87189744D01*
X121147852Y-87077380D01*
X121180237Y-87015471D01*
X121181732Y-87013948D01*
X125431608Y-82764071D01*
X147049499Y-82764071D01*
X147074497Y-82889738D01*
X147074499Y-82889744D01*
X147123533Y-83008124D01*
X147123538Y-83008133D01*
X147194723Y-83114668D01*
X147194726Y-83114672D01*
X147285327Y-83205273D01*
X147285331Y-83205276D01*
X147391866Y-83276461D01*
X147391872Y-83276464D01*
X147391873Y-83276465D01*
X147510256Y-83325501D01*
X147510260Y-83325501D01*
X147510261Y-83325502D01*
X147635928Y-83350500D01*
X147635931Y-83350500D01*
X147764070Y-83350500D01*
X147781694Y-83346994D01*
X147833735Y-83336642D01*
X147903325Y-83342868D01*
X147945607Y-83370578D01*
X148163181Y-83588152D01*
X148196666Y-83649475D01*
X148199500Y-83675833D01*
X148199500Y-85460438D01*
X148199500Y-85539562D01*
X148213152Y-85590513D01*
X148219979Y-85615990D01*
X148219982Y-85615995D01*
X148259535Y-85684504D01*
X148259539Y-85684509D01*
X148259540Y-85684511D01*
X148315489Y-85740460D01*
X148315491Y-85740461D01*
X148315495Y-85740464D01*
X148384004Y-85780017D01*
X148384011Y-85780021D01*
X148460438Y-85800500D01*
X148824167Y-85800500D01*
X148891206Y-85820185D01*
X148911848Y-85836819D01*
X149663181Y-86588152D01*
X149696666Y-86649475D01*
X149699500Y-86675833D01*
X149699500Y-88852159D01*
X149679815Y-88919198D01*
X149644391Y-88955261D01*
X149585331Y-88994723D01*
X149585327Y-88994726D01*
X149494726Y-89085327D01*
X149494723Y-89085331D01*
X149423538Y-89191866D01*
X149423533Y-89191875D01*
X149374499Y-89310255D01*
X149374497Y-89310261D01*
X149349500Y-89435928D01*
X149349500Y-89435931D01*
X149349500Y-89564069D01*
X149349500Y-89564071D01*
X149349499Y-89564071D01*
X149374497Y-89689738D01*
X149374499Y-89689744D01*
X149423533Y-89808124D01*
X149423538Y-89808133D01*
X149494723Y-89914668D01*
X149494726Y-89914672D01*
X149585327Y-90005273D01*
X149585331Y-90005276D01*
X149691866Y-90076461D01*
X149691872Y-90076464D01*
X149691873Y-90076465D01*
X149810256Y-90125501D01*
X149810260Y-90125501D01*
X149810261Y-90125502D01*
X149935928Y-90150500D01*
X149935931Y-90150500D01*
X150064071Y-90150500D01*
X150148615Y-90133682D01*
X150189744Y-90125501D01*
X150308127Y-90076465D01*
X150414669Y-90005276D01*
X150505276Y-89914669D01*
X150576465Y-89808127D01*
X150625501Y-89689744D01*
X150633682Y-89648615D01*
X150650500Y-89564071D01*
X150650500Y-89435928D01*
X150625502Y-89310261D01*
X150625501Y-89310260D01*
X150625501Y-89310256D01*
X150576465Y-89191873D01*
X150576464Y-89191872D01*
X150576461Y-89191866D01*
X150505276Y-89085331D01*
X150505273Y-89085327D01*
X150414672Y-88994726D01*
X150414668Y-88994723D01*
X150355609Y-88955261D01*
X150310804Y-88901649D01*
X150300500Y-88852159D01*
X150300500Y-86460440D01*
X150300499Y-86460436D01*
X150290612Y-86423535D01*
X150280022Y-86384012D01*
X150240460Y-86315489D01*
X149184511Y-85259540D01*
X149184509Y-85259539D01*
X149184504Y-85259535D01*
X149115995Y-85219982D01*
X149115990Y-85219979D01*
X149090513Y-85213152D01*
X149039562Y-85199500D01*
X149039560Y-85199500D01*
X148924500Y-85199500D01*
X148857461Y-85179815D01*
X148811706Y-85127011D01*
X148800500Y-85075500D01*
X148800500Y-83460439D01*
X148780020Y-83384009D01*
X148780017Y-83384004D01*
X148740464Y-83315495D01*
X148740458Y-83315487D01*
X148370578Y-82945607D01*
X148337093Y-82884284D01*
X148336642Y-82833735D01*
X148350500Y-82764069D01*
X148350500Y-82635931D01*
X148350500Y-82635928D01*
X148325502Y-82510261D01*
X148325501Y-82510260D01*
X148325501Y-82510256D01*
X148276465Y-82391873D01*
X148276464Y-82391872D01*
X148276461Y-82391866D01*
X148205276Y-82285331D01*
X148205273Y-82285327D01*
X148114672Y-82194726D01*
X148114668Y-82194723D01*
X148008133Y-82123538D01*
X148008124Y-82123533D01*
X147889744Y-82074499D01*
X147889738Y-82074497D01*
X147764071Y-82049500D01*
X147764069Y-82049500D01*
X147635931Y-82049500D01*
X147635929Y-82049500D01*
X147510261Y-82074497D01*
X147510255Y-82074499D01*
X147391875Y-82123533D01*
X147391866Y-82123538D01*
X147285331Y-82194723D01*
X147285327Y-82194726D01*
X147194726Y-82285327D01*
X147194723Y-82285331D01*
X147123538Y-82391866D01*
X147123533Y-82391875D01*
X147074499Y-82510255D01*
X147074497Y-82510261D01*
X147049500Y-82635928D01*
X147049500Y-82635931D01*
X147049500Y-82764069D01*
X147049500Y-82764071D01*
X147049499Y-82764071D01*
X125431608Y-82764071D01*
X129658861Y-78536818D01*
X129720184Y-78503334D01*
X129746542Y-78500500D01*
X129765889Y-78500500D01*
X129765891Y-78500500D01*
X129893185Y-78466392D01*
X130007313Y-78400500D01*
X130100499Y-78307314D01*
X130166391Y-78193186D01*
X130200499Y-78065892D01*
X130200499Y-77934108D01*
X130166391Y-77806814D01*
X130100499Y-77692686D01*
X130007313Y-77599500D01*
X129945945Y-77564069D01*
X129893186Y-77533608D01*
X129829538Y-77516554D01*
X129765891Y-77499500D01*
X129634107Y-77499500D01*
X129506811Y-77533608D01*
X129392685Y-77599500D01*
X129392682Y-77599502D01*
X129299501Y-77692683D01*
X129299499Y-77692686D01*
X129233607Y-77806812D01*
X129199499Y-77934108D01*
X129199499Y-77953456D01*
X129179814Y-78020495D01*
X129163180Y-78041137D01*
X124312181Y-82892136D01*
X124250858Y-82925621D01*
X124181166Y-82920637D01*
X124125233Y-82878765D01*
X124100816Y-82813301D01*
X124100500Y-82804455D01*
X124100500Y-82709110D01*
X124100500Y-82709108D01*
X124066392Y-82581814D01*
X124000500Y-82467686D01*
X123907314Y-82374500D01*
X123850250Y-82341554D01*
X123793187Y-82308608D01*
X123706299Y-82285327D01*
X123665892Y-82274500D01*
X123534108Y-82274500D01*
X123406593Y-82308667D01*
X123336743Y-82307004D01*
X123278881Y-82267841D01*
X123251377Y-82203612D01*
X123250500Y-82188892D01*
X123250500Y-82005249D01*
X123250499Y-82005247D01*
X123238868Y-81946770D01*
X123238867Y-81946769D01*
X123194552Y-81880447D01*
X123128230Y-81836132D01*
X123128229Y-81836131D01*
X123069752Y-81824500D01*
X123069748Y-81824500D01*
X122030252Y-81824500D01*
X122030247Y-81824500D01*
X121971770Y-81836131D01*
X121971768Y-81836132D01*
X121968887Y-81838058D01*
X121961655Y-81840322D01*
X121960487Y-81840806D01*
X121960443Y-81840701D01*
X121902209Y-81858933D01*
X121834829Y-81840446D01*
X121831113Y-81838058D01*
X121828231Y-81836132D01*
X121828229Y-81836131D01*
X121769752Y-81824500D01*
X121769748Y-81824500D01*
X121374500Y-81824500D01*
X121307461Y-81804815D01*
X121261706Y-81752011D01*
X121250500Y-81700500D01*
X121250500Y-80458676D01*
X121270185Y-80391637D01*
X121286819Y-80370995D01*
X121300500Y-80357314D01*
X121366392Y-80243186D01*
X121400500Y-80115892D01*
X121400500Y-79984108D01*
X123399500Y-79984108D01*
X123399500Y-80115891D01*
X123433608Y-80243187D01*
X123460902Y-80290460D01*
X123499500Y-80357314D01*
X123592686Y-80450500D01*
X123706814Y-80516392D01*
X123834108Y-80550500D01*
X123834110Y-80550500D01*
X123965890Y-80550500D01*
X123965892Y-80550500D01*
X124093186Y-80516392D01*
X124207314Y-80450500D01*
X124300500Y-80357314D01*
X124366392Y-80243186D01*
X124400500Y-80115892D01*
X124400500Y-80025832D01*
X124420185Y-79958793D01*
X124436819Y-79938151D01*
X124725470Y-79649500D01*
X125120460Y-79254511D01*
X125130476Y-79237161D01*
X125154174Y-79196117D01*
X125154175Y-79196115D01*
X125160020Y-79185991D01*
X125160021Y-79185989D01*
X125180500Y-79109562D01*
X125180500Y-76558676D01*
X125200185Y-76491637D01*
X125216819Y-76470995D01*
X125246393Y-76441421D01*
X125280500Y-76407314D01*
X125346392Y-76293186D01*
X125380500Y-76165892D01*
X125380500Y-76034108D01*
X125346392Y-75906814D01*
X125280500Y-75792686D01*
X125187314Y-75699500D01*
X125130250Y-75666554D01*
X125073187Y-75633608D01*
X125009539Y-75616554D01*
X124945892Y-75599500D01*
X124814108Y-75599500D01*
X124686812Y-75633608D01*
X124572686Y-75699500D01*
X124572683Y-75699502D01*
X124479502Y-75792683D01*
X124479500Y-75792686D01*
X124413608Y-75906812D01*
X124379500Y-76034108D01*
X124379500Y-76165891D01*
X124413608Y-76293187D01*
X124446554Y-76350250D01*
X124479500Y-76407314D01*
X124479502Y-76407316D01*
X124543181Y-76470995D01*
X124576666Y-76532318D01*
X124579500Y-76558676D01*
X124579500Y-78894166D01*
X124559815Y-78961205D01*
X124543181Y-78981847D01*
X124011847Y-79513181D01*
X123950524Y-79546666D01*
X123924166Y-79549500D01*
X123834108Y-79549500D01*
X123706812Y-79583608D01*
X123592686Y-79649500D01*
X123592683Y-79649502D01*
X123499502Y-79742683D01*
X123499500Y-79742686D01*
X123433608Y-79856812D01*
X123399500Y-79984108D01*
X121400500Y-79984108D01*
X121366392Y-79856814D01*
X121359404Y-79844711D01*
X121355188Y-79829511D01*
X121355485Y-79809707D01*
X121350817Y-79790460D01*
X121355999Y-79775489D01*
X121356237Y-79759649D01*
X121367193Y-79743150D01*
X121373672Y-79724434D01*
X121386989Y-79708691D01*
X123558863Y-77536819D01*
X123620186Y-77503334D01*
X123646544Y-77500500D01*
X123665890Y-77500500D01*
X123665892Y-77500500D01*
X123793186Y-77466392D01*
X123907314Y-77400500D01*
X124000500Y-77307314D01*
X124066392Y-77193186D01*
X124100500Y-77065892D01*
X124100500Y-76934108D01*
X124066392Y-76806814D01*
X124000500Y-76692686D01*
X123907314Y-76599500D01*
X123803499Y-76539562D01*
X123793187Y-76533608D01*
X123729539Y-76516554D01*
X123665892Y-76499500D01*
X123534108Y-76499500D01*
X123406812Y-76533608D01*
X123292686Y-76599500D01*
X123292683Y-76599502D01*
X123199502Y-76692683D01*
X123199500Y-76692686D01*
X123133608Y-76806812D01*
X123099500Y-76934108D01*
X123099500Y-76953456D01*
X123079815Y-77020495D01*
X123063181Y-77041137D01*
X120619531Y-79484786D01*
X120619529Y-79484789D01*
X120582171Y-79549497D01*
X120582169Y-79549499D01*
X120573387Y-79564709D01*
X120549497Y-79653866D01*
X120549104Y-79656854D01*
X120548072Y-79659185D01*
X120547397Y-79661706D01*
X120547003Y-79661600D01*
X120520831Y-79720748D01*
X120513850Y-79728335D01*
X120499503Y-79742681D01*
X120499500Y-79742686D01*
X120433608Y-79856812D01*
X120399500Y-79984108D01*
X120399500Y-80115891D01*
X120433608Y-80243187D01*
X120460902Y-80290460D01*
X120499500Y-80357314D01*
X120499502Y-80357316D01*
X120513181Y-80370995D01*
X120546666Y-80432318D01*
X120549500Y-80458676D01*
X120549500Y-83544752D01*
X120561131Y-83603229D01*
X120561132Y-83603230D01*
X120605447Y-83669552D01*
X120671769Y-83713867D01*
X120671770Y-83713868D01*
X120730247Y-83725499D01*
X120730250Y-83725500D01*
X120730252Y-83725500D01*
X120830112Y-83725500D01*
X120897151Y-83745185D01*
X120942906Y-83797989D01*
X120953068Y-83833453D01*
X120999732Y-84191218D01*
X120988884Y-84260238D01*
X120984161Y-84269253D01*
X120933609Y-84356810D01*
X120933609Y-84356811D01*
X120899500Y-84484108D01*
X120899500Y-84615891D01*
X120933608Y-84743187D01*
X120966554Y-84800250D01*
X120999500Y-84857314D01*
X121092686Y-84950500D01*
X121206814Y-85016392D01*
X121334108Y-85050500D01*
X121334110Y-85050500D01*
X121465890Y-85050500D01*
X121465892Y-85050500D01*
X121593186Y-85016392D01*
X121707314Y-84950500D01*
X121800500Y-84857314D01*
X121866392Y-84743186D01*
X121900500Y-84615892D01*
X121900500Y-84484108D01*
X121866392Y-84356814D01*
X121800500Y-84242686D01*
X121730139Y-84172325D01*
X121696654Y-84111002D01*
X121694862Y-84100682D01*
X121664048Y-83864438D01*
X121674896Y-83795416D01*
X121721339Y-83743215D01*
X121764163Y-83728646D01*
X121763774Y-83726689D01*
X121828229Y-83713868D01*
X121828231Y-83713867D01*
X121831108Y-83711945D01*
X121838335Y-83709681D01*
X121839513Y-83709194D01*
X121839556Y-83709299D01*
X121897785Y-83691066D01*
X121965165Y-83709550D01*
X121968892Y-83711945D01*
X121971768Y-83713867D01*
X121971770Y-83713868D01*
X122030247Y-83725499D01*
X122030250Y-83725500D01*
X122030252Y-83725500D01*
X123069750Y-83725500D01*
X123069751Y-83725499D01*
X123089418Y-83721587D01*
X123128228Y-83713868D01*
X123128228Y-83713867D01*
X123128231Y-83713867D01*
X123194552Y-83669552D01*
X123238867Y-83603231D01*
X123241867Y-83588152D01*
X123250499Y-83544752D01*
X123250500Y-83544750D01*
X123250500Y-83361107D01*
X123270185Y-83294068D01*
X123322989Y-83248313D01*
X123392147Y-83238369D01*
X123406594Y-83241332D01*
X123406810Y-83241390D01*
X123406814Y-83241392D01*
X123534108Y-83275500D01*
X123534111Y-83275500D01*
X123629455Y-83275500D01*
X123696494Y-83295185D01*
X123742249Y-83347989D01*
X123752193Y-83417147D01*
X123723168Y-83480703D01*
X123717136Y-83487181D01*
X123399717Y-83804599D01*
X120847377Y-86356939D01*
X120786054Y-86390424D01*
X120716362Y-86385440D01*
X120712242Y-86383818D01*
X120689749Y-86374500D01*
X120689738Y-86374497D01*
X120564071Y-86349500D01*
X120564069Y-86349500D01*
X120435931Y-86349500D01*
X120435929Y-86349500D01*
X120310261Y-86374497D01*
X120310255Y-86374499D01*
X120191875Y-86423533D01*
X120191871Y-86423536D01*
X120085331Y-86494723D01*
X120085327Y-86494726D01*
X119994726Y-86585327D01*
X119994723Y-86585331D01*
X119923538Y-86691866D01*
X119923533Y-86691875D01*
X119874499Y-86810255D01*
X119874497Y-86810261D01*
X119849500Y-86935928D01*
X119849500Y-86935931D01*
X119849500Y-87064069D01*
X119849500Y-87064071D01*
X119849499Y-87064071D01*
X100050500Y-87064071D01*
X100050500Y-79984108D01*
X117699500Y-79984108D01*
X117699500Y-80115891D01*
X117733608Y-80243187D01*
X117760902Y-80290460D01*
X117799500Y-80357314D01*
X117892686Y-80450500D01*
X118006814Y-80516392D01*
X118134108Y-80550500D01*
X118134110Y-80550500D01*
X118265890Y-80550500D01*
X118265892Y-80550500D01*
X118393186Y-80516392D01*
X118507314Y-80450500D01*
X118570995Y-80386819D01*
X118632318Y-80353334D01*
X118658676Y-80350500D01*
X118829560Y-80350500D01*
X118829562Y-80350500D01*
X118905989Y-80330021D01*
X118974511Y-80290460D01*
X119030460Y-80234511D01*
X122580460Y-76684511D01*
X122600096Y-76650500D01*
X122620021Y-76615989D01*
X122640500Y-76539562D01*
X122640500Y-76539560D01*
X122642603Y-76531712D01*
X122645104Y-76532382D01*
X122668157Y-76480264D01*
X122675130Y-76472683D01*
X122740500Y-76407314D01*
X122806392Y-76293186D01*
X122840500Y-76165892D01*
X122840500Y-76034108D01*
X122806392Y-75906814D01*
X122740500Y-75792686D01*
X122647314Y-75699500D01*
X122590250Y-75666554D01*
X122533187Y-75633608D01*
X122469539Y-75616554D01*
X122405892Y-75599500D01*
X122274108Y-75599500D01*
X122146812Y-75633608D01*
X122032686Y-75699500D01*
X122032683Y-75699502D01*
X121939502Y-75792683D01*
X121939500Y-75792686D01*
X121873608Y-75906812D01*
X121850600Y-75992683D01*
X121839500Y-76034108D01*
X121839500Y-76165892D01*
X121857778Y-76234108D01*
X121873609Y-76293188D01*
X121873609Y-76293189D01*
X121916893Y-76368159D01*
X121933366Y-76436059D01*
X121910513Y-76502086D01*
X121897187Y-76517840D01*
X118724102Y-79690926D01*
X118662779Y-79724411D01*
X118593087Y-79719427D01*
X118548740Y-79690926D01*
X118507316Y-79649502D01*
X118507314Y-79649500D01*
X118450250Y-79616554D01*
X118393187Y-79583608D01*
X118304101Y-79559738D01*
X118265892Y-79549500D01*
X118134108Y-79549500D01*
X118006812Y-79583608D01*
X117892686Y-79649500D01*
X117892683Y-79649502D01*
X117799502Y-79742683D01*
X117799500Y-79742686D01*
X117733608Y-79856812D01*
X117699500Y-79984108D01*
X100050500Y-79984108D01*
X100050500Y-73393712D01*
X102149500Y-73393712D01*
X102149500Y-73606286D01*
X102176292Y-73775448D01*
X102182754Y-73816243D01*
X102227522Y-73954025D01*
X102248444Y-74018414D01*
X102344951Y-74207820D01*
X102469890Y-74379786D01*
X102620213Y-74530109D01*
X102792179Y-74655048D01*
X102792181Y-74655049D01*
X102792184Y-74655051D01*
X102981588Y-74751557D01*
X103183757Y-74817246D01*
X103393713Y-74850500D01*
X103393714Y-74850500D01*
X103606286Y-74850500D01*
X103606287Y-74850500D01*
X103816243Y-74817246D01*
X104018412Y-74751557D01*
X104207816Y-74655051D01*
X104229789Y-74639086D01*
X104379786Y-74530109D01*
X104379788Y-74530106D01*
X104379792Y-74530104D01*
X104530104Y-74379792D01*
X104530106Y-74379788D01*
X104530109Y-74379786D01*
X104655048Y-74207820D01*
X104655047Y-74207820D01*
X104655051Y-74207816D01*
X104751557Y-74018412D01*
X104789951Y-73900247D01*
X107319500Y-73900247D01*
X107319500Y-75639752D01*
X107331131Y-75698229D01*
X107331132Y-75698230D01*
X107375447Y-75764552D01*
X107441769Y-75808867D01*
X107441770Y-75808868D01*
X107500247Y-75820499D01*
X107500250Y-75820500D01*
X107500252Y-75820500D01*
X109239750Y-75820500D01*
X109239751Y-75820499D01*
X109254568Y-75817552D01*
X109298229Y-75808868D01*
X109298229Y-75808867D01*
X109298231Y-75808867D01*
X109364552Y-75764552D01*
X109408867Y-75698231D01*
X109408867Y-75698229D01*
X109408868Y-75698229D01*
X109417552Y-75654568D01*
X109420500Y-75639748D01*
X109420500Y-74666530D01*
X109859500Y-74666530D01*
X109859500Y-74873469D01*
X109899868Y-75076412D01*
X109899870Y-75076420D01*
X109979058Y-75267596D01*
X110094024Y-75439657D01*
X110240342Y-75585975D01*
X110240345Y-75585977D01*
X110412402Y-75700941D01*
X110603580Y-75780130D01*
X110748052Y-75808867D01*
X110806530Y-75820499D01*
X110806534Y-75820500D01*
X110806535Y-75820500D01*
X111013466Y-75820500D01*
X111013467Y-75820499D01*
X111216420Y-75780130D01*
X111407598Y-75700941D01*
X111579655Y-75585977D01*
X111725977Y-75439655D01*
X111840941Y-75267598D01*
X111920130Y-75076420D01*
X111960500Y-74873465D01*
X111960500Y-74666535D01*
X111960499Y-74666530D01*
X112399500Y-74666530D01*
X112399500Y-74873469D01*
X112439868Y-75076412D01*
X112439870Y-75076420D01*
X112519058Y-75267596D01*
X112634024Y-75439657D01*
X112780342Y-75585975D01*
X112780345Y-75585977D01*
X112952402Y-75700941D01*
X113143580Y-75780130D01*
X113288052Y-75808867D01*
X113346530Y-75820499D01*
X113346534Y-75820500D01*
X113346535Y-75820500D01*
X113553466Y-75820500D01*
X113553467Y-75820499D01*
X113756420Y-75780130D01*
X113947598Y-75700941D01*
X114119655Y-75585977D01*
X114265977Y-75439655D01*
X114380941Y-75267598D01*
X114460130Y-75076420D01*
X114500500Y-74873465D01*
X114500500Y-74666535D01*
X114500499Y-74666530D01*
X114939500Y-74666530D01*
X114939500Y-74873469D01*
X114979868Y-75076412D01*
X114979870Y-75076420D01*
X115059058Y-75267596D01*
X115174024Y-75439657D01*
X115320342Y-75585975D01*
X115320345Y-75585977D01*
X115492402Y-75700941D01*
X115683580Y-75780130D01*
X115828052Y-75808867D01*
X115886530Y-75820499D01*
X115886534Y-75820500D01*
X115886535Y-75820500D01*
X116093466Y-75820500D01*
X116093467Y-75820499D01*
X116296420Y-75780130D01*
X116487598Y-75700941D01*
X116659655Y-75585977D01*
X116805977Y-75439655D01*
X116920941Y-75267598D01*
X117000130Y-75076420D01*
X117040500Y-74873465D01*
X117040500Y-74666535D01*
X117040499Y-74666530D01*
X120019500Y-74666530D01*
X120019500Y-74873469D01*
X120059868Y-75076412D01*
X120059870Y-75076420D01*
X120139058Y-75267596D01*
X120254024Y-75439657D01*
X120400342Y-75585975D01*
X120400345Y-75585977D01*
X120572402Y-75700941D01*
X120763580Y-75780130D01*
X120908052Y-75808867D01*
X120966530Y-75820499D01*
X120966534Y-75820500D01*
X120966535Y-75820500D01*
X121173466Y-75820500D01*
X121173467Y-75820499D01*
X121376420Y-75780130D01*
X121567598Y-75700941D01*
X121739655Y-75585977D01*
X121885977Y-75439655D01*
X122000941Y-75267598D01*
X122080130Y-75076420D01*
X122120500Y-74873465D01*
X122120500Y-74666535D01*
X122120499Y-74666530D01*
X122559500Y-74666530D01*
X122559500Y-74873469D01*
X122599868Y-75076412D01*
X122599870Y-75076420D01*
X122679058Y-75267596D01*
X122794024Y-75439657D01*
X122940342Y-75585975D01*
X122940345Y-75585977D01*
X123112402Y-75700941D01*
X123303580Y-75780130D01*
X123448052Y-75808867D01*
X123506530Y-75820499D01*
X123506534Y-75820500D01*
X123506535Y-75820500D01*
X123713466Y-75820500D01*
X123713467Y-75820499D01*
X123916420Y-75780130D01*
X124107598Y-75700941D01*
X124279655Y-75585977D01*
X124425977Y-75439655D01*
X124540941Y-75267598D01*
X124620130Y-75076420D01*
X124660500Y-74873465D01*
X124660500Y-74666535D01*
X124660499Y-74666530D01*
X125099500Y-74666530D01*
X125099500Y-74873469D01*
X125139868Y-75076412D01*
X125139870Y-75076420D01*
X125219058Y-75267596D01*
X125334024Y-75439657D01*
X125480342Y-75585975D01*
X125480345Y-75585977D01*
X125652402Y-75700941D01*
X125843580Y-75780130D01*
X125988052Y-75808867D01*
X126046530Y-75820499D01*
X126046534Y-75820500D01*
X126046535Y-75820500D01*
X126253466Y-75820500D01*
X126253467Y-75820499D01*
X126456420Y-75780130D01*
X126647598Y-75700941D01*
X126819655Y-75585977D01*
X126965977Y-75439655D01*
X127080941Y-75267598D01*
X127160130Y-75076420D01*
X127200500Y-74873465D01*
X127200500Y-74666535D01*
X127200499Y-74666530D01*
X127639500Y-74666530D01*
X127639500Y-74873469D01*
X127679868Y-75076412D01*
X127679870Y-75076420D01*
X127759058Y-75267596D01*
X127874024Y-75439657D01*
X128020342Y-75585975D01*
X128020345Y-75585977D01*
X128192402Y-75700941D01*
X128383580Y-75780130D01*
X128528052Y-75808867D01*
X128586530Y-75820499D01*
X128586534Y-75820500D01*
X128586535Y-75820500D01*
X128793466Y-75820500D01*
X128793467Y-75820499D01*
X128996420Y-75780130D01*
X129187598Y-75700941D01*
X129359655Y-75585977D01*
X129505977Y-75439655D01*
X129620941Y-75267598D01*
X129700130Y-75076420D01*
X129740500Y-74873465D01*
X129740500Y-74666535D01*
X129740499Y-74666530D01*
X130179500Y-74666530D01*
X130179500Y-74873469D01*
X130219868Y-75076412D01*
X130219870Y-75076420D01*
X130299058Y-75267596D01*
X130414024Y-75439657D01*
X130560342Y-75585975D01*
X130560345Y-75585977D01*
X130732402Y-75700941D01*
X130923580Y-75780130D01*
X131068052Y-75808867D01*
X131126530Y-75820499D01*
X131126534Y-75820500D01*
X131126535Y-75820500D01*
X131333466Y-75820500D01*
X131333467Y-75820499D01*
X131536420Y-75780130D01*
X131727598Y-75700941D01*
X131727599Y-75700940D01*
X131727600Y-75700940D01*
X131886610Y-75594694D01*
X131953287Y-75573816D01*
X132020667Y-75592301D01*
X132067357Y-75644280D01*
X132079500Y-75697796D01*
X132079500Y-77591324D01*
X132059815Y-77658363D01*
X132043181Y-77679005D01*
X132029502Y-77692683D01*
X132029500Y-77692686D01*
X131963608Y-77806812D01*
X131929500Y-77934108D01*
X131929500Y-78065891D01*
X131963608Y-78193187D01*
X131978925Y-78219716D01*
X132029500Y-78307314D01*
X132122686Y-78400500D01*
X132236814Y-78466392D01*
X132364108Y-78500500D01*
X132364110Y-78500500D01*
X132495890Y-78500500D01*
X132495892Y-78500500D01*
X132623186Y-78466392D01*
X132737314Y-78400500D01*
X132830500Y-78307314D01*
X132896392Y-78193186D01*
X132930500Y-78065892D01*
X132930500Y-77934108D01*
X132896392Y-77806814D01*
X132830500Y-77692686D01*
X132816819Y-77679005D01*
X132802115Y-77652077D01*
X132785523Y-77626259D01*
X132784631Y-77620058D01*
X132783334Y-77617682D01*
X132780500Y-77591324D01*
X132780500Y-77564071D01*
X145349499Y-77564071D01*
X145374497Y-77689738D01*
X145374499Y-77689744D01*
X145423533Y-77808124D01*
X145423538Y-77808133D01*
X145494723Y-77914668D01*
X145494725Y-77914671D01*
X145513179Y-77933124D01*
X145546666Y-77994446D01*
X145549500Y-78020807D01*
X145549500Y-78429309D01*
X145559437Y-78466392D01*
X145568576Y-78500500D01*
X145568576Y-78500501D01*
X145580199Y-78543885D01*
X145615440Y-78604922D01*
X145639511Y-78646614D01*
X145639513Y-78646616D01*
X146313181Y-79320284D01*
X146346666Y-79381607D01*
X146349500Y-79407965D01*
X146349500Y-79434069D01*
X146349500Y-79434071D01*
X146349499Y-79434071D01*
X146374497Y-79559738D01*
X146374499Y-79559744D01*
X146423533Y-79678124D01*
X146423538Y-79678133D01*
X146494723Y-79784668D01*
X146494726Y-79784672D01*
X146585327Y-79875273D01*
X146585331Y-79875276D01*
X146691866Y-79946461D01*
X146691872Y-79946464D01*
X146691873Y-79946465D01*
X146810256Y-79995501D01*
X146810260Y-79995501D01*
X146810261Y-79995502D01*
X146935928Y-80020500D01*
X146935931Y-80020500D01*
X147064071Y-80020500D01*
X147148615Y-80003682D01*
X147189744Y-79995501D01*
X147308127Y-79946465D01*
X147414669Y-79875276D01*
X147505276Y-79784669D01*
X147576465Y-79678127D01*
X147625501Y-79559744D01*
X147640411Y-79484788D01*
X147650500Y-79434071D01*
X147650500Y-79305928D01*
X147625502Y-79180261D01*
X147625501Y-79180260D01*
X147625501Y-79180256D01*
X147576465Y-79061873D01*
X147576464Y-79061872D01*
X147576461Y-79061866D01*
X147505276Y-78955331D01*
X147505273Y-78955327D01*
X147414672Y-78864726D01*
X147414668Y-78864723D01*
X147308133Y-78793538D01*
X147308124Y-78793533D01*
X147189744Y-78744499D01*
X147189738Y-78744497D01*
X147064071Y-78719500D01*
X147064069Y-78719500D01*
X147037965Y-78719500D01*
X146970926Y-78699815D01*
X146950284Y-78683181D01*
X146486819Y-78219716D01*
X146453334Y-78158393D01*
X146450500Y-78132035D01*
X146450500Y-78020807D01*
X146470185Y-77953768D01*
X146486821Y-77933124D01*
X146505274Y-77914671D01*
X146505276Y-77914669D01*
X146576465Y-77808127D01*
X146625501Y-77689744D01*
X146639363Y-77620058D01*
X146650500Y-77564071D01*
X146650500Y-77435928D01*
X146625502Y-77310261D01*
X146625501Y-77310260D01*
X146625501Y-77310256D01*
X146576465Y-77191873D01*
X146576464Y-77191872D01*
X146576461Y-77191866D01*
X146505276Y-77085331D01*
X146505273Y-77085327D01*
X146414672Y-76994726D01*
X146414668Y-76994723D01*
X146308133Y-76923538D01*
X146308124Y-76923533D01*
X146189744Y-76874499D01*
X146189738Y-76874497D01*
X146064071Y-76849500D01*
X146064069Y-76849500D01*
X145935931Y-76849500D01*
X145935929Y-76849500D01*
X145810261Y-76874497D01*
X145810255Y-76874499D01*
X145691875Y-76923533D01*
X145691866Y-76923538D01*
X145585331Y-76994723D01*
X145585327Y-76994726D01*
X145494726Y-77085327D01*
X145494723Y-77085331D01*
X145423538Y-77191866D01*
X145423533Y-77191875D01*
X145374499Y-77310255D01*
X145374497Y-77310261D01*
X145349500Y-77435928D01*
X145349500Y-77435931D01*
X145349500Y-77564069D01*
X145349500Y-77564071D01*
X145349499Y-77564071D01*
X132780500Y-77564071D01*
X132780500Y-76234108D01*
X154839500Y-76234108D01*
X154839500Y-76365892D01*
X154856554Y-76429539D01*
X154873608Y-76493187D01*
X154878746Y-76502086D01*
X154939500Y-76607314D01*
X154939502Y-76607316D01*
X155003181Y-76670995D01*
X155036666Y-76732318D01*
X155039500Y-76758676D01*
X155039500Y-80879562D01*
X155048155Y-80911862D01*
X155059978Y-80955988D01*
X155062543Y-80960429D01*
X155062545Y-80960438D01*
X155062547Y-80960438D01*
X155099535Y-81024504D01*
X155099541Y-81024512D01*
X158163181Y-84088152D01*
X158196666Y-84149475D01*
X158199500Y-84175833D01*
X158199500Y-89400156D01*
X158179815Y-89467195D01*
X158144391Y-89503258D01*
X158101577Y-89531865D01*
X158101573Y-89531868D01*
X158010972Y-89622469D01*
X158010969Y-89622473D01*
X157939784Y-89729008D01*
X157939779Y-89729017D01*
X157890745Y-89847397D01*
X157890743Y-89847403D01*
X157865746Y-89973070D01*
X157865746Y-89973073D01*
X157865746Y-90101211D01*
X157865746Y-90101213D01*
X157865745Y-90101213D01*
X157890743Y-90226880D01*
X157890745Y-90226886D01*
X157939779Y-90345266D01*
X157939784Y-90345275D01*
X158010969Y-90451810D01*
X158010972Y-90451814D01*
X158101573Y-90542415D01*
X158101577Y-90542418D01*
X158208112Y-90613603D01*
X158208118Y-90613606D01*
X158208119Y-90613607D01*
X158326502Y-90662643D01*
X158326506Y-90662643D01*
X158326507Y-90662644D01*
X158452174Y-90687642D01*
X158452177Y-90687642D01*
X158580317Y-90687642D01*
X158664861Y-90670824D01*
X158705990Y-90662643D01*
X158824373Y-90613607D01*
X158930915Y-90542418D01*
X159021522Y-90451811D01*
X159092711Y-90345269D01*
X159141747Y-90226886D01*
X159161914Y-90125502D01*
X159166746Y-90101213D01*
X159166746Y-89973070D01*
X159141748Y-89847403D01*
X159141747Y-89847402D01*
X159141747Y-89847398D01*
X159092711Y-89729015D01*
X159092710Y-89729014D01*
X159092707Y-89729008D01*
X159021522Y-89622473D01*
X159021519Y-89622469D01*
X158930915Y-89531865D01*
X158855609Y-89481548D01*
X158810804Y-89427936D01*
X158800500Y-89378446D01*
X158800500Y-83960440D01*
X158800500Y-83960438D01*
X158780022Y-83884012D01*
X158740460Y-83815489D01*
X155684511Y-80759540D01*
X155676819Y-80751848D01*
X155643334Y-80690525D01*
X155640500Y-80664167D01*
X155640500Y-76758676D01*
X155660185Y-76691637D01*
X155676819Y-76670995D01*
X155697320Y-76650494D01*
X155740500Y-76607314D01*
X155806392Y-76493186D01*
X155840500Y-76365892D01*
X155840500Y-76234108D01*
X155806392Y-76106814D01*
X155740500Y-75992686D01*
X155647314Y-75899500D01*
X155590250Y-75866554D01*
X155533187Y-75833608D01*
X155440850Y-75808867D01*
X155405892Y-75799500D01*
X155274108Y-75799500D01*
X155146812Y-75833608D01*
X155032686Y-75899500D01*
X155032683Y-75899502D01*
X154939502Y-75992683D01*
X154939500Y-75992686D01*
X154873608Y-76106812D01*
X154857778Y-76165892D01*
X154839500Y-76234108D01*
X132780500Y-76234108D01*
X132780500Y-75565495D01*
X132800185Y-75498456D01*
X132852989Y-75452701D01*
X132922147Y-75442757D01*
X132985703Y-75471782D01*
X132992181Y-75477814D01*
X133100342Y-75585975D01*
X133100345Y-75585977D01*
X133272402Y-75700941D01*
X133463580Y-75780130D01*
X133608052Y-75808867D01*
X133666530Y-75820499D01*
X133666534Y-75820500D01*
X133666535Y-75820500D01*
X133873466Y-75820500D01*
X133873467Y-75820499D01*
X134076420Y-75780130D01*
X134267598Y-75700941D01*
X134439655Y-75585977D01*
X134585977Y-75439655D01*
X134700941Y-75267598D01*
X134780130Y-75076420D01*
X134820500Y-74873465D01*
X134820500Y-74666535D01*
X134820499Y-74666530D01*
X135259500Y-74666530D01*
X135259500Y-74873469D01*
X135299868Y-75076412D01*
X135299870Y-75076420D01*
X135379058Y-75267596D01*
X135494024Y-75439657D01*
X135640342Y-75585975D01*
X135640345Y-75585977D01*
X135812402Y-75700941D01*
X136003580Y-75780130D01*
X136148052Y-75808867D01*
X136206530Y-75820499D01*
X136206534Y-75820500D01*
X136206535Y-75820500D01*
X136413466Y-75820500D01*
X136413467Y-75820499D01*
X136616420Y-75780130D01*
X136807598Y-75700941D01*
X136979655Y-75585977D01*
X137125977Y-75439655D01*
X137240941Y-75267598D01*
X137320130Y-75076420D01*
X137360500Y-74873465D01*
X137360500Y-74666535D01*
X137360499Y-74666530D01*
X140339500Y-74666530D01*
X140339500Y-74873469D01*
X140379868Y-75076412D01*
X140379870Y-75076420D01*
X140459058Y-75267596D01*
X140574024Y-75439657D01*
X140720342Y-75585975D01*
X140720345Y-75585977D01*
X140892402Y-75700941D01*
X141083580Y-75780130D01*
X141228052Y-75808867D01*
X141286530Y-75820499D01*
X141286534Y-75820500D01*
X141286535Y-75820500D01*
X141493466Y-75820500D01*
X141493467Y-75820499D01*
X141696420Y-75780130D01*
X141887598Y-75700941D01*
X142059655Y-75585977D01*
X142205977Y-75439655D01*
X142320941Y-75267598D01*
X142400130Y-75076420D01*
X142440500Y-74873465D01*
X142440500Y-74666535D01*
X142440499Y-74666530D01*
X142879500Y-74666530D01*
X142879500Y-74873469D01*
X142919868Y-75076412D01*
X142919870Y-75076420D01*
X142999058Y-75267596D01*
X143114024Y-75439657D01*
X143260342Y-75585975D01*
X143260345Y-75585977D01*
X143432402Y-75700941D01*
X143623580Y-75780130D01*
X143768052Y-75808867D01*
X143826530Y-75820499D01*
X143826534Y-75820500D01*
X143826535Y-75820500D01*
X144033466Y-75820500D01*
X144033467Y-75820499D01*
X144236420Y-75780130D01*
X144427598Y-75700941D01*
X144599655Y-75585977D01*
X144745977Y-75439655D01*
X144860941Y-75267598D01*
X144940130Y-75076420D01*
X144980500Y-74873465D01*
X144980500Y-74666535D01*
X144980499Y-74666530D01*
X145419500Y-74666530D01*
X145419500Y-74873469D01*
X145459868Y-75076412D01*
X145459870Y-75076420D01*
X145539058Y-75267596D01*
X145654024Y-75439657D01*
X145800342Y-75585975D01*
X145800345Y-75585977D01*
X145972402Y-75700941D01*
X146163580Y-75780130D01*
X146308052Y-75808867D01*
X146366530Y-75820499D01*
X146366534Y-75820500D01*
X146366535Y-75820500D01*
X146573466Y-75820500D01*
X146573467Y-75820499D01*
X146776420Y-75780130D01*
X146967598Y-75700941D01*
X147139655Y-75585977D01*
X147285977Y-75439655D01*
X147400941Y-75267598D01*
X147480130Y-75076420D01*
X147520500Y-74873465D01*
X147520500Y-74666535D01*
X147520499Y-74666530D01*
X147959500Y-74666530D01*
X147959500Y-74873469D01*
X147999868Y-75076412D01*
X147999870Y-75076420D01*
X148079058Y-75267596D01*
X148194024Y-75439657D01*
X148340342Y-75585975D01*
X148340345Y-75585977D01*
X148512402Y-75700941D01*
X148703580Y-75780130D01*
X148848052Y-75808867D01*
X148906530Y-75820499D01*
X148906534Y-75820500D01*
X148906535Y-75820500D01*
X149113466Y-75820500D01*
X149113467Y-75820499D01*
X149316420Y-75780130D01*
X149507598Y-75700941D01*
X149679655Y-75585977D01*
X149825977Y-75439655D01*
X149940941Y-75267598D01*
X150020130Y-75076420D01*
X150060500Y-74873465D01*
X150060500Y-74666535D01*
X150060499Y-74666530D01*
X150499500Y-74666530D01*
X150499500Y-74873469D01*
X150539868Y-75076412D01*
X150539870Y-75076420D01*
X150619058Y-75267596D01*
X150734024Y-75439657D01*
X150880342Y-75585975D01*
X150880345Y-75585977D01*
X151052402Y-75700941D01*
X151243580Y-75780130D01*
X151388052Y-75808867D01*
X151446530Y-75820499D01*
X151446534Y-75820500D01*
X151446535Y-75820500D01*
X151653466Y-75820500D01*
X151653467Y-75820499D01*
X151856420Y-75780130D01*
X152047598Y-75700941D01*
X152219655Y-75585977D01*
X152365977Y-75439655D01*
X152480941Y-75267598D01*
X152560130Y-75076420D01*
X152600500Y-74873465D01*
X152600500Y-74666535D01*
X152600499Y-74666530D01*
X153039500Y-74666530D01*
X153039500Y-74873469D01*
X153079868Y-75076412D01*
X153079870Y-75076420D01*
X153159058Y-75267596D01*
X153274024Y-75439657D01*
X153420342Y-75585975D01*
X153420345Y-75585977D01*
X153592402Y-75700941D01*
X153783580Y-75780130D01*
X153928052Y-75808867D01*
X153986530Y-75820499D01*
X153986534Y-75820500D01*
X153986535Y-75820500D01*
X154193466Y-75820500D01*
X154193467Y-75820499D01*
X154396420Y-75780130D01*
X154587598Y-75700941D01*
X154759655Y-75585977D01*
X154905977Y-75439655D01*
X155020941Y-75267598D01*
X155100130Y-75076420D01*
X155140500Y-74873465D01*
X155140500Y-74666535D01*
X155100130Y-74463580D01*
X155020941Y-74272402D01*
X154905977Y-74100345D01*
X154905975Y-74100342D01*
X154759657Y-73954024D01*
X154673626Y-73896541D01*
X154587598Y-73839059D01*
X154396420Y-73759870D01*
X154396412Y-73759868D01*
X154193469Y-73719500D01*
X154193465Y-73719500D01*
X153986535Y-73719500D01*
X153986530Y-73719500D01*
X153783587Y-73759868D01*
X153783579Y-73759870D01*
X153592403Y-73839058D01*
X153420342Y-73954024D01*
X153274024Y-74100342D01*
X153159058Y-74272403D01*
X153079870Y-74463579D01*
X153079868Y-74463587D01*
X153039500Y-74666530D01*
X152600499Y-74666530D01*
X152560130Y-74463580D01*
X152480941Y-74272402D01*
X152365977Y-74100345D01*
X152365975Y-74100342D01*
X152219657Y-73954024D01*
X152133626Y-73896541D01*
X152047598Y-73839059D01*
X151856420Y-73759870D01*
X151856412Y-73759868D01*
X151653469Y-73719500D01*
X151653465Y-73719500D01*
X151446535Y-73719500D01*
X151446530Y-73719500D01*
X151243587Y-73759868D01*
X151243579Y-73759870D01*
X151052403Y-73839058D01*
X150880342Y-73954024D01*
X150734024Y-74100342D01*
X150619058Y-74272403D01*
X150539870Y-74463579D01*
X150539868Y-74463587D01*
X150499500Y-74666530D01*
X150060499Y-74666530D01*
X150020130Y-74463580D01*
X149940941Y-74272402D01*
X149825977Y-74100345D01*
X149825975Y-74100342D01*
X149679657Y-73954024D01*
X149593626Y-73896541D01*
X149507598Y-73839059D01*
X149316420Y-73759870D01*
X149316412Y-73759868D01*
X149113469Y-73719500D01*
X149113465Y-73719500D01*
X148906535Y-73719500D01*
X148906530Y-73719500D01*
X148703587Y-73759868D01*
X148703579Y-73759870D01*
X148512403Y-73839058D01*
X148340342Y-73954024D01*
X148194024Y-74100342D01*
X148079058Y-74272403D01*
X147999870Y-74463579D01*
X147999868Y-74463587D01*
X147959500Y-74666530D01*
X147520499Y-74666530D01*
X147480130Y-74463580D01*
X147400941Y-74272402D01*
X147285977Y-74100345D01*
X147285975Y-74100342D01*
X147139657Y-73954024D01*
X147053626Y-73896541D01*
X146967598Y-73839059D01*
X146776420Y-73759870D01*
X146776412Y-73759868D01*
X146573469Y-73719500D01*
X146573465Y-73719500D01*
X146366535Y-73719500D01*
X146366530Y-73719500D01*
X146163587Y-73759868D01*
X146163579Y-73759870D01*
X145972403Y-73839058D01*
X145800342Y-73954024D01*
X145654024Y-74100342D01*
X145539058Y-74272403D01*
X145459870Y-74463579D01*
X145459868Y-74463587D01*
X145419500Y-74666530D01*
X144980499Y-74666530D01*
X144940130Y-74463580D01*
X144860941Y-74272402D01*
X144745977Y-74100345D01*
X144745975Y-74100342D01*
X144599657Y-73954024D01*
X144513626Y-73896541D01*
X144427598Y-73839059D01*
X144236420Y-73759870D01*
X144236412Y-73759868D01*
X144033469Y-73719500D01*
X144033465Y-73719500D01*
X143826535Y-73719500D01*
X143826530Y-73719500D01*
X143623587Y-73759868D01*
X143623579Y-73759870D01*
X143432403Y-73839058D01*
X143260342Y-73954024D01*
X143114024Y-74100342D01*
X142999058Y-74272403D01*
X142919870Y-74463579D01*
X142919868Y-74463587D01*
X142879500Y-74666530D01*
X142440499Y-74666530D01*
X142400130Y-74463580D01*
X142320941Y-74272402D01*
X142205977Y-74100345D01*
X142205975Y-74100342D01*
X142059657Y-73954024D01*
X141973626Y-73896541D01*
X141887598Y-73839059D01*
X141696420Y-73759870D01*
X141696412Y-73759868D01*
X141493469Y-73719500D01*
X141493465Y-73719500D01*
X141286535Y-73719500D01*
X141286530Y-73719500D01*
X141083587Y-73759868D01*
X141083579Y-73759870D01*
X140892403Y-73839058D01*
X140720342Y-73954024D01*
X140574024Y-74100342D01*
X140459058Y-74272403D01*
X140379870Y-74463579D01*
X140379868Y-74463587D01*
X140339500Y-74666530D01*
X137360499Y-74666530D01*
X137320130Y-74463580D01*
X137240941Y-74272402D01*
X137125977Y-74100345D01*
X137125975Y-74100342D01*
X136979657Y-73954024D01*
X136893626Y-73896541D01*
X136807598Y-73839059D01*
X136616420Y-73759870D01*
X136616412Y-73759868D01*
X136413469Y-73719500D01*
X136413465Y-73719500D01*
X136206535Y-73719500D01*
X136206530Y-73719500D01*
X136003587Y-73759868D01*
X136003579Y-73759870D01*
X135812403Y-73839058D01*
X135640342Y-73954024D01*
X135494024Y-74100342D01*
X135379058Y-74272403D01*
X135299870Y-74463579D01*
X135299868Y-74463587D01*
X135259500Y-74666530D01*
X134820499Y-74666530D01*
X134780130Y-74463580D01*
X134700941Y-74272402D01*
X134585977Y-74100345D01*
X134585975Y-74100342D01*
X134439657Y-73954024D01*
X134353626Y-73896541D01*
X134267598Y-73839059D01*
X134076420Y-73759870D01*
X134076412Y-73759868D01*
X133873469Y-73719500D01*
X133873465Y-73719500D01*
X133666535Y-73719500D01*
X133666530Y-73719500D01*
X133463587Y-73759868D01*
X133463579Y-73759870D01*
X133272403Y-73839058D01*
X133100342Y-73954024D01*
X133100341Y-73954025D01*
X132992181Y-74062186D01*
X132930858Y-74095671D01*
X132861166Y-74090687D01*
X132805233Y-74048815D01*
X132780816Y-73983351D01*
X132780500Y-73974505D01*
X132780500Y-73766543D01*
X132800185Y-73699504D01*
X132816815Y-73678866D01*
X133101968Y-73393712D01*
X160149500Y-73393712D01*
X160149500Y-73606286D01*
X160176292Y-73775448D01*
X160182754Y-73816243D01*
X160227522Y-73954025D01*
X160248444Y-74018414D01*
X160344951Y-74207820D01*
X160469890Y-74379786D01*
X160620213Y-74530109D01*
X160792179Y-74655048D01*
X160792181Y-74655049D01*
X160792184Y-74655051D01*
X160981588Y-74751557D01*
X161183757Y-74817246D01*
X161393713Y-74850500D01*
X161393714Y-74850500D01*
X161606286Y-74850500D01*
X161606287Y-74850500D01*
X161816243Y-74817246D01*
X162018412Y-74751557D01*
X162207816Y-74655051D01*
X162229789Y-74639086D01*
X162379786Y-74530109D01*
X162379788Y-74530106D01*
X162379792Y-74530104D01*
X162530104Y-74379792D01*
X162530106Y-74379788D01*
X162530109Y-74379786D01*
X162655048Y-74207820D01*
X162655047Y-74207820D01*
X162655051Y-74207816D01*
X162751557Y-74018412D01*
X162817246Y-73816243D01*
X162850500Y-73606287D01*
X162850500Y-73393713D01*
X162817246Y-73183757D01*
X162751557Y-72981588D01*
X162655051Y-72792184D01*
X162655049Y-72792181D01*
X162655048Y-72792179D01*
X162530109Y-72620213D01*
X162379786Y-72469890D01*
X162207820Y-72344951D01*
X162018414Y-72248444D01*
X162018413Y-72248443D01*
X162018412Y-72248443D01*
X161816243Y-72182754D01*
X161816241Y-72182753D01*
X161816240Y-72182753D01*
X161654957Y-72157208D01*
X161606287Y-72149500D01*
X161393713Y-72149500D01*
X161345042Y-72157208D01*
X161183760Y-72182753D01*
X160981585Y-72248444D01*
X160792179Y-72344951D01*
X160620213Y-72469890D01*
X160469890Y-72620213D01*
X160344951Y-72792179D01*
X160248444Y-72981585D01*
X160182753Y-73183760D01*
X160149500Y-73393712D01*
X133101968Y-73393712D01*
X133257896Y-73237784D01*
X133319217Y-73204301D01*
X133388908Y-73209285D01*
X133393028Y-73210906D01*
X133463580Y-73240130D01*
X133599792Y-73267224D01*
X133666530Y-73280499D01*
X133666534Y-73280500D01*
X133666535Y-73280500D01*
X133873466Y-73280500D01*
X133873467Y-73280499D01*
X134076420Y-73240130D01*
X134267598Y-73160941D01*
X134439655Y-73045977D01*
X134585977Y-72899655D01*
X134700941Y-72727598D01*
X134780130Y-72536420D01*
X134820500Y-72333465D01*
X134820500Y-72126535D01*
X134820499Y-72126530D01*
X135259500Y-72126530D01*
X135259500Y-72333469D01*
X135299868Y-72536412D01*
X135299870Y-72536420D01*
X135357868Y-72676440D01*
X135379059Y-72727598D01*
X135388752Y-72742104D01*
X135494024Y-72899657D01*
X135640342Y-73045975D01*
X135640345Y-73045977D01*
X135812402Y-73160941D01*
X136003580Y-73240130D01*
X136139792Y-73267224D01*
X136206530Y-73280499D01*
X136206534Y-73280500D01*
X136206535Y-73280500D01*
X136413466Y-73280500D01*
X136413467Y-73280499D01*
X136616420Y-73240130D01*
X136807598Y-73160941D01*
X136979655Y-73045977D01*
X137125977Y-72899655D01*
X137240941Y-72727598D01*
X137320130Y-72536420D01*
X137360500Y-72333465D01*
X137360500Y-72126535D01*
X137360499Y-72126530D01*
X137799500Y-72126530D01*
X137799500Y-72333469D01*
X137839868Y-72536412D01*
X137839870Y-72536420D01*
X137897868Y-72676440D01*
X137919059Y-72727598D01*
X137928752Y-72742104D01*
X138034024Y-72899657D01*
X138180342Y-73045975D01*
X138180345Y-73045977D01*
X138352402Y-73160941D01*
X138543580Y-73240130D01*
X138679792Y-73267224D01*
X138746530Y-73280499D01*
X138746534Y-73280500D01*
X138746535Y-73280500D01*
X138953466Y-73280500D01*
X138953467Y-73280499D01*
X139156420Y-73240130D01*
X139347598Y-73160941D01*
X139519655Y-73045977D01*
X139665977Y-72899655D01*
X139780941Y-72727598D01*
X139860130Y-72536420D01*
X139900500Y-72333465D01*
X139900500Y-72126535D01*
X139900499Y-72126530D01*
X140339500Y-72126530D01*
X140339500Y-72333469D01*
X140379868Y-72536412D01*
X140379870Y-72536420D01*
X140437868Y-72676440D01*
X140459059Y-72727598D01*
X140468752Y-72742104D01*
X140574024Y-72899657D01*
X140720342Y-73045975D01*
X140720345Y-73045977D01*
X140892402Y-73160941D01*
X141083580Y-73240130D01*
X141219792Y-73267224D01*
X141286530Y-73280499D01*
X141286534Y-73280500D01*
X141286535Y-73280500D01*
X141493466Y-73280500D01*
X141493467Y-73280499D01*
X141696420Y-73240130D01*
X141887598Y-73160941D01*
X142059655Y-73045977D01*
X142205977Y-72899655D01*
X142320941Y-72727598D01*
X142400130Y-72536420D01*
X142440500Y-72333465D01*
X142440500Y-72126535D01*
X142440499Y-72126530D01*
X145419500Y-72126530D01*
X145419500Y-72333469D01*
X145459868Y-72536412D01*
X145459870Y-72536420D01*
X145517868Y-72676440D01*
X145539059Y-72727598D01*
X145548752Y-72742104D01*
X145654024Y-72899657D01*
X145800342Y-73045975D01*
X145800345Y-73045977D01*
X145972402Y-73160941D01*
X146163580Y-73240130D01*
X146299792Y-73267224D01*
X146366530Y-73280499D01*
X146366534Y-73280500D01*
X146366535Y-73280500D01*
X146573466Y-73280500D01*
X146573467Y-73280499D01*
X146776420Y-73240130D01*
X146967598Y-73160941D01*
X147139655Y-73045977D01*
X147285977Y-72899655D01*
X147400941Y-72727598D01*
X147480130Y-72536420D01*
X147520500Y-72333465D01*
X147520500Y-72126535D01*
X147520499Y-72126530D01*
X150499500Y-72126530D01*
X150499500Y-72333469D01*
X150539868Y-72536412D01*
X150539870Y-72536420D01*
X150597868Y-72676440D01*
X150619059Y-72727598D01*
X150628752Y-72742104D01*
X150734024Y-72899657D01*
X150880342Y-73045975D01*
X150880345Y-73045977D01*
X151052402Y-73160941D01*
X151243580Y-73240130D01*
X151379792Y-73267224D01*
X151446530Y-73280499D01*
X151446534Y-73280500D01*
X151446535Y-73280500D01*
X151653466Y-73280500D01*
X151653467Y-73280499D01*
X151856420Y-73240130D01*
X152047598Y-73160941D01*
X152219655Y-73045977D01*
X152365977Y-72899655D01*
X152480941Y-72727598D01*
X152560130Y-72536420D01*
X152600500Y-72333465D01*
X152600500Y-72126535D01*
X152600499Y-72126530D01*
X153039500Y-72126530D01*
X153039500Y-72333469D01*
X153079868Y-72536412D01*
X153079870Y-72536420D01*
X153137868Y-72676440D01*
X153159059Y-72727598D01*
X153168752Y-72742104D01*
X153274024Y-72899657D01*
X153420342Y-73045975D01*
X153420345Y-73045977D01*
X153592402Y-73160941D01*
X153783580Y-73240130D01*
X153919792Y-73267224D01*
X153986530Y-73280499D01*
X153986534Y-73280500D01*
X153986535Y-73280500D01*
X154193466Y-73280500D01*
X154193467Y-73280499D01*
X154396420Y-73240130D01*
X154587598Y-73160941D01*
X154759655Y-73045977D01*
X154905977Y-72899655D01*
X155020941Y-72727598D01*
X155100130Y-72536420D01*
X155140500Y-72333465D01*
X155140500Y-72126535D01*
X155140499Y-72126530D01*
X155579500Y-72126530D01*
X155579500Y-72333469D01*
X155619868Y-72536412D01*
X155619870Y-72536420D01*
X155677868Y-72676440D01*
X155699059Y-72727598D01*
X155708752Y-72742104D01*
X155814024Y-72899657D01*
X155960342Y-73045975D01*
X155960345Y-73045977D01*
X156132402Y-73160941D01*
X156323580Y-73240130D01*
X156459792Y-73267224D01*
X156526530Y-73280499D01*
X156526534Y-73280500D01*
X156526535Y-73280500D01*
X156733466Y-73280500D01*
X156733467Y-73280499D01*
X156752310Y-73276751D01*
X156800211Y-73267224D01*
X156863911Y-73254552D01*
X156936420Y-73240130D01*
X157127598Y-73160941D01*
X157299655Y-73045977D01*
X157445977Y-72899655D01*
X157560941Y-72727598D01*
X157640130Y-72536420D01*
X157680500Y-72333465D01*
X157680500Y-72126535D01*
X157640130Y-71923580D01*
X157560941Y-71732402D01*
X157445977Y-71560345D01*
X157445975Y-71560342D01*
X157299657Y-71414024D01*
X157183332Y-71336299D01*
X157127598Y-71299059D01*
X156936420Y-71219870D01*
X156936412Y-71219868D01*
X156733469Y-71179500D01*
X156733465Y-71179500D01*
X156526535Y-71179500D01*
X156526530Y-71179500D01*
X156323587Y-71219868D01*
X156323579Y-71219870D01*
X156132403Y-71299058D01*
X155960342Y-71414024D01*
X155814024Y-71560342D01*
X155699058Y-71732403D01*
X155619870Y-71923579D01*
X155619868Y-71923587D01*
X155579500Y-72126530D01*
X155140499Y-72126530D01*
X155100130Y-71923580D01*
X155020941Y-71732402D01*
X154905977Y-71560345D01*
X154905975Y-71560342D01*
X154759657Y-71414024D01*
X154643332Y-71336299D01*
X154587598Y-71299059D01*
X154396420Y-71219870D01*
X154396412Y-71219868D01*
X154193469Y-71179500D01*
X154193465Y-71179500D01*
X153986535Y-71179500D01*
X153986530Y-71179500D01*
X153783587Y-71219868D01*
X153783579Y-71219870D01*
X153592403Y-71299058D01*
X153420342Y-71414024D01*
X153274024Y-71560342D01*
X153159058Y-71732403D01*
X153079870Y-71923579D01*
X153079868Y-71923587D01*
X153039500Y-72126530D01*
X152600499Y-72126530D01*
X152560130Y-71923580D01*
X152480941Y-71732402D01*
X152365977Y-71560345D01*
X152365975Y-71560342D01*
X152219657Y-71414024D01*
X152103332Y-71336299D01*
X152047598Y-71299059D01*
X151856420Y-71219870D01*
X151856412Y-71219868D01*
X151653469Y-71179500D01*
X151653465Y-71179500D01*
X151446535Y-71179500D01*
X151446530Y-71179500D01*
X151243587Y-71219868D01*
X151243579Y-71219870D01*
X151052403Y-71299058D01*
X150880342Y-71414024D01*
X150734024Y-71560342D01*
X150619058Y-71732403D01*
X150539870Y-71923579D01*
X150539868Y-71923587D01*
X150499500Y-72126530D01*
X147520499Y-72126530D01*
X147480130Y-71923580D01*
X147400941Y-71732402D01*
X147285977Y-71560345D01*
X147285975Y-71560342D01*
X147139657Y-71414024D01*
X147023332Y-71336299D01*
X146967598Y-71299059D01*
X146776420Y-71219870D01*
X146776412Y-71219868D01*
X146573469Y-71179500D01*
X146573465Y-71179500D01*
X146366535Y-71179500D01*
X146366530Y-71179500D01*
X146163587Y-71219868D01*
X146163579Y-71219870D01*
X145972403Y-71299058D01*
X145800342Y-71414024D01*
X145654024Y-71560342D01*
X145539058Y-71732403D01*
X145459870Y-71923579D01*
X145459868Y-71923587D01*
X145419500Y-72126530D01*
X142440499Y-72126530D01*
X142400130Y-71923580D01*
X142320941Y-71732402D01*
X142205977Y-71560345D01*
X142205975Y-71560342D01*
X142059657Y-71414024D01*
X141943332Y-71336299D01*
X141887598Y-71299059D01*
X141696420Y-71219870D01*
X141696412Y-71219868D01*
X141493469Y-71179500D01*
X141493465Y-71179500D01*
X141286535Y-71179500D01*
X141286530Y-71179500D01*
X141083587Y-71219868D01*
X141083579Y-71219870D01*
X140892403Y-71299058D01*
X140720342Y-71414024D01*
X140574024Y-71560342D01*
X140459058Y-71732403D01*
X140379870Y-71923579D01*
X140379868Y-71923587D01*
X140339500Y-72126530D01*
X139900499Y-72126530D01*
X139860130Y-71923580D01*
X139780941Y-71732402D01*
X139665977Y-71560345D01*
X139665975Y-71560342D01*
X139519657Y-71414024D01*
X139403332Y-71336299D01*
X139347598Y-71299059D01*
X139156420Y-71219870D01*
X139156412Y-71219868D01*
X138953469Y-71179500D01*
X138953465Y-71179500D01*
X138746535Y-71179500D01*
X138746530Y-71179500D01*
X138543587Y-71219868D01*
X138543579Y-71219870D01*
X138352403Y-71299058D01*
X138180342Y-71414024D01*
X138034024Y-71560342D01*
X137919058Y-71732403D01*
X137839870Y-71923579D01*
X137839868Y-71923587D01*
X137799500Y-72126530D01*
X137360499Y-72126530D01*
X137320130Y-71923580D01*
X137240941Y-71732402D01*
X137125977Y-71560345D01*
X137125975Y-71560342D01*
X136979657Y-71414024D01*
X136863332Y-71336299D01*
X136807598Y-71299059D01*
X136616420Y-71219870D01*
X136616412Y-71219868D01*
X136413469Y-71179500D01*
X136413465Y-71179500D01*
X136206535Y-71179500D01*
X136206530Y-71179500D01*
X136003587Y-71219868D01*
X136003579Y-71219870D01*
X135812403Y-71299058D01*
X135640342Y-71414024D01*
X135494024Y-71560342D01*
X135379058Y-71732403D01*
X135299870Y-71923579D01*
X135299868Y-71923587D01*
X135259500Y-72126530D01*
X134820499Y-72126530D01*
X134780130Y-71923580D01*
X134700941Y-71732402D01*
X134585977Y-71560345D01*
X134585975Y-71560342D01*
X134439657Y-71414024D01*
X134323332Y-71336299D01*
X134267598Y-71299059D01*
X134076420Y-71219870D01*
X134076412Y-71219868D01*
X133873469Y-71179500D01*
X133873465Y-71179500D01*
X133666535Y-71179500D01*
X133666530Y-71179500D01*
X133463587Y-71219868D01*
X133463579Y-71219870D01*
X133272403Y-71299058D01*
X133100342Y-71414024D01*
X132954024Y-71560342D01*
X132839058Y-71732403D01*
X132759870Y-71923579D01*
X132759868Y-71923587D01*
X132719500Y-72126530D01*
X132719500Y-72333469D01*
X132759868Y-72536412D01*
X132759870Y-72536420D01*
X132789093Y-72606970D01*
X132796562Y-72676440D01*
X132765287Y-72738919D01*
X132762213Y-72742104D01*
X132149529Y-73354788D01*
X132127058Y-73393712D01*
X132127056Y-73393714D01*
X132103388Y-73434706D01*
X132103387Y-73434709D01*
X132079500Y-73523856D01*
X132079500Y-73842203D01*
X132059815Y-73909242D01*
X132007011Y-73954997D01*
X131937853Y-73964941D01*
X131886610Y-73945306D01*
X131780678Y-73874525D01*
X131727598Y-73839059D01*
X131536420Y-73759870D01*
X131536412Y-73759868D01*
X131333469Y-73719500D01*
X131333465Y-73719500D01*
X131126535Y-73719500D01*
X131126530Y-73719500D01*
X130923587Y-73759868D01*
X130923579Y-73759870D01*
X130732403Y-73839058D01*
X130560342Y-73954024D01*
X130414024Y-74100342D01*
X130299058Y-74272403D01*
X130219870Y-74463579D01*
X130219868Y-74463587D01*
X130179500Y-74666530D01*
X129740499Y-74666530D01*
X129700130Y-74463580D01*
X129620941Y-74272402D01*
X129505977Y-74100345D01*
X129505975Y-74100342D01*
X129359657Y-73954024D01*
X129273626Y-73896541D01*
X129187598Y-73839059D01*
X128996420Y-73759870D01*
X128996412Y-73759868D01*
X128793469Y-73719500D01*
X128793465Y-73719500D01*
X128586535Y-73719500D01*
X128586530Y-73719500D01*
X128383587Y-73759868D01*
X128383579Y-73759870D01*
X128192403Y-73839058D01*
X128020342Y-73954024D01*
X127874024Y-74100342D01*
X127759058Y-74272403D01*
X127679870Y-74463579D01*
X127679868Y-74463587D01*
X127639500Y-74666530D01*
X127200499Y-74666530D01*
X127160130Y-74463580D01*
X127080941Y-74272402D01*
X126965977Y-74100345D01*
X126965975Y-74100342D01*
X126819657Y-73954024D01*
X126733626Y-73896541D01*
X126647598Y-73839059D01*
X126456420Y-73759870D01*
X126456412Y-73759868D01*
X126253469Y-73719500D01*
X126253465Y-73719500D01*
X126046535Y-73719500D01*
X126046530Y-73719500D01*
X125843587Y-73759868D01*
X125843579Y-73759870D01*
X125652403Y-73839058D01*
X125480342Y-73954024D01*
X125334024Y-74100342D01*
X125219058Y-74272403D01*
X125139870Y-74463579D01*
X125139868Y-74463587D01*
X125099500Y-74666530D01*
X124660499Y-74666530D01*
X124620130Y-74463580D01*
X124540941Y-74272402D01*
X124425977Y-74100345D01*
X124425975Y-74100342D01*
X124279657Y-73954024D01*
X124193626Y-73896541D01*
X124107598Y-73839059D01*
X123916420Y-73759870D01*
X123916412Y-73759868D01*
X123713469Y-73719500D01*
X123713465Y-73719500D01*
X123506535Y-73719500D01*
X123506530Y-73719500D01*
X123303587Y-73759868D01*
X123303579Y-73759870D01*
X123112403Y-73839058D01*
X122940342Y-73954024D01*
X122794024Y-74100342D01*
X122679058Y-74272403D01*
X122599870Y-74463579D01*
X122599868Y-74463587D01*
X122559500Y-74666530D01*
X122120499Y-74666530D01*
X122080130Y-74463580D01*
X122000941Y-74272402D01*
X121885977Y-74100345D01*
X121885975Y-74100342D01*
X121739657Y-73954024D01*
X121653626Y-73896541D01*
X121567598Y-73839059D01*
X121376420Y-73759870D01*
X121376412Y-73759868D01*
X121173469Y-73719500D01*
X121173465Y-73719500D01*
X120966535Y-73719500D01*
X120966530Y-73719500D01*
X120763587Y-73759868D01*
X120763579Y-73759870D01*
X120572403Y-73839058D01*
X120400342Y-73954024D01*
X120254024Y-74100342D01*
X120139058Y-74272403D01*
X120059870Y-74463579D01*
X120059868Y-74463587D01*
X120019500Y-74666530D01*
X117040499Y-74666530D01*
X117000130Y-74463580D01*
X116920941Y-74272402D01*
X116805977Y-74100345D01*
X116805975Y-74100342D01*
X116659657Y-73954024D01*
X116573626Y-73896541D01*
X116487598Y-73839059D01*
X116296420Y-73759870D01*
X116296412Y-73759868D01*
X116093469Y-73719500D01*
X116093465Y-73719500D01*
X115886535Y-73719500D01*
X115886530Y-73719500D01*
X115683587Y-73759868D01*
X115683579Y-73759870D01*
X115492403Y-73839058D01*
X115320342Y-73954024D01*
X115174024Y-74100342D01*
X115059058Y-74272403D01*
X114979870Y-74463579D01*
X114979868Y-74463587D01*
X114939500Y-74666530D01*
X114500499Y-74666530D01*
X114460130Y-74463580D01*
X114380941Y-74272402D01*
X114265977Y-74100345D01*
X114265975Y-74100342D01*
X114119657Y-73954024D01*
X114033626Y-73896541D01*
X113947598Y-73839059D01*
X113756420Y-73759870D01*
X113756412Y-73759868D01*
X113553469Y-73719500D01*
X113553465Y-73719500D01*
X113346535Y-73719500D01*
X113346530Y-73719500D01*
X113143587Y-73759868D01*
X113143579Y-73759870D01*
X112952403Y-73839058D01*
X112780342Y-73954024D01*
X112634024Y-74100342D01*
X112519058Y-74272403D01*
X112439870Y-74463579D01*
X112439868Y-74463587D01*
X112399500Y-74666530D01*
X111960499Y-74666530D01*
X111920130Y-74463580D01*
X111840941Y-74272402D01*
X111725977Y-74100345D01*
X111725975Y-74100342D01*
X111579657Y-73954024D01*
X111493626Y-73896541D01*
X111407598Y-73839059D01*
X111216420Y-73759870D01*
X111216412Y-73759868D01*
X111013469Y-73719500D01*
X111013465Y-73719500D01*
X110806535Y-73719500D01*
X110806530Y-73719500D01*
X110603587Y-73759868D01*
X110603579Y-73759870D01*
X110412403Y-73839058D01*
X110240342Y-73954024D01*
X110094024Y-74100342D01*
X109979058Y-74272403D01*
X109899870Y-74463579D01*
X109899868Y-74463587D01*
X109859500Y-74666530D01*
X109420500Y-74666530D01*
X109420500Y-73900252D01*
X109420500Y-73900249D01*
X109420499Y-73900247D01*
X109408868Y-73841770D01*
X109408867Y-73841769D01*
X109364552Y-73775447D01*
X109298230Y-73731132D01*
X109298229Y-73731131D01*
X109239752Y-73719500D01*
X109239748Y-73719500D01*
X107500252Y-73719500D01*
X107500247Y-73719500D01*
X107441770Y-73731131D01*
X107441769Y-73731132D01*
X107375447Y-73775447D01*
X107331132Y-73841769D01*
X107331131Y-73841770D01*
X107319500Y-73900247D01*
X104789951Y-73900247D01*
X104817246Y-73816243D01*
X104850500Y-73606287D01*
X104850500Y-73393713D01*
X104817246Y-73183757D01*
X104751557Y-72981588D01*
X104655051Y-72792184D01*
X104655049Y-72792181D01*
X104655048Y-72792179D01*
X104530109Y-72620213D01*
X104379786Y-72469890D01*
X104207820Y-72344951D01*
X104018414Y-72248444D01*
X104018413Y-72248443D01*
X104018412Y-72248443D01*
X103816243Y-72182754D01*
X103816241Y-72182753D01*
X103816240Y-72182753D01*
X103654957Y-72157208D01*
X103606287Y-72149500D01*
X103393713Y-72149500D01*
X103345042Y-72157208D01*
X103183760Y-72182753D01*
X102981585Y-72248444D01*
X102792179Y-72344951D01*
X102620213Y-72469890D01*
X102469890Y-72620213D01*
X102344951Y-72792179D01*
X102248444Y-72981585D01*
X102182753Y-73183760D01*
X102149500Y-73393712D01*
X100050500Y-73393712D01*
X100050500Y-73003480D01*
X100050695Y-72996527D01*
X100059478Y-72840130D01*
X100068656Y-72676700D01*
X100070210Y-72662907D01*
X100123283Y-72350537D01*
X100126377Y-72336985D01*
X100151886Y-72248444D01*
X100187008Y-72126530D01*
X107319500Y-72126530D01*
X107319500Y-72333469D01*
X107359868Y-72536412D01*
X107359870Y-72536420D01*
X107417868Y-72676440D01*
X107439059Y-72727598D01*
X107448752Y-72742104D01*
X107554024Y-72899657D01*
X107700342Y-73045975D01*
X107700345Y-73045977D01*
X107872402Y-73160941D01*
X108063580Y-73240130D01*
X108199792Y-73267224D01*
X108266530Y-73280499D01*
X108266534Y-73280500D01*
X108266535Y-73280500D01*
X108473466Y-73280500D01*
X108473467Y-73280499D01*
X108676420Y-73240130D01*
X108867598Y-73160941D01*
X109039655Y-73045977D01*
X109185977Y-72899655D01*
X109300941Y-72727598D01*
X109380130Y-72536420D01*
X109420500Y-72333465D01*
X109420500Y-72126535D01*
X109420499Y-72126530D01*
X109859500Y-72126530D01*
X109859500Y-72333469D01*
X109899868Y-72536412D01*
X109899870Y-72536420D01*
X109957868Y-72676440D01*
X109979059Y-72727598D01*
X109988752Y-72742104D01*
X110094024Y-72899657D01*
X110240342Y-73045975D01*
X110240345Y-73045977D01*
X110412402Y-73160941D01*
X110603580Y-73240130D01*
X110739792Y-73267224D01*
X110806530Y-73280499D01*
X110806534Y-73280500D01*
X110806535Y-73280500D01*
X111013466Y-73280500D01*
X111013467Y-73280499D01*
X111216420Y-73240130D01*
X111407598Y-73160941D01*
X111579655Y-73045977D01*
X111725977Y-72899655D01*
X111840941Y-72727598D01*
X111920130Y-72536420D01*
X111960500Y-72333465D01*
X111960500Y-72126535D01*
X111960499Y-72126530D01*
X114939500Y-72126530D01*
X114939500Y-72333469D01*
X114979868Y-72536412D01*
X114979870Y-72536420D01*
X115037868Y-72676440D01*
X115059059Y-72727598D01*
X115068752Y-72742104D01*
X115174024Y-72899657D01*
X115320342Y-73045975D01*
X115320345Y-73045977D01*
X115492402Y-73160941D01*
X115683580Y-73240130D01*
X115819792Y-73267224D01*
X115886530Y-73280499D01*
X115886534Y-73280500D01*
X115886535Y-73280500D01*
X116093466Y-73280500D01*
X116093467Y-73280499D01*
X116296420Y-73240130D01*
X116487598Y-73160941D01*
X116659655Y-73045977D01*
X116805977Y-72899655D01*
X116920941Y-72727598D01*
X117000130Y-72536420D01*
X117040500Y-72333465D01*
X117040500Y-72126535D01*
X117040499Y-72126530D01*
X117479500Y-72126530D01*
X117479500Y-72333469D01*
X117519868Y-72536412D01*
X117519870Y-72536420D01*
X117577868Y-72676440D01*
X117599059Y-72727598D01*
X117608752Y-72742104D01*
X117714024Y-72899657D01*
X117860342Y-73045975D01*
X117860345Y-73045977D01*
X118032402Y-73160941D01*
X118223580Y-73240130D01*
X118359792Y-73267224D01*
X118426530Y-73280499D01*
X118426534Y-73280500D01*
X118426535Y-73280500D01*
X118633466Y-73280500D01*
X118633467Y-73280499D01*
X118836420Y-73240130D01*
X119027598Y-73160941D01*
X119199655Y-73045977D01*
X119345977Y-72899655D01*
X119460941Y-72727598D01*
X119540130Y-72536420D01*
X119580500Y-72333465D01*
X119580500Y-72126535D01*
X119580499Y-72126530D01*
X120019500Y-72126530D01*
X120019500Y-72333469D01*
X120059868Y-72536412D01*
X120059870Y-72536420D01*
X120117868Y-72676440D01*
X120139059Y-72727598D01*
X120148752Y-72742104D01*
X120254024Y-72899657D01*
X120400342Y-73045975D01*
X120400345Y-73045977D01*
X120572402Y-73160941D01*
X120763580Y-73240130D01*
X120899792Y-73267224D01*
X120966530Y-73280499D01*
X120966534Y-73280500D01*
X120966535Y-73280500D01*
X121173466Y-73280500D01*
X121173467Y-73280499D01*
X121376420Y-73240130D01*
X121567598Y-73160941D01*
X121739655Y-73045977D01*
X121885977Y-72899655D01*
X122000941Y-72727598D01*
X122080130Y-72536420D01*
X122120500Y-72333465D01*
X122120500Y-72126535D01*
X122120499Y-72126530D01*
X125099500Y-72126530D01*
X125099500Y-72333469D01*
X125139868Y-72536412D01*
X125139870Y-72536420D01*
X125197868Y-72676440D01*
X125219059Y-72727598D01*
X125228752Y-72742104D01*
X125334024Y-72899657D01*
X125480342Y-73045975D01*
X125480345Y-73045977D01*
X125652402Y-73160941D01*
X125843580Y-73240130D01*
X125979792Y-73267224D01*
X126046530Y-73280499D01*
X126046534Y-73280500D01*
X126046535Y-73280500D01*
X126253466Y-73280500D01*
X126253467Y-73280499D01*
X126456420Y-73240130D01*
X126647598Y-73160941D01*
X126819655Y-73045977D01*
X126965977Y-72899655D01*
X127080941Y-72727598D01*
X127160130Y-72536420D01*
X127200500Y-72333465D01*
X127200500Y-72126535D01*
X127200499Y-72126530D01*
X127639500Y-72126530D01*
X127639500Y-72333469D01*
X127679868Y-72536412D01*
X127679870Y-72536420D01*
X127737868Y-72676440D01*
X127759059Y-72727598D01*
X127768752Y-72742104D01*
X127874024Y-72899657D01*
X128020342Y-73045975D01*
X128020345Y-73045977D01*
X128192402Y-73160941D01*
X128383580Y-73240130D01*
X128519792Y-73267224D01*
X128586530Y-73280499D01*
X128586534Y-73280500D01*
X128586535Y-73280500D01*
X128793466Y-73280500D01*
X128793467Y-73280499D01*
X128996420Y-73240130D01*
X129187598Y-73160941D01*
X129359655Y-73045977D01*
X129505977Y-72899655D01*
X129620941Y-72727598D01*
X129700130Y-72536420D01*
X129740500Y-72333465D01*
X129740500Y-72126535D01*
X129700130Y-71923580D01*
X129620941Y-71732402D01*
X129505977Y-71560345D01*
X129505975Y-71560342D01*
X129359657Y-71414024D01*
X129243332Y-71336299D01*
X129187598Y-71299059D01*
X128996420Y-71219870D01*
X128996412Y-71219868D01*
X128793469Y-71179500D01*
X128793465Y-71179500D01*
X128586535Y-71179500D01*
X128586530Y-71179500D01*
X128383587Y-71219868D01*
X128383579Y-71219870D01*
X128192403Y-71299058D01*
X128020342Y-71414024D01*
X127874024Y-71560342D01*
X127759058Y-71732403D01*
X127679870Y-71923579D01*
X127679868Y-71923587D01*
X127639500Y-72126530D01*
X127200499Y-72126530D01*
X127160130Y-71923580D01*
X127080941Y-71732402D01*
X126965977Y-71560345D01*
X126965975Y-71560342D01*
X126819657Y-71414024D01*
X126703332Y-71336299D01*
X126647598Y-71299059D01*
X126456420Y-71219870D01*
X126456412Y-71219868D01*
X126253469Y-71179500D01*
X126253465Y-71179500D01*
X126046535Y-71179500D01*
X126046530Y-71179500D01*
X125843587Y-71219868D01*
X125843579Y-71219870D01*
X125652403Y-71299058D01*
X125480342Y-71414024D01*
X125334024Y-71560342D01*
X125219058Y-71732403D01*
X125139870Y-71923579D01*
X125139868Y-71923587D01*
X125099500Y-72126530D01*
X122120499Y-72126530D01*
X122080130Y-71923580D01*
X122000941Y-71732402D01*
X121885977Y-71560345D01*
X121885975Y-71560342D01*
X121739657Y-71414024D01*
X121623332Y-71336299D01*
X121567598Y-71299059D01*
X121376420Y-71219870D01*
X121376412Y-71219868D01*
X121173469Y-71179500D01*
X121173465Y-71179500D01*
X120966535Y-71179500D01*
X120966530Y-71179500D01*
X120763587Y-71219868D01*
X120763579Y-71219870D01*
X120572403Y-71299058D01*
X120400342Y-71414024D01*
X120254024Y-71560342D01*
X120139058Y-71732403D01*
X120059870Y-71923579D01*
X120059868Y-71923587D01*
X120019500Y-72126530D01*
X119580499Y-72126530D01*
X119540130Y-71923580D01*
X119460941Y-71732402D01*
X119345977Y-71560345D01*
X119345975Y-71560342D01*
X119199657Y-71414024D01*
X119083332Y-71336299D01*
X119027598Y-71299059D01*
X118836420Y-71219870D01*
X118836412Y-71219868D01*
X118633469Y-71179500D01*
X118633465Y-71179500D01*
X118426535Y-71179500D01*
X118426530Y-71179500D01*
X118223587Y-71219868D01*
X118223579Y-71219870D01*
X118032403Y-71299058D01*
X117860342Y-71414024D01*
X117714024Y-71560342D01*
X117599058Y-71732403D01*
X117519870Y-71923579D01*
X117519868Y-71923587D01*
X117479500Y-72126530D01*
X117040499Y-72126530D01*
X117000130Y-71923580D01*
X116920941Y-71732402D01*
X116805977Y-71560345D01*
X116805975Y-71560342D01*
X116659657Y-71414024D01*
X116543332Y-71336299D01*
X116487598Y-71299059D01*
X116296420Y-71219870D01*
X116296412Y-71219868D01*
X116093469Y-71179500D01*
X116093465Y-71179500D01*
X115886535Y-71179500D01*
X115886530Y-71179500D01*
X115683587Y-71219868D01*
X115683579Y-71219870D01*
X115492403Y-71299058D01*
X115320342Y-71414024D01*
X115174024Y-71560342D01*
X115059058Y-71732403D01*
X114979870Y-71923579D01*
X114979868Y-71923587D01*
X114939500Y-72126530D01*
X111960499Y-72126530D01*
X111920130Y-71923580D01*
X111840941Y-71732402D01*
X111725977Y-71560345D01*
X111725975Y-71560342D01*
X111579657Y-71414024D01*
X111463332Y-71336299D01*
X111407598Y-71299059D01*
X111216420Y-71219870D01*
X111216412Y-71219868D01*
X111013469Y-71179500D01*
X111013465Y-71179500D01*
X110806535Y-71179500D01*
X110806530Y-71179500D01*
X110603587Y-71219868D01*
X110603579Y-71219870D01*
X110412403Y-71299058D01*
X110240342Y-71414024D01*
X110094024Y-71560342D01*
X109979058Y-71732403D01*
X109899870Y-71923579D01*
X109899868Y-71923587D01*
X109859500Y-72126530D01*
X109420499Y-72126530D01*
X109380130Y-71923580D01*
X109300941Y-71732402D01*
X109185977Y-71560345D01*
X109185975Y-71560342D01*
X109039657Y-71414024D01*
X108923332Y-71336299D01*
X108867598Y-71299059D01*
X108676420Y-71219870D01*
X108676412Y-71219868D01*
X108473469Y-71179500D01*
X108473465Y-71179500D01*
X108266535Y-71179500D01*
X108266530Y-71179500D01*
X108063587Y-71219868D01*
X108063579Y-71219870D01*
X107872403Y-71299058D01*
X107700342Y-71414024D01*
X107554024Y-71560342D01*
X107439058Y-71732403D01*
X107359870Y-71923579D01*
X107359868Y-71923587D01*
X107319500Y-72126530D01*
X100187008Y-72126530D01*
X100214090Y-72032526D01*
X100218682Y-72019405D01*
X100339933Y-71726680D01*
X100345953Y-71714180D01*
X100499221Y-71436861D01*
X100506616Y-71425093D01*
X100514471Y-71414023D01*
X100689970Y-71166678D01*
X100698621Y-71155831D01*
X100909750Y-70919579D01*
X100919581Y-70909749D01*
X101155831Y-70698621D01*
X101166678Y-70689970D01*
X101425098Y-70506612D01*
X101436861Y-70499221D01*
X101714180Y-70345953D01*
X101726680Y-70339933D01*
X102019409Y-70218680D01*
X102032526Y-70214090D01*
X102336990Y-70126375D01*
X102350537Y-70123283D01*
X102662907Y-70070210D01*
X102676700Y-70068656D01*
X102996528Y-70050695D01*
X103003481Y-70050500D01*
X103016409Y-70050500D01*
X161983591Y-70050500D01*
X161996519Y-70050500D01*
X162003472Y-70050695D01*
G37*
G04 #@! TD.AperFunction*
M02*
