G04 #@! TF.GenerationSoftware,KiCad,Pcbnew,10.0.6*
G04 #@! TF.CreationDate,2026-09-26T13:18:33+01:00*
G04 #@! TF.ProjectId,phonkyo,70686f6e-6b79-46f2-9e6b-696361645f70,rev?*
G04 #@! TF.SameCoordinates,Original*
G04 #@! TF.FileFunction,Soldermask,Bot*
G04 #@! TF.FilePolarity,Negative*
%FSLAX46Y46*%
G04 Gerber Fmt 4.6, Leading zero omitted, Abs format (unit mm)*
G04 Created by KiCad (PCBNEW 10.0.6) date 2026-09-26 13:18:33*
%MOMM*%
%LPD*%
G01*
G04 APERTURE LIST*
%ADD10C,2.700000*%
%ADD11C,1.600000*%
%ADD12R,1.700000X1.700000*%
%ADD13O,1.700000X1.700000*%
%ADD14R,1.000000X1.500000*%
G04 APERTURE END LIST*
G36*
X121750000Y-82025000D02*
G01*
X122050000Y-82025000D01*
X122050000Y-83525000D01*
X121750000Y-83525000D01*
X121750000Y-82025000D01*
G37*
D10*
X161500000Y-73500000D03*
D11*
X135000000Y-95950000D03*
X135000000Y-88950000D03*
D10*
X103500000Y-96500000D03*
X103500000Y-73500000D03*
D11*
X120500000Y-95950000D03*
X120500000Y-88950000D03*
D10*
X161500000Y-96500000D03*
D12*
X108370000Y-74770000D03*
D13*
X108370000Y-72230000D03*
X110910000Y-74770000D03*
X110910000Y-72230000D03*
X113450000Y-74770000D03*
X113450000Y-72230000D03*
X115990000Y-74770000D03*
X115990000Y-72230000D03*
X118530000Y-74770000D03*
X118530000Y-72230000D03*
X121070000Y-74770000D03*
X121070000Y-72230000D03*
X123610000Y-74770000D03*
X123610000Y-72230000D03*
X126150000Y-74770000D03*
X126150000Y-72230000D03*
X128690000Y-74770000D03*
X128690000Y-72230000D03*
X131230000Y-74770000D03*
X131230000Y-72230000D03*
X133770000Y-74770000D03*
X133770000Y-72230000D03*
X136310000Y-74770000D03*
X136310000Y-72230000D03*
X138850000Y-74770000D03*
X138850000Y-72230000D03*
X141390000Y-74770000D03*
X141390000Y-72230000D03*
X143930000Y-74770000D03*
X143930000Y-72230000D03*
X146470000Y-74770000D03*
X146470000Y-72230000D03*
X149010000Y-74770000D03*
X149010000Y-72230000D03*
X151550000Y-74770000D03*
X151550000Y-72230000D03*
X154090000Y-74770000D03*
X154090000Y-72230000D03*
X156630000Y-74770000D03*
X156630000Y-72230000D03*
D14*
X122550000Y-82775000D03*
X121250000Y-82775000D03*
M02*
