G04 #@! TF.GenerationSoftware,KiCad,Pcbnew,10.0.6*
G04 #@! TF.CreationDate,2026-09-25T18:31:49+01:00*
G04 #@! TF.ProjectId,phonkyo,70686f6e-6b79-46f2-9e6b-696361645f70,rev?*
G04 #@! TF.SameCoordinates,Original*
G04 #@! TF.FileFunction,Legend,Bot*
G04 #@! TF.FilePolarity,Positive*
%FSLAX46Y46*%
G04 Gerber Fmt 4.6, Leading zero omitted, Abs format (unit mm)*
G04 Created by KiCad (PCBNEW 10.0.6) date 2026-09-25 18:31:49*
%MOMM*%
%LPD*%
G01*
G04 APERTURE LIST*
%ADD10C,0.200000*%
%ADD11C,0.120000*%
%ADD12C,0.000000*%
G04 APERTURE END LIST*
D10*
G36*
X110431279Y-89993982D02*
G01*
X110490672Y-89997920D01*
X110528610Y-90005218D01*
X110558672Y-90018925D01*
X110576909Y-90038129D01*
X110586941Y-90064218D01*
X110590892Y-90104624D01*
X110587577Y-90139213D01*
X110579032Y-90162386D01*
X110566406Y-90177409D01*
X110548600Y-90187079D01*
X110519189Y-90194158D01*
X110473289Y-90197009D01*
X110407675Y-90191819D01*
X110365456Y-90178813D01*
X110342905Y-90164082D01*
X110325070Y-90143864D01*
X110311600Y-90117203D01*
X110299527Y-90068903D01*
X110292671Y-89992578D01*
X110431279Y-89993982D01*
G37*
G36*
X109647338Y-87841861D02*
G01*
X109685471Y-87852271D01*
X109714549Y-87868117D01*
X109738036Y-87891110D01*
X109757796Y-87924444D01*
X109773351Y-87971004D01*
X109785821Y-88051301D01*
X109790875Y-88176779D01*
X109785812Y-88299589D01*
X109773351Y-88377730D01*
X109757888Y-88422837D01*
X109738151Y-88455551D01*
X109714549Y-88478480D01*
X109685471Y-88494326D01*
X109647338Y-88504736D01*
X109597679Y-88508583D01*
X109547975Y-88504719D01*
X109510103Y-88494296D01*
X109481481Y-88478480D01*
X109458280Y-88455608D01*
X109438759Y-88422905D01*
X109423351Y-88377730D01*
X109410889Y-88299589D01*
X109405826Y-88176779D01*
X109410903Y-88050165D01*
X109423351Y-87970333D01*
X109438822Y-87924160D01*
X109458358Y-87891032D01*
X109481481Y-87868117D01*
X109510103Y-87852301D01*
X109547975Y-87841878D01*
X109597679Y-87838014D01*
X109647338Y-87841861D01*
G37*
G36*
X111332533Y-88050073D02*
G01*
X111373007Y-88062805D01*
X111400680Y-88081585D01*
X111419985Y-88108651D01*
X111433291Y-88150189D01*
X111438476Y-88211828D01*
X111109481Y-88211828D01*
X111114632Y-88149133D01*
X111127753Y-88107507D01*
X111146606Y-88080914D01*
X111173828Y-88062637D01*
X111214819Y-88050067D01*
X111274712Y-88045193D01*
X111332533Y-88050073D01*
G37*
G36*
X117294809Y-87849188D02*
G01*
X117294809Y-88105399D01*
X117114192Y-88105399D01*
X117073375Y-88101349D01*
X117045974Y-88090875D01*
X117028157Y-88075296D01*
X117016632Y-88053642D01*
X117008321Y-88019159D01*
X117005015Y-87966791D01*
X117008286Y-87926221D01*
X117016685Y-87898726D01*
X117028829Y-87880696D01*
X117046555Y-87867937D01*
X117074614Y-87857964D01*
X117117000Y-87851997D01*
X117234603Y-87847784D01*
X117294809Y-87849188D01*
G37*
G36*
X109649225Y-84677306D02*
G01*
X109688659Y-84692948D01*
X109708951Y-84709876D01*
X109725553Y-84733798D01*
X109738363Y-84766404D01*
X109748832Y-84823631D01*
X109753078Y-84913377D01*
X109748845Y-85003216D01*
X109738363Y-85061083D01*
X109725520Y-85094183D01*
X109708910Y-85118342D01*
X109688659Y-85135333D01*
X109649231Y-85150929D01*
X109589252Y-85157009D01*
X109522634Y-85150878D01*
X109479404Y-85135333D01*
X109456825Y-85118129D01*
X109438633Y-85094120D01*
X109424755Y-85061816D01*
X109413297Y-85004328D01*
X109408635Y-84913377D01*
X109413282Y-84823668D01*
X109424755Y-84766404D01*
X109438635Y-84734103D01*
X109456828Y-84710116D01*
X109479404Y-84692948D01*
X109522639Y-84677358D01*
X109589252Y-84671210D01*
X109649225Y-84677306D01*
G37*
G36*
X111353794Y-82784156D02*
G01*
X111393718Y-82794534D01*
X111414426Y-82806939D01*
X111430391Y-82824785D01*
X111442017Y-82849122D01*
X111451362Y-82894205D01*
X111455268Y-82970205D01*
X111451350Y-83042155D01*
X111442017Y-83084328D01*
X111423267Y-83115837D01*
X111394390Y-83135436D01*
X111355308Y-83145292D01*
X111288694Y-83149419D01*
X111218137Y-83145076D01*
X111176709Y-83134703D01*
X111155159Y-83122135D01*
X111138753Y-83104043D01*
X111127005Y-83079382D01*
X111117632Y-83033323D01*
X111113694Y-82954818D01*
X111117825Y-82885465D01*
X111127738Y-82844237D01*
X111147212Y-82813343D01*
X111177441Y-82793801D01*
X111217861Y-82783930D01*
X111285885Y-82779818D01*
X111353794Y-82784156D01*
G37*
G36*
X113013468Y-81116515D02*
G01*
X113045533Y-81122899D01*
X113069952Y-81135735D01*
X113086139Y-81155139D01*
X113097306Y-81182080D01*
X113109952Y-81230000D01*
X113123935Y-81325926D01*
X113129553Y-81455375D01*
X113124348Y-81577819D01*
X113109952Y-81679406D01*
X113098786Y-81727296D01*
X113088947Y-81753595D01*
X113073752Y-81772557D01*
X113048342Y-81786507D01*
X113014677Y-81793882D01*
X112955957Y-81797009D01*
X112897191Y-81793880D01*
X112863572Y-81786507D01*
X112838124Y-81772551D01*
X112822967Y-81753595D01*
X112812843Y-81727114D01*
X112800558Y-81678002D01*
X112786421Y-81583500D01*
X112781477Y-81463801D01*
X112871938Y-81463801D01*
X112877555Y-81515580D01*
X112888058Y-81549225D01*
X112895030Y-81557539D01*
X112908330Y-81564612D01*
X112925684Y-81568582D01*
X112954553Y-81570230D01*
X113000776Y-81565345D01*
X113012944Y-81558789D01*
X113020376Y-81549897D01*
X113031550Y-81514176D01*
X113037107Y-81463801D01*
X113035232Y-81423225D01*
X113030146Y-81391017D01*
X113020376Y-81361646D01*
X113012919Y-81353204D01*
X113000043Y-81346198D01*
X112983282Y-81342243D01*
X112954553Y-81340580D01*
X112916440Y-81344068D01*
X112898560Y-81351816D01*
X112887158Y-81366515D01*
X112877555Y-81395230D01*
X112871938Y-81463801D01*
X112781477Y-81463801D01*
X112780957Y-81451222D01*
X112785170Y-81335024D01*
X112800558Y-81230000D01*
X112811260Y-81183303D01*
X112822967Y-81155811D01*
X112840508Y-81135907D01*
X112866381Y-81122899D01*
X112899785Y-81116502D01*
X112957301Y-81113801D01*
X113013468Y-81116515D01*
G37*
G36*
X109762848Y-81783026D02*
G01*
X109652267Y-81787178D01*
X109589177Y-81779877D01*
X109541192Y-81767371D01*
X109505294Y-81750847D01*
X109474834Y-81726792D01*
X109450364Y-81694018D01*
X109431777Y-81650708D01*
X109416274Y-81574396D01*
X109410040Y-81456779D01*
X109416040Y-81345668D01*
X109431044Y-81272681D01*
X109448923Y-81231018D01*
X109472459Y-81198873D01*
X109501753Y-81174678D01*
X109536301Y-81157326D01*
X109582285Y-81143252D01*
X109642437Y-81133401D01*
X109762848Y-81126379D01*
X109762848Y-81783026D01*
G37*
G36*
X108876064Y-81564612D02*
G01*
X108636645Y-81564612D01*
X108758461Y-81140423D01*
X108759865Y-81140423D01*
X108876064Y-81564612D01*
G37*
G36*
X111393719Y-81564612D02*
G01*
X111154300Y-81564612D01*
X111276116Y-81140423D01*
X111277520Y-81140423D01*
X111393719Y-81564612D01*
G37*
G36*
X117285040Y-81427409D02*
G01*
X117196807Y-81427409D01*
X117114971Y-81423382D01*
X117062473Y-81413426D01*
X117020651Y-81394010D01*
X116995245Y-81367203D01*
X116981172Y-81330858D01*
X116975645Y-81274818D01*
X116981870Y-81221712D01*
X116998054Y-81186646D01*
X117015089Y-81168989D01*
X117039399Y-81154175D01*
X117072915Y-81142500D01*
X117130933Y-81133033D01*
X117222025Y-81129188D01*
X117285040Y-81129188D01*
X117285040Y-81427409D01*
G37*
G36*
X110516489Y-77975308D02*
G01*
X110555905Y-77990411D01*
X110576251Y-78006900D01*
X110592838Y-78030177D01*
X110605608Y-78061852D01*
X110616037Y-78117507D01*
X110620263Y-78204612D01*
X110616039Y-78290400D01*
X110605608Y-78345296D01*
X110592874Y-78376482D01*
X110576295Y-78399544D01*
X110555905Y-78416004D01*
X110516489Y-78431108D01*
X110456498Y-78437009D01*
X110389770Y-78431055D01*
X110346589Y-78416004D01*
X110323909Y-78399311D01*
X110305762Y-78376186D01*
X110292000Y-78345296D01*
X110280520Y-78290355D01*
X110275880Y-78204612D01*
X110280523Y-78117550D01*
X110292000Y-78061852D01*
X110305800Y-78030479D01*
X110323956Y-78007136D01*
X110346589Y-77990411D01*
X110389770Y-77975361D01*
X110456498Y-77969406D01*
X110516489Y-77975308D01*
G37*
G36*
X109654096Y-77970073D02*
G01*
X109694570Y-77982805D01*
X109722243Y-78001585D01*
X109741548Y-78028651D01*
X109754854Y-78070189D01*
X109760040Y-78131828D01*
X109431044Y-78131828D01*
X109436196Y-78069133D01*
X109449316Y-78027507D01*
X109468169Y-78000914D01*
X109495391Y-77982637D01*
X109536382Y-77970067D01*
X109596275Y-77965193D01*
X109654096Y-77970073D01*
G37*
G36*
X119287383Y-90453689D02*
G01*
X107437126Y-90453689D01*
X107437126Y-90121416D01*
X107587438Y-90121416D01*
X107591252Y-90178819D01*
X107601503Y-90222676D01*
X107616869Y-90255811D01*
X107639846Y-90283341D01*
X107672419Y-90305781D01*
X107716947Y-90322978D01*
X107794889Y-90336931D01*
X107916433Y-90342578D01*
X108006731Y-90339565D01*
X108074059Y-90331629D01*
X108081044Y-90330000D01*
X108360832Y-90330000D01*
X108575033Y-90330000D01*
X108904029Y-89932372D01*
X108904029Y-90330000D01*
X109072007Y-90330000D01*
X109072007Y-89845605D01*
X109263066Y-89845605D01*
X109432448Y-89845605D01*
X109442353Y-89800713D01*
X109455516Y-89771054D01*
X109470977Y-89752487D01*
X109491709Y-89739978D01*
X109522474Y-89731342D01*
X109566843Y-89728002D01*
X109636141Y-89734166D01*
X109680965Y-89749740D01*
X109704474Y-89766960D01*
X109723328Y-89790773D01*
X109737690Y-89822524D01*
X109749645Y-89879008D01*
X109754482Y-89967421D01*
X109749656Y-90051816D01*
X109737690Y-90106029D01*
X109723348Y-90136233D01*
X109704293Y-90158932D01*
X109680232Y-90175333D01*
X109634942Y-90189854D01*
X109565438Y-90195605D01*
X109522767Y-90192649D01*
X109492822Y-90184988D01*
X109472382Y-90173928D01*
X109456390Y-90157249D01*
X109442426Y-90131417D01*
X109431044Y-90093389D01*
X109263066Y-90093389D01*
X109268505Y-90158564D01*
X109279450Y-90207912D01*
X109294573Y-90244637D01*
X109317285Y-90276183D01*
X109348046Y-90301271D01*
X109388362Y-90320230D01*
X109432523Y-90331676D01*
X109492606Y-90339587D01*
X109572460Y-90342578D01*
X109665108Y-90338119D01*
X109734980Y-90326284D01*
X109786661Y-90308995D01*
X109832083Y-90281456D01*
X109867452Y-90243943D01*
X109893762Y-90194933D01*
X109909918Y-90140101D01*
X109921058Y-90065442D01*
X109925269Y-89966017D01*
X109921062Y-89864651D01*
X109918076Y-89844200D01*
X110127502Y-89844200D01*
X110127502Y-89992578D01*
X110127502Y-90330000D01*
X110287054Y-90330000D01*
X110287054Y-90243171D01*
X110298289Y-90243171D01*
X110340522Y-90293372D01*
X110380904Y-90321634D01*
X110429114Y-90336642D01*
X110502659Y-90342578D01*
X110598832Y-90336744D01*
X110660196Y-90322306D01*
X110694113Y-90305211D01*
X110719842Y-90282487D01*
X110738598Y-90253674D01*
X110750516Y-90220554D01*
X110758630Y-90176028D01*
X110761679Y-90117203D01*
X110757474Y-90048423D01*
X110757217Y-90047227D01*
X110996091Y-90047227D01*
X110999904Y-90124872D01*
X111010017Y-90183309D01*
X111024789Y-90226441D01*
X111048217Y-90264201D01*
X111080206Y-90293812D01*
X111122120Y-90316017D01*
X111168787Y-90329639D01*
X111232265Y-90339029D01*
X111316720Y-90342578D01*
X111402124Y-90339008D01*
X111465737Y-90329598D01*
X111511993Y-90316017D01*
X111553443Y-90293888D01*
X111584693Y-90264707D01*
X111607186Y-90227784D01*
X111620870Y-90185667D01*
X111629159Y-90129049D01*
X111630267Y-90054188D01*
X111451115Y-90054188D01*
X111448058Y-90104116D01*
X111438556Y-90137272D01*
X111424493Y-90158480D01*
X111403623Y-90173008D01*
X111370711Y-90183174D01*
X111320873Y-90187178D01*
X111266917Y-90183394D01*
X111231968Y-90173928D01*
X111204966Y-90156193D01*
X111187211Y-90129842D01*
X111177718Y-90095475D01*
X111173899Y-90041610D01*
X111173899Y-89865205D01*
X112570908Y-89865205D01*
X112570908Y-90330000D01*
X112726307Y-90330000D01*
X112726307Y-89890423D01*
X112731125Y-89806659D01*
X112741755Y-89765799D01*
X112754740Y-89747212D01*
X112772824Y-89736179D01*
X112797748Y-89732215D01*
X112826013Y-89736519D01*
X112846047Y-89748335D01*
X112860104Y-89768123D01*
X112870532Y-89802191D01*
X112875524Y-89844019D01*
X112877554Y-89910024D01*
X112877554Y-90330000D01*
X113031550Y-90330000D01*
X113028741Y-89890423D01*
X113033060Y-89806757D01*
X113044861Y-89765799D01*
X113059292Y-89747605D01*
X113080199Y-89736363D01*
X113109951Y-89732215D01*
X113136700Y-89736673D01*
X113155442Y-89749007D01*
X113168260Y-89769428D01*
X113177851Y-89805000D01*
X113182321Y-89848415D01*
X113184140Y-89916985D01*
X113184140Y-90330000D01*
X113339540Y-90330000D01*
X113339540Y-89865205D01*
X113410126Y-89865205D01*
X113410126Y-90330000D01*
X113565525Y-90330000D01*
X113565525Y-89890423D01*
X113570343Y-89806659D01*
X113580974Y-89765799D01*
X113593959Y-89747212D01*
X113612042Y-89736179D01*
X113636966Y-89732215D01*
X113665232Y-89736519D01*
X113685266Y-89748335D01*
X113699322Y-89768123D01*
X113709751Y-89802191D01*
X113714742Y-89844019D01*
X113716773Y-89910024D01*
X113716773Y-90330000D01*
X113870768Y-90330000D01*
X113867959Y-89890423D01*
X113872278Y-89806757D01*
X113884079Y-89765799D01*
X113898511Y-89747605D01*
X113919418Y-89736363D01*
X113949170Y-89732215D01*
X113975919Y-89736673D01*
X113994660Y-89749007D01*
X114007478Y-89769428D01*
X114017069Y-89805000D01*
X114021540Y-89848415D01*
X114023359Y-89916985D01*
X114023359Y-90330000D01*
X114178758Y-90330000D01*
X114178758Y-90006622D01*
X114317977Y-90006622D01*
X114322616Y-90090421D01*
X114335096Y-90155222D01*
X114353697Y-90204703D01*
X114382246Y-90247936D01*
X114420669Y-90282245D01*
X114470567Y-90308323D01*
X114525734Y-90324615D01*
X114598176Y-90335653D01*
X114691790Y-90339769D01*
X114772770Y-90336360D01*
X114816598Y-90330000D01*
X115339156Y-90330000D01*
X115605197Y-90330000D01*
X115605197Y-90073789D01*
X115339156Y-90073789D01*
X115339156Y-90330000D01*
X114816598Y-90330000D01*
X114835955Y-90327191D01*
X114896334Y-90310251D01*
X114963388Y-90282372D01*
X114963388Y-90107372D01*
X114876564Y-90147355D01*
X114812874Y-90170387D01*
X114751356Y-90184045D01*
X114688981Y-90188583D01*
X114615966Y-90182869D01*
X114566856Y-90168267D01*
X114534986Y-90147306D01*
X114512685Y-90116611D01*
X114497463Y-90070288D01*
X114493395Y-90023414D01*
X116013205Y-90023414D01*
X116017836Y-90103414D01*
X116030303Y-90165242D01*
X116048926Y-90212458D01*
X116077189Y-90253510D01*
X116115137Y-90286447D01*
X116164391Y-90311803D01*
X116218622Y-90327702D01*
X116290530Y-90338526D01*
X116384210Y-90342578D01*
X116465154Y-90339158D01*
X116527703Y-90330000D01*
X117628627Y-90330000D01*
X117821823Y-90330000D01*
X117987054Y-90089176D01*
X117992610Y-90089176D01*
X118157841Y-90330000D01*
X118351037Y-90330000D01*
X118237271Y-90173196D01*
X118500086Y-90173196D01*
X118500086Y-90330000D01*
X119155267Y-90330000D01*
X119155267Y-90099007D01*
X118878052Y-89883401D01*
X118793616Y-89811986D01*
X118733826Y-89756029D01*
X118710617Y-89727469D01*
X118697495Y-89702845D01*
X118690368Y-89675696D01*
X118687664Y-89638426D01*
X118691470Y-89592609D01*
X118700976Y-89563504D01*
X118718544Y-89541671D01*
X118746466Y-89526441D01*
X118782056Y-89518434D01*
X118837446Y-89515205D01*
X118892898Y-89518606D01*
X118929159Y-89527112D01*
X118958030Y-89543143D01*
X118977458Y-89566313D01*
X118989419Y-89596934D01*
X118997059Y-89643982D01*
X119176272Y-89643982D01*
X119168772Y-89570371D01*
X119155940Y-89514903D01*
X119139147Y-89473928D01*
X119114185Y-89438482D01*
X119080640Y-89410403D01*
X119036993Y-89389237D01*
X118989005Y-89376284D01*
X118924286Y-89367376D01*
X118838851Y-89364019D01*
X118752423Y-89367310D01*
X118687846Y-89375989D01*
X118640770Y-89388504D01*
X118598146Y-89409280D01*
X118565775Y-89437109D01*
X118542096Y-89472524D01*
X118526893Y-89513379D01*
X118516551Y-89568385D01*
X118512664Y-89641174D01*
X118518416Y-89711590D01*
X118533669Y-89763051D01*
X118561672Y-89810121D01*
X118613476Y-89869419D01*
X118688838Y-89941039D01*
X118763990Y-90005218D01*
X118848255Y-90070043D01*
X118974650Y-90160617D01*
X118974650Y-90173196D01*
X118500086Y-90173196D01*
X118237271Y-90173196D01*
X118080843Y-89957590D01*
X118335649Y-89599225D01*
X118148010Y-89599225D01*
X117992610Y-89838583D01*
X117987054Y-89838583D01*
X117831654Y-89599225D01*
X117644015Y-89599225D01*
X117898821Y-89957590D01*
X117628627Y-90330000D01*
X116527703Y-90330000D01*
X116587437Y-90313096D01*
X116654404Y-90285181D01*
X116654404Y-90110181D01*
X116571372Y-90150113D01*
X116509507Y-90173196D01*
X116449014Y-90186806D01*
X116385614Y-90191392D01*
X116312171Y-90186209D01*
X116262809Y-90173019D01*
X116230887Y-90154328D01*
X116208000Y-90126241D01*
X116192677Y-90084345D01*
X116186801Y-90023414D01*
X116191295Y-89975122D01*
X116203185Y-89940596D01*
X116221117Y-89916313D01*
X116246239Y-89899426D01*
X116283690Y-89887866D01*
X116337987Y-89883401D01*
X116401891Y-89887132D01*
X116490578Y-89900193D01*
X116490578Y-89737772D01*
X116242793Y-89530593D01*
X116242793Y-89526379D01*
X116634803Y-89526379D01*
X116634803Y-89378002D01*
X116049597Y-89378002D01*
X116049597Y-89540423D01*
X116291825Y-89736428D01*
X116291825Y-89743389D01*
X116237176Y-89740580D01*
X116176811Y-89745395D01*
X116129720Y-89758533D01*
X116093143Y-89778728D01*
X116065046Y-89805732D01*
X116044621Y-89838866D01*
X116028363Y-89883976D01*
X116017336Y-89944240D01*
X116013205Y-90023414D01*
X114493395Y-90023414D01*
X114491572Y-90002409D01*
X114495565Y-89954683D01*
X114506067Y-89920597D01*
X114521675Y-89896713D01*
X114544107Y-89879063D01*
X114577611Y-89865374D01*
X114625967Y-89856779D01*
X114701560Y-89852627D01*
X114793061Y-89857364D01*
X114939575Y-89874975D01*
X114897565Y-89378002D01*
X114358582Y-89378002D01*
X114358582Y-89526379D01*
X114742165Y-89529188D01*
X114756148Y-89702784D01*
X114694538Y-89699975D01*
X114606366Y-89705593D01*
X114533835Y-89717285D01*
X114477661Y-89732759D01*
X114434908Y-89751083D01*
X114396797Y-89776509D01*
X114367230Y-89807596D01*
X114345271Y-89844933D01*
X114330982Y-89886475D01*
X114321478Y-89939533D01*
X114317977Y-90006622D01*
X114178758Y-90006622D01*
X114178758Y-89599225D01*
X114027572Y-89599225D01*
X114027572Y-89688801D01*
X114016337Y-89688801D01*
X113984913Y-89633335D01*
X113959001Y-89604110D01*
X113927398Y-89587212D01*
X113883346Y-89581029D01*
X113834953Y-89584202D01*
X113801208Y-89592389D01*
X113778383Y-89604110D01*
X113759949Y-89621866D01*
X113743020Y-89649125D01*
X113727947Y-89688801D01*
X113726543Y-89688801D01*
X113710731Y-89648930D01*
X113693842Y-89621699D01*
X113676167Y-89604110D01*
X113654310Y-89592156D01*
X113623903Y-89584083D01*
X113582317Y-89581029D01*
X113537096Y-89584300D01*
X113502910Y-89593072D01*
X113477354Y-89606247D01*
X113456538Y-89625613D01*
X113439168Y-89653540D01*
X113425574Y-89692342D01*
X113414587Y-89759604D01*
X113410126Y-89865205D01*
X113339540Y-89865205D01*
X113339540Y-89599225D01*
X113188353Y-89599225D01*
X113188353Y-89688801D01*
X113177118Y-89688801D01*
X113145694Y-89633335D01*
X113119782Y-89604110D01*
X113088180Y-89587212D01*
X113044128Y-89581029D01*
X112995735Y-89584202D01*
X112961989Y-89592389D01*
X112939165Y-89604110D01*
X112920731Y-89621866D01*
X112903801Y-89649125D01*
X112888729Y-89688801D01*
X112887324Y-89688801D01*
X112871513Y-89648930D01*
X112854623Y-89621699D01*
X112836949Y-89604110D01*
X112815092Y-89592156D01*
X112784684Y-89584083D01*
X112743099Y-89581029D01*
X112697877Y-89584300D01*
X112663692Y-89593072D01*
X112638135Y-89606247D01*
X112617319Y-89625613D01*
X112599949Y-89653540D01*
X112586356Y-89692342D01*
X112575369Y-89759604D01*
X112570908Y-89865205D01*
X111173899Y-89865205D01*
X111173899Y-89378002D01*
X110996091Y-89378002D01*
X110996091Y-90047227D01*
X110757217Y-90047227D01*
X110746224Y-89996133D01*
X110729500Y-89956919D01*
X110704004Y-89923715D01*
X110668342Y-89896914D01*
X110620262Y-89876441D01*
X110568104Y-89864268D01*
X110496829Y-89855824D01*
X110401848Y-89852627D01*
X110291267Y-89852627D01*
X110291267Y-89844200D01*
X110295489Y-89798544D01*
X110306298Y-89768306D01*
X110322103Y-89749007D01*
X110344474Y-89736530D01*
X110381204Y-89727440D01*
X110438301Y-89723789D01*
X110490009Y-89726774D01*
X110522906Y-89734151D01*
X110542593Y-89744122D01*
X110556418Y-89759900D01*
X110565058Y-89784517D01*
X110567078Y-89821791D01*
X110737865Y-89821791D01*
X110736940Y-89758294D01*
X110729154Y-89710664D01*
X110716188Y-89675490D01*
X110695229Y-89645389D01*
X110665520Y-89621205D01*
X110625208Y-89602705D01*
X110580993Y-89591645D01*
X110520074Y-89583951D01*
X110438301Y-89581029D01*
X110356594Y-89584214D01*
X110295148Y-89592641D01*
X110249990Y-89604842D01*
X110209009Y-89624864D01*
X110178041Y-89651301D01*
X110155529Y-89684588D01*
X110141065Y-89723081D01*
X110131211Y-89775113D01*
X110127502Y-89844200D01*
X109918076Y-89844200D01*
X109909924Y-89788369D01*
X109893762Y-89732215D01*
X109867391Y-89681721D01*
X109832218Y-89643333D01*
X109787394Y-89615345D01*
X109736110Y-89597658D01*
X109666912Y-89585577D01*
X109575269Y-89581029D01*
X109494516Y-89584213D01*
X109433766Y-89592638D01*
X109389095Y-89604842D01*
X109348565Y-89624846D01*
X109317527Y-89651506D01*
X109294573Y-89685321D01*
X109279470Y-89724270D01*
X109268513Y-89776585D01*
X109263066Y-89845605D01*
X109072007Y-89845605D01*
X109072007Y-89310774D01*
X108904029Y-89310774D01*
X108904029Y-89919794D01*
X108594634Y-89599225D01*
X108393011Y-89599225D01*
X108713641Y-89925411D01*
X108360832Y-90330000D01*
X108081044Y-90330000D01*
X108122940Y-90320230D01*
X108167758Y-90300835D01*
X108200884Y-90275221D01*
X108224423Y-90243232D01*
X108239410Y-90205527D01*
X108248826Y-90155281D01*
X108251045Y-90089176D01*
X108078793Y-90089176D01*
X108073385Y-90129469D01*
X108062001Y-90155732D01*
X108042298Y-90174796D01*
X108009550Y-90188644D01*
X107968486Y-90195590D01*
X107903793Y-90198414D01*
X107827913Y-90193416D01*
X107790464Y-90182294D01*
X107773734Y-90169006D01*
X107763424Y-90149887D01*
X107759629Y-90122821D01*
X107764106Y-90096829D01*
X107777153Y-90075926D01*
X107798639Y-90059428D01*
X107836626Y-90043014D01*
X107883216Y-90029977D01*
X107955634Y-90014987D01*
X108060834Y-89991118D01*
X108128558Y-89968093D01*
X108167228Y-89948040D01*
X108195510Y-89926094D01*
X108215325Y-89902330D01*
X108229093Y-89874531D01*
X108237987Y-89839827D01*
X108241215Y-89796573D01*
X108237464Y-89740063D01*
X108227443Y-89697440D01*
X108212516Y-89665720D01*
X108190145Y-89639395D01*
X108158268Y-89617633D01*
X108114514Y-89600629D01*
X108038098Y-89586671D01*
X107919241Y-89581029D01*
X107803084Y-89586873D01*
X107728854Y-89601301D01*
X107686780Y-89618826D01*
X107655733Y-89641682D01*
X107633660Y-89669872D01*
X107618986Y-89703346D01*
X107608736Y-89748319D01*
X107604229Y-89807808D01*
X107772207Y-89807808D01*
X107777784Y-89777891D01*
X107789316Y-89756960D01*
X107806523Y-89742718D01*
X107844710Y-89730587D01*
X107920646Y-89725193D01*
X108000472Y-89729999D01*
X108039653Y-89740642D01*
X108057276Y-89753566D01*
X108067944Y-89772023D01*
X108071832Y-89797978D01*
X108068126Y-89810562D01*
X108055214Y-89823653D01*
X108027746Y-89837911D01*
X107972943Y-89855551D01*
X107856227Y-89884806D01*
X107757690Y-89911616D01*
X107693805Y-89937318D01*
X107657768Y-89959130D01*
X107630970Y-89983145D01*
X107611923Y-90009431D01*
X107594079Y-90056786D01*
X107587438Y-90121416D01*
X107437126Y-90121416D01*
X107437126Y-88500218D01*
X107605634Y-88500218D01*
X107605634Y-88647191D01*
X107742744Y-88661528D01*
X107828201Y-88665387D01*
X107895518Y-88661819D01*
X107945118Y-88652434D01*
X107951509Y-88650000D01*
X108433618Y-88650000D01*
X108604466Y-88650000D01*
X108604466Y-88547784D01*
X108615640Y-88547784D01*
X108642786Y-88589289D01*
X108670503Y-88618632D01*
X108698927Y-88638093D01*
X108731314Y-88650589D01*
X108776937Y-88659263D01*
X108839610Y-88662578D01*
X108904074Y-88659247D01*
X108952701Y-88650396D01*
X108988721Y-88637421D01*
X109020064Y-88616998D01*
X109044875Y-88588965D01*
X109063642Y-88551997D01*
X109075127Y-88511068D01*
X109083054Y-88455353D01*
X109086051Y-88381210D01*
X109086051Y-88176779D01*
X109228079Y-88176779D01*
X109232505Y-88305599D01*
X109244182Y-88401950D01*
X109260990Y-88472191D01*
X109281317Y-88522229D01*
X109306768Y-88562522D01*
X109337205Y-88594532D01*
X109372976Y-88619225D01*
X109427595Y-88641696D01*
X109500868Y-88656884D01*
X109597679Y-88662578D01*
X109694447Y-88656886D01*
X109767725Y-88641699D01*
X109822383Y-88619225D01*
X109858126Y-88594537D01*
X109888554Y-88562529D01*
X109914015Y-88522235D01*
X109934368Y-88472191D01*
X109951177Y-88401950D01*
X109962853Y-88305599D01*
X109963381Y-88290230D01*
X110941503Y-88290230D01*
X110942908Y-88344818D01*
X111439881Y-88344818D01*
X111430679Y-88409157D01*
X111417472Y-88450514D01*
X111395809Y-88482328D01*
X111365020Y-88503026D01*
X111325450Y-88514034D01*
X111264881Y-88518414D01*
X111206848Y-88512702D01*
X111173168Y-88498813D01*
X111148888Y-88473072D01*
X111127677Y-88426029D01*
X110954082Y-88426029D01*
X110966521Y-88487129D01*
X110982191Y-88533836D01*
X111000305Y-88568850D01*
X111024725Y-88598949D01*
X111055637Y-88622866D01*
X111094094Y-88640901D01*
X111161673Y-88656415D01*
X111263476Y-88662578D01*
X111355138Y-88658026D01*
X111424077Y-88645956D01*
X111474930Y-88628323D01*
X111519331Y-88600344D01*
X111554297Y-88561944D01*
X111580626Y-88511392D01*
X111596759Y-88455203D01*
X111607874Y-88378915D01*
X111612072Y-88277590D01*
X111608444Y-88188014D01*
X111787683Y-88188014D01*
X111787683Y-88650000D01*
X111958530Y-88650000D01*
X111958530Y-88185205D01*
X111962561Y-88134381D01*
X111972750Y-88101102D01*
X111987229Y-88080242D01*
X112008488Y-88066145D01*
X112042448Y-88056169D01*
X112094330Y-88052215D01*
X112158449Y-88057775D01*
X112200026Y-88071816D01*
X112221935Y-88087468D01*
X112239607Y-88109223D01*
X112253209Y-88138311D01*
X112264700Y-88190134D01*
X112269330Y-88270629D01*
X112269330Y-88650000D01*
X112440116Y-88650000D01*
X112440116Y-88505774D01*
X112603148Y-88505774D01*
X112603148Y-88650000D01*
X113248499Y-88650000D01*
X113248499Y-88505774D01*
X113004928Y-88505774D01*
X113004928Y-88491791D01*
X113438154Y-88491791D01*
X113438154Y-88648595D01*
X114098953Y-88648595D01*
X114098953Y-88564576D01*
X115361566Y-88564576D01*
X115364375Y-88585642D01*
X115374206Y-88612203D01*
X115522583Y-88917384D01*
X115689157Y-88917384D01*
X115585598Y-88592602D01*
X115582789Y-88570193D01*
X115582789Y-88494600D01*
X116049598Y-88494600D01*
X116049598Y-88650000D01*
X116574598Y-88650000D01*
X116774022Y-88650000D01*
X116965814Y-88650000D01*
X117031638Y-88365823D01*
X117044572Y-88326720D01*
X117061496Y-88299937D01*
X117082013Y-88282536D01*
X117107550Y-88271700D01*
X117146972Y-88263883D01*
X117205233Y-88260799D01*
X117294809Y-88260799D01*
X117294809Y-88650000D01*
X117472618Y-88650000D01*
X117472618Y-87699406D01*
X117306044Y-87693789D01*
X117223429Y-87692384D01*
X117120038Y-87695947D01*
X117042102Y-87705375D01*
X116984743Y-87719007D01*
X116931598Y-87741661D01*
X116892315Y-87770613D01*
X116864331Y-87805835D01*
X116845668Y-87847553D01*
X116833231Y-87902420D01*
X116829065Y-87966791D01*
X116828611Y-87973813D01*
X116832780Y-88041289D01*
X116843326Y-88086531D01*
X116863305Y-88123170D01*
X116893030Y-88149546D01*
X116932373Y-88167276D01*
X116992437Y-88180992D01*
X116992437Y-88193571D01*
X116954756Y-88203448D01*
X116926206Y-88218074D01*
X116904937Y-88237046D01*
X116880063Y-88277875D01*
X116853829Y-88353183D01*
X116774022Y-88650000D01*
X116574598Y-88650000D01*
X116574598Y-88494600D01*
X116399598Y-88494600D01*
X116399598Y-87853401D01*
X116564828Y-87853401D01*
X116564828Y-87698002D01*
X116059429Y-87698002D01*
X116059429Y-87853401D01*
X116224598Y-87853401D01*
X116224598Y-88494600D01*
X116049598Y-88494600D01*
X115582789Y-88494600D01*
X115582789Y-88440012D01*
X115361566Y-88440012D01*
X115361566Y-88564576D01*
X114098953Y-88564576D01*
X114098953Y-87698002D01*
X113919739Y-87698002D01*
X113919739Y-88491791D01*
X113438154Y-88491791D01*
X113004928Y-88491791D01*
X113004928Y-88063389D01*
X113234516Y-88063389D01*
X113234516Y-87919225D01*
X112836950Y-87919225D01*
X112836950Y-88505774D01*
X112603148Y-88505774D01*
X112440116Y-88505774D01*
X112440116Y-87919225D01*
X112269330Y-87919225D01*
X112269330Y-88019975D01*
X112258094Y-88019975D01*
X112229319Y-87975974D01*
X112202361Y-87945709D01*
X112176945Y-87926247D01*
X112147769Y-87913112D01*
X112108949Y-87904312D01*
X112057937Y-87901029D01*
X111986790Y-87904477D01*
X111933389Y-87913608D01*
X111894111Y-87926919D01*
X111859558Y-87948029D01*
X111832509Y-87976601D01*
X111812229Y-88013747D01*
X111799655Y-88055246D01*
X111790971Y-88112040D01*
X111787683Y-88188014D01*
X111608444Y-88188014D01*
X111608042Y-88178100D01*
X111597390Y-88103459D01*
X111581969Y-88048735D01*
X111556677Y-87999436D01*
X111522885Y-87961962D01*
X111479814Y-87934612D01*
X111430409Y-87917314D01*
X111363531Y-87905486D01*
X111274712Y-87901029D01*
X111189881Y-87905699D01*
X111124925Y-87918207D01*
X111075898Y-87936749D01*
X111033267Y-87965349D01*
X110999163Y-88004391D01*
X110973011Y-88055696D01*
X110956829Y-88112318D01*
X110945700Y-88188882D01*
X110944750Y-88211828D01*
X110941503Y-88290230D01*
X109963381Y-88290230D01*
X109967280Y-88176779D01*
X109962850Y-88046055D01*
X109951170Y-87948359D01*
X109934368Y-87877215D01*
X109914688Y-87828183D01*
X112831332Y-87828183D01*
X113045533Y-87828183D01*
X113045533Y-87630774D01*
X112831332Y-87630774D01*
X112831332Y-87828183D01*
X109914688Y-87828183D01*
X109913978Y-87826414D01*
X109888490Y-87785547D01*
X109858067Y-87753112D01*
X109822383Y-87728105D01*
X109767672Y-87705234D01*
X109694393Y-87689800D01*
X109597679Y-87684019D01*
X109500921Y-87689802D01*
X109427648Y-87705238D01*
X109372976Y-87728105D01*
X109337264Y-87753116D01*
X109306832Y-87785554D01*
X109281354Y-87826420D01*
X109260990Y-87877215D01*
X109244188Y-87948359D01*
X109232508Y-88046055D01*
X109228079Y-88176779D01*
X109086051Y-88176779D01*
X109086051Y-87919225D01*
X108915265Y-87919225D01*
X108915265Y-88384019D01*
X108911579Y-88435150D01*
X108902324Y-88468414D01*
X108889375Y-88489043D01*
X108869862Y-88503172D01*
X108838590Y-88513086D01*
X108790640Y-88517009D01*
X108721270Y-88511399D01*
X108677250Y-88497409D01*
X108653955Y-88481624D01*
X108635387Y-88459832D01*
X108621257Y-88430914D01*
X108609303Y-88378894D01*
X108604466Y-88297191D01*
X108604466Y-87919225D01*
X108433618Y-87919225D01*
X108433618Y-88650000D01*
X107951509Y-88650000D01*
X107980853Y-88638825D01*
X108012001Y-88617886D01*
X108035016Y-88591748D01*
X108050828Y-88559691D01*
X108063861Y-88502208D01*
X108069024Y-88416198D01*
X108069024Y-88063389D01*
X108249642Y-88063389D01*
X108215997Y-87919225D01*
X108063407Y-87919225D01*
X108063407Y-87770786D01*
X107901046Y-87702215D01*
X107901046Y-87919225D01*
X107628044Y-87919225D01*
X107628044Y-88063389D01*
X107901046Y-88063389D01*
X107901046Y-88410580D01*
X107898758Y-88452384D01*
X107893353Y-88476404D01*
X107881533Y-88494180D01*
X107859708Y-88507240D01*
X107830339Y-88514129D01*
X107780634Y-88517009D01*
X107713768Y-88513463D01*
X107605634Y-88500218D01*
X107437126Y-88500218D01*
X107437126Y-85140218D01*
X107605634Y-85140218D01*
X107605634Y-85287191D01*
X107742743Y-85301528D01*
X107828200Y-85305387D01*
X107895518Y-85301819D01*
X107945118Y-85292434D01*
X107980852Y-85278825D01*
X108012001Y-85257886D01*
X108035015Y-85231748D01*
X108050828Y-85199691D01*
X108063052Y-85145774D01*
X108407056Y-85145774D01*
X108407056Y-85290000D01*
X109052406Y-85290000D01*
X109052406Y-85145774D01*
X108808835Y-85145774D01*
X108808835Y-84913377D01*
X109236443Y-84913377D01*
X109240111Y-85016783D01*
X109249789Y-85094198D01*
X109263738Y-85150720D01*
X109287068Y-85202425D01*
X109317790Y-85241110D01*
X109356184Y-85268995D01*
X109401099Y-85287103D01*
X109461553Y-85299375D01*
X109541625Y-85303982D01*
X109606407Y-85298738D01*
X109651595Y-85285115D01*
X109691557Y-85259688D01*
X109739034Y-85213002D01*
X109750269Y-85213002D01*
X109750269Y-85290000D01*
X109919652Y-85290000D01*
X109919204Y-84965218D01*
X110926116Y-84965218D01*
X110926116Y-85116404D01*
X111056297Y-85116404D01*
X111056297Y-85290000D01*
X111224275Y-85290000D01*
X111224275Y-85133196D01*
X111786339Y-85133196D01*
X111786339Y-85290000D01*
X112441520Y-85290000D01*
X112441520Y-85059007D01*
X112164305Y-84843401D01*
X112079869Y-84771986D01*
X112020079Y-84716029D01*
X111996870Y-84687469D01*
X111983748Y-84662845D01*
X111976621Y-84635696D01*
X111973917Y-84598426D01*
X111977723Y-84552609D01*
X111987229Y-84523504D01*
X112004797Y-84501671D01*
X112032719Y-84486441D01*
X112068309Y-84478434D01*
X112123699Y-84475205D01*
X112179151Y-84478606D01*
X112215412Y-84487112D01*
X112244283Y-84503143D01*
X112263711Y-84526313D01*
X112275672Y-84556934D01*
X112283312Y-84603982D01*
X112462525Y-84603982D01*
X112455025Y-84530371D01*
X112442193Y-84474903D01*
X112425400Y-84433928D01*
X112400438Y-84398482D01*
X112366893Y-84370403D01*
X112323246Y-84349237D01*
X112275258Y-84336284D01*
X112210539Y-84327376D01*
X112125104Y-84324019D01*
X112038676Y-84327310D01*
X111974099Y-84335989D01*
X111927023Y-84348504D01*
X111884399Y-84369280D01*
X111852028Y-84397109D01*
X111828349Y-84432524D01*
X111813146Y-84473379D01*
X111802804Y-84528385D01*
X111798917Y-84601174D01*
X111804669Y-84671590D01*
X111819922Y-84723051D01*
X111847925Y-84770121D01*
X111899729Y-84829419D01*
X111975091Y-84901039D01*
X112050243Y-84965218D01*
X112134508Y-85030043D01*
X112260903Y-85120617D01*
X112260903Y-85133196D01*
X111786339Y-85133196D01*
X111224275Y-85133196D01*
X111224275Y-85116404D01*
X111612072Y-85116404D01*
X111612072Y-84956791D01*
X111305486Y-84324019D01*
X111117907Y-84324019D01*
X111435667Y-84965218D01*
X111224275Y-84965218D01*
X111224275Y-84742590D01*
X111056297Y-84742590D01*
X111056297Y-84965218D01*
X110926116Y-84965218D01*
X109919204Y-84965218D01*
X109919183Y-84949769D01*
X110170856Y-84949769D01*
X110702878Y-84949769D01*
X110702878Y-84795774D01*
X110170856Y-84795774D01*
X110170856Y-84949769D01*
X109919183Y-84949769D01*
X109918247Y-84270774D01*
X109748865Y-84270774D01*
X109750269Y-84615218D01*
X109739034Y-84615218D01*
X109698511Y-84569940D01*
X109659289Y-84543777D01*
X109612660Y-84529735D01*
X109541625Y-84524176D01*
X109461558Y-84528791D01*
X109401103Y-84541084D01*
X109356184Y-84559225D01*
X109317790Y-84587110D01*
X109287068Y-84625795D01*
X109263738Y-84677500D01*
X109249771Y-84733962D01*
X109240102Y-84810939D01*
X109236443Y-84913377D01*
X108808835Y-84913377D01*
X108808835Y-84703389D01*
X109038424Y-84703389D01*
X109038424Y-84559225D01*
X108640857Y-84559225D01*
X108640857Y-85145774D01*
X108407056Y-85145774D01*
X108063052Y-85145774D01*
X108063861Y-85142208D01*
X108069024Y-85056198D01*
X108069024Y-84703389D01*
X108249641Y-84703389D01*
X108215997Y-84559225D01*
X108063406Y-84559225D01*
X108063406Y-84468183D01*
X108635240Y-84468183D01*
X108849441Y-84468183D01*
X108849441Y-84270774D01*
X108635240Y-84270774D01*
X108635240Y-84468183D01*
X108063406Y-84468183D01*
X108063406Y-84410786D01*
X107901046Y-84342215D01*
X107901046Y-84559225D01*
X107628043Y-84559225D01*
X107628043Y-84703389D01*
X107901046Y-84703389D01*
X107901046Y-85050580D01*
X107898757Y-85092384D01*
X107893352Y-85116404D01*
X107881533Y-85134180D01*
X107859708Y-85147240D01*
X107830339Y-85154129D01*
X107780634Y-85157009D01*
X107713767Y-85153463D01*
X107605634Y-85140218D01*
X107437126Y-85140218D01*
X107437126Y-83000980D01*
X107605634Y-83000980D01*
X108010222Y-83458813D01*
X107605634Y-83458813D01*
X107605634Y-83610000D01*
X108234193Y-83610000D01*
X108418230Y-83610000D01*
X108597443Y-83610000D01*
X108597443Y-83194176D01*
X108919416Y-83194176D01*
X108919416Y-83610000D01*
X109098629Y-83610000D01*
X109200051Y-83610000D01*
X109414252Y-83610000D01*
X109743247Y-83212372D01*
X109743247Y-83610000D01*
X109911225Y-83610000D01*
X109911225Y-83453196D01*
X110107902Y-83453196D01*
X110107902Y-83610000D01*
X110763083Y-83610000D01*
X110763083Y-83379007D01*
X110485868Y-83163401D01*
X110401432Y-83091986D01*
X110341642Y-83036029D01*
X110318433Y-83007469D01*
X110305311Y-82982845D01*
X110303099Y-82974419D01*
X110951273Y-82974419D01*
X110954610Y-83053619D01*
X110963981Y-83121504D01*
X110978567Y-83179521D01*
X111000297Y-83235207D01*
X111032836Y-83296536D01*
X111077973Y-83364352D01*
X111161363Y-83469390D01*
X111298464Y-83623982D01*
X111514069Y-83623982D01*
X111500009Y-83610000D01*
X111940334Y-83610000D01*
X112113930Y-83610000D01*
X112113930Y-82940774D01*
X112108312Y-82854007D01*
X112162900Y-82898825D01*
X112414898Y-83054225D01*
X112414898Y-82869394D01*
X112113930Y-82658002D01*
X111940334Y-82658002D01*
X111940334Y-83610000D01*
X111500009Y-83610000D01*
X111391993Y-83502582D01*
X111318797Y-83423825D01*
X111254822Y-83345178D01*
X111178113Y-83238995D01*
X111189287Y-83238995D01*
X111219803Y-83263491D01*
X111241799Y-83275448D01*
X111265930Y-83281401D01*
X111304081Y-83283813D01*
X111394513Y-83280423D01*
X111459100Y-83271656D01*
X111503628Y-83259328D01*
X111542693Y-83238247D01*
X111572156Y-83208571D01*
X111593204Y-83169019D01*
X111605549Y-83124067D01*
X111614308Y-83059213D01*
X111617689Y-82968801D01*
X111614116Y-82875577D01*
X111604858Y-82808689D01*
X111591799Y-82762294D01*
X111569597Y-82721619D01*
X111538330Y-82691007D01*
X111496606Y-82669237D01*
X111449299Y-82656525D01*
X111381038Y-82647502D01*
X111285885Y-82644019D01*
X111188849Y-82647613D01*
X111119797Y-82656892D01*
X111072417Y-82669909D01*
X111030734Y-82692141D01*
X110999451Y-82723231D01*
X110977223Y-82764431D01*
X110964156Y-82811302D01*
X110954865Y-82879269D01*
X110952013Y-82954818D01*
X110951273Y-82974419D01*
X110303099Y-82974419D01*
X110298184Y-82955696D01*
X110295480Y-82918426D01*
X110299286Y-82872609D01*
X110308792Y-82843504D01*
X110326360Y-82821671D01*
X110354282Y-82806441D01*
X110389872Y-82798434D01*
X110445262Y-82795205D01*
X110500714Y-82798606D01*
X110536976Y-82807112D01*
X110565846Y-82823143D01*
X110585275Y-82846313D01*
X110597235Y-82876934D01*
X110604875Y-82923982D01*
X110784088Y-82923982D01*
X110776588Y-82850371D01*
X110763756Y-82794903D01*
X110746963Y-82753928D01*
X110722001Y-82718482D01*
X110688456Y-82690403D01*
X110644809Y-82669237D01*
X110596821Y-82656284D01*
X110532102Y-82647376D01*
X110446667Y-82644019D01*
X110360240Y-82647310D01*
X110295662Y-82655989D01*
X110248586Y-82668504D01*
X110205962Y-82689280D01*
X110173591Y-82717109D01*
X110149912Y-82752524D01*
X110134710Y-82793379D01*
X110124368Y-82848385D01*
X110120480Y-82921174D01*
X110126232Y-82991590D01*
X110141485Y-83043051D01*
X110169489Y-83090121D01*
X110221292Y-83149419D01*
X110296654Y-83221039D01*
X110371806Y-83285218D01*
X110456071Y-83350043D01*
X110582466Y-83440617D01*
X110582466Y-83453196D01*
X110107902Y-83453196D01*
X109911225Y-83453196D01*
X109911225Y-82590774D01*
X109743247Y-82590774D01*
X109743247Y-83199794D01*
X109433853Y-82879225D01*
X109232230Y-82879225D01*
X109552860Y-83205411D01*
X109200051Y-83610000D01*
X109098629Y-83610000D01*
X109098629Y-82658002D01*
X108919416Y-82658002D01*
X108919416Y-83036029D01*
X108597443Y-83036029D01*
X108597443Y-82658002D01*
X108418230Y-82658002D01*
X108418230Y-83610000D01*
X108234193Y-83610000D01*
X108234193Y-83485375D01*
X107835222Y-83030411D01*
X108209036Y-83030411D01*
X108209036Y-82881973D01*
X107605634Y-82881973D01*
X107605634Y-83000980D01*
X107437126Y-83000980D01*
X107437126Y-81665423D01*
X107548237Y-81665423D01*
X107556598Y-81738009D01*
X107570090Y-81793098D01*
X107587438Y-81834134D01*
X107612744Y-81869603D01*
X107646116Y-81897417D01*
X107688921Y-81918093D01*
X107735959Y-81930651D01*
X107799709Y-81939309D01*
X107884193Y-81942578D01*
X107982893Y-81936772D01*
X108015477Y-81930000D01*
X108358025Y-81930000D01*
X108534429Y-81930000D01*
X108596039Y-81720012D01*
X108918012Y-81720012D01*
X108978218Y-81930000D01*
X109153218Y-81930000D01*
X109021700Y-81466610D01*
X109229483Y-81466610D01*
X109235065Y-81590251D01*
X109249880Y-81683697D01*
X109271493Y-81752923D01*
X109296384Y-81800537D01*
X109327917Y-81840003D01*
X109366445Y-81872285D01*
X109412848Y-81897821D01*
X109480759Y-81920133D01*
X109572570Y-81935415D01*
X109694277Y-81941174D01*
X109802879Y-81938607D01*
X109942062Y-81930000D01*
X110875680Y-81930000D01*
X111052084Y-81930000D01*
X111113694Y-81720012D01*
X111435668Y-81720012D01*
X111495873Y-81930000D01*
X111670873Y-81930000D01*
X111626369Y-81773196D01*
X111786339Y-81773196D01*
X111786339Y-81930000D01*
X112441521Y-81930000D01*
X112441521Y-81699007D01*
X112164305Y-81483401D01*
X112141131Y-81463801D01*
X112605957Y-81463801D01*
X112612246Y-81603813D01*
X112620747Y-81664015D01*
X112633923Y-81725629D01*
X112652792Y-81788587D01*
X112672559Y-81834560D01*
X112692724Y-81867046D01*
X112718562Y-81894370D01*
X112749535Y-81915025D01*
X112786514Y-81929328D01*
X112851969Y-81940715D01*
X112957301Y-81945387D01*
X113061455Y-81940727D01*
X113122895Y-81930000D01*
X113618771Y-81930000D01*
X113792367Y-81930000D01*
X113792367Y-81606622D01*
X114317977Y-81606622D01*
X114322617Y-81690421D01*
X114335096Y-81755222D01*
X114353698Y-81804703D01*
X114382246Y-81847936D01*
X114420670Y-81882245D01*
X114470568Y-81908323D01*
X114525735Y-81924615D01*
X114598177Y-81935653D01*
X114691791Y-81939769D01*
X114772771Y-81936360D01*
X114816598Y-81930000D01*
X115099799Y-81930000D01*
X115264968Y-81930000D01*
X115264968Y-81448414D01*
X115248176Y-81200629D01*
X115253794Y-81200629D01*
X115400767Y-81612178D01*
X115542184Y-81612178D01*
X115689157Y-81200629D01*
X115694774Y-81200629D01*
X115677983Y-81448414D01*
X115677983Y-81930000D01*
X115843213Y-81930000D01*
X115843213Y-81665423D01*
X115940422Y-81665423D01*
X115948782Y-81738009D01*
X115962274Y-81793098D01*
X115979623Y-81834134D01*
X116004928Y-81869603D01*
X116038300Y-81897417D01*
X116081105Y-81918093D01*
X116128144Y-81930651D01*
X116191893Y-81939309D01*
X116276378Y-81942578D01*
X116375077Y-81936772D01*
X116449459Y-81921313D01*
X116504623Y-81898492D01*
X116540775Y-81873473D01*
X116571567Y-81841223D01*
X116597352Y-81800817D01*
X116618012Y-81750847D01*
X116635167Y-81680583D01*
X116647079Y-81584219D01*
X116651596Y-81455375D01*
X116647087Y-81325637D01*
X116641547Y-81280375D01*
X116797836Y-81280375D01*
X116802357Y-81359571D01*
X116814396Y-81419372D01*
X116832152Y-81463801D01*
X116859532Y-81501758D01*
X116897739Y-81532241D01*
X116949022Y-81555514D01*
X117005035Y-81569484D01*
X117081339Y-81579152D01*
X117182824Y-81582808D01*
X117285040Y-81582808D01*
X117285040Y-81930000D01*
X117464192Y-81930000D01*
X117464192Y-80978002D01*
X117245839Y-80973789D01*
X117127305Y-80977458D01*
X117038452Y-80987145D01*
X116973569Y-81001083D01*
X116913271Y-81024917D01*
X116869044Y-81056004D01*
X116837770Y-81094200D01*
X116816951Y-81139943D01*
X116803027Y-81200683D01*
X116798198Y-81274818D01*
X116797836Y-81280375D01*
X116641547Y-81280375D01*
X116635180Y-81228358D01*
X116618012Y-81157215D01*
X116597292Y-81106463D01*
X116571470Y-81065598D01*
X116540693Y-81033141D01*
X116504623Y-81008105D01*
X116449459Y-80985284D01*
X116375077Y-80969825D01*
X116276378Y-80964019D01*
X116192907Y-80967468D01*
X116129858Y-80976613D01*
X116083243Y-80989909D01*
X116041048Y-81011499D01*
X116008353Y-81040240D01*
X115983836Y-81076737D01*
X115967516Y-81118581D01*
X115955360Y-81174991D01*
X115948787Y-81249600D01*
X116123787Y-81249600D01*
X116136705Y-81199213D01*
X116152406Y-81165715D01*
X116170010Y-81144637D01*
X116193288Y-81130260D01*
X116227470Y-81120404D01*
X116276378Y-81116610D01*
X116327005Y-81120465D01*
X116365832Y-81130885D01*
X116395385Y-81146713D01*
X116419308Y-81169769D01*
X116439306Y-81203115D01*
X116454919Y-81249600D01*
X116467346Y-81329897D01*
X116472383Y-81455375D01*
X116467336Y-81579499D01*
X116454919Y-81658401D01*
X116439367Y-81703932D01*
X116419384Y-81736871D01*
X116395385Y-81759884D01*
X116365832Y-81775712D01*
X116327005Y-81786132D01*
X116276378Y-81789987D01*
X116221416Y-81786357D01*
X116184320Y-81777121D01*
X116160240Y-81764098D01*
X116141948Y-81744153D01*
X116126694Y-81712657D01*
X116115422Y-81665423D01*
X115940422Y-81665423D01*
X115843213Y-81665423D01*
X115843213Y-80978002D01*
X115631760Y-80978002D01*
X115479169Y-81434370D01*
X115463782Y-81434370D01*
X115308382Y-80978002D01*
X115099799Y-80978002D01*
X115099799Y-81930000D01*
X114816598Y-81930000D01*
X114835955Y-81927191D01*
X114896335Y-81910251D01*
X114963389Y-81882372D01*
X114963389Y-81707372D01*
X114876565Y-81747355D01*
X114812875Y-81770387D01*
X114751357Y-81784045D01*
X114688982Y-81788583D01*
X114615967Y-81782869D01*
X114566856Y-81768267D01*
X114534987Y-81747306D01*
X114512686Y-81716611D01*
X114497464Y-81670288D01*
X114491573Y-81602409D01*
X114495566Y-81554683D01*
X114506067Y-81520597D01*
X114521676Y-81496713D01*
X114544108Y-81479063D01*
X114577612Y-81465374D01*
X114625968Y-81456779D01*
X114701561Y-81452627D01*
X114793062Y-81457364D01*
X114939575Y-81474975D01*
X114897566Y-80978002D01*
X114358583Y-80978002D01*
X114358583Y-81126379D01*
X114742166Y-81129188D01*
X114756149Y-81302784D01*
X114694539Y-81299975D01*
X114606367Y-81305593D01*
X114533836Y-81317285D01*
X114477662Y-81332759D01*
X114434909Y-81351083D01*
X114396797Y-81376509D01*
X114367231Y-81407596D01*
X114345272Y-81444933D01*
X114330982Y-81486475D01*
X114321478Y-81539533D01*
X114317977Y-81606622D01*
X113792367Y-81606622D01*
X113792367Y-81260774D01*
X113786749Y-81174007D01*
X113841338Y-81218825D01*
X114093335Y-81374225D01*
X114093335Y-81189394D01*
X113792367Y-80978002D01*
X113618771Y-80978002D01*
X113618771Y-81930000D01*
X113122895Y-81930000D01*
X113126744Y-81929328D01*
X113163636Y-81914946D01*
X113194375Y-81894061D01*
X113219862Y-81866313D01*
X113239605Y-81833444D01*
X113259123Y-81786807D01*
X113277930Y-81722821D01*
X113292119Y-81646779D01*
X113301283Y-81557734D01*
X113304553Y-81453970D01*
X113300858Y-81346401D01*
X113290655Y-81257180D01*
X113275122Y-81183777D01*
X113247042Y-81098318D01*
X113218457Y-81045901D01*
X113193916Y-81018993D01*
X113163465Y-80998074D01*
X113126072Y-80982948D01*
X113059950Y-80970505D01*
X112954553Y-80965423D01*
X112849194Y-80970519D01*
X112783705Y-80982948D01*
X112746704Y-80997994D01*
X112716486Y-81018693D01*
X112692053Y-81045230D01*
X112663463Y-81097034D01*
X112635327Y-81182372D01*
X112619892Y-81257661D01*
X112609678Y-81350492D01*
X112606370Y-81451222D01*
X112605957Y-81463801D01*
X112141131Y-81463801D01*
X112079869Y-81411986D01*
X112020080Y-81356029D01*
X111996870Y-81327469D01*
X111983749Y-81302845D01*
X111976621Y-81275696D01*
X111973918Y-81238426D01*
X111977723Y-81192609D01*
X111987229Y-81163504D01*
X112004797Y-81141671D01*
X112032719Y-81126441D01*
X112068309Y-81118434D01*
X112123700Y-81115205D01*
X112179151Y-81118606D01*
X112215413Y-81127112D01*
X112244284Y-81143143D01*
X112263712Y-81166313D01*
X112275672Y-81196934D01*
X112283312Y-81243982D01*
X112462526Y-81243982D01*
X112455025Y-81170371D01*
X112442193Y-81114903D01*
X112425401Y-81073928D01*
X112400438Y-81038482D01*
X112366893Y-81010403D01*
X112323246Y-80989237D01*
X112275259Y-80976284D01*
X112210539Y-80967376D01*
X112125104Y-80964019D01*
X112038677Y-80967310D01*
X111974100Y-80975989D01*
X111927023Y-80988504D01*
X111884400Y-81009280D01*
X111852029Y-81037109D01*
X111828349Y-81072524D01*
X111813147Y-81113379D01*
X111802805Y-81168385D01*
X111798918Y-81241174D01*
X111804669Y-81311590D01*
X111819923Y-81363051D01*
X111847926Y-81410121D01*
X111899729Y-81469419D01*
X111975091Y-81541039D01*
X112050244Y-81605218D01*
X112134509Y-81670043D01*
X112260903Y-81760617D01*
X112260903Y-81773196D01*
X111786339Y-81773196D01*
X111626369Y-81773196D01*
X111400680Y-80978002D01*
X111151491Y-80978002D01*
X110981539Y-81564612D01*
X110875680Y-81930000D01*
X109942062Y-81930000D01*
X109942062Y-80978002D01*
X109779640Y-80972384D01*
X109701894Y-80974248D01*
X109636880Y-80979406D01*
X109530885Y-80994932D01*
X109450128Y-81016948D01*
X109389767Y-81043825D01*
X109337279Y-81081847D01*
X109296271Y-81130539D01*
X109265875Y-81191531D01*
X109247148Y-81258536D01*
X109234310Y-81348425D01*
X109229885Y-81456779D01*
X109229483Y-81466610D01*
X109021700Y-81466610D01*
X108883025Y-80978002D01*
X108633836Y-80978002D01*
X108463884Y-81564612D01*
X108358025Y-81930000D01*
X108015477Y-81930000D01*
X108057275Y-81921313D01*
X108112438Y-81898492D01*
X108148591Y-81873473D01*
X108179383Y-81841223D01*
X108205168Y-81800817D01*
X108225828Y-81750847D01*
X108242983Y-81680583D01*
X108254895Y-81584219D01*
X108259411Y-81455375D01*
X108254902Y-81325637D01*
X108242996Y-81228358D01*
X108225828Y-81157215D01*
X108205108Y-81106463D01*
X108179286Y-81065598D01*
X108148508Y-81033141D01*
X108112438Y-81008105D01*
X108057275Y-80985284D01*
X107982893Y-80969825D01*
X107884193Y-80964019D01*
X107800722Y-80967468D01*
X107737674Y-80976613D01*
X107691058Y-80989909D01*
X107648864Y-81011499D01*
X107616169Y-81040240D01*
X107591652Y-81076737D01*
X107575332Y-81118581D01*
X107563176Y-81174991D01*
X107556603Y-81249600D01*
X107731603Y-81249600D01*
X107744521Y-81199213D01*
X107760222Y-81165715D01*
X107777826Y-81144637D01*
X107801104Y-81130260D01*
X107835285Y-81120404D01*
X107884193Y-81116610D01*
X107934820Y-81120465D01*
X107973648Y-81130885D01*
X108003201Y-81146713D01*
X108027124Y-81169769D01*
X108047122Y-81203115D01*
X108062735Y-81249600D01*
X108075162Y-81329897D01*
X108080198Y-81455375D01*
X108075152Y-81579499D01*
X108062735Y-81658401D01*
X108047182Y-81703932D01*
X108027200Y-81736871D01*
X108003201Y-81759884D01*
X107973648Y-81775712D01*
X107934820Y-81786132D01*
X107884193Y-81789987D01*
X107829232Y-81786357D01*
X107792135Y-81777121D01*
X107768056Y-81764098D01*
X107749764Y-81744153D01*
X107734510Y-81712657D01*
X107723237Y-81665423D01*
X107548237Y-81665423D01*
X107437126Y-81665423D01*
X107437126Y-78361416D01*
X107587438Y-78361416D01*
X107591253Y-78418819D01*
X107601503Y-78462676D01*
X107616870Y-78495811D01*
X107639847Y-78523341D01*
X107672420Y-78545781D01*
X107716948Y-78562978D01*
X107794890Y-78576931D01*
X107916433Y-78582578D01*
X108006732Y-78579565D01*
X108074060Y-78571629D01*
X108122941Y-78560230D01*
X108167759Y-78540835D01*
X108200885Y-78515221D01*
X108224424Y-78483232D01*
X108239410Y-78445527D01*
X108248827Y-78395281D01*
X108251046Y-78329176D01*
X108078794Y-78329176D01*
X108073386Y-78369469D01*
X108062002Y-78395732D01*
X108042299Y-78414796D01*
X108009551Y-78428644D01*
X107968487Y-78435590D01*
X107903794Y-78438414D01*
X107827914Y-78433416D01*
X107790465Y-78422294D01*
X107773735Y-78409006D01*
X107763425Y-78389887D01*
X107759630Y-78362821D01*
X107764106Y-78336829D01*
X107777154Y-78315926D01*
X107798640Y-78299428D01*
X107836627Y-78283014D01*
X107883217Y-78269977D01*
X107955634Y-78254987D01*
X108060835Y-78231118D01*
X108128558Y-78208093D01*
X108167229Y-78188040D01*
X108195511Y-78166094D01*
X108215326Y-78142330D01*
X108229094Y-78114531D01*
X108236507Y-78085605D01*
X108423848Y-78085605D01*
X108593230Y-78085605D01*
X108603136Y-78040713D01*
X108616298Y-78011054D01*
X108631760Y-77992487D01*
X108652491Y-77979978D01*
X108683256Y-77971342D01*
X108727625Y-77968002D01*
X108796923Y-77974166D01*
X108841747Y-77989740D01*
X108865256Y-78006960D01*
X108884111Y-78030773D01*
X108898473Y-78062524D01*
X108910427Y-78119008D01*
X108915265Y-78207421D01*
X108910438Y-78291816D01*
X108898473Y-78346029D01*
X108884130Y-78376233D01*
X108865075Y-78398932D01*
X108841015Y-78415333D01*
X108795725Y-78429854D01*
X108726221Y-78435605D01*
X108683549Y-78432649D01*
X108653605Y-78424988D01*
X108633164Y-78413928D01*
X108617172Y-78397249D01*
X108603209Y-78371417D01*
X108591826Y-78333389D01*
X108423848Y-78333389D01*
X108429287Y-78398564D01*
X108440232Y-78447912D01*
X108455355Y-78484637D01*
X108478067Y-78516183D01*
X108508828Y-78541271D01*
X108549145Y-78560230D01*
X108593306Y-78571676D01*
X108653388Y-78579587D01*
X108733243Y-78582578D01*
X108825891Y-78578119D01*
X108895762Y-78566284D01*
X108947444Y-78548995D01*
X108992865Y-78521456D01*
X109028234Y-78483943D01*
X109054544Y-78434933D01*
X109070701Y-78380101D01*
X109081840Y-78305442D01*
X109085873Y-78210230D01*
X109263066Y-78210230D01*
X109264471Y-78264818D01*
X109761444Y-78264818D01*
X109752242Y-78329157D01*
X109739035Y-78370514D01*
X109717372Y-78402328D01*
X109686583Y-78423026D01*
X109647014Y-78434034D01*
X109586444Y-78438414D01*
X109528411Y-78432702D01*
X109494731Y-78418813D01*
X109470451Y-78393072D01*
X109449240Y-78346029D01*
X109275645Y-78346029D01*
X109288084Y-78407129D01*
X109303754Y-78453836D01*
X109321868Y-78488850D01*
X109346288Y-78518949D01*
X109377200Y-78542866D01*
X109415657Y-78560901D01*
X109483236Y-78576415D01*
X109585040Y-78582578D01*
X109676701Y-78578026D01*
X109745640Y-78565956D01*
X109796493Y-78548323D01*
X109840894Y-78520344D01*
X109875860Y-78481944D01*
X109902189Y-78431392D01*
X109918322Y-78375203D01*
X109929437Y-78298915D01*
X109933344Y-78204612D01*
X110103689Y-78204612D01*
X110107447Y-78304183D01*
X110117375Y-78378856D01*
X110131716Y-78433529D01*
X110155397Y-78483248D01*
X110186732Y-78520873D01*
X110226177Y-78548323D01*
X110271959Y-78566016D01*
X110333798Y-78578051D01*
X110415893Y-78582578D01*
X110485547Y-78577390D01*
X110530687Y-78564382D01*
X110568314Y-78539553D01*
X110606280Y-78495811D01*
X110617454Y-78495811D01*
X110617454Y-78871029D01*
X110786898Y-78871029D01*
X110786898Y-78315193D01*
X110914881Y-78315193D01*
X110919098Y-78384933D01*
X110930375Y-78437919D01*
X110947121Y-78477615D01*
X110972602Y-78511278D01*
X111008053Y-78538302D01*
X111055626Y-78558825D01*
X111107313Y-78570950D01*
X111178306Y-78579381D01*
X111273307Y-78582578D01*
X111371022Y-78579015D01*
X111444332Y-78569604D01*
X111498011Y-78556017D01*
X111546837Y-78533256D01*
X111583254Y-78503067D01*
X111609324Y-78465036D01*
X111625578Y-78420756D01*
X111635551Y-78361409D01*
X111637290Y-78283014D01*
X111462290Y-78283014D01*
X111453849Y-78337857D01*
X111439881Y-78373323D01*
X111416574Y-78399574D01*
X111380408Y-78417409D01*
X111334578Y-78426349D01*
X111262072Y-78429987D01*
X111198670Y-78427176D01*
X111157841Y-78420218D01*
X111125184Y-78406081D01*
X111105329Y-78385901D01*
X111094201Y-78358315D01*
X111089881Y-78316598D01*
X111095667Y-78277168D01*
X111112290Y-78245218D01*
X111139827Y-78218545D01*
X111185807Y-78191301D01*
X111242667Y-78167727D01*
X111330704Y-78138789D01*
X111440857Y-78101259D01*
X111511993Y-78068142D01*
X111552005Y-78041536D01*
X111581547Y-78013343D01*
X111602302Y-77983450D01*
X111616462Y-77949729D01*
X111625580Y-77908697D01*
X111628864Y-77858825D01*
X111624765Y-77792889D01*
X111613782Y-77742636D01*
X111597417Y-77704830D01*
X111572570Y-77672855D01*
X111537829Y-77646961D01*
X111490989Y-77627100D01*
X111440246Y-77615297D01*
X111371010Y-77607115D01*
X111278864Y-77604019D01*
X111188637Y-77607210D01*
X111120799Y-77615646D01*
X111071013Y-77627833D01*
X111025295Y-77648174D01*
X110990682Y-77675144D01*
X110965317Y-77708982D01*
X110948737Y-77748698D01*
X110937885Y-77802083D01*
X110934481Y-77872808D01*
X111112290Y-77872808D01*
X111120110Y-77829888D01*
X111132623Y-77802100D01*
X111152798Y-77781657D01*
X111184403Y-77767112D01*
X111223683Y-77759627D01*
X111284481Y-77756610D01*
X111347765Y-77759462D01*
X111387430Y-77766441D01*
X111419037Y-77780021D01*
X111438476Y-77798620D01*
X111449526Y-77824251D01*
X111453864Y-77864382D01*
X111448674Y-77888715D01*
X111432039Y-77912393D01*
X111400008Y-77936495D01*
X111334772Y-77967087D01*
X111207484Y-78011416D01*
X111100073Y-78050591D01*
X111030408Y-78085605D01*
X110991632Y-78113619D01*
X110962434Y-78144120D01*
X110941503Y-78177318D01*
X110927385Y-78214196D01*
X110918206Y-78259572D01*
X110914881Y-78315193D01*
X110786898Y-78315193D01*
X110786898Y-77839225D01*
X110617454Y-77839225D01*
X110617454Y-77910605D01*
X110606280Y-77910605D01*
X110560394Y-77866281D01*
X110522260Y-77842034D01*
X110479619Y-77828803D01*
X110420045Y-77823777D01*
X110337033Y-77828315D01*
X110274540Y-77840376D01*
X110228314Y-77858093D01*
X110188403Y-77885608D01*
X110156581Y-77923468D01*
X110132388Y-77973620D01*
X110117704Y-78028731D01*
X110107539Y-78104067D01*
X110103689Y-78204612D01*
X109933344Y-78204612D01*
X109933635Y-78197590D01*
X109929605Y-78098100D01*
X109918953Y-78023459D01*
X109903532Y-77968735D01*
X109878240Y-77919436D01*
X109844448Y-77881962D01*
X109801378Y-77854612D01*
X109751972Y-77837314D01*
X109685094Y-77825486D01*
X109596275Y-77821029D01*
X109511444Y-77825699D01*
X109446488Y-77838207D01*
X109397461Y-77856749D01*
X109354830Y-77885349D01*
X109320726Y-77924391D01*
X109294574Y-77975696D01*
X109278392Y-78032318D01*
X109267263Y-78108882D01*
X109266313Y-78131828D01*
X109263066Y-78210230D01*
X109085873Y-78210230D01*
X109086051Y-78206017D01*
X109081844Y-78104651D01*
X109070706Y-78028369D01*
X109054544Y-77972215D01*
X109028173Y-77921721D01*
X108993000Y-77883333D01*
X108948176Y-77855345D01*
X108896893Y-77837658D01*
X108827694Y-77825577D01*
X108736051Y-77821029D01*
X108655298Y-77824213D01*
X108594548Y-77832638D01*
X108549877Y-77844842D01*
X108509347Y-77864846D01*
X108478310Y-77891506D01*
X108455355Y-77925321D01*
X108440253Y-77964270D01*
X108429296Y-78016585D01*
X108423848Y-78085605D01*
X108236507Y-78085605D01*
X108237988Y-78079827D01*
X108241215Y-78036573D01*
X108237464Y-77980063D01*
X108227444Y-77937440D01*
X108212517Y-77905720D01*
X108190146Y-77879395D01*
X108158269Y-77857633D01*
X108114514Y-77840629D01*
X108038099Y-77826671D01*
X107919242Y-77821029D01*
X107803085Y-77826873D01*
X107728855Y-77841301D01*
X107686780Y-77858826D01*
X107655734Y-77881682D01*
X107633661Y-77909872D01*
X107618987Y-77943346D01*
X107608737Y-77988319D01*
X107604230Y-78047808D01*
X107772208Y-78047808D01*
X107777785Y-78017891D01*
X107789317Y-77996960D01*
X107806524Y-77982718D01*
X107844711Y-77970587D01*
X107920647Y-77965193D01*
X108000472Y-77969999D01*
X108039654Y-77980642D01*
X108057277Y-77993566D01*
X108067945Y-78012023D01*
X108071833Y-78037978D01*
X108068127Y-78050562D01*
X108055215Y-78063653D01*
X108027747Y-78077911D01*
X107972943Y-78095551D01*
X107856228Y-78124806D01*
X107757691Y-78151616D01*
X107693806Y-78177318D01*
X107657768Y-78199130D01*
X107630971Y-78223145D01*
X107611924Y-78249431D01*
X107594079Y-78296786D01*
X107587438Y-78361416D01*
X107437126Y-78361416D01*
X107437126Y-77492908D01*
X119287383Y-77492908D01*
X119287383Y-90453689D01*
G37*
D11*
X107040000Y-73500000D02*
X107040000Y-70900000D01*
X107040000Y-76100000D02*
X107040000Y-74770000D01*
X108370000Y-76100000D02*
X107040000Y-76100000D01*
X109640000Y-73500000D02*
X107040000Y-73500000D01*
X109640000Y-76100000D02*
X109640000Y-73500000D01*
X157960000Y-70900000D02*
X107040000Y-70900000D01*
X157960000Y-76100000D02*
X109640000Y-76100000D01*
X157960000Y-76100000D02*
X157960000Y-70900000D01*
D12*
G36*
X140940388Y-79904661D02*
G01*
X140940388Y-80940389D01*
X139904660Y-80940389D01*
X138868932Y-80940389D01*
X138868932Y-79904661D01*
X138868932Y-78868932D01*
X139904660Y-78868932D01*
X140940388Y-78868932D01*
X140940388Y-79904661D01*
G37*
G36*
X139559417Y-86809515D02*
G01*
X139559417Y-87154758D01*
X139214174Y-87154758D01*
X138868932Y-87154758D01*
X138868932Y-86809515D01*
X138868932Y-86464272D01*
X139214174Y-86464272D01*
X139559417Y-86464272D01*
X139559417Y-86809515D01*
G37*
G36*
X140249903Y-88190486D02*
G01*
X140249903Y-88535728D01*
X139904660Y-88535728D01*
X139559417Y-88535728D01*
X139559417Y-88190486D01*
X139559417Y-87845243D01*
X139904660Y-87845243D01*
X140249903Y-87845243D01*
X140249903Y-88190486D01*
G37*
G36*
X140249903Y-95785826D02*
G01*
X140249903Y-96131068D01*
X139904660Y-96131068D01*
X139559417Y-96131068D01*
X139559417Y-95785826D01*
X139559417Y-95440583D01*
X139904660Y-95440583D01*
X140249903Y-95440583D01*
X140249903Y-95785826D01*
G37*
G36*
X140940388Y-97166796D02*
G01*
X140940388Y-97512039D01*
X140249903Y-97512039D01*
X139559417Y-97512039D01*
X139559417Y-97166796D01*
X139559417Y-96821554D01*
X140249903Y-96821554D01*
X140940388Y-96821554D01*
X140940388Y-97166796D01*
G37*
G36*
X140940388Y-87154758D02*
G01*
X140940388Y-87845243D01*
X140595145Y-87845243D01*
X140249903Y-87845243D01*
X140249903Y-87154758D01*
X140249903Y-86464272D01*
X140595145Y-86464272D01*
X140940388Y-86464272D01*
X140940388Y-87154758D01*
G37*
G36*
X142321359Y-86809515D02*
G01*
X142321359Y-87154758D01*
X141976116Y-87154758D01*
X141630873Y-87154758D01*
X141630873Y-86809515D01*
X141630873Y-86464272D01*
X141976116Y-86464272D01*
X142321359Y-86464272D01*
X142321359Y-86809515D01*
G37*
G36*
X142321359Y-93023884D02*
G01*
X142321359Y-93369127D01*
X141976116Y-93369127D01*
X141630873Y-93369127D01*
X141630873Y-93023884D01*
X141630873Y-92678641D01*
X141976116Y-92678641D01*
X142321359Y-92678641D01*
X142321359Y-93023884D01*
G37*
G36*
X143702330Y-86119029D02*
G01*
X143702330Y-86464272D01*
X143357087Y-86464272D01*
X143011844Y-86464272D01*
X143011844Y-86119029D01*
X143011844Y-85773787D01*
X143357087Y-85773787D01*
X143702330Y-85773787D01*
X143702330Y-86119029D01*
G37*
G36*
X145083301Y-89571457D02*
G01*
X145083301Y-89916699D01*
X144738058Y-89916699D01*
X144392815Y-89916699D01*
X144392815Y-89571457D01*
X144392815Y-89226214D01*
X144738058Y-89226214D01*
X145083301Y-89226214D01*
X145083301Y-89571457D01*
G37*
G36*
X146464272Y-88535728D02*
G01*
X146464272Y-89226214D01*
X146119029Y-89226214D01*
X145773786Y-89226214D01*
X145773786Y-88535728D01*
X145773786Y-87845243D01*
X146119029Y-87845243D01*
X146464272Y-87845243D01*
X146464272Y-88535728D01*
G37*
G36*
X147154757Y-97166796D02*
G01*
X147154757Y-97512039D01*
X146809514Y-97512039D01*
X146464272Y-97512039D01*
X146464272Y-97166796D01*
X146464272Y-96821554D01*
X146809514Y-96821554D01*
X147154757Y-96821554D01*
X147154757Y-97166796D01*
G37*
G36*
X147845242Y-88880971D02*
G01*
X147845242Y-89226214D01*
X147500000Y-89226214D01*
X147154757Y-89226214D01*
X147154757Y-88880971D01*
X147154757Y-88535728D01*
X147500000Y-88535728D01*
X147845242Y-88535728D01*
X147845242Y-88880971D01*
G37*
G36*
X151988155Y-84738059D02*
G01*
X151988155Y-85083301D01*
X151642912Y-85083301D01*
X151297670Y-85083301D01*
X151297670Y-84738059D01*
X151297670Y-84392816D01*
X151642912Y-84392816D01*
X151988155Y-84392816D01*
X151988155Y-84738059D01*
G37*
G36*
X156131068Y-79904661D02*
G01*
X156131068Y-80940389D01*
X155095339Y-80940389D01*
X154059611Y-80940389D01*
X154059611Y-79904661D01*
X154059611Y-78868932D01*
X155095339Y-78868932D01*
X156131068Y-78868932D01*
X156131068Y-79904661D01*
G37*
G36*
X156131068Y-95095340D02*
G01*
X156131068Y-96131068D01*
X155095339Y-96131068D01*
X154059611Y-96131068D01*
X154059611Y-95095340D01*
X154059611Y-94059612D01*
X155095339Y-94059612D01*
X156131068Y-94059612D01*
X156131068Y-95095340D01*
G37*
G36*
X156821553Y-85428544D02*
G01*
X156821553Y-85773787D01*
X157166796Y-85773787D01*
X157512038Y-85773787D01*
X157512038Y-86119029D01*
X157512038Y-86464272D01*
X156821553Y-86464272D01*
X156131068Y-86464272D01*
X156131068Y-85773787D01*
X156131068Y-85083301D01*
X156476310Y-85083301D01*
X156821553Y-85083301D01*
X156821553Y-85428544D01*
G37*
G36*
X142321359Y-82321360D02*
G01*
X139904660Y-82321360D01*
X137487961Y-82321360D01*
X137487961Y-79904661D01*
X137487961Y-78178447D01*
X138178446Y-78178447D01*
X138178446Y-79904661D01*
X138178446Y-81630874D01*
X139904660Y-81630874D01*
X141630873Y-81630874D01*
X141630873Y-79904661D01*
X141630873Y-78178447D01*
X139904660Y-78178447D01*
X138178446Y-78178447D01*
X137487961Y-78178447D01*
X137487961Y-77487962D01*
X139904660Y-77487962D01*
X142321359Y-77487962D01*
X142321359Y-79904661D01*
X142321359Y-82321360D01*
G37*
G36*
X157512038Y-82321360D02*
G01*
X155095339Y-82321360D01*
X152678640Y-82321360D01*
X152678640Y-79904661D01*
X152678640Y-78178447D01*
X153369126Y-78178447D01*
X153369126Y-79904661D01*
X153369126Y-81630874D01*
X155095339Y-81630874D01*
X156821553Y-81630874D01*
X156821553Y-79904661D01*
X156821553Y-78178447D01*
X155095339Y-78178447D01*
X153369126Y-78178447D01*
X152678640Y-78178447D01*
X152678640Y-77487962D01*
X155095339Y-77487962D01*
X157512038Y-77487962D01*
X157512038Y-79904661D01*
X157512038Y-82321360D01*
G37*
G36*
X157512038Y-97512039D02*
G01*
X155095339Y-97512039D01*
X152678640Y-97512039D01*
X152678640Y-95095340D01*
X152678640Y-93369127D01*
X153369126Y-93369127D01*
X153369126Y-95095340D01*
X153369126Y-96821554D01*
X155095339Y-96821554D01*
X156821553Y-96821554D01*
X156821553Y-95095340D01*
X156821553Y-93369127D01*
X155095339Y-93369127D01*
X153369126Y-93369127D01*
X152678640Y-93369127D01*
X152678640Y-92678641D01*
X155095339Y-92678641D01*
X157512038Y-92678641D01*
X157512038Y-95095340D01*
X157512038Y-97512039D01*
G37*
G36*
X138868932Y-95785826D02*
G01*
X138868932Y-97512039D01*
X138523689Y-97512039D01*
X138178446Y-97512039D01*
X138178446Y-97166796D01*
X138178446Y-96821554D01*
X137833204Y-96821554D01*
X137487961Y-96821554D01*
X137487961Y-96131068D01*
X137487961Y-95440583D01*
X137833204Y-95440583D01*
X138178446Y-95440583D01*
X138178446Y-95095340D01*
X138178446Y-94750097D01*
X137833204Y-94750097D01*
X137487961Y-94750097D01*
X137487961Y-94404855D01*
X137487961Y-94059612D01*
X138178446Y-94059612D01*
X138868932Y-94059612D01*
X138868932Y-95785826D01*
G37*
G36*
X147154757Y-86809515D02*
G01*
X147154757Y-87154758D01*
X147500000Y-87154758D01*
X147845242Y-87154758D01*
X147845242Y-86809515D01*
X147845242Y-86464272D01*
X148190485Y-86464272D01*
X148535728Y-86464272D01*
X148535728Y-86809515D01*
X148535728Y-87154758D01*
X148190485Y-87154758D01*
X147845242Y-87154758D01*
X147845242Y-87500000D01*
X147845242Y-87845243D01*
X147154757Y-87845243D01*
X146464272Y-87845243D01*
X146464272Y-87154758D01*
X146464272Y-86464272D01*
X146809514Y-86464272D01*
X147154757Y-86464272D01*
X147154757Y-86809515D01*
G37*
G36*
X147845242Y-86119029D02*
G01*
X147845242Y-86464272D01*
X147500000Y-86464272D01*
X147154757Y-86464272D01*
X147154757Y-86119029D01*
X147154757Y-85773787D01*
X147500000Y-85773787D01*
X147845242Y-85773787D01*
X147845242Y-86119029D01*
G37*
G36*
X147154757Y-84047573D02*
G01*
X147154757Y-84392816D01*
X147500000Y-84392816D01*
X147845242Y-84392816D01*
X147845242Y-84047573D01*
X147845242Y-83702330D01*
X148535728Y-83702330D01*
X149226213Y-83702330D01*
X149226213Y-84047573D01*
X149226213Y-84392816D01*
X148880971Y-84392816D01*
X148535728Y-84392816D01*
X148535728Y-84738059D01*
X148535728Y-85083301D01*
X147845242Y-85083301D01*
X147154757Y-85083301D01*
X147154757Y-84738059D01*
X147154757Y-84392816D01*
X146809514Y-84392816D01*
X146464272Y-84392816D01*
X146464272Y-84047573D01*
X146464272Y-83702330D01*
X146809514Y-83702330D01*
X147154757Y-83702330D01*
X147154757Y-84047573D01*
G37*
G36*
X147845242Y-83357088D02*
G01*
X147845242Y-83702330D01*
X147500000Y-83702330D01*
X147154757Y-83702330D01*
X147154757Y-83357088D01*
X147154757Y-83011845D01*
X147500000Y-83011845D01*
X147845242Y-83011845D01*
X147845242Y-83357088D01*
G37*
G36*
X146464272Y-95440583D02*
G01*
X146464272Y-96131068D01*
X146119029Y-96131068D01*
X145773786Y-96131068D01*
X145773786Y-96821554D01*
X145773786Y-97512039D01*
X145428543Y-97512039D01*
X145083301Y-97512039D01*
X145083301Y-97166796D01*
X145083301Y-96821554D01*
X144738058Y-96821554D01*
X144392815Y-96821554D01*
X144392815Y-96476311D01*
X144392815Y-96131068D01*
X144047572Y-96131068D01*
X143702330Y-96131068D01*
X143702330Y-96821554D01*
X143702330Y-97512039D01*
X142666602Y-97512039D01*
X141630873Y-97512039D01*
X141630873Y-97166796D01*
X141630873Y-96821554D01*
X141285631Y-96821554D01*
X140940388Y-96821554D01*
X140940388Y-96476311D01*
X140940388Y-96131068D01*
X141285631Y-96131068D01*
X141630873Y-96131068D01*
X141630873Y-96476311D01*
X141630873Y-96821554D01*
X142321359Y-96821554D01*
X143011844Y-96821554D01*
X143011844Y-96476311D01*
X143011844Y-96131068D01*
X142666602Y-96131068D01*
X142321359Y-96131068D01*
X142321359Y-95785826D01*
X142321359Y-95440583D01*
X143357087Y-95440583D01*
X144392815Y-95440583D01*
X144392815Y-95785826D01*
X144392815Y-96131068D01*
X144738058Y-96131068D01*
X145083301Y-96131068D01*
X145083301Y-95785826D01*
X145083301Y-95440583D01*
X145428543Y-95440583D01*
X145773786Y-95440583D01*
X145773786Y-95095340D01*
X145773786Y-94750097D01*
X146119029Y-94750097D01*
X146464272Y-94750097D01*
X146464272Y-95440583D01*
G37*
G36*
X148190485Y-94750097D02*
G01*
X148535728Y-94750097D01*
X148535728Y-95095340D01*
X148535728Y-95440583D01*
X149571456Y-95440583D01*
X150607184Y-95440583D01*
X150607184Y-95095340D01*
X150607184Y-94750097D01*
X150952427Y-94750097D01*
X151297670Y-94750097D01*
X151297670Y-95440583D01*
X151297670Y-96131068D01*
X151642912Y-96131068D01*
X151988155Y-96131068D01*
X151988155Y-96476311D01*
X151988155Y-96821554D01*
X151642912Y-96821554D01*
X151297670Y-96821554D01*
X151297670Y-97166796D01*
X151297670Y-97512039D01*
X150952427Y-97512039D01*
X150607184Y-97512039D01*
X150607184Y-97166796D01*
X150607184Y-96821554D01*
X150261941Y-96821554D01*
X149916699Y-96821554D01*
X149916699Y-96476311D01*
X149916699Y-96131068D01*
X149571456Y-96131068D01*
X149226213Y-96131068D01*
X149226213Y-96476311D01*
X149226213Y-96821554D01*
X148880971Y-96821554D01*
X148535728Y-96821554D01*
X148535728Y-97166796D01*
X148535728Y-97512039D01*
X148190485Y-97512039D01*
X147845242Y-97512039D01*
X147845242Y-97166796D01*
X147845242Y-96821554D01*
X147500000Y-96821554D01*
X147154757Y-96821554D01*
X147154757Y-96476311D01*
X147154757Y-96131068D01*
X147500000Y-96131068D01*
X147845242Y-96131068D01*
X147845242Y-95440583D01*
X147845242Y-94750097D01*
X148190485Y-94750097D01*
G37*
G36*
X157512038Y-84392816D02*
G01*
X156131068Y-84392816D01*
X154750097Y-84392816D01*
X154750097Y-85083301D01*
X154750097Y-85773787D01*
X154059611Y-85773787D01*
X153369126Y-85773787D01*
X153369126Y-86119029D01*
X153369126Y-86464272D01*
X153023883Y-86464272D01*
X152678640Y-86464272D01*
X152678640Y-86119029D01*
X152678640Y-85773787D01*
X152333398Y-85773787D01*
X151988155Y-85773787D01*
X151988155Y-86119029D01*
X151988155Y-86464272D01*
X151642912Y-86464272D01*
X151297670Y-86464272D01*
X151297670Y-86809515D01*
X151297670Y-87154758D01*
X153023883Y-87154758D01*
X154750097Y-87154758D01*
X154750097Y-86809515D01*
X154750097Y-86464272D01*
X155440582Y-86464272D01*
X156131068Y-86464272D01*
X156131068Y-86809515D01*
X156131068Y-87154758D01*
X156821553Y-87154758D01*
X157512038Y-87154758D01*
X157512038Y-88535728D01*
X157512038Y-89916699D01*
X156821553Y-89916699D01*
X156131068Y-89916699D01*
X156131068Y-90607185D01*
X156131068Y-91297670D01*
X156821553Y-91297670D01*
X157512038Y-91297670D01*
X157512038Y-91642913D01*
X157512038Y-91988156D01*
X156131068Y-91988156D01*
X154750097Y-91988156D01*
X154750097Y-91642913D01*
X154750097Y-91297670D01*
X154059611Y-91297670D01*
X153369126Y-91297670D01*
X153369126Y-91642913D01*
X153369126Y-91988156D01*
X152678640Y-91988156D01*
X151988155Y-91988156D01*
X151988155Y-92333398D01*
X151988155Y-92678641D01*
X151297670Y-92678641D01*
X150607184Y-92678641D01*
X150607184Y-93023884D01*
X150607184Y-93369127D01*
X150261941Y-93369127D01*
X149916699Y-93369127D01*
X149916699Y-94059612D01*
X149916699Y-94750097D01*
X149226213Y-94750097D01*
X148535728Y-94750097D01*
X148535728Y-94404855D01*
X148535728Y-94059612D01*
X148190485Y-94059612D01*
X147845242Y-94059612D01*
X147845242Y-94404855D01*
X147845242Y-94750097D01*
X147500000Y-94750097D01*
X147154757Y-94750097D01*
X147154757Y-94404855D01*
X147154757Y-94059612D01*
X146809514Y-94059612D01*
X146464272Y-94059612D01*
X146464272Y-93714369D01*
X146464272Y-93369127D01*
X147845242Y-93369127D01*
X148190485Y-93369127D01*
X148535728Y-93369127D01*
X148535728Y-92678641D01*
X148535728Y-91988156D01*
X149226213Y-91988156D01*
X149226213Y-92333398D01*
X149226213Y-92678641D01*
X149916699Y-92678641D01*
X150607184Y-92678641D01*
X150607184Y-92333398D01*
X150607184Y-91988156D01*
X151297670Y-91988156D01*
X151642912Y-91988156D01*
X151988155Y-91988156D01*
X151988155Y-91642913D01*
X151988155Y-91297670D01*
X151642912Y-91297670D01*
X151297670Y-91297670D01*
X151297670Y-91642913D01*
X151297670Y-91988156D01*
X150607184Y-91988156D01*
X149916699Y-91988156D01*
X149226213Y-91988156D01*
X148535728Y-91988156D01*
X148190485Y-91988156D01*
X147845242Y-91988156D01*
X147845242Y-92678641D01*
X147845242Y-93023884D01*
X147845242Y-93369127D01*
X146464272Y-93369127D01*
X146119029Y-93369127D01*
X145773786Y-93369127D01*
X145773786Y-93714369D01*
X145773786Y-94059612D01*
X145428543Y-94059612D01*
X145083301Y-94059612D01*
X145083301Y-94404855D01*
X145083301Y-94750097D01*
X143357087Y-94750097D01*
X141630873Y-94750097D01*
X141630873Y-95095340D01*
X141630873Y-95440583D01*
X141285631Y-95440583D01*
X140940388Y-95440583D01*
X140940388Y-95095340D01*
X140940388Y-94750097D01*
X140595145Y-94750097D01*
X140249903Y-94750097D01*
X140249903Y-94404855D01*
X140249903Y-94059612D01*
X139904660Y-94059612D01*
X139559417Y-94059612D01*
X139559417Y-93714369D01*
X139559417Y-93369127D01*
X139904660Y-93369127D01*
X140249903Y-93369127D01*
X140249903Y-92678641D01*
X140249903Y-91988156D01*
X140940388Y-91988156D01*
X140940388Y-93023884D01*
X140940388Y-94059612D01*
X141976116Y-94059612D01*
X143011844Y-94059612D01*
X143011844Y-93369127D01*
X144392815Y-93369127D01*
X144738058Y-93369127D01*
X145083301Y-93369127D01*
X145083301Y-93023884D01*
X145083301Y-92678641D01*
X144738058Y-92678641D01*
X144392815Y-92678641D01*
X144392815Y-93023884D01*
X144392815Y-93369127D01*
X143011844Y-93369127D01*
X143011844Y-93023884D01*
X143011844Y-91988156D01*
X141976116Y-91988156D01*
X140940388Y-91988156D01*
X140249903Y-91988156D01*
X139904660Y-91988156D01*
X139559417Y-91988156D01*
X139559417Y-92333398D01*
X139559417Y-92678641D01*
X139214174Y-92678641D01*
X138868932Y-92678641D01*
X138868932Y-93023884D01*
X138868932Y-93369127D01*
X138178446Y-93369127D01*
X137487961Y-93369127D01*
X137487961Y-91988156D01*
X138178446Y-91988156D01*
X138178446Y-92333398D01*
X138178446Y-92678641D01*
X138523689Y-92678641D01*
X138868932Y-92678641D01*
X138868932Y-92333398D01*
X138868932Y-91988156D01*
X138523689Y-91988156D01*
X138178446Y-91988156D01*
X137487961Y-91988156D01*
X137487961Y-91297670D01*
X138868932Y-91297670D01*
X138868932Y-91988156D01*
X139214174Y-91988156D01*
X139559417Y-91988156D01*
X139559417Y-91297670D01*
X139559417Y-90607185D01*
X139214174Y-90607185D01*
X138868932Y-90607185D01*
X138868932Y-91297670D01*
X137487961Y-91297670D01*
X137487961Y-90952428D01*
X137487961Y-88535728D01*
X137833204Y-88535728D01*
X138178446Y-88535728D01*
X138178446Y-88190486D01*
X138178446Y-87845243D01*
X138523689Y-87845243D01*
X138868932Y-87845243D01*
X138868932Y-88535728D01*
X138868932Y-89226214D01*
X138523689Y-89226214D01*
X138178446Y-89226214D01*
X138178446Y-89916699D01*
X138178446Y-90607185D01*
X138523689Y-90607185D01*
X138868932Y-90607185D01*
X138868932Y-90261942D01*
X138868932Y-89916699D01*
X139559417Y-89916699D01*
X140249903Y-89916699D01*
X140249903Y-89571457D01*
X140249903Y-89226214D01*
X140595145Y-89226214D01*
X140940388Y-89226214D01*
X140940388Y-88535728D01*
X140940388Y-87845243D01*
X141630873Y-87845243D01*
X142321359Y-87845243D01*
X142321359Y-87500000D01*
X142321359Y-87154758D01*
X143011844Y-87154758D01*
X143702330Y-87154758D01*
X143702330Y-87500000D01*
X143702330Y-87845243D01*
X144047572Y-87845243D01*
X144392815Y-87845243D01*
X144392815Y-88190486D01*
X144392815Y-88535728D01*
X144047572Y-88535728D01*
X143702330Y-88535728D01*
X143702330Y-88880971D01*
X143702330Y-89226214D01*
X143011844Y-89226214D01*
X142321359Y-89226214D01*
X142321359Y-88880971D01*
X142321359Y-88535728D01*
X141976116Y-88535728D01*
X141630873Y-88535728D01*
X141630873Y-88880971D01*
X141630873Y-89226214D01*
X141976116Y-89226214D01*
X142321359Y-89226214D01*
X142321359Y-89571457D01*
X142321359Y-89916699D01*
X141630873Y-89916699D01*
X140940388Y-89916699D01*
X140940388Y-90607185D01*
X140940388Y-91297670D01*
X141976116Y-91297670D01*
X143011844Y-91297670D01*
X143702330Y-91297670D01*
X143702330Y-91642913D01*
X143702330Y-91988156D01*
X144392815Y-91988156D01*
X145083301Y-91988156D01*
X145083301Y-92333398D01*
X145083301Y-92678641D01*
X145428543Y-92678641D01*
X145773786Y-92678641D01*
X145773786Y-92333398D01*
X145773786Y-91988156D01*
X146464272Y-91988156D01*
X147154757Y-91988156D01*
X147154757Y-91642913D01*
X147154757Y-91297670D01*
X146464272Y-91297670D01*
X145773786Y-91297670D01*
X145773786Y-91642913D01*
X145773786Y-91988156D01*
X145428543Y-91988156D01*
X145083301Y-91988156D01*
X145083301Y-91642913D01*
X145083301Y-91297670D01*
X144392815Y-91297670D01*
X143702330Y-91297670D01*
X143011844Y-91297670D01*
X143011844Y-90952428D01*
X143011844Y-90607185D01*
X144738058Y-90607185D01*
X146464272Y-90607185D01*
X146464272Y-90261942D01*
X146464272Y-89916699D01*
X147154757Y-89916699D01*
X147845242Y-89916699D01*
X147845242Y-90261942D01*
X147845242Y-90607185D01*
X147500000Y-90607185D01*
X147154757Y-90607185D01*
X147154757Y-90952428D01*
X147154757Y-91297670D01*
X147500000Y-91297670D01*
X147845242Y-91297670D01*
X147845242Y-90952428D01*
X147845242Y-90607185D01*
X148190485Y-90607185D01*
X148535728Y-90607185D01*
X148535728Y-90952428D01*
X148535728Y-91297670D01*
X149571456Y-91297670D01*
X150607184Y-91297670D01*
X150607184Y-90952428D01*
X150607184Y-90607185D01*
X151642912Y-90607185D01*
X152678640Y-90607185D01*
X152678640Y-90952428D01*
X152678640Y-91297670D01*
X153023883Y-91297670D01*
X153369126Y-91297670D01*
X153369126Y-90952428D01*
X153369126Y-90607185D01*
X153023883Y-90607185D01*
X152678640Y-90607185D01*
X152678640Y-90261942D01*
X152678640Y-89916699D01*
X153369126Y-89916699D01*
X154059611Y-89916699D01*
X154059611Y-90261942D01*
X154059611Y-90607185D01*
X154404854Y-90607185D01*
X154750097Y-90607185D01*
X154750097Y-90952428D01*
X154750097Y-91297670D01*
X155095339Y-91297670D01*
X155440582Y-91297670D01*
X155440582Y-90607185D01*
X155440582Y-89916699D01*
X155095339Y-89916699D01*
X154750097Y-89916699D01*
X154750097Y-89571457D01*
X154750097Y-89226214D01*
X155785825Y-89226214D01*
X156821553Y-89226214D01*
X156821553Y-88880971D01*
X156821553Y-88535728D01*
X156476310Y-88535728D01*
X156131068Y-88535728D01*
X156131068Y-88190486D01*
X156131068Y-87845243D01*
X155785825Y-87845243D01*
X155440582Y-87845243D01*
X155440582Y-87500000D01*
X155440582Y-87154758D01*
X155095339Y-87154758D01*
X154750097Y-87154758D01*
X154750097Y-87500000D01*
X154750097Y-87845243D01*
X154750097Y-88190486D01*
X154750097Y-88535728D01*
X154404854Y-88535728D01*
X154059611Y-88535728D01*
X154059611Y-88880971D01*
X154059611Y-89226214D01*
X153369126Y-89226214D01*
X152678640Y-89226214D01*
X152678640Y-88880971D01*
X152678640Y-88535728D01*
X153023883Y-88535728D01*
X153369126Y-88535728D01*
X153369126Y-88190486D01*
X153369126Y-87845243D01*
X153023883Y-87845243D01*
X152678640Y-87845243D01*
X152678640Y-88190486D01*
X152678640Y-88535728D01*
X152333398Y-88535728D01*
X151988155Y-88535728D01*
X151988155Y-88880971D01*
X151988155Y-89226214D01*
X152333398Y-89226214D01*
X152678640Y-89226214D01*
X152678640Y-89571457D01*
X152678640Y-89916699D01*
X151642912Y-89916699D01*
X150607184Y-89916699D01*
X150607184Y-90261942D01*
X150607184Y-90607185D01*
X149571456Y-90607185D01*
X148535728Y-90607185D01*
X148535728Y-90261942D01*
X148535728Y-89916699D01*
X148190485Y-89916699D01*
X147845242Y-89916699D01*
X147845242Y-89571457D01*
X147845242Y-89226214D01*
X148535728Y-89226214D01*
X149226213Y-89226214D01*
X149226213Y-88880971D01*
X149226213Y-88535728D01*
X148535728Y-88535728D01*
X147845242Y-88535728D01*
X147845242Y-88190486D01*
X147845242Y-87845243D01*
X148190485Y-87845243D01*
X148535728Y-87845243D01*
X149916699Y-87845243D01*
X149916699Y-88190486D01*
X149916699Y-88535728D01*
X150261941Y-88535728D01*
X150607184Y-88535728D01*
X150607184Y-88190486D01*
X150607184Y-87845243D01*
X150261941Y-87845243D01*
X149916699Y-87845243D01*
X148535728Y-87845243D01*
X148535728Y-87500000D01*
X148535728Y-87154758D01*
X148880971Y-87154758D01*
X149226213Y-87154758D01*
X150607184Y-87154758D01*
X150607184Y-87500000D01*
X150607184Y-87845243D01*
X150952427Y-87845243D01*
X151297670Y-87845243D01*
X151297670Y-87500000D01*
X151297670Y-87154758D01*
X150952427Y-87154758D01*
X150607184Y-87154758D01*
X149226213Y-87154758D01*
X149226213Y-86809515D01*
X149226213Y-86464272D01*
X148880971Y-86464272D01*
X148535728Y-86464272D01*
X148535728Y-85773787D01*
X148535728Y-85083301D01*
X148880971Y-85083301D01*
X149226213Y-85083301D01*
X149226213Y-84738059D01*
X149226213Y-84392816D01*
X149571456Y-84392816D01*
X149916699Y-84392816D01*
X149916699Y-85083301D01*
X149916699Y-85773787D01*
X150952427Y-85773787D01*
X151988155Y-85773787D01*
X151988155Y-85428544D01*
X151988155Y-85083301D01*
X152333398Y-85083301D01*
X152678640Y-85083301D01*
X152678640Y-85428544D01*
X152678640Y-85773787D01*
X153023883Y-85773787D01*
X153369126Y-85773787D01*
X153369126Y-85428544D01*
X153369126Y-85083301D01*
X153023883Y-85083301D01*
X152678640Y-85083301D01*
X152678640Y-84738059D01*
X152678640Y-84392816D01*
X153023883Y-84392816D01*
X153369126Y-84392816D01*
X153369126Y-84047573D01*
X153369126Y-83702330D01*
X153023883Y-83702330D01*
X152678640Y-83702330D01*
X152678640Y-84047573D01*
X152678640Y-84392816D01*
X152333398Y-84392816D01*
X151988155Y-84392816D01*
X151988155Y-84047573D01*
X151988155Y-83702330D01*
X151642912Y-83702330D01*
X151297670Y-83702330D01*
X151297670Y-83357088D01*
X151297670Y-83011845D01*
X151642912Y-83011845D01*
X151988155Y-83011845D01*
X151988155Y-83357088D01*
X151988155Y-83702330D01*
X152333398Y-83702330D01*
X152678640Y-83702330D01*
X152678640Y-83357088D01*
X152678640Y-83011845D01*
X153023883Y-83011845D01*
X153369126Y-83011845D01*
X153369126Y-83357088D01*
X153369126Y-83702330D01*
X153714369Y-83702330D01*
X154059611Y-83702330D01*
X154059611Y-84047573D01*
X154059611Y-84392816D01*
X154404854Y-84392816D01*
X154750097Y-84392816D01*
X154750097Y-84047573D01*
X154750097Y-83702330D01*
X154404854Y-83702330D01*
X154059611Y-83702330D01*
X154059611Y-83357088D01*
X154059611Y-83011845D01*
X154404854Y-83011845D01*
X154750097Y-83011845D01*
X154750097Y-83357088D01*
X154750097Y-83702330D01*
X155440582Y-83702330D01*
X156131068Y-83702330D01*
X156131068Y-83357088D01*
X156131068Y-83011845D01*
X156476310Y-83011845D01*
X156821553Y-83011845D01*
X156821553Y-83357088D01*
X156821553Y-83702330D01*
X157166796Y-83702330D01*
X157512038Y-83702330D01*
X157512038Y-84047573D01*
X157512038Y-84392816D01*
G37*
G36*
X151642912Y-94059612D02*
G01*
X151988155Y-94059612D01*
X151988155Y-94404855D01*
X151988155Y-94750097D01*
X151642912Y-94750097D01*
X151297670Y-94750097D01*
X151297670Y-94404855D01*
X151297670Y-94059612D01*
X151642912Y-94059612D01*
G37*
G36*
X150952427Y-93369127D02*
G01*
X151297670Y-93369127D01*
X151297670Y-93714369D01*
X151297670Y-94059612D01*
X150952427Y-94059612D01*
X150607184Y-94059612D01*
X150607184Y-93714369D01*
X150607184Y-93369127D01*
X150952427Y-93369127D01*
G37*
G36*
X139559417Y-83357088D02*
G01*
X139559417Y-83702330D01*
X139904660Y-83702330D01*
X140249903Y-83702330D01*
X140249903Y-83357088D01*
X140249903Y-83011845D01*
X140940388Y-83011845D01*
X141630873Y-83011845D01*
X141630873Y-83357088D01*
X141630873Y-83702330D01*
X141976116Y-83702330D01*
X142321359Y-83702330D01*
X142321359Y-83357088D01*
X142321359Y-83011845D01*
X142666602Y-83011845D01*
X143011844Y-83011845D01*
X143011844Y-83357088D01*
X143011844Y-83702330D01*
X142666602Y-83702330D01*
X142321359Y-83702330D01*
X142321359Y-84047573D01*
X142321359Y-84392816D01*
X141976116Y-84392816D01*
X141630873Y-84392816D01*
X141630873Y-85428544D01*
X141630873Y-86464272D01*
X141285631Y-86464272D01*
X140940388Y-86464272D01*
X140940388Y-85428544D01*
X140940388Y-84392816D01*
X140595145Y-84392816D01*
X140249903Y-84392816D01*
X140249903Y-85428544D01*
X140249903Y-86464272D01*
X139904660Y-86464272D01*
X139559417Y-86464272D01*
X139559417Y-85773787D01*
X139559417Y-85083301D01*
X139214174Y-85083301D01*
X138868932Y-85083301D01*
X138868932Y-85428544D01*
X138868932Y-85773787D01*
X138523689Y-85773787D01*
X138178446Y-85773787D01*
X138178446Y-86809515D01*
X138178446Y-87845243D01*
X137833204Y-87845243D01*
X137487961Y-87845243D01*
X137487961Y-85773787D01*
X137487961Y-84738059D01*
X138178446Y-84738059D01*
X138178446Y-85083301D01*
X138523689Y-85083301D01*
X138868932Y-85083301D01*
X138868932Y-84738059D01*
X138868932Y-84392816D01*
X138523689Y-84392816D01*
X138178446Y-84392816D01*
X138178446Y-84738059D01*
X137487961Y-84738059D01*
X137487961Y-83702330D01*
X138178446Y-83702330D01*
X138868932Y-83702330D01*
X138868932Y-83357088D01*
X138868932Y-83011845D01*
X139214174Y-83011845D01*
X139559417Y-83011845D01*
X139559417Y-83357088D01*
G37*
G36*
X144392815Y-81285631D02*
G01*
X144392815Y-81630874D01*
X144047572Y-81630874D01*
X143702330Y-81630874D01*
X143702330Y-81976117D01*
X143702330Y-82321360D01*
X144047572Y-82321360D01*
X144392815Y-82321360D01*
X144392815Y-81976117D01*
X144392815Y-81630874D01*
X144738058Y-81630874D01*
X145083301Y-81630874D01*
X145083301Y-81976117D01*
X145083301Y-82321360D01*
X145428543Y-82321360D01*
X145773786Y-82321360D01*
X145773786Y-81976117D01*
X145773786Y-81630874D01*
X146119029Y-81630874D01*
X146464272Y-81630874D01*
X146464272Y-81976117D01*
X146464272Y-82321360D01*
X146809514Y-82321360D01*
X147154757Y-82321360D01*
X147154757Y-82666602D01*
X147154757Y-83011845D01*
X146809514Y-83011845D01*
X146464272Y-83011845D01*
X146464272Y-83357088D01*
X146464272Y-83702330D01*
X146119029Y-83702330D01*
X145773786Y-83702330D01*
X145773786Y-83357088D01*
X145773786Y-83011845D01*
X145428543Y-83011845D01*
X145083301Y-83011845D01*
X145083301Y-83702330D01*
X145083301Y-84392816D01*
X145428543Y-84392816D01*
X145773786Y-84392816D01*
X145773786Y-84738059D01*
X145773786Y-85083301D01*
X146119029Y-85083301D01*
X146464272Y-85083301D01*
X146464272Y-85428544D01*
X146464272Y-85773787D01*
X146119029Y-85773787D01*
X145773786Y-85773787D01*
X145773786Y-86464272D01*
X145773786Y-87154758D01*
X145428543Y-87154758D01*
X145083301Y-87154758D01*
X145083301Y-87500000D01*
X145083301Y-87845243D01*
X144738058Y-87845243D01*
X144392815Y-87845243D01*
X144392815Y-87154758D01*
X144392815Y-86464272D01*
X144738058Y-86464272D01*
X145083301Y-86464272D01*
X145083301Y-86119029D01*
X145083301Y-85773787D01*
X144392815Y-85773787D01*
X143702330Y-85773787D01*
X143702330Y-85428544D01*
X143702330Y-85083301D01*
X143357087Y-85083301D01*
X143011844Y-85083301D01*
X143011844Y-85428544D01*
X143011844Y-85773787D01*
X142666602Y-85773787D01*
X142321359Y-85773787D01*
X142321359Y-85083301D01*
X142321359Y-84392816D01*
X143011844Y-84392816D01*
X143702330Y-84392816D01*
X143702330Y-84738059D01*
X143702330Y-85083301D01*
X144047572Y-85083301D01*
X144392815Y-85083301D01*
X144392815Y-84392816D01*
X144392815Y-83702330D01*
X144047572Y-83702330D01*
X143702330Y-83702330D01*
X143702330Y-83011845D01*
X143702330Y-82321360D01*
X143357087Y-82321360D01*
X143011844Y-82321360D01*
X143011844Y-81630874D01*
X143011844Y-80940389D01*
X143702330Y-80940389D01*
X144392815Y-80940389D01*
X144392815Y-81285631D01*
G37*
G36*
X151988155Y-81285631D02*
G01*
X151988155Y-82321360D01*
X151642912Y-82321360D01*
X151297670Y-82321360D01*
X151297670Y-82666602D01*
X151297670Y-83011845D01*
X150607184Y-83011845D01*
X149916699Y-83011845D01*
X149916699Y-83357088D01*
X149916699Y-83702330D01*
X149571456Y-83702330D01*
X149226213Y-83702330D01*
X149226213Y-83357088D01*
X149226213Y-83011845D01*
X148535728Y-83011845D01*
X147845242Y-83011845D01*
X147845242Y-82666602D01*
X147845242Y-82321360D01*
X148190485Y-82321360D01*
X148535728Y-82321360D01*
X148535728Y-81976117D01*
X148535728Y-81630874D01*
X148190485Y-81630874D01*
X147845242Y-81630874D01*
X147845242Y-81976117D01*
X147845242Y-82321360D01*
X147500000Y-82321360D01*
X147154757Y-82321360D01*
X147154757Y-81976117D01*
X147154757Y-81630874D01*
X146809514Y-81630874D01*
X146464272Y-81630874D01*
X146464272Y-80595146D01*
X146464272Y-79559418D01*
X146809514Y-79559418D01*
X147154757Y-79559418D01*
X147154757Y-80595146D01*
X147154757Y-81630874D01*
X147500000Y-81630874D01*
X147845242Y-81630874D01*
X147845242Y-80940389D01*
X147845242Y-80249903D01*
X148190485Y-80249903D01*
X148535728Y-80249903D01*
X149226213Y-80249903D01*
X149226213Y-81285631D01*
X149226213Y-82321360D01*
X149571456Y-82321360D01*
X149916699Y-82321360D01*
X149916699Y-81976117D01*
X149916699Y-81630874D01*
X150261941Y-81630874D01*
X150607184Y-81630874D01*
X150607184Y-81976117D01*
X150607184Y-82321360D01*
X150952427Y-82321360D01*
X151297670Y-82321360D01*
X151297670Y-81630874D01*
X151297670Y-80940389D01*
X150607184Y-80940389D01*
X149916699Y-80940389D01*
X149916699Y-80595146D01*
X149916699Y-80249903D01*
X149571456Y-80249903D01*
X149226213Y-80249903D01*
X148535728Y-80249903D01*
X148535728Y-79559418D01*
X148535728Y-78868932D01*
X148880971Y-78868932D01*
X149226213Y-78868932D01*
X149226213Y-79214175D01*
X149226213Y-79559418D01*
X149571456Y-79559418D01*
X149916699Y-79559418D01*
X149916699Y-79904661D01*
X149916699Y-80249903D01*
X150261941Y-80249903D01*
X150607184Y-80249903D01*
X150607184Y-78868932D01*
X150607184Y-77487962D01*
X150952427Y-77487962D01*
X151297670Y-77487962D01*
X151297670Y-78178447D01*
X151297670Y-78868932D01*
X151642912Y-78868932D01*
X151988155Y-78868932D01*
X151988155Y-79214175D01*
X151988155Y-79559418D01*
X151642912Y-79559418D01*
X151297670Y-79559418D01*
X151297670Y-79904661D01*
X151297670Y-80249903D01*
X151642912Y-80249903D01*
X151988155Y-80249903D01*
X151988155Y-80940389D01*
X151988155Y-81285631D01*
G37*
G36*
X145083301Y-77833204D02*
G01*
X145083301Y-78178447D01*
X145428543Y-78178447D01*
X145773786Y-78178447D01*
X145773786Y-77833204D01*
X145773786Y-77487962D01*
X146119029Y-77487962D01*
X146464272Y-77487962D01*
X146464272Y-77833204D01*
X146464272Y-78178447D01*
X146119029Y-78178447D01*
X145773786Y-78178447D01*
X145773786Y-78523690D01*
X145773786Y-78868932D01*
X146119029Y-78868932D01*
X146464272Y-78868932D01*
X146464272Y-79214175D01*
X146464272Y-79559418D01*
X145773786Y-79559418D01*
X145083301Y-79559418D01*
X145083301Y-79904661D01*
X145083301Y-80249903D01*
X145428543Y-80249903D01*
X145773786Y-80249903D01*
X145773786Y-80940389D01*
X145773786Y-81630874D01*
X145428543Y-81630874D01*
X145083301Y-81630874D01*
X145083301Y-81285631D01*
X145083301Y-80940389D01*
X144738058Y-80940389D01*
X144392815Y-80940389D01*
X144392815Y-80595146D01*
X144392815Y-80249903D01*
X144047572Y-80249903D01*
X143702330Y-80249903D01*
X143702330Y-79904661D01*
X143702330Y-79559418D01*
X144047572Y-79559418D01*
X144392815Y-79559418D01*
X144392815Y-79214175D01*
X144392815Y-78868932D01*
X144047572Y-78868932D01*
X143702330Y-78868932D01*
X143702330Y-78523690D01*
X143702330Y-78178447D01*
X144047572Y-78178447D01*
X144392815Y-78178447D01*
X144392815Y-77833204D01*
X144392815Y-77487962D01*
X144738058Y-77487962D01*
X145083301Y-77487962D01*
X145083301Y-77833204D01*
G37*
G36*
X149226213Y-77833204D02*
G01*
X149226213Y-78178447D01*
X148880971Y-78178447D01*
X148535728Y-78178447D01*
X148535728Y-78523690D01*
X148535728Y-78868932D01*
X148190485Y-78868932D01*
X147845242Y-78868932D01*
X147845242Y-78523690D01*
X147845242Y-78178447D01*
X147500000Y-78178447D01*
X147154757Y-78178447D01*
X147154757Y-77833204D01*
X147154757Y-77487962D01*
X148190485Y-77487962D01*
X149226213Y-77487962D01*
X149226213Y-77833204D01*
G37*
D11*
X120500000Y-81775000D02*
X120500000Y-83775000D01*
X120500000Y-83775000D02*
X123300000Y-83775000D01*
X123300000Y-81775000D02*
X120500000Y-81775000D01*
X123300000Y-83775000D02*
X123300000Y-81775000D01*
M02*
