G04 #@! TF.GenerationSoftware,KiCad,Pcbnew,8.0.5*
G04 #@! TF.CreationDate,2024-10-03T09:55:36+01:00*
G04 #@! TF.ProjectId,phonkyo,70686f6e-6b79-46f2-9e6b-696361645f70,rev?*
G04 #@! TF.SameCoordinates,Original*
G04 #@! TF.FileFunction,Legend,Top*
G04 #@! TF.FilePolarity,Positive*
%FSLAX46Y46*%
G04 Gerber Fmt 4.6, Leading zero omitted, Abs format (unit mm)*
G04 Created by KiCad (PCBNEW 8.0.5) date 2024-10-03 09:55:36*
%MOMM*%
%LPD*%
G01*
G04 APERTURE LIST*
%ADD10C,0.150000*%
%ADD11C,0.120000*%
%ADD12C,0.000000*%
G04 APERTURE END LIST*
D10*
X122666666Y-89954819D02*
X122666666Y-90669104D01*
X122666666Y-90669104D02*
X122619047Y-90811961D01*
X122619047Y-90811961D02*
X122523809Y-90907200D01*
X122523809Y-90907200D02*
X122380952Y-90954819D01*
X122380952Y-90954819D02*
X122285714Y-90954819D01*
X123095238Y-90050057D02*
X123142857Y-90002438D01*
X123142857Y-90002438D02*
X123238095Y-89954819D01*
X123238095Y-89954819D02*
X123476190Y-89954819D01*
X123476190Y-89954819D02*
X123571428Y-90002438D01*
X123571428Y-90002438D02*
X123619047Y-90050057D01*
X123619047Y-90050057D02*
X123666666Y-90145295D01*
X123666666Y-90145295D02*
X123666666Y-90240533D01*
X123666666Y-90240533D02*
X123619047Y-90383390D01*
X123619047Y-90383390D02*
X123047619Y-90954819D01*
X123047619Y-90954819D02*
X123666666Y-90954819D01*
D11*
X126600000Y-82300000D02*
X132800000Y-82300000D01*
X126600000Y-91200000D02*
X126600000Y-82300000D01*
X126600000Y-97000000D02*
X126600000Y-93800000D01*
X127100000Y-97000000D02*
X126600000Y-97000000D01*
X127100000Y-99500000D02*
X127100000Y-97000000D01*
X132300000Y-97000000D02*
X132300000Y-99500000D01*
X132300000Y-99500000D02*
X127100000Y-99500000D01*
X132800000Y-82300000D02*
X132800000Y-83500000D01*
X132800000Y-86700000D02*
X132800000Y-93200000D01*
X132800000Y-93200000D02*
X134800000Y-93200000D01*
X132800000Y-95800000D02*
X132800000Y-97000000D01*
X132800000Y-95800000D02*
X134800000Y-95800000D01*
X132800000Y-97000000D02*
X132300000Y-97000000D01*
D12*
G36*
X139025000Y-91604678D02*
G01*
X139570000Y-91610000D01*
X139575580Y-91875000D01*
X139581161Y-92140000D01*
X139030580Y-92140000D01*
X138480000Y-92140000D01*
X138480000Y-91869678D01*
X138480000Y-91599357D01*
X139025000Y-91604678D01*
G37*
G36*
X140395000Y-93784775D02*
G01*
X141210000Y-93790000D01*
X141215224Y-94605000D01*
X141220448Y-95420000D01*
X140400224Y-95420000D01*
X139580000Y-95420000D01*
X139580000Y-94599775D01*
X139580000Y-93779551D01*
X140395000Y-93784775D01*
G37*
G36*
X141215224Y-80395000D02*
G01*
X141210000Y-81210000D01*
X140395000Y-81215224D01*
X139580000Y-81220448D01*
X139580000Y-80400224D01*
X139580000Y-79580000D01*
X140400224Y-79580000D01*
X141220448Y-79580000D01*
X141215224Y-80395000D01*
G37*
G36*
X142300000Y-83130000D02*
G01*
X142300000Y-83400000D01*
X142030000Y-83400000D01*
X141760000Y-83400000D01*
X141760000Y-83130000D01*
X141760000Y-82860000D01*
X142030000Y-82860000D01*
X142300000Y-82860000D01*
X142300000Y-83130000D01*
G37*
G36*
X142860000Y-91870000D02*
G01*
X142860000Y-92140000D01*
X142310000Y-92140000D01*
X141760000Y-92140000D01*
X141760000Y-91870000D01*
X141760000Y-91600000D01*
X142310000Y-91600000D01*
X142860000Y-91600000D01*
X142860000Y-91870000D01*
G37*
G36*
X143940000Y-95430000D02*
G01*
X143940000Y-95980000D01*
X143670000Y-95980000D01*
X143400000Y-95980000D01*
X143400000Y-95430000D01*
X143400000Y-94880000D01*
X143670000Y-94880000D01*
X143940000Y-94880000D01*
X143940000Y-95430000D01*
G37*
G36*
X146140000Y-88320000D02*
G01*
X146140000Y-88860000D01*
X145860000Y-88860000D01*
X145580000Y-88860000D01*
X145580000Y-88320000D01*
X145580000Y-87780000D01*
X145860000Y-87780000D01*
X146140000Y-87780000D01*
X146140000Y-88320000D01*
G37*
G36*
X146680000Y-89690000D02*
G01*
X146680000Y-89960000D01*
X146130000Y-89960000D01*
X145580000Y-89960000D01*
X145580000Y-89690000D01*
X145580000Y-89420000D01*
X146130000Y-89420000D01*
X146680000Y-89420000D01*
X146680000Y-89690000D01*
G37*
G36*
X147220000Y-80940000D02*
G01*
X147220000Y-81220000D01*
X146950000Y-81220000D01*
X146680000Y-81220000D01*
X146680000Y-80940000D01*
X146680000Y-80660000D01*
X146950000Y-80660000D01*
X147220000Y-80660000D01*
X147220000Y-80940000D01*
G37*
G36*
X148320000Y-86410000D02*
G01*
X148320000Y-86680000D01*
X148050000Y-86680000D01*
X147780000Y-86680000D01*
X147780000Y-86410000D01*
X147780000Y-86140000D01*
X148050000Y-86140000D01*
X148320000Y-86140000D01*
X148320000Y-86410000D01*
G37*
G36*
X148320000Y-96250000D02*
G01*
X148320000Y-96520000D01*
X148050000Y-96520000D01*
X147780000Y-96520000D01*
X147780000Y-96250000D01*
X147780000Y-95980000D01*
X148050000Y-95980000D01*
X148320000Y-95980000D01*
X148320000Y-96250000D01*
G37*
G36*
X148860000Y-92420000D02*
G01*
X148860000Y-92700000D01*
X148590000Y-92700000D01*
X148320000Y-92700000D01*
X148320000Y-92420000D01*
X148320000Y-92140000D01*
X148590000Y-92140000D01*
X148860000Y-92140000D01*
X148860000Y-92420000D01*
G37*
G36*
X149960000Y-94330000D02*
G01*
X149960000Y-94880000D01*
X149690000Y-94880000D01*
X149420000Y-94880000D01*
X149420000Y-94330000D01*
X149420000Y-93780000D01*
X149690000Y-93780000D01*
X149960000Y-93780000D01*
X149960000Y-94330000D01*
G37*
G36*
X150500000Y-95150000D02*
G01*
X150500000Y-95420000D01*
X150230000Y-95420000D01*
X149960000Y-95420000D01*
X149960000Y-95150000D01*
X149960000Y-94880000D01*
X150230000Y-94880000D01*
X150500000Y-94880000D01*
X150500000Y-95150000D01*
G37*
G36*
X151060000Y-93790000D02*
G01*
X151060000Y-94340000D01*
X150780000Y-94340000D01*
X150500000Y-94340000D01*
X150500000Y-93790000D01*
X150500000Y-93240000D01*
X150780000Y-93240000D01*
X151060000Y-93240000D01*
X151060000Y-93790000D01*
G37*
G36*
X153240000Y-92970000D02*
G01*
X153240000Y-93240000D01*
X152970000Y-93240000D01*
X152700000Y-93240000D01*
X152700000Y-92970000D01*
X152700000Y-92700000D01*
X152970000Y-92700000D01*
X153240000Y-92700000D01*
X153240000Y-92970000D01*
G37*
G36*
X154880000Y-88590000D02*
G01*
X154880000Y-88860000D01*
X154330000Y-88860000D01*
X153780000Y-88860000D01*
X153780000Y-88590000D01*
X153780000Y-88320000D01*
X154330000Y-88320000D01*
X154880000Y-88320000D01*
X154880000Y-88590000D01*
G37*
G36*
X156520000Y-91330000D02*
G01*
X156520000Y-91600000D01*
X156250000Y-91600000D01*
X155980000Y-91600000D01*
X155980000Y-91330000D01*
X155980000Y-91060000D01*
X156250000Y-91060000D01*
X156520000Y-91060000D01*
X156520000Y-91330000D01*
G37*
G36*
X156520000Y-96250000D02*
G01*
X156520000Y-96520000D01*
X156250000Y-96520000D01*
X155980000Y-96520000D01*
X155980000Y-96250000D01*
X155980000Y-95980000D01*
X156250000Y-95980000D01*
X156520000Y-95980000D01*
X156520000Y-96250000D01*
G37*
G36*
X142300000Y-87500000D02*
G01*
X142300000Y-87780000D01*
X141760000Y-87780000D01*
X141220000Y-87780000D01*
X141220000Y-88050000D01*
X141220000Y-88320000D01*
X140940000Y-88320000D01*
X140660000Y-88320000D01*
X140660000Y-87770000D01*
X140660000Y-87220000D01*
X141480000Y-87220000D01*
X142300000Y-87220000D01*
X142300000Y-87500000D01*
G37*
G36*
X147220000Y-90510000D02*
G01*
X147220000Y-91060000D01*
X146680000Y-91060000D01*
X146140000Y-91060000D01*
X146140000Y-90780000D01*
X146140000Y-90500000D01*
X146410000Y-90500000D01*
X146680000Y-90500000D01*
X146680000Y-90230000D01*
X146680000Y-89960000D01*
X146950000Y-89960000D01*
X147220000Y-89960000D01*
X147220000Y-90510000D01*
G37*
G36*
X152140000Y-88050000D02*
G01*
X152140000Y-88320000D01*
X152420000Y-88320000D01*
X152700000Y-88320000D01*
X152700000Y-88590000D01*
X152700000Y-88860000D01*
X151880000Y-88860000D01*
X151060000Y-88860000D01*
X151060000Y-88320000D01*
X151060000Y-87780000D01*
X151600000Y-87780000D01*
X152140000Y-87780000D01*
X152140000Y-88050000D01*
G37*
G36*
X154340000Y-87499435D02*
G01*
X154340000Y-87780000D01*
X154069372Y-87780000D01*
X153952637Y-87778978D01*
X153871012Y-87775612D01*
X153819653Y-87769452D01*
X153793713Y-87760046D01*
X153788725Y-87753890D01*
X153785315Y-87724715D01*
X153783339Y-87664243D01*
X153782933Y-87581155D01*
X153784236Y-87484134D01*
X153784353Y-87478890D01*
X153790000Y-87230000D01*
X154065000Y-87224435D01*
X154340000Y-87218871D01*
X154340000Y-87499435D01*
G37*
G36*
X142300000Y-80390000D02*
G01*
X142300000Y-82300000D01*
X140390000Y-82300000D01*
X138480000Y-82300000D01*
X138480000Y-81760000D01*
X139020000Y-81760000D01*
X140390000Y-81760000D01*
X141760000Y-81760000D01*
X141760000Y-80390000D01*
X141760000Y-79020000D01*
X140390000Y-79020000D01*
X139020000Y-79020000D01*
X139020000Y-80390000D01*
X139020000Y-81760000D01*
X138480000Y-81760000D01*
X138480000Y-80390000D01*
X138480000Y-78480000D01*
X140390000Y-78480000D01*
X142300000Y-78480000D01*
X142300000Y-80390000D01*
G37*
G36*
X142300000Y-94610000D02*
G01*
X142300000Y-96520000D01*
X140390000Y-96520000D01*
X138480000Y-96520000D01*
X138480000Y-95980000D01*
X139020000Y-95980000D01*
X140390000Y-95980000D01*
X141760000Y-95980000D01*
X141760000Y-94610000D01*
X141760000Y-93240000D01*
X140390000Y-93240000D01*
X139020000Y-93240000D01*
X139020000Y-94610000D01*
X139020000Y-95980000D01*
X138480000Y-95980000D01*
X138480000Y-94610000D01*
X138480000Y-92700000D01*
X140390000Y-92700000D01*
X142300000Y-92700000D01*
X142300000Y-94610000D01*
G37*
G36*
X156520000Y-80390000D02*
G01*
X156520000Y-82300000D01*
X154610000Y-82300000D01*
X152700000Y-82300000D01*
X152700000Y-81760000D01*
X153240000Y-81760000D01*
X154610000Y-81760000D01*
X155980000Y-81760000D01*
X155980000Y-80390000D01*
X155980000Y-79020000D01*
X154610000Y-79020000D01*
X153240000Y-79020000D01*
X153240000Y-80390000D01*
X153240000Y-81760000D01*
X152700000Y-81760000D01*
X152700000Y-80390000D01*
X152700000Y-78480000D01*
X154610000Y-78480000D01*
X156520000Y-78480000D01*
X156520000Y-80390000D01*
G37*
G36*
X142855321Y-90505000D02*
G01*
X142850000Y-91050000D01*
X142305000Y-91055321D01*
X141760000Y-91060642D01*
X141760000Y-91330321D01*
X141760000Y-91600000D01*
X141490000Y-91600000D01*
X141220000Y-91600000D01*
X141220000Y-91330000D01*
X141220000Y-91060000D01*
X141490000Y-91060000D01*
X141760000Y-91060000D01*
X141760000Y-90780000D01*
X141760000Y-90500000D01*
X142030000Y-90500000D01*
X142300000Y-90500000D01*
X142300000Y-90230000D01*
X142300000Y-89960000D01*
X142580321Y-89960000D01*
X142860642Y-89960000D01*
X142855321Y-90505000D01*
G37*
G36*
X146680000Y-80390000D02*
G01*
X146680000Y-80660000D01*
X146410564Y-80660000D01*
X146141128Y-80660000D01*
X146135564Y-80935000D01*
X146130000Y-81210000D01*
X145855000Y-81215564D01*
X145580000Y-81221128D01*
X145580000Y-81760564D01*
X145580000Y-82300000D01*
X145310000Y-82300000D01*
X145040000Y-82300000D01*
X145040000Y-81480000D01*
X145040000Y-80660000D01*
X145590000Y-80660000D01*
X146140000Y-80660000D01*
X146140000Y-80390000D01*
X146140000Y-80120000D01*
X146410000Y-80120000D01*
X146680000Y-80120000D01*
X146680000Y-80390000D01*
G37*
G36*
X155420000Y-80400000D02*
G01*
X155420000Y-81220000D01*
X154613333Y-81220000D01*
X154437472Y-81219679D01*
X154274179Y-81218766D01*
X154127764Y-81217329D01*
X154002534Y-81215438D01*
X153902801Y-81213164D01*
X153832873Y-81210578D01*
X153797061Y-81207747D01*
X153793333Y-81206666D01*
X153790431Y-81184398D01*
X153787747Y-81126439D01*
X153785351Y-81037100D01*
X153783312Y-80920689D01*
X153781701Y-80781517D01*
X153780588Y-80623892D01*
X153780043Y-80452126D01*
X153780000Y-80386666D01*
X153780000Y-79580000D01*
X154600000Y-79580000D01*
X155420000Y-79580000D01*
X155420000Y-80400000D01*
G37*
G36*
X144500000Y-81760000D02*
G01*
X144500000Y-82300000D01*
X144220000Y-82300000D01*
X143940000Y-82300000D01*
X143940000Y-82580000D01*
X143940000Y-82860000D01*
X143670000Y-82860000D01*
X143400000Y-82860000D01*
X143400000Y-82580000D01*
X143400000Y-82300000D01*
X143130000Y-82300000D01*
X142860000Y-82300000D01*
X142860000Y-82030000D01*
X142860000Y-81760000D01*
X143130000Y-81760000D01*
X143400000Y-81760000D01*
X143400000Y-82030000D01*
X143400000Y-82300000D01*
X143670000Y-82300000D01*
X143940000Y-82300000D01*
X143940000Y-81760000D01*
X143940000Y-81220000D01*
X144220000Y-81220000D01*
X144500000Y-81220000D01*
X144500000Y-81760000D01*
G37*
G36*
X150504435Y-80934999D02*
G01*
X150510000Y-81210000D01*
X150785000Y-81215564D01*
X151060000Y-81221128D01*
X151060000Y-81760000D01*
X151060000Y-82300000D01*
X150780000Y-82300000D01*
X150500000Y-82300000D01*
X150500000Y-82030000D01*
X150500000Y-81760000D01*
X150230000Y-81760000D01*
X149960000Y-81760000D01*
X149960000Y-82030000D01*
X149960000Y-82300000D01*
X149690000Y-82300000D01*
X149420000Y-82300000D01*
X149420000Y-82030000D01*
X149420000Y-81760000D01*
X149690000Y-81760000D01*
X149960000Y-81760000D01*
X149960000Y-81210000D01*
X149960000Y-80660000D01*
X150229435Y-80659999D01*
X150498871Y-80659999D01*
X150504435Y-80934999D01*
G37*
G36*
X155980000Y-86399435D02*
G01*
X155980000Y-87220000D01*
X156250000Y-87220000D01*
X156520000Y-87220000D01*
X156520000Y-87500000D01*
X156520000Y-87780000D01*
X155979372Y-87780000D01*
X155808943Y-87779563D01*
X155674996Y-87778149D01*
X155574018Y-87775596D01*
X155502500Y-87771745D01*
X155456930Y-87766437D01*
X155433797Y-87759513D01*
X155429382Y-87755000D01*
X155427695Y-87730763D01*
X155426289Y-87670303D01*
X155425179Y-87577394D01*
X155424379Y-87455813D01*
X155423906Y-87309336D01*
X155423773Y-87141736D01*
X155423997Y-86956791D01*
X155424592Y-86758276D01*
X155425010Y-86660000D01*
X155430000Y-85590000D01*
X155705000Y-85584435D01*
X155980000Y-85578871D01*
X155980000Y-86399435D01*
G37*
G36*
X139580000Y-89690000D02*
G01*
X139580000Y-89960000D01*
X140120000Y-89960000D01*
X140660000Y-89960000D01*
X140660000Y-90229435D01*
X140660000Y-90498871D01*
X140935000Y-90504435D01*
X141210000Y-90510000D01*
X141210000Y-90780000D01*
X141210000Y-91050000D01*
X140935000Y-91055564D01*
X140660000Y-91061128D01*
X140660000Y-91330564D01*
X140660000Y-91600000D01*
X140120000Y-91600000D01*
X139580000Y-91600000D01*
X139580000Y-91330000D01*
X139580000Y-91060000D01*
X139850000Y-91060000D01*
X140120000Y-91060000D01*
X140120000Y-90780000D01*
X140120000Y-90500000D01*
X139300000Y-90500000D01*
X138480000Y-90500000D01*
X138480000Y-89960000D01*
X138480000Y-89420000D01*
X139030000Y-89420000D01*
X139580000Y-89420000D01*
X139580000Y-89690000D01*
G37*
G36*
X155980000Y-83680000D02*
G01*
X155980000Y-84500000D01*
X156250000Y-84500000D01*
X156520000Y-84500000D01*
X156520000Y-84770000D01*
X156520000Y-85040000D01*
X155983333Y-85040000D01*
X155840662Y-85039521D01*
X155711271Y-85038174D01*
X155600501Y-85036085D01*
X155513696Y-85033386D01*
X155456195Y-85030206D01*
X155433341Y-85026674D01*
X155433333Y-85026666D01*
X155428316Y-85002685D01*
X155424162Y-84946706D01*
X155421264Y-84866730D01*
X155420019Y-84770757D01*
X155420000Y-84756666D01*
X155420000Y-84500000D01*
X155150000Y-84500000D01*
X154880000Y-84500000D01*
X154880000Y-83950000D01*
X154880000Y-83400000D01*
X155150000Y-83400000D01*
X155420000Y-83400000D01*
X155420000Y-83130000D01*
X155420000Y-82860000D01*
X155700000Y-82860000D01*
X155980000Y-82860000D01*
X155980000Y-83680000D01*
G37*
G36*
X139020000Y-83670000D02*
G01*
X139020000Y-83940000D01*
X139300000Y-83940000D01*
X139580000Y-83940000D01*
X139580000Y-83670000D01*
X139580000Y-83400000D01*
X139850000Y-83400000D01*
X140120000Y-83400000D01*
X140120000Y-83670000D01*
X140120000Y-83940000D01*
X140390000Y-83940000D01*
X140660000Y-83940000D01*
X140660000Y-83670000D01*
X140660000Y-83400000D01*
X140940000Y-83400000D01*
X141220000Y-83400000D01*
X141220000Y-83670000D01*
X141220000Y-83940000D01*
X140940000Y-83940000D01*
X140660000Y-83940000D01*
X140660000Y-84220000D01*
X140660000Y-84500000D01*
X140120580Y-84499999D01*
X139581161Y-84499999D01*
X139575580Y-84764999D01*
X139570000Y-85030000D01*
X139294999Y-85035564D01*
X139019999Y-85041128D01*
X139019999Y-85310564D01*
X139020000Y-85580000D01*
X139570000Y-85580000D01*
X140120000Y-85580000D01*
X140120000Y-85310000D01*
X140120000Y-85040000D01*
X140390000Y-85040000D01*
X140660000Y-85040000D01*
X140659999Y-85309435D01*
X140659999Y-85578871D01*
X140934999Y-85584435D01*
X141210000Y-85590000D01*
X141210000Y-85860000D01*
X141210000Y-86130000D01*
X140935000Y-86135564D01*
X140659999Y-86141128D01*
X140660000Y-86410564D01*
X140660000Y-86680000D01*
X140120000Y-86680000D01*
X139580000Y-86680000D01*
X139580000Y-86950000D01*
X139580000Y-87220000D01*
X139850000Y-87220000D01*
X140120000Y-87220000D01*
X140120000Y-87500000D01*
X140120000Y-87780000D01*
X139570000Y-87780000D01*
X139020000Y-87780000D01*
X139020000Y-88050000D01*
X139020000Y-88320000D01*
X139570000Y-88320000D01*
X140120000Y-88320000D01*
X140120000Y-88590000D01*
X140120000Y-88860000D01*
X139300000Y-88860000D01*
X138480000Y-88860000D01*
X138480000Y-86950000D01*
X138480000Y-85040000D01*
X138750000Y-85040000D01*
X139020000Y-85040000D01*
X139020000Y-84770000D01*
X139020000Y-84500000D01*
X138750000Y-84500000D01*
X138480000Y-84500000D01*
X138480000Y-83950000D01*
X138480000Y-83400000D01*
X138750000Y-83400000D01*
X139020000Y-83400000D01*
X139020000Y-83670000D01*
G37*
G36*
X144500000Y-78750000D02*
G01*
X144500000Y-79020000D01*
X144770000Y-79020000D01*
X145040000Y-79020000D01*
X145040000Y-78750000D01*
X145040000Y-78480000D01*
X145590000Y-78480000D01*
X146140000Y-78480000D01*
X146140000Y-78750000D01*
X146140000Y-79020000D01*
X146410000Y-79020000D01*
X146680000Y-79020000D01*
X146680000Y-78750000D01*
X146680000Y-78480000D01*
X146950000Y-78480000D01*
X147220000Y-78480000D01*
X147220000Y-78750000D01*
X147220000Y-79020000D01*
X147770000Y-79020000D01*
X148320000Y-79020000D01*
X148320000Y-78750000D01*
X148320000Y-78480000D01*
X148590000Y-78480000D01*
X148860000Y-78480000D01*
X148860000Y-78750000D01*
X148860000Y-79020000D01*
X148590000Y-79020000D01*
X148320000Y-79020000D01*
X148320000Y-79300000D01*
X148320000Y-79580000D01*
X148590000Y-79580000D01*
X148860000Y-79580000D01*
X148860000Y-79850000D01*
X148860000Y-80120000D01*
X149140000Y-80120000D01*
X149420000Y-80120000D01*
X149420000Y-79300000D01*
X149420000Y-78480000D01*
X149690000Y-78480000D01*
X149960000Y-78480000D01*
X149960000Y-79030000D01*
X149960000Y-79580000D01*
X150230000Y-79580000D01*
X150500000Y-79580000D01*
X150500000Y-79300000D01*
X150500000Y-79020000D01*
X150780000Y-79020000D01*
X151060000Y-79020000D01*
X151060000Y-78750000D01*
X151060000Y-78480000D01*
X151600000Y-78480000D01*
X152140000Y-78480000D01*
X152140000Y-79030580D01*
X152140000Y-79581161D01*
X151875000Y-79575580D01*
X151610000Y-79570000D01*
X151604435Y-79294999D01*
X151598871Y-79019999D01*
X151329435Y-79019999D01*
X151060000Y-79020000D01*
X151060000Y-79570000D01*
X151060000Y-80120000D01*
X150240000Y-80120000D01*
X149420000Y-80120000D01*
X149420000Y-80390000D01*
X149420000Y-80660000D01*
X149140000Y-80660000D01*
X148860000Y-80660000D01*
X148860000Y-81480000D01*
X148860000Y-82300000D01*
X148590000Y-82300000D01*
X148320000Y-82300000D01*
X148320000Y-82580000D01*
X148320000Y-82860000D01*
X147770000Y-82860000D01*
X147220000Y-82860000D01*
X147220000Y-83130000D01*
X147220000Y-83400000D01*
X146680000Y-83400000D01*
X146140000Y-83400000D01*
X146140000Y-83670000D01*
X146140000Y-83940000D01*
X145860000Y-83940000D01*
X145580000Y-83940000D01*
X145580000Y-84490000D01*
X145580000Y-85040000D01*
X145310000Y-85040000D01*
X145040000Y-85040000D01*
X145040000Y-84770000D01*
X145040000Y-84500000D01*
X144770000Y-84500000D01*
X144500000Y-84500000D01*
X144500000Y-85590000D01*
X144500000Y-86680000D01*
X144220000Y-86680000D01*
X143940000Y-86680000D01*
X143940000Y-86950000D01*
X143940000Y-87220000D01*
X144220000Y-87220000D01*
X144500000Y-87220000D01*
X144500000Y-86950000D01*
X144500000Y-86680000D01*
X144770000Y-86680000D01*
X145040000Y-86680000D01*
X145040000Y-87230000D01*
X145040000Y-87780000D01*
X144220000Y-87780000D01*
X143400000Y-87780000D01*
X143400000Y-88320000D01*
X143400000Y-88860000D01*
X143670000Y-88860000D01*
X143940000Y-88860000D01*
X143940000Y-88590000D01*
X143940000Y-88320000D01*
X144490000Y-88320000D01*
X145040000Y-88320000D01*
X145040000Y-89140000D01*
X145040000Y-89960000D01*
X144770000Y-89960000D01*
X144500000Y-89960000D01*
X144500000Y-89690000D01*
X144500000Y-89420000D01*
X144220000Y-89420000D01*
X143940000Y-89420000D01*
X143940000Y-89690000D01*
X143940000Y-89960000D01*
X144220000Y-89960000D01*
X144500000Y-89960000D01*
X144500000Y-90230000D01*
X144500000Y-90500000D01*
X144770000Y-90500000D01*
X145040000Y-90500000D01*
X145040000Y-91050000D01*
X145040000Y-91600000D01*
X145310000Y-91600000D01*
X145580000Y-91600000D01*
X145580000Y-91330000D01*
X145580000Y-91060000D01*
X145860000Y-91060000D01*
X146140000Y-91060000D01*
X146140000Y-91600000D01*
X146140000Y-92140000D01*
X145860000Y-92140000D01*
X145580000Y-92140000D01*
X145580000Y-92420000D01*
X145580000Y-92700000D01*
X145310000Y-92700000D01*
X145040000Y-92700000D01*
X145040000Y-92420000D01*
X145040000Y-92140000D01*
X144770000Y-92140000D01*
X144500000Y-92140000D01*
X144500000Y-92420000D01*
X144500000Y-92700000D01*
X144770000Y-92700000D01*
X145040000Y-92700000D01*
X145040000Y-92970000D01*
X145040000Y-93240000D01*
X145310000Y-93240000D01*
X145580000Y-93240000D01*
X146680000Y-93240000D01*
X146950000Y-93240000D01*
X147220000Y-93240000D01*
X147220000Y-92970000D01*
X147220000Y-92700000D01*
X146950000Y-92700000D01*
X146680000Y-92700000D01*
X146680000Y-92970000D01*
X146680000Y-93240000D01*
X145580000Y-93240000D01*
X145580000Y-92970000D01*
X145580000Y-92700000D01*
X145860000Y-92700000D01*
X146140000Y-92700000D01*
X146140000Y-92420000D01*
X146140000Y-92140000D01*
X146680000Y-92140000D01*
X147220000Y-92140000D01*
X147220000Y-91870000D01*
X147220000Y-91600000D01*
X147500000Y-91600000D01*
X147780000Y-91600000D01*
X147780000Y-90780000D01*
X147780000Y-90500000D01*
X148860000Y-90500000D01*
X149140000Y-90500000D01*
X149420000Y-90500000D01*
X149420000Y-90230000D01*
X149420000Y-89960000D01*
X149690000Y-89960000D01*
X149960000Y-89960000D01*
X149960000Y-89690000D01*
X149960000Y-89420000D01*
X149409435Y-89420000D01*
X148860000Y-89420000D01*
X148860000Y-89960000D01*
X148860000Y-90500000D01*
X147780000Y-90500000D01*
X147780000Y-89960000D01*
X148050000Y-89960000D01*
X148320000Y-89960000D01*
X148320000Y-89690000D01*
X148320000Y-89420000D01*
X148590000Y-89420000D01*
X148858871Y-89420000D01*
X148864435Y-89145000D01*
X148870000Y-88870000D01*
X149145000Y-88864435D01*
X149420000Y-88858871D01*
X149420000Y-88039435D01*
X149420000Y-87220000D01*
X149140000Y-87220000D01*
X148860000Y-87220000D01*
X148860000Y-87770000D01*
X148860000Y-88320000D01*
X148590000Y-88320000D01*
X148320000Y-88320000D01*
X148320000Y-88590000D01*
X148320000Y-88860000D01*
X148050000Y-88860000D01*
X147780000Y-88860000D01*
X147780000Y-89140000D01*
X147780000Y-89420000D01*
X147500000Y-89420000D01*
X147220000Y-89420000D01*
X147220000Y-89140000D01*
X147220000Y-88860000D01*
X146950000Y-88860000D01*
X146680000Y-88860000D01*
X146680000Y-88040000D01*
X146680000Y-87220000D01*
X146410000Y-87220000D01*
X146140000Y-87220000D01*
X146140000Y-86950000D01*
X146140000Y-86680000D01*
X145860000Y-86680000D01*
X145580000Y-86680000D01*
X145580000Y-86410000D01*
X145580000Y-86140000D01*
X145310000Y-86140000D01*
X145040000Y-86140000D01*
X145040000Y-85860000D01*
X145040000Y-85580000D01*
X145310000Y-85580000D01*
X145580000Y-85580000D01*
X145580000Y-85310000D01*
X145580000Y-85040000D01*
X146400000Y-85040000D01*
X147220000Y-85040000D01*
X147220000Y-84770000D01*
X147220000Y-84500000D01*
X146950000Y-84500000D01*
X146680000Y-84500000D01*
X146680000Y-84220000D01*
X146680000Y-83940000D01*
X146950000Y-83940000D01*
X147220000Y-83940000D01*
X147220000Y-83670000D01*
X147220000Y-83400000D01*
X147500000Y-83400000D01*
X147780000Y-83400000D01*
X147780000Y-83670000D01*
X147780000Y-83940000D01*
X147500000Y-83940000D01*
X147220000Y-83940000D01*
X147220000Y-84220000D01*
X147220000Y-84500000D01*
X147770000Y-84500000D01*
X148320000Y-84500000D01*
X148320000Y-84220000D01*
X148320000Y-83940000D01*
X148590000Y-83940000D01*
X148860000Y-83940000D01*
X149420000Y-83940000D01*
X150240000Y-83940000D01*
X151060000Y-83940000D01*
X151060000Y-83670000D01*
X151060000Y-83400000D01*
X150240000Y-83400000D01*
X149420000Y-83400000D01*
X149420000Y-83670000D01*
X149420000Y-83940000D01*
X148860000Y-83940000D01*
X148860000Y-83670000D01*
X148860000Y-83400000D01*
X148860000Y-82860000D01*
X149410000Y-82860000D01*
X149960000Y-82860000D01*
X149960000Y-82580000D01*
X149960000Y-82300000D01*
X150230000Y-82300000D01*
X150500000Y-82300000D01*
X150500000Y-82580000D01*
X150500000Y-82860000D01*
X151050000Y-82860000D01*
X151600000Y-82860000D01*
X151600000Y-82040000D01*
X151600000Y-81220000D01*
X151330000Y-81220000D01*
X151060000Y-81220000D01*
X151060000Y-80940564D01*
X151060000Y-80660000D01*
X151330000Y-80660000D01*
X151600000Y-80660000D01*
X151600000Y-80390000D01*
X151600000Y-80120000D01*
X151870000Y-80120000D01*
X152140000Y-80120000D01*
X152140000Y-81760000D01*
X152140000Y-83400000D01*
X151870000Y-83400000D01*
X151600000Y-83400000D01*
X151600000Y-84220000D01*
X151600000Y-85040000D01*
X151869678Y-85040000D01*
X152139357Y-85040000D01*
X152144678Y-84495000D01*
X152150000Y-83950000D01*
X152425000Y-83944435D01*
X152700000Y-83938871D01*
X152700000Y-84489435D01*
X152700000Y-85040000D01*
X153240000Y-85040000D01*
X153780000Y-85040000D01*
X153780000Y-84770000D01*
X153780000Y-84500000D01*
X153510000Y-84500000D01*
X153240000Y-84500000D01*
X153240000Y-83950000D01*
X153240000Y-83400000D01*
X152970000Y-83400000D01*
X152700000Y-83400000D01*
X152700000Y-83130000D01*
X152700000Y-82860000D01*
X153240000Y-82860000D01*
X153780000Y-82860000D01*
X153780000Y-83400000D01*
X153780000Y-83940000D01*
X154060000Y-83940000D01*
X154340000Y-83940000D01*
X154340000Y-84760000D01*
X154340000Y-85580000D01*
X154060000Y-85580000D01*
X153780000Y-85580000D01*
X153780000Y-85860000D01*
X153780000Y-86140000D01*
X153510000Y-86140000D01*
X153240000Y-86140000D01*
X153240000Y-86960000D01*
X153240000Y-87780000D01*
X152970000Y-87780000D01*
X152700000Y-87780000D01*
X152700000Y-87500000D01*
X152700000Y-87220000D01*
X152420000Y-87220000D01*
X152140000Y-87220000D01*
X152140000Y-86950000D01*
X152140000Y-86680000D01*
X151870000Y-86680000D01*
X151600000Y-86680000D01*
X151600000Y-86950000D01*
X151600000Y-87220000D01*
X151330000Y-87220000D01*
X151060000Y-87220000D01*
X151060000Y-85860000D01*
X151600000Y-85860000D01*
X151600000Y-86140000D01*
X151870000Y-86140000D01*
X152140000Y-86140000D01*
X152700000Y-86140000D01*
X152970000Y-86140000D01*
X153240000Y-86140000D01*
X153240000Y-85860000D01*
X153240000Y-85580000D01*
X152970000Y-85580000D01*
X152700000Y-85580000D01*
X152700000Y-85860000D01*
X152700000Y-86140000D01*
X152140000Y-86140000D01*
X152140000Y-85860000D01*
X152140000Y-85580000D01*
X152420000Y-85580000D01*
X152700000Y-85580000D01*
X152700000Y-85310000D01*
X152700000Y-85040000D01*
X152420000Y-85040000D01*
X152140000Y-85040000D01*
X152140000Y-85310000D01*
X152140000Y-85580000D01*
X151870000Y-85580000D01*
X151600000Y-85580000D01*
X151600000Y-85860000D01*
X151060000Y-85860000D01*
X151060000Y-85580000D01*
X151060000Y-84500000D01*
X150780000Y-84500000D01*
X150500000Y-84500000D01*
X150500000Y-84770000D01*
X150500000Y-85040000D01*
X150230000Y-85040000D01*
X149960000Y-85040000D01*
X149960000Y-85310000D01*
X149960000Y-85580000D01*
X149410000Y-85580000D01*
X148860000Y-85580000D01*
X148860000Y-85860000D01*
X148860000Y-86140000D01*
X148590000Y-86140000D01*
X148320000Y-86140000D01*
X148320000Y-85590000D01*
X148320000Y-85040000D01*
X148590000Y-85040000D01*
X148860000Y-85040000D01*
X149420000Y-85040000D01*
X149690000Y-85040000D01*
X149960000Y-85040000D01*
X149960000Y-84770000D01*
X149960000Y-84500000D01*
X149690000Y-84500000D01*
X149420000Y-84500000D01*
X149420000Y-84770000D01*
X149420000Y-85040000D01*
X148860000Y-85040000D01*
X148860000Y-84770000D01*
X148860000Y-84500000D01*
X148590000Y-84500000D01*
X148320000Y-84500000D01*
X148320000Y-84770000D01*
X148320000Y-85040000D01*
X148050000Y-85040000D01*
X147780000Y-85040000D01*
X147780000Y-85310000D01*
X147780000Y-85580000D01*
X146960000Y-85580000D01*
X146140000Y-85580000D01*
X146140000Y-85860000D01*
X146140000Y-86140000D01*
X146680000Y-86140000D01*
X147220000Y-86140000D01*
X147220000Y-86680000D01*
X147220000Y-87220000D01*
X147500000Y-87220000D01*
X147780000Y-87220000D01*
X147780000Y-87500000D01*
X147780000Y-87780000D01*
X148050000Y-87780000D01*
X148320000Y-87780000D01*
X148320000Y-87500000D01*
X148320000Y-87220000D01*
X148590000Y-87220000D01*
X148860000Y-87220000D01*
X148860000Y-86680000D01*
X148860000Y-86140000D01*
X149410000Y-86140000D01*
X149960000Y-86140000D01*
X149960000Y-85860000D01*
X149960000Y-85580000D01*
X150230000Y-85580000D01*
X150500000Y-85580000D01*
X150500000Y-85860000D01*
X150500000Y-86140000D01*
X150230000Y-86140000D01*
X149960000Y-86140000D01*
X149960000Y-86410000D01*
X149960000Y-86680000D01*
X150230000Y-86680000D01*
X150500000Y-86680000D01*
X150500000Y-87500000D01*
X150500000Y-88320000D01*
X150230000Y-88320000D01*
X149960000Y-88320000D01*
X149960000Y-88590000D01*
X149960000Y-88860000D01*
X150230000Y-88860000D01*
X150500000Y-88860000D01*
X150500000Y-89680000D01*
X150500000Y-90500000D01*
X150230000Y-90500000D01*
X149960000Y-90500000D01*
X149960000Y-90780000D01*
X149960000Y-91060000D01*
X150510000Y-91060000D01*
X151060000Y-91060000D01*
X151060000Y-91050000D01*
X151600000Y-91050000D01*
X151600000Y-91600000D01*
X152420000Y-91600000D01*
X153240000Y-91600000D01*
X153240000Y-91330000D01*
X153240000Y-91060000D01*
X153790000Y-91060000D01*
X154340000Y-91060000D01*
X154340000Y-90780000D01*
X154340000Y-90500000D01*
X154610000Y-90500000D01*
X154880000Y-90500000D01*
X154880000Y-90230000D01*
X154880000Y-89960000D01*
X154330000Y-89960000D01*
X153780000Y-89960000D01*
X153780000Y-90230000D01*
X153780000Y-90500000D01*
X153510000Y-90500000D01*
X153240000Y-90500000D01*
X153240000Y-90230000D01*
X153240000Y-89960000D01*
X152690000Y-89960000D01*
X152140000Y-89960000D01*
X152140000Y-90230000D01*
X152140000Y-90500000D01*
X151870000Y-90500000D01*
X151600000Y-90500000D01*
X151600000Y-91050000D01*
X151060000Y-91050000D01*
X151060000Y-90510000D01*
X151060000Y-90500000D01*
X151060000Y-89960000D01*
X151330000Y-89960000D01*
X151600000Y-89960000D01*
X151600000Y-89690000D01*
X151600000Y-89420000D01*
X152150000Y-89420000D01*
X152700000Y-89420000D01*
X152700000Y-89140000D01*
X152700000Y-88860000D01*
X152970000Y-88860000D01*
X153240000Y-88860000D01*
X153240000Y-89410000D01*
X153240000Y-89960000D01*
X153510000Y-89960000D01*
X153780000Y-89960000D01*
X153780000Y-89690000D01*
X153780000Y-89420000D01*
X154330000Y-89420000D01*
X154880000Y-89420000D01*
X154880000Y-89690000D01*
X154880000Y-89960000D01*
X155150000Y-89960000D01*
X155420000Y-89960000D01*
X155420743Y-89685000D01*
X155420911Y-89587142D01*
X155420988Y-89458510D01*
X155420976Y-89308328D01*
X155420878Y-89145820D01*
X155420697Y-88980211D01*
X155420517Y-88865000D01*
X155419548Y-88320000D01*
X155699774Y-88320000D01*
X155980000Y-88320000D01*
X155980000Y-88590000D01*
X155980000Y-88860000D01*
X156250000Y-88860000D01*
X156520000Y-88860000D01*
X156520000Y-89140000D01*
X156520000Y-89420000D01*
X156250000Y-89420000D01*
X155980000Y-89420000D01*
X155980000Y-90240000D01*
X155980000Y-91060000D01*
X155160000Y-91060000D01*
X154340000Y-91060000D01*
X154340000Y-91600000D01*
X154340000Y-92140000D01*
X154610000Y-92140000D01*
X154880000Y-92140000D01*
X154880000Y-92420000D01*
X154880000Y-92700000D01*
X155149435Y-92700000D01*
X155418871Y-92700000D01*
X155424435Y-92425000D01*
X155430000Y-92150000D01*
X155700000Y-92150000D01*
X155970000Y-92150000D01*
X155975321Y-92695000D01*
X155980642Y-93240000D01*
X156250321Y-93240000D01*
X156520000Y-93240000D01*
X156520000Y-93510000D01*
X156520000Y-93780000D01*
X155970000Y-93780000D01*
X155420000Y-93780000D01*
X155420000Y-93510000D01*
X155420000Y-93240000D01*
X155150000Y-93240000D01*
X154880000Y-93240000D01*
X154880000Y-92970000D01*
X154880000Y-92700000D01*
X154610000Y-92700000D01*
X154340000Y-92700000D01*
X154340000Y-93520000D01*
X154340000Y-94340000D01*
X154610000Y-94340000D01*
X154880000Y-94340000D01*
X154880000Y-94610000D01*
X154880000Y-94880000D01*
X155150000Y-94880000D01*
X155420000Y-94880000D01*
X155420000Y-94610000D01*
X155420000Y-94340000D01*
X155700000Y-94340000D01*
X155980000Y-94340000D01*
X155980000Y-94610000D01*
X155980000Y-94880000D01*
X155700000Y-94880000D01*
X155420000Y-94880000D01*
X155420000Y-95150000D01*
X155420000Y-95420000D01*
X155150000Y-95420000D01*
X154880000Y-95420000D01*
X154880000Y-95700000D01*
X154880000Y-95980000D01*
X154330000Y-95980000D01*
X153780000Y-95980000D01*
X153780000Y-96250000D01*
X153780000Y-96520000D01*
X153509678Y-96520000D01*
X153239357Y-96520000D01*
X153244678Y-95975000D01*
X153250000Y-95430000D01*
X153515000Y-95424419D01*
X153724825Y-95420000D01*
X154340000Y-95420000D01*
X154610000Y-95420000D01*
X154880000Y-95420000D01*
X154880000Y-95150000D01*
X154880000Y-94880000D01*
X154610000Y-94880000D01*
X154340000Y-94880000D01*
X154340000Y-95150000D01*
X154340000Y-95420000D01*
X153724825Y-95420000D01*
X153780000Y-95418838D01*
X153780000Y-95150000D01*
X153780000Y-95149419D01*
X153780000Y-94880000D01*
X153510000Y-94880000D01*
X153240000Y-94880000D01*
X153240000Y-95150000D01*
X153240000Y-95420000D01*
X152690000Y-95420000D01*
X152140000Y-95420000D01*
X152140000Y-95970000D01*
X152140000Y-96520000D01*
X151600000Y-96520000D01*
X151060000Y-96520000D01*
X151060000Y-96250000D01*
X151060000Y-95980000D01*
X150780000Y-95980000D01*
X150500000Y-95980000D01*
X150500000Y-96250000D01*
X150500000Y-96520000D01*
X150230000Y-96520000D01*
X149960000Y-96520000D01*
X149960000Y-96250000D01*
X149960000Y-95980000D01*
X150229435Y-95980000D01*
X150498871Y-95980000D01*
X150504435Y-95705000D01*
X150510000Y-95430000D01*
X150785000Y-95424435D01*
X151060000Y-95418871D01*
X151060000Y-95149435D01*
X151060000Y-94880000D01*
X151330000Y-94880000D01*
X151600000Y-94880000D01*
X151600000Y-95150000D01*
X151600000Y-95420000D01*
X151870000Y-95420000D01*
X152140000Y-95420000D01*
X152140000Y-95150000D01*
X152140000Y-94880000D01*
X152420000Y-94880000D01*
X152700000Y-94880000D01*
X152700000Y-94610000D01*
X152700000Y-94340000D01*
X152420000Y-94340000D01*
X152140000Y-94340000D01*
X152140000Y-94610000D01*
X152140000Y-94880000D01*
X151870000Y-94880000D01*
X151600000Y-94880000D01*
X151600000Y-93778868D01*
X152139552Y-93778868D01*
X152414776Y-93784434D01*
X152512744Y-93785758D01*
X152641470Y-93786516D01*
X152791716Y-93786708D01*
X152954244Y-93786334D01*
X153119816Y-93785395D01*
X153234384Y-93784384D01*
X153778768Y-93778768D01*
X153784384Y-93234384D01*
X153785724Y-93072271D01*
X153786500Y-92906630D01*
X153786710Y-92746698D01*
X153786355Y-92601712D01*
X153785434Y-92480913D01*
X153784434Y-92414776D01*
X153778868Y-92139552D01*
X152964434Y-92144776D01*
X152150000Y-92150000D01*
X152144776Y-92964434D01*
X152139552Y-93778868D01*
X151600000Y-93778868D01*
X151600000Y-93240000D01*
X151600000Y-91600000D01*
X151330000Y-91600000D01*
X151060000Y-91600000D01*
X151060000Y-91870000D01*
X151060000Y-92140000D01*
X150780000Y-92140000D01*
X150500000Y-92140000D01*
X150500000Y-92420000D01*
X150500000Y-92700000D01*
X150230000Y-92700000D01*
X149960000Y-92700000D01*
X149960000Y-92150000D01*
X149960000Y-91600000D01*
X149690000Y-91600000D01*
X149420000Y-91600000D01*
X149420000Y-91330000D01*
X149420000Y-91060000D01*
X148870000Y-91060000D01*
X148320000Y-91060000D01*
X148320000Y-91330000D01*
X148320000Y-91600000D01*
X148050000Y-91600000D01*
X147780000Y-91600000D01*
X147780000Y-92420000D01*
X147780000Y-93240000D01*
X148320000Y-93240000D01*
X148860000Y-93240000D01*
X148860000Y-93510000D01*
X148860000Y-93780000D01*
X148590000Y-93780000D01*
X148320000Y-93780000D01*
X148320000Y-94060000D01*
X148320000Y-94340000D01*
X147770000Y-94340000D01*
X147220000Y-94340000D01*
X147220000Y-94060000D01*
X147220000Y-93780000D01*
X146950000Y-93780000D01*
X146680000Y-93780000D01*
X146680000Y-94060000D01*
X146680000Y-94340000D01*
X146410000Y-94340000D01*
X146140000Y-94340000D01*
X146140000Y-94610000D01*
X146140000Y-94880000D01*
X145860000Y-94880000D01*
X145580000Y-94880000D01*
X145580000Y-95150000D01*
X145580000Y-95420000D01*
X145860000Y-95420000D01*
X146140000Y-95420000D01*
X146140000Y-95150000D01*
X146140000Y-94880000D01*
X147230000Y-94880000D01*
X148320000Y-94880000D01*
X148320000Y-95149678D01*
X148320000Y-95419357D01*
X147775000Y-95424678D01*
X147230000Y-95430000D01*
X147224678Y-95975000D01*
X147219357Y-96520000D01*
X146949678Y-96520000D01*
X146680000Y-96520000D01*
X146680000Y-96250000D01*
X146680000Y-95980000D01*
X146410000Y-95980000D01*
X146140000Y-95980000D01*
X146140000Y-96250000D01*
X146140000Y-96520000D01*
X145860000Y-96520000D01*
X145580000Y-96520000D01*
X145580000Y-96250000D01*
X145580000Y-95980000D01*
X145040000Y-95980000D01*
X144500000Y-95980000D01*
X144500000Y-95160000D01*
X144500000Y-94340000D01*
X145040000Y-94340000D01*
X145580000Y-94340000D01*
X145580000Y-94060000D01*
X145580000Y-93780000D01*
X144760000Y-93780000D01*
X143940000Y-93780000D01*
X143940000Y-94060000D01*
X143940000Y-94340000D01*
X143400000Y-94340000D01*
X142860000Y-94340000D01*
X142860000Y-93240000D01*
X142860000Y-92140000D01*
X143130000Y-92140000D01*
X143400000Y-92140000D01*
X143400000Y-92960000D01*
X143400000Y-93780000D01*
X143670000Y-93780000D01*
X143940000Y-93780000D01*
X143940000Y-92140000D01*
X143940000Y-90500000D01*
X143670000Y-90500000D01*
X143400000Y-90500000D01*
X143400000Y-89960000D01*
X143400000Y-89420000D01*
X142850000Y-89420000D01*
X142300000Y-89420000D01*
X142300000Y-89690000D01*
X142300000Y-89960000D01*
X141760000Y-89960000D01*
X141220000Y-89960000D01*
X141220000Y-89690000D01*
X141220000Y-89420000D01*
X141760000Y-89420000D01*
X142300000Y-89420000D01*
X142300000Y-89140000D01*
X142300000Y-88860000D01*
X142030000Y-88860000D01*
X141760000Y-88860000D01*
X141760000Y-88590000D01*
X141760000Y-88320000D01*
X142030000Y-88320000D01*
X142300000Y-88320000D01*
X142300000Y-88590000D01*
X142300000Y-88860000D01*
X142580000Y-88860000D01*
X142860000Y-88860000D01*
X142860000Y-88320000D01*
X142860000Y-87780000D01*
X143130000Y-87780000D01*
X143400000Y-87780000D01*
X143400000Y-87500000D01*
X143400000Y-87220000D01*
X143130000Y-87220000D01*
X142860000Y-87220000D01*
X142860000Y-86950000D01*
X142860000Y-86680000D01*
X142310000Y-86680000D01*
X141760000Y-86680000D01*
X141760000Y-86410000D01*
X141760000Y-86140000D01*
X142030000Y-86140000D01*
X142300000Y-86140000D01*
X143400000Y-86140000D01*
X143670000Y-86140000D01*
X143940000Y-86140000D01*
X143940000Y-85860000D01*
X143940000Y-85580000D01*
X143670000Y-85580000D01*
X143400000Y-85580000D01*
X143400000Y-85860000D01*
X143400000Y-86140000D01*
X142300000Y-86140000D01*
X142300000Y-85860000D01*
X142300000Y-85580000D01*
X142030000Y-85580000D01*
X141760000Y-85580000D01*
X141760000Y-85310000D01*
X141760000Y-85040000D01*
X141490000Y-85040000D01*
X141220000Y-85040000D01*
X141220000Y-84490000D01*
X141220000Y-83940000D01*
X141760000Y-83940000D01*
X142300000Y-83940000D01*
X142300000Y-84220000D01*
X142300000Y-84500000D01*
X142030000Y-84500000D01*
X141760000Y-84500000D01*
X141760000Y-84770000D01*
X141760000Y-85040000D01*
X142030000Y-85040000D01*
X142300000Y-85040000D01*
X142300000Y-84770000D01*
X142300000Y-84500000D01*
X142580000Y-84500000D01*
X142860000Y-84500000D01*
X142860000Y-85040000D01*
X142860000Y-85580000D01*
X143130000Y-85580000D01*
X143400000Y-85580000D01*
X143400000Y-85040000D01*
X143400000Y-84500000D01*
X143950000Y-84500000D01*
X144500000Y-84500000D01*
X144500000Y-84220000D01*
X144500000Y-83940000D01*
X143950000Y-83940000D01*
X143400000Y-83940000D01*
X143400000Y-83670000D01*
X143400000Y-83400000D01*
X143670000Y-83400000D01*
X143940000Y-83400000D01*
X143940000Y-83130000D01*
X143940000Y-82860000D01*
X144490000Y-82860000D01*
X145040000Y-82860000D01*
X145040000Y-83130000D01*
X145040000Y-83400000D01*
X145590000Y-83400000D01*
X146140000Y-83400000D01*
X146140000Y-83130564D01*
X146140000Y-82861128D01*
X145865000Y-82855564D01*
X145590000Y-82850000D01*
X145584435Y-82574999D01*
X145578871Y-82299999D01*
X145859435Y-82299999D01*
X146140000Y-82300000D01*
X146140000Y-82030000D01*
X146140000Y-81760000D01*
X146410000Y-81760000D01*
X146680000Y-81760000D01*
X146680000Y-82310000D01*
X146680000Y-82860000D01*
X146950000Y-82860000D01*
X147220000Y-82860000D01*
X147220000Y-82310000D01*
X147220000Y-81760000D01*
X147500000Y-81760000D01*
X147780000Y-81760000D01*
X147780000Y-82030000D01*
X147780000Y-82300000D01*
X148050000Y-82300000D01*
X148320000Y-82300000D01*
X148320000Y-81210000D01*
X148320000Y-80120000D01*
X148050000Y-80120000D01*
X147780000Y-80120000D01*
X147780000Y-80390000D01*
X147780000Y-80660000D01*
X147500000Y-80660000D01*
X147220000Y-80660000D01*
X147220000Y-79840000D01*
X147220000Y-79020000D01*
X146950000Y-79020000D01*
X146680000Y-79020000D01*
X146680000Y-79299983D01*
X146680000Y-79579966D01*
X146135000Y-79574983D01*
X145590000Y-79570000D01*
X145584435Y-79295000D01*
X145578871Y-79020000D01*
X145309435Y-79020000D01*
X145040000Y-79020000D01*
X145040000Y-79840000D01*
X145040000Y-80660000D01*
X144490000Y-80660000D01*
X143940000Y-80660000D01*
X143940000Y-80940000D01*
X143940000Y-81220000D01*
X143670000Y-81220000D01*
X143400000Y-81220000D01*
X143400000Y-80670000D01*
X143400000Y-80120000D01*
X143670000Y-80120000D01*
X143940000Y-80120000D01*
X143940000Y-79850000D01*
X143940000Y-79580000D01*
X143665000Y-79578979D01*
X143530722Y-79578736D01*
X143379060Y-79578866D01*
X143230368Y-79579333D01*
X143125000Y-79579940D01*
X142860000Y-79581922D01*
X142860000Y-79300961D01*
X142860000Y-79020000D01*
X143130000Y-79020000D01*
X143400000Y-79020000D01*
X143400000Y-78750000D01*
X143400000Y-78480000D01*
X143950000Y-78480000D01*
X144500000Y-78480000D01*
X144500000Y-78750000D01*
G37*
M02*
