M48
; DRILL file {KiCad 8.0.5} date 2024-10-03T09:55:34+0100
; FORMAT={-:-/ absolute / inch / decimal}
; #@! TF.CreationDate,2024-10-03T09:55:34+01:00
; #@! TF.GenerationSoftware,Kicad,Pcbnew,8.0.5
; #@! TF.FileFunction,Plated,1,2,PTH
FMAT,2
INCH
; #@! TA.AperFunction,Plated,PTH,ViaDrill
T1C0.0236
; #@! TA.AperFunction,Plated,PTH,ComponentDrill
T2C0.0394
%
G90
G05
T1
X4.7244Y-3.6417
T2
X4.2665Y-2.8437
X4.2665Y-2.9437
X4.3665Y-2.8437
X4.3665Y-2.9437
X4.4665Y-2.8437
X4.4665Y-2.9437
X4.5665Y-2.8437
X4.5665Y-2.9437
X4.6665Y-2.8437
X4.6665Y-2.9437
X4.7665Y-2.8437
X4.7665Y-2.9437
X4.8665Y-2.8437
X4.8665Y-2.9437
X4.9665Y-2.8437
X4.9665Y-2.9437
X5.0665Y-2.8437
X5.0665Y-2.9437
X5.1665Y-2.8437
X5.1665Y-2.9437
X5.2665Y-2.8437
X5.2665Y-2.9437
X5.3665Y-2.8437
X5.3665Y-2.9437
X5.4665Y-2.8437
X5.4665Y-2.9437
X5.5665Y-2.8437
X5.5665Y-2.9437
X5.6665Y-2.8437
X5.6665Y-2.9437
X5.7665Y-2.8437
X5.7665Y-2.9437
X5.8665Y-2.8437
X5.8665Y-2.9437
X5.9665Y-2.8437
X5.9665Y-2.9437
X6.0665Y-2.8437
X6.0665Y-2.9437
X6.1665Y-2.8437
X6.1665Y-2.9437
M30
