G04 #@! TF.GenerationSoftware,KiCad,Pcbnew,8.0.5*
G04 #@! TF.CreationDate,2024-10-03T09:55:36+01:00*
G04 #@! TF.ProjectId,phonkyo,70686f6e-6b79-46f2-9e6b-696361645f70,rev?*
G04 #@! TF.SameCoordinates,Original*
G04 #@! TF.FileFunction,Copper,L2,Bot*
G04 #@! TF.FilePolarity,Positive*
%FSLAX46Y46*%
G04 Gerber Fmt 4.6, Leading zero omitted, Abs format (unit mm)*
G04 Created by KiCad (PCBNEW 8.0.5) date 2024-10-03 09:55:36*
%MOMM*%
%LPD*%
G01*
G04 APERTURE LIST*
G04 #@! TA.AperFunction,ComponentPad*
%ADD10R,1.700000X1.700000*%
G04 #@! TD*
G04 #@! TA.AperFunction,ComponentPad*
%ADD11O,1.700000X1.700000*%
G04 #@! TD*
G04 #@! TA.AperFunction,ViaPad*
%ADD12C,0.900000*%
G04 #@! TD*
G04 APERTURE END LIST*
D10*
X108370000Y-74770000D03*
D11*
X108370000Y-72230000D03*
X110910000Y-74770000D03*
X110910000Y-72230000D03*
X113450000Y-74770000D03*
X113450000Y-72230000D03*
X115990000Y-74770000D03*
X115990000Y-72230000D03*
X118530000Y-74770000D03*
X118530000Y-72230000D03*
X121070000Y-74770000D03*
X121070000Y-72230000D03*
X123610000Y-74770000D03*
X123610000Y-72230000D03*
X126150000Y-74770000D03*
X126150000Y-72230000D03*
X128690000Y-74770000D03*
X128690000Y-72230000D03*
X131230000Y-74770000D03*
X131230000Y-72230000D03*
X133770000Y-74770000D03*
X133770000Y-72230000D03*
X136310000Y-74770000D03*
X136310000Y-72230000D03*
X138850000Y-74770000D03*
X138850000Y-72230000D03*
X141390000Y-74770000D03*
X141390000Y-72230000D03*
X143930000Y-74770000D03*
X143930000Y-72230000D03*
X146470000Y-74770000D03*
X146470000Y-72230000D03*
X149010000Y-74770000D03*
X149010000Y-72230000D03*
X151550000Y-74770000D03*
X151550000Y-72230000D03*
X154090000Y-74770000D03*
X154090000Y-72230000D03*
X156630000Y-74770000D03*
X156630000Y-72230000D03*
D12*
X120000000Y-92500000D03*
G04 #@! TA.AperFunction,Conductor*
G36*
X162003472Y-70050695D02*
G01*
X162323297Y-70068656D01*
X162337094Y-70070210D01*
X162649457Y-70123283D01*
X162663014Y-70126377D01*
X162967469Y-70214089D01*
X162980593Y-70218682D01*
X163273304Y-70339926D01*
X163285826Y-70345955D01*
X163452594Y-70438125D01*
X163563139Y-70499221D01*
X163574900Y-70506611D01*
X163833314Y-70689966D01*
X163844174Y-70698627D01*
X164080418Y-70909749D01*
X164090250Y-70919581D01*
X164301372Y-71155825D01*
X164310035Y-71166687D01*
X164493385Y-71425094D01*
X164500778Y-71436860D01*
X164654040Y-71714166D01*
X164660073Y-71726695D01*
X164781317Y-72019406D01*
X164785910Y-72032530D01*
X164873622Y-72336985D01*
X164876716Y-72350542D01*
X164929787Y-72662894D01*
X164931344Y-72676712D01*
X164949305Y-72996527D01*
X164949500Y-73003480D01*
X164949500Y-96996519D01*
X164949305Y-97003472D01*
X164931344Y-97323287D01*
X164929787Y-97337105D01*
X164876716Y-97649457D01*
X164873622Y-97663014D01*
X164785910Y-97967469D01*
X164781317Y-97980593D01*
X164660073Y-98273304D01*
X164654040Y-98285833D01*
X164500778Y-98563139D01*
X164493380Y-98574913D01*
X164310043Y-98833302D01*
X164301372Y-98844174D01*
X164090250Y-99080418D01*
X164080418Y-99090250D01*
X163844174Y-99301372D01*
X163833302Y-99310043D01*
X163574913Y-99493380D01*
X163563139Y-99500778D01*
X163285833Y-99654040D01*
X163273304Y-99660073D01*
X162980593Y-99781317D01*
X162967469Y-99785910D01*
X162663014Y-99873622D01*
X162649457Y-99876716D01*
X162337105Y-99929787D01*
X162323287Y-99931344D01*
X162003472Y-99949305D01*
X161996519Y-99949500D01*
X103003481Y-99949500D01*
X102996528Y-99949305D01*
X102676712Y-99931344D01*
X102662894Y-99929787D01*
X102350542Y-99876716D01*
X102336985Y-99873622D01*
X102032530Y-99785910D01*
X102019406Y-99781317D01*
X101726695Y-99660073D01*
X101714166Y-99654040D01*
X101436860Y-99500778D01*
X101425094Y-99493385D01*
X101166687Y-99310035D01*
X101155825Y-99301372D01*
X100919581Y-99090250D01*
X100909749Y-99080418D01*
X100698627Y-98844174D01*
X100689966Y-98833314D01*
X100506611Y-98574900D01*
X100499221Y-98563139D01*
X100345959Y-98285833D01*
X100339926Y-98273304D01*
X100218682Y-97980593D01*
X100214089Y-97967469D01*
X100126377Y-97663014D01*
X100123283Y-97649457D01*
X100094127Y-97477858D01*
X100070210Y-97337094D01*
X100068656Y-97323297D01*
X100050695Y-97003472D01*
X100050500Y-96996519D01*
X100050500Y-73900247D01*
X107319500Y-73900247D01*
X107319500Y-75639752D01*
X107331131Y-75698229D01*
X107331132Y-75698230D01*
X107375447Y-75764552D01*
X107441769Y-75808867D01*
X107441770Y-75808868D01*
X107500247Y-75820499D01*
X107500250Y-75820500D01*
X107500252Y-75820500D01*
X109239750Y-75820500D01*
X109239751Y-75820499D01*
X109254568Y-75817552D01*
X109298229Y-75808868D01*
X109298229Y-75808867D01*
X109298231Y-75808867D01*
X109364552Y-75764552D01*
X109408867Y-75698231D01*
X109408867Y-75698229D01*
X109408868Y-75698229D01*
X109420499Y-75639752D01*
X109420500Y-75639750D01*
X109420500Y-74770000D01*
X109854417Y-74770000D01*
X109874699Y-74975932D01*
X109874700Y-74975934D01*
X109934768Y-75173954D01*
X110032315Y-75356450D01*
X110032317Y-75356452D01*
X110163589Y-75516410D01*
X110260209Y-75595702D01*
X110323550Y-75647685D01*
X110506046Y-75745232D01*
X110704066Y-75805300D01*
X110704065Y-75805300D01*
X110722529Y-75807118D01*
X110910000Y-75825583D01*
X111115934Y-75805300D01*
X111313954Y-75745232D01*
X111496450Y-75647685D01*
X111656410Y-75516410D01*
X111787685Y-75356450D01*
X111885232Y-75173954D01*
X111945300Y-74975934D01*
X111965583Y-74770000D01*
X112394417Y-74770000D01*
X112414699Y-74975932D01*
X112414700Y-74975934D01*
X112474768Y-75173954D01*
X112572315Y-75356450D01*
X112572317Y-75356452D01*
X112703589Y-75516410D01*
X112800209Y-75595702D01*
X112863550Y-75647685D01*
X113046046Y-75745232D01*
X113244066Y-75805300D01*
X113244065Y-75805300D01*
X113262529Y-75807118D01*
X113450000Y-75825583D01*
X113655934Y-75805300D01*
X113853954Y-75745232D01*
X114036450Y-75647685D01*
X114196410Y-75516410D01*
X114327685Y-75356450D01*
X114425232Y-75173954D01*
X114485300Y-74975934D01*
X114505583Y-74770000D01*
X114934417Y-74770000D01*
X114954699Y-74975932D01*
X114954700Y-74975934D01*
X115014768Y-75173954D01*
X115112315Y-75356450D01*
X115112317Y-75356452D01*
X115243589Y-75516410D01*
X115340209Y-75595702D01*
X115403550Y-75647685D01*
X115586046Y-75745232D01*
X115784066Y-75805300D01*
X115784065Y-75805300D01*
X115802529Y-75807118D01*
X115990000Y-75825583D01*
X116195934Y-75805300D01*
X116393954Y-75745232D01*
X116576450Y-75647685D01*
X116736410Y-75516410D01*
X116867685Y-75356450D01*
X116965232Y-75173954D01*
X117025300Y-74975934D01*
X117045583Y-74770000D01*
X120014417Y-74770000D01*
X120034699Y-74975932D01*
X120034700Y-74975934D01*
X120094768Y-75173954D01*
X120192315Y-75356450D01*
X120192317Y-75356452D01*
X120323589Y-75516410D01*
X120420209Y-75595702D01*
X120483550Y-75647685D01*
X120666046Y-75745232D01*
X120864066Y-75805300D01*
X120864065Y-75805300D01*
X120882529Y-75807118D01*
X121070000Y-75825583D01*
X121275934Y-75805300D01*
X121473954Y-75745232D01*
X121656450Y-75647685D01*
X121816410Y-75516410D01*
X121947685Y-75356450D01*
X122045232Y-75173954D01*
X122105300Y-74975934D01*
X122125583Y-74770000D01*
X122554417Y-74770000D01*
X122574699Y-74975932D01*
X122574700Y-74975934D01*
X122634768Y-75173954D01*
X122732315Y-75356450D01*
X122732317Y-75356452D01*
X122863589Y-75516410D01*
X122960209Y-75595702D01*
X123023550Y-75647685D01*
X123206046Y-75745232D01*
X123404066Y-75805300D01*
X123404065Y-75805300D01*
X123422529Y-75807118D01*
X123610000Y-75825583D01*
X123815934Y-75805300D01*
X124013954Y-75745232D01*
X124196450Y-75647685D01*
X124356410Y-75516410D01*
X124487685Y-75356450D01*
X124585232Y-75173954D01*
X124645300Y-74975934D01*
X124665583Y-74770000D01*
X125094417Y-74770000D01*
X125114699Y-74975932D01*
X125114700Y-74975934D01*
X125174768Y-75173954D01*
X125272315Y-75356450D01*
X125272317Y-75356452D01*
X125403589Y-75516410D01*
X125500209Y-75595702D01*
X125563550Y-75647685D01*
X125746046Y-75745232D01*
X125944066Y-75805300D01*
X125944065Y-75805300D01*
X125962529Y-75807118D01*
X126150000Y-75825583D01*
X126355934Y-75805300D01*
X126553954Y-75745232D01*
X126736450Y-75647685D01*
X126896410Y-75516410D01*
X127027685Y-75356450D01*
X127125232Y-75173954D01*
X127185300Y-74975934D01*
X127205583Y-74770000D01*
X127634417Y-74770000D01*
X127654699Y-74975932D01*
X127654700Y-74975934D01*
X127714768Y-75173954D01*
X127812315Y-75356450D01*
X127812317Y-75356452D01*
X127943589Y-75516410D01*
X128040209Y-75595702D01*
X128103550Y-75647685D01*
X128286046Y-75745232D01*
X128484066Y-75805300D01*
X128484065Y-75805300D01*
X128502529Y-75807118D01*
X128690000Y-75825583D01*
X128895934Y-75805300D01*
X129093954Y-75745232D01*
X129276450Y-75647685D01*
X129436410Y-75516410D01*
X129567685Y-75356450D01*
X129665232Y-75173954D01*
X129725300Y-74975934D01*
X129745583Y-74770000D01*
X130174417Y-74770000D01*
X130194699Y-74975932D01*
X130194700Y-74975934D01*
X130254768Y-75173954D01*
X130352315Y-75356450D01*
X130352317Y-75356452D01*
X130483589Y-75516410D01*
X130580209Y-75595702D01*
X130643550Y-75647685D01*
X130826046Y-75745232D01*
X131024066Y-75805300D01*
X131024065Y-75805300D01*
X131042529Y-75807118D01*
X131230000Y-75825583D01*
X131435934Y-75805300D01*
X131633954Y-75745232D01*
X131816450Y-75647685D01*
X131976410Y-75516410D01*
X132107685Y-75356450D01*
X132205232Y-75173954D01*
X132265300Y-74975934D01*
X132285583Y-74770000D01*
X132714417Y-74770000D01*
X132734699Y-74975932D01*
X132734700Y-74975934D01*
X132794768Y-75173954D01*
X132892315Y-75356450D01*
X132892317Y-75356452D01*
X133023589Y-75516410D01*
X133120209Y-75595702D01*
X133183550Y-75647685D01*
X133366046Y-75745232D01*
X133564066Y-75805300D01*
X133564065Y-75805300D01*
X133582529Y-75807118D01*
X133770000Y-75825583D01*
X133975934Y-75805300D01*
X134173954Y-75745232D01*
X134356450Y-75647685D01*
X134516410Y-75516410D01*
X134647685Y-75356450D01*
X134745232Y-75173954D01*
X134805300Y-74975934D01*
X134825583Y-74770000D01*
X135254417Y-74770000D01*
X135274699Y-74975932D01*
X135274700Y-74975934D01*
X135334768Y-75173954D01*
X135432315Y-75356450D01*
X135432317Y-75356452D01*
X135563589Y-75516410D01*
X135660209Y-75595702D01*
X135723550Y-75647685D01*
X135906046Y-75745232D01*
X136104066Y-75805300D01*
X136104065Y-75805300D01*
X136122529Y-75807118D01*
X136310000Y-75825583D01*
X136515934Y-75805300D01*
X136713954Y-75745232D01*
X136896450Y-75647685D01*
X137056410Y-75516410D01*
X137187685Y-75356450D01*
X137285232Y-75173954D01*
X137345300Y-74975934D01*
X137365583Y-74770000D01*
X140334417Y-74770000D01*
X140354699Y-74975932D01*
X140354700Y-74975934D01*
X140414768Y-75173954D01*
X140512315Y-75356450D01*
X140512317Y-75356452D01*
X140643589Y-75516410D01*
X140740209Y-75595702D01*
X140803550Y-75647685D01*
X140986046Y-75745232D01*
X141184066Y-75805300D01*
X141184065Y-75805300D01*
X141202529Y-75807118D01*
X141390000Y-75825583D01*
X141595934Y-75805300D01*
X141793954Y-75745232D01*
X141976450Y-75647685D01*
X142136410Y-75516410D01*
X142267685Y-75356450D01*
X142365232Y-75173954D01*
X142425300Y-74975934D01*
X142445583Y-74770000D01*
X142874417Y-74770000D01*
X142894699Y-74975932D01*
X142894700Y-74975934D01*
X142954768Y-75173954D01*
X143052315Y-75356450D01*
X143052317Y-75356452D01*
X143183589Y-75516410D01*
X143280209Y-75595702D01*
X143343550Y-75647685D01*
X143526046Y-75745232D01*
X143724066Y-75805300D01*
X143724065Y-75805300D01*
X143742529Y-75807118D01*
X143930000Y-75825583D01*
X144135934Y-75805300D01*
X144333954Y-75745232D01*
X144516450Y-75647685D01*
X144676410Y-75516410D01*
X144807685Y-75356450D01*
X144905232Y-75173954D01*
X144965300Y-74975934D01*
X144985583Y-74770000D01*
X145414417Y-74770000D01*
X145434699Y-74975932D01*
X145434700Y-74975934D01*
X145494768Y-75173954D01*
X145592315Y-75356450D01*
X145592317Y-75356452D01*
X145723589Y-75516410D01*
X145820209Y-75595702D01*
X145883550Y-75647685D01*
X146066046Y-75745232D01*
X146264066Y-75805300D01*
X146264065Y-75805300D01*
X146282529Y-75807118D01*
X146470000Y-75825583D01*
X146675934Y-75805300D01*
X146873954Y-75745232D01*
X147056450Y-75647685D01*
X147216410Y-75516410D01*
X147347685Y-75356450D01*
X147445232Y-75173954D01*
X147505300Y-74975934D01*
X147525583Y-74770000D01*
X147954417Y-74770000D01*
X147974699Y-74975932D01*
X147974700Y-74975934D01*
X148034768Y-75173954D01*
X148132315Y-75356450D01*
X148132317Y-75356452D01*
X148263589Y-75516410D01*
X148360209Y-75595702D01*
X148423550Y-75647685D01*
X148606046Y-75745232D01*
X148804066Y-75805300D01*
X148804065Y-75805300D01*
X148822529Y-75807118D01*
X149010000Y-75825583D01*
X149215934Y-75805300D01*
X149413954Y-75745232D01*
X149596450Y-75647685D01*
X149756410Y-75516410D01*
X149887685Y-75356450D01*
X149985232Y-75173954D01*
X150045300Y-74975934D01*
X150065583Y-74770000D01*
X150494417Y-74770000D01*
X150514699Y-74975932D01*
X150514700Y-74975934D01*
X150574768Y-75173954D01*
X150672315Y-75356450D01*
X150672317Y-75356452D01*
X150803589Y-75516410D01*
X150900209Y-75595702D01*
X150963550Y-75647685D01*
X151146046Y-75745232D01*
X151344066Y-75805300D01*
X151344065Y-75805300D01*
X151362529Y-75807118D01*
X151550000Y-75825583D01*
X151755934Y-75805300D01*
X151953954Y-75745232D01*
X152136450Y-75647685D01*
X152296410Y-75516410D01*
X152427685Y-75356450D01*
X152525232Y-75173954D01*
X152585300Y-74975934D01*
X152605583Y-74770000D01*
X153034417Y-74770000D01*
X153054699Y-74975932D01*
X153054700Y-74975934D01*
X153114768Y-75173954D01*
X153212315Y-75356450D01*
X153212317Y-75356452D01*
X153343589Y-75516410D01*
X153440209Y-75595702D01*
X153503550Y-75647685D01*
X153686046Y-75745232D01*
X153884066Y-75805300D01*
X153884065Y-75805300D01*
X153902529Y-75807118D01*
X154090000Y-75825583D01*
X154295934Y-75805300D01*
X154493954Y-75745232D01*
X154676450Y-75647685D01*
X154836410Y-75516410D01*
X154967685Y-75356450D01*
X155065232Y-75173954D01*
X155125300Y-74975934D01*
X155145583Y-74770000D01*
X155125300Y-74564066D01*
X155065232Y-74366046D01*
X154967685Y-74183550D01*
X154915702Y-74120209D01*
X154836410Y-74023589D01*
X154686121Y-73900252D01*
X154676450Y-73892315D01*
X154493954Y-73794768D01*
X154295934Y-73734700D01*
X154295932Y-73734699D01*
X154295934Y-73734699D01*
X154090000Y-73714417D01*
X153884067Y-73734699D01*
X153686043Y-73794769D01*
X153598114Y-73841769D01*
X153503550Y-73892315D01*
X153503548Y-73892316D01*
X153503547Y-73892317D01*
X153343589Y-74023589D01*
X153212317Y-74183547D01*
X153114769Y-74366043D01*
X153054699Y-74564067D01*
X153034417Y-74770000D01*
X152605583Y-74770000D01*
X152585300Y-74564066D01*
X152525232Y-74366046D01*
X152427685Y-74183550D01*
X152375702Y-74120209D01*
X152296410Y-74023589D01*
X152146121Y-73900252D01*
X152136450Y-73892315D01*
X151953954Y-73794768D01*
X151755934Y-73734700D01*
X151755932Y-73734699D01*
X151755934Y-73734699D01*
X151550000Y-73714417D01*
X151344067Y-73734699D01*
X151146043Y-73794769D01*
X151058114Y-73841769D01*
X150963550Y-73892315D01*
X150963548Y-73892316D01*
X150963547Y-73892317D01*
X150803589Y-74023589D01*
X150672317Y-74183547D01*
X150574769Y-74366043D01*
X150514699Y-74564067D01*
X150494417Y-74770000D01*
X150065583Y-74770000D01*
X150045300Y-74564066D01*
X149985232Y-74366046D01*
X149887685Y-74183550D01*
X149835702Y-74120209D01*
X149756410Y-74023589D01*
X149606121Y-73900252D01*
X149596450Y-73892315D01*
X149413954Y-73794768D01*
X149215934Y-73734700D01*
X149215932Y-73734699D01*
X149215934Y-73734699D01*
X149010000Y-73714417D01*
X148804067Y-73734699D01*
X148606043Y-73794769D01*
X148518114Y-73841769D01*
X148423550Y-73892315D01*
X148423548Y-73892316D01*
X148423547Y-73892317D01*
X148263589Y-74023589D01*
X148132317Y-74183547D01*
X148034769Y-74366043D01*
X147974699Y-74564067D01*
X147954417Y-74770000D01*
X147525583Y-74770000D01*
X147505300Y-74564066D01*
X147445232Y-74366046D01*
X147347685Y-74183550D01*
X147295702Y-74120209D01*
X147216410Y-74023589D01*
X147066121Y-73900252D01*
X147056450Y-73892315D01*
X146873954Y-73794768D01*
X146675934Y-73734700D01*
X146675932Y-73734699D01*
X146675934Y-73734699D01*
X146470000Y-73714417D01*
X146264067Y-73734699D01*
X146066043Y-73794769D01*
X145978114Y-73841769D01*
X145883550Y-73892315D01*
X145883548Y-73892316D01*
X145883547Y-73892317D01*
X145723589Y-74023589D01*
X145592317Y-74183547D01*
X145494769Y-74366043D01*
X145434699Y-74564067D01*
X145414417Y-74770000D01*
X144985583Y-74770000D01*
X144965300Y-74564066D01*
X144905232Y-74366046D01*
X144807685Y-74183550D01*
X144755702Y-74120209D01*
X144676410Y-74023589D01*
X144526121Y-73900252D01*
X144516450Y-73892315D01*
X144333954Y-73794768D01*
X144135934Y-73734700D01*
X144135932Y-73734699D01*
X144135934Y-73734699D01*
X143930000Y-73714417D01*
X143724067Y-73734699D01*
X143526043Y-73794769D01*
X143438114Y-73841769D01*
X143343550Y-73892315D01*
X143343548Y-73892316D01*
X143343547Y-73892317D01*
X143183589Y-74023589D01*
X143052317Y-74183547D01*
X142954769Y-74366043D01*
X142894699Y-74564067D01*
X142874417Y-74770000D01*
X142445583Y-74770000D01*
X142425300Y-74564066D01*
X142365232Y-74366046D01*
X142267685Y-74183550D01*
X142215702Y-74120209D01*
X142136410Y-74023589D01*
X141986121Y-73900252D01*
X141976450Y-73892315D01*
X141793954Y-73794768D01*
X141595934Y-73734700D01*
X141595932Y-73734699D01*
X141595934Y-73734699D01*
X141390000Y-73714417D01*
X141184067Y-73734699D01*
X140986043Y-73794769D01*
X140898114Y-73841769D01*
X140803550Y-73892315D01*
X140803548Y-73892316D01*
X140803547Y-73892317D01*
X140643589Y-74023589D01*
X140512317Y-74183547D01*
X140414769Y-74366043D01*
X140354699Y-74564067D01*
X140334417Y-74770000D01*
X137365583Y-74770000D01*
X137345300Y-74564066D01*
X137285232Y-74366046D01*
X137187685Y-74183550D01*
X137135702Y-74120209D01*
X137056410Y-74023589D01*
X136906121Y-73900252D01*
X136896450Y-73892315D01*
X136713954Y-73794768D01*
X136515934Y-73734700D01*
X136515932Y-73734699D01*
X136515934Y-73734699D01*
X136310000Y-73714417D01*
X136104067Y-73734699D01*
X135906043Y-73794769D01*
X135818114Y-73841769D01*
X135723550Y-73892315D01*
X135723548Y-73892316D01*
X135723547Y-73892317D01*
X135563589Y-74023589D01*
X135432317Y-74183547D01*
X135334769Y-74366043D01*
X135274699Y-74564067D01*
X135254417Y-74770000D01*
X134825583Y-74770000D01*
X134805300Y-74564066D01*
X134745232Y-74366046D01*
X134647685Y-74183550D01*
X134595702Y-74120209D01*
X134516410Y-74023589D01*
X134366121Y-73900252D01*
X134356450Y-73892315D01*
X134173954Y-73794768D01*
X133975934Y-73734700D01*
X133975932Y-73734699D01*
X133975934Y-73734699D01*
X133770000Y-73714417D01*
X133564067Y-73734699D01*
X133366043Y-73794769D01*
X133278114Y-73841769D01*
X133183550Y-73892315D01*
X133183548Y-73892316D01*
X133183547Y-73892317D01*
X133023589Y-74023589D01*
X132892317Y-74183547D01*
X132794769Y-74366043D01*
X132734699Y-74564067D01*
X132714417Y-74770000D01*
X132285583Y-74770000D01*
X132265300Y-74564066D01*
X132205232Y-74366046D01*
X132107685Y-74183550D01*
X132055702Y-74120209D01*
X131976410Y-74023589D01*
X131826121Y-73900252D01*
X131816450Y-73892315D01*
X131633954Y-73794768D01*
X131435934Y-73734700D01*
X131435932Y-73734699D01*
X131435934Y-73734699D01*
X131230000Y-73714417D01*
X131024067Y-73734699D01*
X130826043Y-73794769D01*
X130738114Y-73841769D01*
X130643550Y-73892315D01*
X130643548Y-73892316D01*
X130643547Y-73892317D01*
X130483589Y-74023589D01*
X130352317Y-74183547D01*
X130254769Y-74366043D01*
X130194699Y-74564067D01*
X130174417Y-74770000D01*
X129745583Y-74770000D01*
X129725300Y-74564066D01*
X129665232Y-74366046D01*
X129567685Y-74183550D01*
X129515702Y-74120209D01*
X129436410Y-74023589D01*
X129286121Y-73900252D01*
X129276450Y-73892315D01*
X129093954Y-73794768D01*
X128895934Y-73734700D01*
X128895932Y-73734699D01*
X128895934Y-73734699D01*
X128690000Y-73714417D01*
X128484067Y-73734699D01*
X128286043Y-73794769D01*
X128198114Y-73841769D01*
X128103550Y-73892315D01*
X128103548Y-73892316D01*
X128103547Y-73892317D01*
X127943589Y-74023589D01*
X127812317Y-74183547D01*
X127714769Y-74366043D01*
X127654699Y-74564067D01*
X127634417Y-74770000D01*
X127205583Y-74770000D01*
X127185300Y-74564066D01*
X127125232Y-74366046D01*
X127027685Y-74183550D01*
X126975702Y-74120209D01*
X126896410Y-74023589D01*
X126746121Y-73900252D01*
X126736450Y-73892315D01*
X126553954Y-73794768D01*
X126355934Y-73734700D01*
X126355932Y-73734699D01*
X126355934Y-73734699D01*
X126150000Y-73714417D01*
X125944067Y-73734699D01*
X125746043Y-73794769D01*
X125658114Y-73841769D01*
X125563550Y-73892315D01*
X125563548Y-73892316D01*
X125563547Y-73892317D01*
X125403589Y-74023589D01*
X125272317Y-74183547D01*
X125174769Y-74366043D01*
X125114699Y-74564067D01*
X125094417Y-74770000D01*
X124665583Y-74770000D01*
X124645300Y-74564066D01*
X124585232Y-74366046D01*
X124487685Y-74183550D01*
X124435702Y-74120209D01*
X124356410Y-74023589D01*
X124206121Y-73900252D01*
X124196450Y-73892315D01*
X124013954Y-73794768D01*
X123815934Y-73734700D01*
X123815932Y-73734699D01*
X123815934Y-73734699D01*
X123610000Y-73714417D01*
X123404067Y-73734699D01*
X123206043Y-73794769D01*
X123118114Y-73841769D01*
X123023550Y-73892315D01*
X123023548Y-73892316D01*
X123023547Y-73892317D01*
X122863589Y-74023589D01*
X122732317Y-74183547D01*
X122634769Y-74366043D01*
X122574699Y-74564067D01*
X122554417Y-74770000D01*
X122125583Y-74770000D01*
X122105300Y-74564066D01*
X122045232Y-74366046D01*
X121947685Y-74183550D01*
X121895702Y-74120209D01*
X121816410Y-74023589D01*
X121666121Y-73900252D01*
X121656450Y-73892315D01*
X121473954Y-73794768D01*
X121275934Y-73734700D01*
X121275932Y-73734699D01*
X121275934Y-73734699D01*
X121070000Y-73714417D01*
X120864067Y-73734699D01*
X120666043Y-73794769D01*
X120578114Y-73841769D01*
X120483550Y-73892315D01*
X120483548Y-73892316D01*
X120483547Y-73892317D01*
X120323589Y-74023589D01*
X120192317Y-74183547D01*
X120094769Y-74366043D01*
X120034699Y-74564067D01*
X120014417Y-74770000D01*
X117045583Y-74770000D01*
X117025300Y-74564066D01*
X116965232Y-74366046D01*
X116867685Y-74183550D01*
X116815702Y-74120209D01*
X116736410Y-74023589D01*
X116586121Y-73900252D01*
X116576450Y-73892315D01*
X116393954Y-73794768D01*
X116195934Y-73734700D01*
X116195932Y-73734699D01*
X116195934Y-73734699D01*
X115990000Y-73714417D01*
X115784067Y-73734699D01*
X115586043Y-73794769D01*
X115498114Y-73841769D01*
X115403550Y-73892315D01*
X115403548Y-73892316D01*
X115403547Y-73892317D01*
X115243589Y-74023589D01*
X115112317Y-74183547D01*
X115014769Y-74366043D01*
X114954699Y-74564067D01*
X114934417Y-74770000D01*
X114505583Y-74770000D01*
X114485300Y-74564066D01*
X114425232Y-74366046D01*
X114327685Y-74183550D01*
X114275702Y-74120209D01*
X114196410Y-74023589D01*
X114046121Y-73900252D01*
X114036450Y-73892315D01*
X113853954Y-73794768D01*
X113655934Y-73734700D01*
X113655932Y-73734699D01*
X113655934Y-73734699D01*
X113450000Y-73714417D01*
X113244067Y-73734699D01*
X113046043Y-73794769D01*
X112958114Y-73841769D01*
X112863550Y-73892315D01*
X112863548Y-73892316D01*
X112863547Y-73892317D01*
X112703589Y-74023589D01*
X112572317Y-74183547D01*
X112474769Y-74366043D01*
X112414699Y-74564067D01*
X112394417Y-74770000D01*
X111965583Y-74770000D01*
X111945300Y-74564066D01*
X111885232Y-74366046D01*
X111787685Y-74183550D01*
X111735702Y-74120209D01*
X111656410Y-74023589D01*
X111506121Y-73900252D01*
X111496450Y-73892315D01*
X111313954Y-73794768D01*
X111115934Y-73734700D01*
X111115932Y-73734699D01*
X111115934Y-73734699D01*
X110910000Y-73714417D01*
X110704067Y-73734699D01*
X110506043Y-73794769D01*
X110418114Y-73841769D01*
X110323550Y-73892315D01*
X110323548Y-73892316D01*
X110323547Y-73892317D01*
X110163589Y-74023589D01*
X110032317Y-74183547D01*
X109934769Y-74366043D01*
X109874699Y-74564067D01*
X109854417Y-74770000D01*
X109420500Y-74770000D01*
X109420500Y-73900249D01*
X109420499Y-73900247D01*
X109408868Y-73841770D01*
X109408867Y-73841769D01*
X109364552Y-73775447D01*
X109298230Y-73731132D01*
X109298229Y-73731131D01*
X109239752Y-73719500D01*
X109239748Y-73719500D01*
X107500252Y-73719500D01*
X107500247Y-73719500D01*
X107441770Y-73731131D01*
X107441769Y-73731132D01*
X107375447Y-73775447D01*
X107331132Y-73841769D01*
X107331131Y-73841770D01*
X107319500Y-73900247D01*
X100050500Y-73900247D01*
X100050500Y-73003480D01*
X100050695Y-72996527D01*
X100060808Y-72816450D01*
X100068656Y-72676700D01*
X100070210Y-72662907D01*
X100123283Y-72350537D01*
X100126377Y-72336985D01*
X100157199Y-72230000D01*
X107314417Y-72230000D01*
X107334699Y-72435932D01*
X107334700Y-72435934D01*
X107394768Y-72633954D01*
X107492315Y-72816450D01*
X107492317Y-72816452D01*
X107623589Y-72976410D01*
X107720209Y-73055702D01*
X107783550Y-73107685D01*
X107966046Y-73205232D01*
X108164066Y-73265300D01*
X108164065Y-73265300D01*
X108182529Y-73267118D01*
X108370000Y-73285583D01*
X108575934Y-73265300D01*
X108773954Y-73205232D01*
X108956450Y-73107685D01*
X109116410Y-72976410D01*
X109247685Y-72816450D01*
X109345232Y-72633954D01*
X109405300Y-72435934D01*
X109425583Y-72230000D01*
X109854417Y-72230000D01*
X109874699Y-72435932D01*
X109874700Y-72435934D01*
X109934768Y-72633954D01*
X110032315Y-72816450D01*
X110032317Y-72816452D01*
X110163589Y-72976410D01*
X110260209Y-73055702D01*
X110323550Y-73107685D01*
X110506046Y-73205232D01*
X110704066Y-73265300D01*
X110704065Y-73265300D01*
X110722529Y-73267118D01*
X110910000Y-73285583D01*
X111115934Y-73265300D01*
X111313954Y-73205232D01*
X111496450Y-73107685D01*
X111656410Y-72976410D01*
X111787685Y-72816450D01*
X111885232Y-72633954D01*
X111945300Y-72435934D01*
X111965583Y-72230000D01*
X114934417Y-72230000D01*
X114954699Y-72435932D01*
X114954700Y-72435934D01*
X115014768Y-72633954D01*
X115112315Y-72816450D01*
X115112317Y-72816452D01*
X115243589Y-72976410D01*
X115340209Y-73055702D01*
X115403550Y-73107685D01*
X115586046Y-73205232D01*
X115784066Y-73265300D01*
X115784065Y-73265300D01*
X115802529Y-73267118D01*
X115990000Y-73285583D01*
X116195934Y-73265300D01*
X116393954Y-73205232D01*
X116576450Y-73107685D01*
X116736410Y-72976410D01*
X116867685Y-72816450D01*
X116965232Y-72633954D01*
X117025300Y-72435934D01*
X117045583Y-72230000D01*
X117474417Y-72230000D01*
X117494699Y-72435932D01*
X117494700Y-72435934D01*
X117554768Y-72633954D01*
X117652315Y-72816450D01*
X117652317Y-72816452D01*
X117783589Y-72976410D01*
X117880209Y-73055702D01*
X117943550Y-73107685D01*
X118126046Y-73205232D01*
X118324066Y-73265300D01*
X118324065Y-73265300D01*
X118342529Y-73267118D01*
X118530000Y-73285583D01*
X118735934Y-73265300D01*
X118933954Y-73205232D01*
X119116450Y-73107685D01*
X119276410Y-72976410D01*
X119407685Y-72816450D01*
X119505232Y-72633954D01*
X119565300Y-72435934D01*
X119585583Y-72230000D01*
X120014417Y-72230000D01*
X120034699Y-72435932D01*
X120034700Y-72435934D01*
X120094768Y-72633954D01*
X120192315Y-72816450D01*
X120192317Y-72816452D01*
X120323589Y-72976410D01*
X120420209Y-73055702D01*
X120483550Y-73107685D01*
X120666046Y-73205232D01*
X120864066Y-73265300D01*
X120864065Y-73265300D01*
X120882529Y-73267118D01*
X121070000Y-73285583D01*
X121275934Y-73265300D01*
X121473954Y-73205232D01*
X121656450Y-73107685D01*
X121816410Y-72976410D01*
X121947685Y-72816450D01*
X122045232Y-72633954D01*
X122105300Y-72435934D01*
X122125583Y-72230000D01*
X125094417Y-72230000D01*
X125114699Y-72435932D01*
X125114700Y-72435934D01*
X125174768Y-72633954D01*
X125272315Y-72816450D01*
X125272317Y-72816452D01*
X125403589Y-72976410D01*
X125500209Y-73055702D01*
X125563550Y-73107685D01*
X125746046Y-73205232D01*
X125944066Y-73265300D01*
X125944065Y-73265300D01*
X125962529Y-73267118D01*
X126150000Y-73285583D01*
X126355934Y-73265300D01*
X126553954Y-73205232D01*
X126736450Y-73107685D01*
X126896410Y-72976410D01*
X127027685Y-72816450D01*
X127125232Y-72633954D01*
X127185300Y-72435934D01*
X127205583Y-72230000D01*
X127634417Y-72230000D01*
X127654699Y-72435932D01*
X127654700Y-72435934D01*
X127714768Y-72633954D01*
X127812315Y-72816450D01*
X127812317Y-72816452D01*
X127943589Y-72976410D01*
X128040209Y-73055702D01*
X128103550Y-73107685D01*
X128286046Y-73205232D01*
X128484066Y-73265300D01*
X128484065Y-73265300D01*
X128502529Y-73267118D01*
X128690000Y-73285583D01*
X128895934Y-73265300D01*
X129093954Y-73205232D01*
X129276450Y-73107685D01*
X129436410Y-72976410D01*
X129567685Y-72816450D01*
X129665232Y-72633954D01*
X129725300Y-72435934D01*
X129745583Y-72230000D01*
X132714417Y-72230000D01*
X132734699Y-72435932D01*
X132734700Y-72435934D01*
X132794768Y-72633954D01*
X132892315Y-72816450D01*
X132892317Y-72816452D01*
X133023589Y-72976410D01*
X133120209Y-73055702D01*
X133183550Y-73107685D01*
X133366046Y-73205232D01*
X133564066Y-73265300D01*
X133564065Y-73265300D01*
X133582529Y-73267118D01*
X133770000Y-73285583D01*
X133975934Y-73265300D01*
X134173954Y-73205232D01*
X134356450Y-73107685D01*
X134516410Y-72976410D01*
X134647685Y-72816450D01*
X134745232Y-72633954D01*
X134805300Y-72435934D01*
X134825583Y-72230000D01*
X135254417Y-72230000D01*
X135274699Y-72435932D01*
X135274700Y-72435934D01*
X135334768Y-72633954D01*
X135432315Y-72816450D01*
X135432317Y-72816452D01*
X135563589Y-72976410D01*
X135660209Y-73055702D01*
X135723550Y-73107685D01*
X135906046Y-73205232D01*
X136104066Y-73265300D01*
X136104065Y-73265300D01*
X136122529Y-73267118D01*
X136310000Y-73285583D01*
X136515934Y-73265300D01*
X136713954Y-73205232D01*
X136896450Y-73107685D01*
X137056410Y-72976410D01*
X137187685Y-72816450D01*
X137285232Y-72633954D01*
X137345300Y-72435934D01*
X137365583Y-72230000D01*
X137794417Y-72230000D01*
X137814699Y-72435932D01*
X137814700Y-72435934D01*
X137874768Y-72633954D01*
X137972315Y-72816450D01*
X137972317Y-72816452D01*
X138103589Y-72976410D01*
X138200209Y-73055702D01*
X138263550Y-73107685D01*
X138446046Y-73205232D01*
X138644066Y-73265300D01*
X138644065Y-73265300D01*
X138662529Y-73267118D01*
X138850000Y-73285583D01*
X139055934Y-73265300D01*
X139253954Y-73205232D01*
X139436450Y-73107685D01*
X139596410Y-72976410D01*
X139727685Y-72816450D01*
X139825232Y-72633954D01*
X139885300Y-72435934D01*
X139905583Y-72230000D01*
X140334417Y-72230000D01*
X140354699Y-72435932D01*
X140354700Y-72435934D01*
X140414768Y-72633954D01*
X140512315Y-72816450D01*
X140512317Y-72816452D01*
X140643589Y-72976410D01*
X140740209Y-73055702D01*
X140803550Y-73107685D01*
X140986046Y-73205232D01*
X141184066Y-73265300D01*
X141184065Y-73265300D01*
X141202529Y-73267118D01*
X141390000Y-73285583D01*
X141595934Y-73265300D01*
X141793954Y-73205232D01*
X141976450Y-73107685D01*
X142136410Y-72976410D01*
X142267685Y-72816450D01*
X142365232Y-72633954D01*
X142425300Y-72435934D01*
X142445583Y-72230000D01*
X145414417Y-72230000D01*
X145434699Y-72435932D01*
X145434700Y-72435934D01*
X145494768Y-72633954D01*
X145592315Y-72816450D01*
X145592317Y-72816452D01*
X145723589Y-72976410D01*
X145820209Y-73055702D01*
X145883550Y-73107685D01*
X146066046Y-73205232D01*
X146264066Y-73265300D01*
X146264065Y-73265300D01*
X146282529Y-73267118D01*
X146470000Y-73285583D01*
X146675934Y-73265300D01*
X146873954Y-73205232D01*
X147056450Y-73107685D01*
X147216410Y-72976410D01*
X147347685Y-72816450D01*
X147445232Y-72633954D01*
X147505300Y-72435934D01*
X147525583Y-72230000D01*
X150494417Y-72230000D01*
X150514699Y-72435932D01*
X150514700Y-72435934D01*
X150574768Y-72633954D01*
X150672315Y-72816450D01*
X150672317Y-72816452D01*
X150803589Y-72976410D01*
X150900209Y-73055702D01*
X150963550Y-73107685D01*
X151146046Y-73205232D01*
X151344066Y-73265300D01*
X151344065Y-73265300D01*
X151362529Y-73267118D01*
X151550000Y-73285583D01*
X151755934Y-73265300D01*
X151953954Y-73205232D01*
X152136450Y-73107685D01*
X152296410Y-72976410D01*
X152427685Y-72816450D01*
X152525232Y-72633954D01*
X152585300Y-72435934D01*
X152605583Y-72230000D01*
X153034417Y-72230000D01*
X153054699Y-72435932D01*
X153054700Y-72435934D01*
X153114768Y-72633954D01*
X153212315Y-72816450D01*
X153212317Y-72816452D01*
X153343589Y-72976410D01*
X153440209Y-73055702D01*
X153503550Y-73107685D01*
X153686046Y-73205232D01*
X153884066Y-73265300D01*
X153884065Y-73265300D01*
X153902529Y-73267118D01*
X154090000Y-73285583D01*
X154295934Y-73265300D01*
X154493954Y-73205232D01*
X154676450Y-73107685D01*
X154836410Y-72976410D01*
X154967685Y-72816450D01*
X155065232Y-72633954D01*
X155125300Y-72435934D01*
X155145583Y-72230000D01*
X155574417Y-72230000D01*
X155594699Y-72435932D01*
X155594700Y-72435934D01*
X155654768Y-72633954D01*
X155752315Y-72816450D01*
X155752317Y-72816452D01*
X155883589Y-72976410D01*
X155980209Y-73055702D01*
X156043550Y-73107685D01*
X156226046Y-73205232D01*
X156424066Y-73265300D01*
X156424065Y-73265300D01*
X156442529Y-73267118D01*
X156630000Y-73285583D01*
X156835934Y-73265300D01*
X157033954Y-73205232D01*
X157216450Y-73107685D01*
X157376410Y-72976410D01*
X157507685Y-72816450D01*
X157605232Y-72633954D01*
X157665300Y-72435934D01*
X157685583Y-72230000D01*
X157665300Y-72024066D01*
X157605232Y-71826046D01*
X157507685Y-71643550D01*
X157455702Y-71580209D01*
X157376410Y-71483589D01*
X157216452Y-71352317D01*
X157216453Y-71352317D01*
X157216450Y-71352315D01*
X157033954Y-71254768D01*
X156835934Y-71194700D01*
X156835932Y-71194699D01*
X156835934Y-71194699D01*
X156630000Y-71174417D01*
X156424067Y-71194699D01*
X156226043Y-71254769D01*
X156115898Y-71313643D01*
X156043550Y-71352315D01*
X156043548Y-71352316D01*
X156043547Y-71352317D01*
X155883589Y-71483589D01*
X155752317Y-71643547D01*
X155654769Y-71826043D01*
X155594699Y-72024067D01*
X155574417Y-72230000D01*
X155145583Y-72230000D01*
X155125300Y-72024066D01*
X155065232Y-71826046D01*
X154967685Y-71643550D01*
X154915702Y-71580209D01*
X154836410Y-71483589D01*
X154676452Y-71352317D01*
X154676453Y-71352317D01*
X154676450Y-71352315D01*
X154493954Y-71254768D01*
X154295934Y-71194700D01*
X154295932Y-71194699D01*
X154295934Y-71194699D01*
X154090000Y-71174417D01*
X153884067Y-71194699D01*
X153686043Y-71254769D01*
X153575898Y-71313643D01*
X153503550Y-71352315D01*
X153503548Y-71352316D01*
X153503547Y-71352317D01*
X153343589Y-71483589D01*
X153212317Y-71643547D01*
X153114769Y-71826043D01*
X153054699Y-72024067D01*
X153034417Y-72230000D01*
X152605583Y-72230000D01*
X152585300Y-72024066D01*
X152525232Y-71826046D01*
X152427685Y-71643550D01*
X152375702Y-71580209D01*
X152296410Y-71483589D01*
X152136452Y-71352317D01*
X152136453Y-71352317D01*
X152136450Y-71352315D01*
X151953954Y-71254768D01*
X151755934Y-71194700D01*
X151755932Y-71194699D01*
X151755934Y-71194699D01*
X151550000Y-71174417D01*
X151344067Y-71194699D01*
X151146043Y-71254769D01*
X151035898Y-71313643D01*
X150963550Y-71352315D01*
X150963548Y-71352316D01*
X150963547Y-71352317D01*
X150803589Y-71483589D01*
X150672317Y-71643547D01*
X150574769Y-71826043D01*
X150514699Y-72024067D01*
X150494417Y-72230000D01*
X147525583Y-72230000D01*
X147505300Y-72024066D01*
X147445232Y-71826046D01*
X147347685Y-71643550D01*
X147295702Y-71580209D01*
X147216410Y-71483589D01*
X147056452Y-71352317D01*
X147056453Y-71352317D01*
X147056450Y-71352315D01*
X146873954Y-71254768D01*
X146675934Y-71194700D01*
X146675932Y-71194699D01*
X146675934Y-71194699D01*
X146470000Y-71174417D01*
X146264067Y-71194699D01*
X146066043Y-71254769D01*
X145955898Y-71313643D01*
X145883550Y-71352315D01*
X145883548Y-71352316D01*
X145883547Y-71352317D01*
X145723589Y-71483589D01*
X145592317Y-71643547D01*
X145494769Y-71826043D01*
X145434699Y-72024067D01*
X145414417Y-72230000D01*
X142445583Y-72230000D01*
X142425300Y-72024066D01*
X142365232Y-71826046D01*
X142267685Y-71643550D01*
X142215702Y-71580209D01*
X142136410Y-71483589D01*
X141976452Y-71352317D01*
X141976453Y-71352317D01*
X141976450Y-71352315D01*
X141793954Y-71254768D01*
X141595934Y-71194700D01*
X141595932Y-71194699D01*
X141595934Y-71194699D01*
X141390000Y-71174417D01*
X141184067Y-71194699D01*
X140986043Y-71254769D01*
X140875898Y-71313643D01*
X140803550Y-71352315D01*
X140803548Y-71352316D01*
X140803547Y-71352317D01*
X140643589Y-71483589D01*
X140512317Y-71643547D01*
X140414769Y-71826043D01*
X140354699Y-72024067D01*
X140334417Y-72230000D01*
X139905583Y-72230000D01*
X139885300Y-72024066D01*
X139825232Y-71826046D01*
X139727685Y-71643550D01*
X139675702Y-71580209D01*
X139596410Y-71483589D01*
X139436452Y-71352317D01*
X139436453Y-71352317D01*
X139436450Y-71352315D01*
X139253954Y-71254768D01*
X139055934Y-71194700D01*
X139055932Y-71194699D01*
X139055934Y-71194699D01*
X138850000Y-71174417D01*
X138644067Y-71194699D01*
X138446043Y-71254769D01*
X138335898Y-71313643D01*
X138263550Y-71352315D01*
X138263548Y-71352316D01*
X138263547Y-71352317D01*
X138103589Y-71483589D01*
X137972317Y-71643547D01*
X137874769Y-71826043D01*
X137814699Y-72024067D01*
X137794417Y-72230000D01*
X137365583Y-72230000D01*
X137345300Y-72024066D01*
X137285232Y-71826046D01*
X137187685Y-71643550D01*
X137135702Y-71580209D01*
X137056410Y-71483589D01*
X136896452Y-71352317D01*
X136896453Y-71352317D01*
X136896450Y-71352315D01*
X136713954Y-71254768D01*
X136515934Y-71194700D01*
X136515932Y-71194699D01*
X136515934Y-71194699D01*
X136310000Y-71174417D01*
X136104067Y-71194699D01*
X135906043Y-71254769D01*
X135795898Y-71313643D01*
X135723550Y-71352315D01*
X135723548Y-71352316D01*
X135723547Y-71352317D01*
X135563589Y-71483589D01*
X135432317Y-71643547D01*
X135334769Y-71826043D01*
X135274699Y-72024067D01*
X135254417Y-72230000D01*
X134825583Y-72230000D01*
X134805300Y-72024066D01*
X134745232Y-71826046D01*
X134647685Y-71643550D01*
X134595702Y-71580209D01*
X134516410Y-71483589D01*
X134356452Y-71352317D01*
X134356453Y-71352317D01*
X134356450Y-71352315D01*
X134173954Y-71254768D01*
X133975934Y-71194700D01*
X133975932Y-71194699D01*
X133975934Y-71194699D01*
X133770000Y-71174417D01*
X133564067Y-71194699D01*
X133366043Y-71254769D01*
X133255898Y-71313643D01*
X133183550Y-71352315D01*
X133183548Y-71352316D01*
X133183547Y-71352317D01*
X133023589Y-71483589D01*
X132892317Y-71643547D01*
X132794769Y-71826043D01*
X132734699Y-72024067D01*
X132714417Y-72230000D01*
X129745583Y-72230000D01*
X129725300Y-72024066D01*
X129665232Y-71826046D01*
X129567685Y-71643550D01*
X129515702Y-71580209D01*
X129436410Y-71483589D01*
X129276452Y-71352317D01*
X129276453Y-71352317D01*
X129276450Y-71352315D01*
X129093954Y-71254768D01*
X128895934Y-71194700D01*
X128895932Y-71194699D01*
X128895934Y-71194699D01*
X128690000Y-71174417D01*
X128484067Y-71194699D01*
X128286043Y-71254769D01*
X128175898Y-71313643D01*
X128103550Y-71352315D01*
X128103548Y-71352316D01*
X128103547Y-71352317D01*
X127943589Y-71483589D01*
X127812317Y-71643547D01*
X127714769Y-71826043D01*
X127654699Y-72024067D01*
X127634417Y-72230000D01*
X127205583Y-72230000D01*
X127185300Y-72024066D01*
X127125232Y-71826046D01*
X127027685Y-71643550D01*
X126975702Y-71580209D01*
X126896410Y-71483589D01*
X126736452Y-71352317D01*
X126736453Y-71352317D01*
X126736450Y-71352315D01*
X126553954Y-71254768D01*
X126355934Y-71194700D01*
X126355932Y-71194699D01*
X126355934Y-71194699D01*
X126150000Y-71174417D01*
X125944067Y-71194699D01*
X125746043Y-71254769D01*
X125635898Y-71313643D01*
X125563550Y-71352315D01*
X125563548Y-71352316D01*
X125563547Y-71352317D01*
X125403589Y-71483589D01*
X125272317Y-71643547D01*
X125174769Y-71826043D01*
X125114699Y-72024067D01*
X125094417Y-72230000D01*
X122125583Y-72230000D01*
X122105300Y-72024066D01*
X122045232Y-71826046D01*
X121947685Y-71643550D01*
X121895702Y-71580209D01*
X121816410Y-71483589D01*
X121656452Y-71352317D01*
X121656453Y-71352317D01*
X121656450Y-71352315D01*
X121473954Y-71254768D01*
X121275934Y-71194700D01*
X121275932Y-71194699D01*
X121275934Y-71194699D01*
X121070000Y-71174417D01*
X120864067Y-71194699D01*
X120666043Y-71254769D01*
X120555898Y-71313643D01*
X120483550Y-71352315D01*
X120483548Y-71352316D01*
X120483547Y-71352317D01*
X120323589Y-71483589D01*
X120192317Y-71643547D01*
X120094769Y-71826043D01*
X120034699Y-72024067D01*
X120014417Y-72230000D01*
X119585583Y-72230000D01*
X119565300Y-72024066D01*
X119505232Y-71826046D01*
X119407685Y-71643550D01*
X119355702Y-71580209D01*
X119276410Y-71483589D01*
X119116452Y-71352317D01*
X119116453Y-71352317D01*
X119116450Y-71352315D01*
X118933954Y-71254768D01*
X118735934Y-71194700D01*
X118735932Y-71194699D01*
X118735934Y-71194699D01*
X118530000Y-71174417D01*
X118324067Y-71194699D01*
X118126043Y-71254769D01*
X118015898Y-71313643D01*
X117943550Y-71352315D01*
X117943548Y-71352316D01*
X117943547Y-71352317D01*
X117783589Y-71483589D01*
X117652317Y-71643547D01*
X117554769Y-71826043D01*
X117494699Y-72024067D01*
X117474417Y-72230000D01*
X117045583Y-72230000D01*
X117025300Y-72024066D01*
X116965232Y-71826046D01*
X116867685Y-71643550D01*
X116815702Y-71580209D01*
X116736410Y-71483589D01*
X116576452Y-71352317D01*
X116576453Y-71352317D01*
X116576450Y-71352315D01*
X116393954Y-71254768D01*
X116195934Y-71194700D01*
X116195932Y-71194699D01*
X116195934Y-71194699D01*
X115990000Y-71174417D01*
X115784067Y-71194699D01*
X115586043Y-71254769D01*
X115475898Y-71313643D01*
X115403550Y-71352315D01*
X115403548Y-71352316D01*
X115403547Y-71352317D01*
X115243589Y-71483589D01*
X115112317Y-71643547D01*
X115014769Y-71826043D01*
X114954699Y-72024067D01*
X114934417Y-72230000D01*
X111965583Y-72230000D01*
X111945300Y-72024066D01*
X111885232Y-71826046D01*
X111787685Y-71643550D01*
X111735702Y-71580209D01*
X111656410Y-71483589D01*
X111496452Y-71352317D01*
X111496453Y-71352317D01*
X111496450Y-71352315D01*
X111313954Y-71254768D01*
X111115934Y-71194700D01*
X111115932Y-71194699D01*
X111115934Y-71194699D01*
X110910000Y-71174417D01*
X110704067Y-71194699D01*
X110506043Y-71254769D01*
X110395898Y-71313643D01*
X110323550Y-71352315D01*
X110323548Y-71352316D01*
X110323547Y-71352317D01*
X110163589Y-71483589D01*
X110032317Y-71643547D01*
X109934769Y-71826043D01*
X109874699Y-72024067D01*
X109854417Y-72230000D01*
X109425583Y-72230000D01*
X109405300Y-72024066D01*
X109345232Y-71826046D01*
X109247685Y-71643550D01*
X109195702Y-71580209D01*
X109116410Y-71483589D01*
X108956452Y-71352317D01*
X108956453Y-71352317D01*
X108956450Y-71352315D01*
X108773954Y-71254768D01*
X108575934Y-71194700D01*
X108575932Y-71194699D01*
X108575934Y-71194699D01*
X108370000Y-71174417D01*
X108164067Y-71194699D01*
X107966043Y-71254769D01*
X107855898Y-71313643D01*
X107783550Y-71352315D01*
X107783548Y-71352316D01*
X107783547Y-71352317D01*
X107623589Y-71483589D01*
X107492317Y-71643547D01*
X107394769Y-71826043D01*
X107334699Y-72024067D01*
X107314417Y-72230000D01*
X100157199Y-72230000D01*
X100214089Y-72032530D01*
X100218682Y-72019406D01*
X100298775Y-71826043D01*
X100339929Y-71726686D01*
X100345951Y-71714180D01*
X100499227Y-71436850D01*
X100506605Y-71425107D01*
X100689972Y-71166676D01*
X100698619Y-71155834D01*
X100909750Y-70919579D01*
X100919581Y-70909749D01*
X101155834Y-70698619D01*
X101166676Y-70689972D01*
X101425107Y-70506605D01*
X101436850Y-70499227D01*
X101714180Y-70345951D01*
X101726686Y-70339929D01*
X102019406Y-70218682D01*
X102032526Y-70214090D01*
X102336990Y-70126375D01*
X102350537Y-70123283D01*
X102662907Y-70070210D01*
X102676700Y-70068656D01*
X102996528Y-70050695D01*
X103003481Y-70050500D01*
X103016408Y-70050500D01*
X161983592Y-70050500D01*
X161996519Y-70050500D01*
X162003472Y-70050695D01*
G37*
G04 #@! TD.AperFunction*
M02*
