G04 #@! TF.GenerationSoftware,KiCad,Pcbnew,8.0.5*
G04 #@! TF.CreationDate,2024-10-03T09:55:36+01:00*
G04 #@! TF.ProjectId,phonkyo,70686f6e-6b79-46f2-9e6b-696361645f70,rev?*
G04 #@! TF.SameCoordinates,Original*
G04 #@! TF.FileFunction,Copper,L1,Top*
G04 #@! TF.FilePolarity,Positive*
%FSLAX46Y46*%
G04 Gerber Fmt 4.6, Leading zero omitted, Abs format (unit mm)*
G04 Created by KiCad (PCBNEW 8.0.5) date 2024-10-03 09:55:36*
%MOMM*%
%LPD*%
G01*
G04 APERTURE LIST*
%ADD10C,0.187500*%
G04 #@! TA.AperFunction,NonConductor*
%ADD11C,0.187500*%
G04 #@! TD*
G04 #@! TA.AperFunction,SMDPad,CuDef*
%ADD12R,2.800000X2.200000*%
G04 #@! TD*
G04 #@! TA.AperFunction,SMDPad,CuDef*
%ADD13R,2.800000X2.800000*%
G04 #@! TD*
G04 #@! TA.AperFunction,ComponentPad*
%ADD14R,1.700000X1.700000*%
G04 #@! TD*
G04 #@! TA.AperFunction,ComponentPad*
%ADD15O,1.700000X1.700000*%
G04 #@! TD*
G04 #@! TA.AperFunction,ViaPad*
%ADD16C,0.900000*%
G04 #@! TD*
G04 #@! TA.AperFunction,Conductor*
%ADD17C,0.200000*%
G04 #@! TD*
G04 APERTURE END LIST*
D10*
D11*
X101480497Y-83061930D02*
X101480497Y-81561930D01*
X101480497Y-81561930D02*
X102051926Y-81561930D01*
X102051926Y-81561930D02*
X102194783Y-81633359D01*
X102194783Y-81633359D02*
X102266212Y-81704787D01*
X102266212Y-81704787D02*
X102337640Y-81847644D01*
X102337640Y-81847644D02*
X102337640Y-82061930D01*
X102337640Y-82061930D02*
X102266212Y-82204787D01*
X102266212Y-82204787D02*
X102194783Y-82276216D01*
X102194783Y-82276216D02*
X102051926Y-82347644D01*
X102051926Y-82347644D02*
X101480497Y-82347644D01*
X102980497Y-83061930D02*
X102980497Y-81561930D01*
X103623355Y-83061930D02*
X103623355Y-82276216D01*
X103623355Y-82276216D02*
X103551926Y-82133359D01*
X103551926Y-82133359D02*
X103409069Y-82061930D01*
X103409069Y-82061930D02*
X103194783Y-82061930D01*
X103194783Y-82061930D02*
X103051926Y-82133359D01*
X103051926Y-82133359D02*
X102980497Y-82204787D01*
X104551926Y-83061930D02*
X104409069Y-82990502D01*
X104409069Y-82990502D02*
X104337640Y-82919073D01*
X104337640Y-82919073D02*
X104266212Y-82776216D01*
X104266212Y-82776216D02*
X104266212Y-82347644D01*
X104266212Y-82347644D02*
X104337640Y-82204787D01*
X104337640Y-82204787D02*
X104409069Y-82133359D01*
X104409069Y-82133359D02*
X104551926Y-82061930D01*
X104551926Y-82061930D02*
X104766212Y-82061930D01*
X104766212Y-82061930D02*
X104909069Y-82133359D01*
X104909069Y-82133359D02*
X104980498Y-82204787D01*
X104980498Y-82204787D02*
X105051926Y-82347644D01*
X105051926Y-82347644D02*
X105051926Y-82776216D01*
X105051926Y-82776216D02*
X104980498Y-82919073D01*
X104980498Y-82919073D02*
X104909069Y-82990502D01*
X104909069Y-82990502D02*
X104766212Y-83061930D01*
X104766212Y-83061930D02*
X104551926Y-83061930D01*
X105694783Y-82061930D02*
X105694783Y-83061930D01*
X105694783Y-82204787D02*
X105766212Y-82133359D01*
X105766212Y-82133359D02*
X105909069Y-82061930D01*
X105909069Y-82061930D02*
X106123355Y-82061930D01*
X106123355Y-82061930D02*
X106266212Y-82133359D01*
X106266212Y-82133359D02*
X106337641Y-82276216D01*
X106337641Y-82276216D02*
X106337641Y-83061930D01*
X107051926Y-83061930D02*
X107051926Y-81561930D01*
X107194784Y-82490502D02*
X107623355Y-83061930D01*
X107623355Y-82061930D02*
X107051926Y-82633359D01*
X108123355Y-82061930D02*
X108480498Y-83061930D01*
X108837641Y-82061930D02*
X108480498Y-83061930D01*
X108480498Y-83061930D02*
X108337641Y-83419073D01*
X108337641Y-83419073D02*
X108266212Y-83490502D01*
X108266212Y-83490502D02*
X108123355Y-83561930D01*
X109623355Y-83061930D02*
X109480498Y-82990502D01*
X109480498Y-82990502D02*
X109409069Y-82919073D01*
X109409069Y-82919073D02*
X109337641Y-82776216D01*
X109337641Y-82776216D02*
X109337641Y-82347644D01*
X109337641Y-82347644D02*
X109409069Y-82204787D01*
X109409069Y-82204787D02*
X109480498Y-82133359D01*
X109480498Y-82133359D02*
X109623355Y-82061930D01*
X109623355Y-82061930D02*
X109837641Y-82061930D01*
X109837641Y-82061930D02*
X109980498Y-82133359D01*
X109980498Y-82133359D02*
X110051927Y-82204787D01*
X110051927Y-82204787D02*
X110123355Y-82347644D01*
X110123355Y-82347644D02*
X110123355Y-82776216D01*
X110123355Y-82776216D02*
X110051927Y-82919073D01*
X110051927Y-82919073D02*
X109980498Y-82990502D01*
X109980498Y-82990502D02*
X109837641Y-83061930D01*
X109837641Y-83061930D02*
X109623355Y-83061930D01*
X111766212Y-82061930D02*
X112123355Y-83061930D01*
X112123355Y-83061930D02*
X112480498Y-82061930D01*
X113337641Y-81561930D02*
X113480498Y-81561930D01*
X113480498Y-81561930D02*
X113623355Y-81633359D01*
X113623355Y-81633359D02*
X113694784Y-81704787D01*
X113694784Y-81704787D02*
X113766212Y-81847644D01*
X113766212Y-81847644D02*
X113837641Y-82133359D01*
X113837641Y-82133359D02*
X113837641Y-82490502D01*
X113837641Y-82490502D02*
X113766212Y-82776216D01*
X113766212Y-82776216D02*
X113694784Y-82919073D01*
X113694784Y-82919073D02*
X113623355Y-82990502D01*
X113623355Y-82990502D02*
X113480498Y-83061930D01*
X113480498Y-83061930D02*
X113337641Y-83061930D01*
X113337641Y-83061930D02*
X113194784Y-82990502D01*
X113194784Y-82990502D02*
X113123355Y-82919073D01*
X113123355Y-82919073D02*
X113051926Y-82776216D01*
X113051926Y-82776216D02*
X112980498Y-82490502D01*
X112980498Y-82490502D02*
X112980498Y-82133359D01*
X112980498Y-82133359D02*
X113051926Y-81847644D01*
X113051926Y-81847644D02*
X113123355Y-81704787D01*
X113123355Y-81704787D02*
X113194784Y-81633359D01*
X113194784Y-81633359D02*
X113337641Y-81561930D01*
X114480497Y-82919073D02*
X114551926Y-82990502D01*
X114551926Y-82990502D02*
X114480497Y-83061930D01*
X114480497Y-83061930D02*
X114409069Y-82990502D01*
X114409069Y-82990502D02*
X114480497Y-82919073D01*
X114480497Y-82919073D02*
X114480497Y-83061930D01*
X115980498Y-83061930D02*
X115123355Y-83061930D01*
X115551926Y-83061930D02*
X115551926Y-81561930D01*
X115551926Y-81561930D02*
X115409069Y-81776216D01*
X115409069Y-81776216D02*
X115266212Y-81919073D01*
X115266212Y-81919073D02*
X115123355Y-81990502D01*
X101766212Y-83976846D02*
X102051926Y-83976846D01*
X102051926Y-83976846D02*
X102194783Y-84048275D01*
X102194783Y-84048275D02*
X102337640Y-84191132D01*
X102337640Y-84191132D02*
X102409069Y-84476846D01*
X102409069Y-84476846D02*
X102409069Y-84976846D01*
X102409069Y-84976846D02*
X102337640Y-85262560D01*
X102337640Y-85262560D02*
X102194783Y-85405418D01*
X102194783Y-85405418D02*
X102051926Y-85476846D01*
X102051926Y-85476846D02*
X101766212Y-85476846D01*
X101766212Y-85476846D02*
X101623355Y-85405418D01*
X101623355Y-85405418D02*
X101480497Y-85262560D01*
X101480497Y-85262560D02*
X101409069Y-84976846D01*
X101409069Y-84976846D02*
X101409069Y-84476846D01*
X101409069Y-84476846D02*
X101480497Y-84191132D01*
X101480497Y-84191132D02*
X101623355Y-84048275D01*
X101623355Y-84048275D02*
X101766212Y-83976846D01*
X103694784Y-85405418D02*
X103551926Y-85476846D01*
X103551926Y-85476846D02*
X103266212Y-85476846D01*
X103266212Y-85476846D02*
X103123355Y-85405418D01*
X103123355Y-85405418D02*
X103051926Y-85333989D01*
X103051926Y-85333989D02*
X102980498Y-85191132D01*
X102980498Y-85191132D02*
X102980498Y-84762560D01*
X102980498Y-84762560D02*
X103051926Y-84619703D01*
X103051926Y-84619703D02*
X103123355Y-84548275D01*
X103123355Y-84548275D02*
X103266212Y-84476846D01*
X103266212Y-84476846D02*
X103551926Y-84476846D01*
X103551926Y-84476846D02*
X103694784Y-84548275D01*
X104123355Y-84476846D02*
X104694783Y-84476846D01*
X104337640Y-83976846D02*
X104337640Y-85262560D01*
X104337640Y-85262560D02*
X104409069Y-85405418D01*
X104409069Y-85405418D02*
X104551926Y-85476846D01*
X104551926Y-85476846D02*
X104694783Y-85476846D01*
X105194783Y-85333989D02*
X105266212Y-85405418D01*
X105266212Y-85405418D02*
X105194783Y-85476846D01*
X105194783Y-85476846D02*
X105123355Y-85405418D01*
X105123355Y-85405418D02*
X105194783Y-85333989D01*
X105194783Y-85333989D02*
X105194783Y-85476846D01*
X106980498Y-84119703D02*
X107051926Y-84048275D01*
X107051926Y-84048275D02*
X107194784Y-83976846D01*
X107194784Y-83976846D02*
X107551926Y-83976846D01*
X107551926Y-83976846D02*
X107694784Y-84048275D01*
X107694784Y-84048275D02*
X107766212Y-84119703D01*
X107766212Y-84119703D02*
X107837641Y-84262560D01*
X107837641Y-84262560D02*
X107837641Y-84405418D01*
X107837641Y-84405418D02*
X107766212Y-84619703D01*
X107766212Y-84619703D02*
X106909069Y-85476846D01*
X106909069Y-85476846D02*
X107837641Y-85476846D01*
X108766212Y-83976846D02*
X108909069Y-83976846D01*
X108909069Y-83976846D02*
X109051926Y-84048275D01*
X109051926Y-84048275D02*
X109123355Y-84119703D01*
X109123355Y-84119703D02*
X109194783Y-84262560D01*
X109194783Y-84262560D02*
X109266212Y-84548275D01*
X109266212Y-84548275D02*
X109266212Y-84905418D01*
X109266212Y-84905418D02*
X109194783Y-85191132D01*
X109194783Y-85191132D02*
X109123355Y-85333989D01*
X109123355Y-85333989D02*
X109051926Y-85405418D01*
X109051926Y-85405418D02*
X108909069Y-85476846D01*
X108909069Y-85476846D02*
X108766212Y-85476846D01*
X108766212Y-85476846D02*
X108623355Y-85405418D01*
X108623355Y-85405418D02*
X108551926Y-85333989D01*
X108551926Y-85333989D02*
X108480497Y-85191132D01*
X108480497Y-85191132D02*
X108409069Y-84905418D01*
X108409069Y-84905418D02*
X108409069Y-84548275D01*
X108409069Y-84548275D02*
X108480497Y-84262560D01*
X108480497Y-84262560D02*
X108551926Y-84119703D01*
X108551926Y-84119703D02*
X108623355Y-84048275D01*
X108623355Y-84048275D02*
X108766212Y-83976846D01*
X109837640Y-84119703D02*
X109909068Y-84048275D01*
X109909068Y-84048275D02*
X110051926Y-83976846D01*
X110051926Y-83976846D02*
X110409068Y-83976846D01*
X110409068Y-83976846D02*
X110551926Y-84048275D01*
X110551926Y-84048275D02*
X110623354Y-84119703D01*
X110623354Y-84119703D02*
X110694783Y-84262560D01*
X110694783Y-84262560D02*
X110694783Y-84405418D01*
X110694783Y-84405418D02*
X110623354Y-84619703D01*
X110623354Y-84619703D02*
X109766211Y-85476846D01*
X109766211Y-85476846D02*
X110694783Y-85476846D01*
X111980497Y-84476846D02*
X111980497Y-85476846D01*
X111623354Y-83905418D02*
X111266211Y-84976846D01*
X111266211Y-84976846D02*
X112194782Y-84976846D01*
X101980497Y-89520964D02*
X102194783Y-89592392D01*
X102194783Y-89592392D02*
X102266212Y-89663821D01*
X102266212Y-89663821D02*
X102337640Y-89806678D01*
X102337640Y-89806678D02*
X102337640Y-90020964D01*
X102337640Y-90020964D02*
X102266212Y-90163821D01*
X102266212Y-90163821D02*
X102194783Y-90235250D01*
X102194783Y-90235250D02*
X102051926Y-90306678D01*
X102051926Y-90306678D02*
X101480497Y-90306678D01*
X101480497Y-90306678D02*
X101480497Y-88806678D01*
X101480497Y-88806678D02*
X101980497Y-88806678D01*
X101980497Y-88806678D02*
X102123355Y-88878107D01*
X102123355Y-88878107D02*
X102194783Y-88949535D01*
X102194783Y-88949535D02*
X102266212Y-89092392D01*
X102266212Y-89092392D02*
X102266212Y-89235250D01*
X102266212Y-89235250D02*
X102194783Y-89378107D01*
X102194783Y-89378107D02*
X102123355Y-89449535D01*
X102123355Y-89449535D02*
X101980497Y-89520964D01*
X101980497Y-89520964D02*
X101480497Y-89520964D01*
X103551926Y-90235250D02*
X103409069Y-90306678D01*
X103409069Y-90306678D02*
X103123355Y-90306678D01*
X103123355Y-90306678D02*
X102980497Y-90235250D01*
X102980497Y-90235250D02*
X102909069Y-90092392D01*
X102909069Y-90092392D02*
X102909069Y-89520964D01*
X102909069Y-89520964D02*
X102980497Y-89378107D01*
X102980497Y-89378107D02*
X103123355Y-89306678D01*
X103123355Y-89306678D02*
X103409069Y-89306678D01*
X103409069Y-89306678D02*
X103551926Y-89378107D01*
X103551926Y-89378107D02*
X103623355Y-89520964D01*
X103623355Y-89520964D02*
X103623355Y-89663821D01*
X103623355Y-89663821D02*
X102909069Y-89806678D01*
X105623354Y-90306678D02*
X105480497Y-90235250D01*
X105480497Y-90235250D02*
X105409068Y-90092392D01*
X105409068Y-90092392D02*
X105409068Y-88806678D01*
X106837640Y-90306678D02*
X106837640Y-89520964D01*
X106837640Y-89520964D02*
X106766211Y-89378107D01*
X106766211Y-89378107D02*
X106623354Y-89306678D01*
X106623354Y-89306678D02*
X106337640Y-89306678D01*
X106337640Y-89306678D02*
X106194782Y-89378107D01*
X106837640Y-90235250D02*
X106694782Y-90306678D01*
X106694782Y-90306678D02*
X106337640Y-90306678D01*
X106337640Y-90306678D02*
X106194782Y-90235250D01*
X106194782Y-90235250D02*
X106123354Y-90092392D01*
X106123354Y-90092392D02*
X106123354Y-89949535D01*
X106123354Y-89949535D02*
X106194782Y-89806678D01*
X106194782Y-89806678D02*
X106337640Y-89735250D01*
X106337640Y-89735250D02*
X106694782Y-89735250D01*
X106694782Y-89735250D02*
X106837640Y-89663821D01*
X107409068Y-89306678D02*
X108194783Y-89306678D01*
X108194783Y-89306678D02*
X107409068Y-90306678D01*
X107409068Y-90306678D02*
X108194783Y-90306678D01*
X108766211Y-90306678D02*
X108766211Y-89306678D01*
X108766211Y-88806678D02*
X108694783Y-88878107D01*
X108694783Y-88878107D02*
X108766211Y-88949535D01*
X108766211Y-88949535D02*
X108837640Y-88878107D01*
X108837640Y-88878107D02*
X108766211Y-88806678D01*
X108766211Y-88806678D02*
X108766211Y-88949535D01*
X110051926Y-90235250D02*
X109909069Y-90306678D01*
X109909069Y-90306678D02*
X109623355Y-90306678D01*
X109623355Y-90306678D02*
X109480497Y-90235250D01*
X109480497Y-90235250D02*
X109409069Y-90092392D01*
X109409069Y-90092392D02*
X109409069Y-89520964D01*
X109409069Y-89520964D02*
X109480497Y-89378107D01*
X109480497Y-89378107D02*
X109623355Y-89306678D01*
X109623355Y-89306678D02*
X109909069Y-89306678D01*
X109909069Y-89306678D02*
X110051926Y-89378107D01*
X110051926Y-89378107D02*
X110123355Y-89520964D01*
X110123355Y-89520964D02*
X110123355Y-89663821D01*
X110123355Y-89663821D02*
X109409069Y-89806678D01*
X110766211Y-90306678D02*
X110766211Y-89306678D01*
X110766211Y-89592392D02*
X110837640Y-89449535D01*
X110837640Y-89449535D02*
X110909069Y-89378107D01*
X110909069Y-89378107D02*
X111051926Y-89306678D01*
X111051926Y-89306678D02*
X111194783Y-89306678D01*
X111694782Y-90163821D02*
X111766211Y-90235250D01*
X111766211Y-90235250D02*
X111694782Y-90306678D01*
X111694782Y-90306678D02*
X111623354Y-90235250D01*
X111623354Y-90235250D02*
X111694782Y-90163821D01*
X111694782Y-90163821D02*
X111694782Y-90306678D01*
X111694782Y-89735250D02*
X111623354Y-88878107D01*
X111623354Y-88878107D02*
X111694782Y-88806678D01*
X111694782Y-88806678D02*
X111766211Y-88878107D01*
X111766211Y-88878107D02*
X111694782Y-89735250D01*
X111694782Y-89735250D02*
X111694782Y-88806678D01*
D12*
X126000000Y-92500000D03*
X133400000Y-94500000D03*
D13*
X133400000Y-85100000D03*
D14*
X108370000Y-74770000D03*
D15*
X108370000Y-72230000D03*
X110910000Y-74770000D03*
X110910000Y-72230000D03*
X113450000Y-74770000D03*
X113450000Y-72230000D03*
X115990000Y-74770000D03*
X115990000Y-72230000D03*
X118530000Y-74770000D03*
X118530000Y-72230000D03*
X121070000Y-74770000D03*
X121070000Y-72230000D03*
X123610000Y-74770000D03*
X123610000Y-72230000D03*
X126150000Y-74770000D03*
X126150000Y-72230000D03*
X128690000Y-74770000D03*
X128690000Y-72230000D03*
X131230000Y-74770000D03*
X131230000Y-72230000D03*
X133770000Y-74770000D03*
X133770000Y-72230000D03*
X136310000Y-74770000D03*
X136310000Y-72230000D03*
X138850000Y-74770000D03*
X138850000Y-72230000D03*
X141390000Y-74770000D03*
X141390000Y-72230000D03*
X143930000Y-74770000D03*
X143930000Y-72230000D03*
X146470000Y-74770000D03*
X146470000Y-72230000D03*
X149010000Y-74770000D03*
X149010000Y-72230000D03*
X151550000Y-74770000D03*
X151550000Y-72230000D03*
X154090000Y-74770000D03*
X154090000Y-72230000D03*
X156630000Y-74770000D03*
X156630000Y-72230000D03*
D16*
X120000000Y-92500000D03*
D17*
X126000000Y-92500000D02*
X120000000Y-92500000D01*
X129456497Y-94500000D02*
X127456497Y-92500000D01*
X133400000Y-94500000D02*
X129456497Y-94500000D01*
X127456497Y-92500000D02*
X126000000Y-92500000D01*
X133770000Y-72230000D02*
X135160000Y-73620000D01*
X135160000Y-73620000D02*
X135160000Y-83340000D01*
X135160000Y-83340000D02*
X133400000Y-85100000D01*
X108370000Y-72230000D02*
X110910000Y-72230000D01*
X127540000Y-73620000D02*
X128690000Y-74770000D01*
X108370000Y-74770000D02*
X109520000Y-73620000D01*
X109520000Y-73620000D02*
X127540000Y-73620000D01*
M02*
