G04 #@! TF.GenerationSoftware,KiCad,Pcbnew,8.0.5*
G04 #@! TF.CreationDate,2024-10-06T22:51:26+01:00*
G04 #@! TF.ProjectId,phonkyo,70686f6e-6b79-46f2-9e6b-696361645f70,rev?*
G04 #@! TF.SameCoordinates,Original*
G04 #@! TF.FileFunction,Legend,Bot*
G04 #@! TF.FilePolarity,Positive*
%FSLAX46Y46*%
G04 Gerber Fmt 4.6, Leading zero omitted, Abs format (unit mm)*
G04 Created by KiCad (PCBNEW 8.0.5) date 2024-10-06 22:51:26*
%MOMM*%
%LPD*%
G01*
G04 APERTURE LIST*
%ADD10C,0.200000*%
%ADD11C,0.120000*%
%ADD12C,0.000000*%
G04 APERTURE END LIST*
D10*
G36*
X110480825Y-90003607D02*
G01*
X110528610Y-90011507D01*
X110572054Y-90037144D01*
X110576970Y-90043991D01*
X110590226Y-90092088D01*
X110590892Y-90109937D01*
X110583164Y-90158580D01*
X110566468Y-90181988D01*
X110518459Y-90198570D01*
X110473167Y-90201284D01*
X110421691Y-90198381D01*
X110372835Y-90186841D01*
X110365456Y-90183698D01*
X110326625Y-90151870D01*
X110311478Y-90123614D01*
X110299317Y-90075669D01*
X110293839Y-90025643D01*
X110292671Y-90001737D01*
X110431157Y-90001737D01*
X110480825Y-90003607D01*
G37*
G36*
X109649501Y-87841418D02*
G01*
X109697860Y-87857153D01*
X109714549Y-87867445D01*
X109748041Y-87905055D01*
X109768645Y-87952930D01*
X109773412Y-87970516D01*
X109782557Y-88022026D01*
X109787434Y-88071684D01*
X109789923Y-88121295D01*
X109790753Y-88176657D01*
X109789923Y-88230962D01*
X109786943Y-88286012D01*
X109780999Y-88339002D01*
X109773412Y-88378157D01*
X109756891Y-88425578D01*
X109729195Y-88466491D01*
X109714549Y-88479274D01*
X109668285Y-88500837D01*
X109615948Y-88508846D01*
X109597557Y-88509316D01*
X109545865Y-88505091D01*
X109497974Y-88489483D01*
X109481542Y-88479274D01*
X109448454Y-88441972D01*
X109428114Y-88395231D01*
X109423412Y-88378157D01*
X109414138Y-88328044D01*
X109408729Y-88272950D01*
X109406445Y-88223554D01*
X109405826Y-88176657D01*
X109406668Y-88120759D01*
X109409192Y-88070822D01*
X109414138Y-88021050D01*
X109423412Y-87969783D01*
X109439715Y-87921503D01*
X109467070Y-87880197D01*
X109481542Y-87867445D01*
X109527226Y-87845707D01*
X109579235Y-87837633D01*
X109597557Y-87837159D01*
X109649501Y-87841418D01*
G37*
G36*
X111324966Y-88047635D02*
G01*
X111372227Y-88061465D01*
X111400802Y-88080914D01*
X111426514Y-88124097D01*
X111436615Y-88173638D01*
X111438415Y-88212316D01*
X111109420Y-88212316D01*
X111112357Y-88162958D01*
X111125409Y-88111993D01*
X111146545Y-88080181D01*
X111189361Y-88055470D01*
X111237498Y-88045763D01*
X111274773Y-88044033D01*
X111324966Y-88047635D01*
G37*
G36*
X117294870Y-88102896D02*
G01*
X117114131Y-88102896D01*
X117063856Y-88096295D01*
X117028157Y-88072854D01*
X117010052Y-88026957D01*
X117005158Y-87978042D01*
X117004954Y-87963677D01*
X117010213Y-87913957D01*
X117028890Y-87877459D01*
X117074437Y-87856260D01*
X117117062Y-87852791D01*
X117169646Y-87852791D01*
X117220984Y-87852791D01*
X117234542Y-87852791D01*
X117283773Y-87851142D01*
X117294870Y-87849860D01*
X117294870Y-88102896D01*
G37*
G36*
X109640016Y-84672609D02*
G01*
X109686447Y-84689031D01*
X109688659Y-84690383D01*
X109723074Y-84727336D01*
X109738485Y-84765122D01*
X109747973Y-84815044D01*
X109752223Y-84868620D01*
X109753139Y-84914110D01*
X109751980Y-84965076D01*
X109747415Y-85018027D01*
X109738485Y-85064075D01*
X109718579Y-85109504D01*
X109688659Y-85139302D01*
X109640016Y-85157076D01*
X109589252Y-85161284D01*
X109540366Y-85158192D01*
X109492202Y-85145634D01*
X109479343Y-85139302D01*
X109443116Y-85104912D01*
X109424877Y-85064808D01*
X109414440Y-85014486D01*
X109410032Y-84965628D01*
X109408757Y-84914110D01*
X109410032Y-84863320D01*
X109415054Y-84810688D01*
X109424877Y-84765122D01*
X109446431Y-84720059D01*
X109479343Y-84690383D01*
X109526116Y-84673897D01*
X109576168Y-84668595D01*
X109589252Y-84668401D01*
X109640016Y-84672609D01*
G37*
G36*
X111335272Y-82787287D02*
G01*
X111384395Y-82796598D01*
X111393718Y-82800090D01*
X111431584Y-82832246D01*
X111442079Y-82854801D01*
X111451970Y-82905298D01*
X111455062Y-82956875D01*
X111455268Y-82976678D01*
X111453413Y-83028965D01*
X111445878Y-83078578D01*
X111442079Y-83091228D01*
X111413795Y-83131643D01*
X111394451Y-83142763D01*
X111344039Y-83154020D01*
X111293115Y-83156671D01*
X111288694Y-83156685D01*
X111237437Y-83154624D01*
X111188919Y-83146252D01*
X111176587Y-83142030D01*
X111137514Y-83109307D01*
X111127005Y-83086343D01*
X111116930Y-83034624D01*
X111113782Y-82981490D01*
X111113572Y-82961046D01*
X111115564Y-82910499D01*
X111123657Y-82862289D01*
X111127738Y-82849916D01*
X111157155Y-82810277D01*
X111177319Y-82799357D01*
X111225754Y-82788304D01*
X111277025Y-82785247D01*
X111286007Y-82785191D01*
X111335272Y-82787287D01*
G37*
G36*
X109762909Y-81789316D02*
G01*
X109711928Y-81789316D01*
X109661988Y-81789316D01*
X109652267Y-81789316D01*
X109602126Y-81786843D01*
X109550182Y-81777103D01*
X109505233Y-81758053D01*
X109468120Y-81726003D01*
X109440924Y-81681055D01*
X109431716Y-81655959D01*
X109420253Y-81606180D01*
X109413566Y-81551958D01*
X109410509Y-81496266D01*
X109409978Y-81457878D01*
X109410984Y-81407901D01*
X109414594Y-81356881D01*
X109421794Y-81307257D01*
X109430983Y-81270055D01*
X109450790Y-81224180D01*
X109481394Y-81185876D01*
X109501814Y-81170160D01*
X109548951Y-81147633D01*
X109599541Y-81134302D01*
X109642498Y-81127906D01*
X109692861Y-81123590D01*
X109743718Y-81121072D01*
X109762909Y-81120823D01*
X109762909Y-81789316D01*
G37*
G36*
X113006660Y-81107231D02*
G01*
X113045533Y-81114473D01*
X113084674Y-81144540D01*
X113086322Y-81147445D01*
X113102872Y-81193539D01*
X113110013Y-81223649D01*
X113118078Y-81274578D01*
X113123935Y-81321346D01*
X113127775Y-81371475D01*
X113129355Y-81423820D01*
X113129553Y-81453237D01*
X113128618Y-81508065D01*
X113125813Y-81560134D01*
X113121138Y-81609445D01*
X113113505Y-81662422D01*
X113110013Y-81681360D01*
X113099219Y-81729126D01*
X113089008Y-81757076D01*
X113052057Y-81789147D01*
X113048464Y-81790537D01*
X112998452Y-81799772D01*
X112955896Y-81801284D01*
X112904226Y-81798922D01*
X112863572Y-81790537D01*
X112824474Y-81759868D01*
X112823028Y-81757076D01*
X112806877Y-81708147D01*
X112800558Y-81680139D01*
X112792009Y-81631977D01*
X112785903Y-81577374D01*
X112782564Y-81524311D01*
X112781190Y-81474904D01*
X112781103Y-81461786D01*
X112871877Y-81461786D01*
X112876490Y-81510918D01*
X112877494Y-81514787D01*
X112887997Y-81548981D01*
X112908269Y-81564856D01*
X112954431Y-81570474D01*
X113000837Y-81565589D01*
X113020376Y-81549713D01*
X113031611Y-81513321D01*
X113037224Y-81463655D01*
X113037229Y-81461786D01*
X113034462Y-81412747D01*
X113030146Y-81387536D01*
X113020376Y-81357494D01*
X113000104Y-81341863D01*
X112954431Y-81336001D01*
X112905934Y-81343007D01*
X112898499Y-81347480D01*
X112877494Y-81391688D01*
X112872228Y-81441834D01*
X112871877Y-81461786D01*
X112781103Y-81461786D01*
X112781018Y-81448841D01*
X112781602Y-81396840D01*
X112783759Y-81347807D01*
X112785170Y-81330628D01*
X112791581Y-81279148D01*
X112799862Y-81227643D01*
X112800558Y-81223649D01*
X112811755Y-81174327D01*
X112823028Y-81147934D01*
X112861099Y-81116344D01*
X112866503Y-81114473D01*
X112915733Y-81106497D01*
X112957362Y-81105191D01*
X113006660Y-81107231D01*
G37*
G36*
X108876064Y-81570474D02*
G01*
X108636706Y-81570474D01*
X108758339Y-81145247D01*
X108759804Y-81145247D01*
X108876064Y-81570474D01*
G37*
G36*
X111393719Y-81570474D02*
G01*
X111154361Y-81570474D01*
X111275994Y-81145247D01*
X111277459Y-81145247D01*
X111393719Y-81570474D01*
G37*
G36*
X117285101Y-81429790D02*
G01*
X117196929Y-81429790D01*
X117146425Y-81428383D01*
X117095958Y-81422979D01*
X117062351Y-81415380D01*
X117017658Y-81393020D01*
X116995184Y-81367508D01*
X116979385Y-81320745D01*
X116975645Y-81271765D01*
X116980582Y-81222012D01*
X116998115Y-81180418D01*
X117037728Y-81147579D01*
X117072854Y-81134745D01*
X117122816Y-81125731D01*
X117176489Y-81121693D01*
X117222086Y-81120823D01*
X117285101Y-81120823D01*
X117285101Y-81429790D01*
G37*
G36*
X110507202Y-77968147D02*
G01*
X110553739Y-77984204D01*
X110555966Y-77985526D01*
X110590295Y-78021641D01*
X110605547Y-78058555D01*
X110615035Y-78107323D01*
X110619286Y-78159672D01*
X110620202Y-78204124D01*
X110619043Y-78253008D01*
X110614477Y-78303729D01*
X110605547Y-78347739D01*
X110584255Y-78393254D01*
X110555966Y-78419790D01*
X110507202Y-78437170D01*
X110456559Y-78441284D01*
X110407558Y-78438261D01*
X110359444Y-78425982D01*
X110346650Y-78419790D01*
X110310345Y-78386414D01*
X110291939Y-78347739D01*
X110281502Y-78299528D01*
X110276827Y-78247904D01*
X110275819Y-78204124D01*
X110277094Y-78154493D01*
X110282116Y-78103068D01*
X110291939Y-78058555D01*
X110313677Y-78014530D01*
X110346650Y-77985526D01*
X110393300Y-77969406D01*
X110443433Y-77964222D01*
X110456559Y-77964033D01*
X110507202Y-77968147D01*
G37*
G36*
X109646530Y-77967635D02*
G01*
X109693791Y-77981465D01*
X109722365Y-78000914D01*
X109748077Y-78044097D01*
X109758179Y-78093638D01*
X109759978Y-78132316D01*
X109430983Y-78132316D01*
X109433920Y-78082958D01*
X109446972Y-78031993D01*
X109468108Y-78000181D01*
X109510924Y-77975470D01*
X109559061Y-77965763D01*
X109596336Y-77964033D01*
X109646530Y-77967635D01*
G37*
G36*
X119287383Y-90456742D02*
G01*
X107437004Y-90456742D01*
X107437004Y-90122882D01*
X107587438Y-90122882D01*
X107590324Y-90173667D01*
X107601406Y-90224408D01*
X107616991Y-90258192D01*
X107650584Y-90294704D01*
X107696010Y-90318979D01*
X107717130Y-90325847D01*
X107766924Y-90336280D01*
X107821445Y-90342366D01*
X107877628Y-90345148D01*
X107916433Y-90345631D01*
X107972235Y-90344556D01*
X108022100Y-90341330D01*
X108071819Y-90335010D01*
X108093486Y-90330000D01*
X108360955Y-90330000D01*
X108575156Y-90330000D01*
X108904151Y-89931639D01*
X108904151Y-90330000D01*
X109071946Y-90330000D01*
X109071946Y-89844445D01*
X109262943Y-89844445D01*
X109432448Y-89844445D01*
X109443530Y-89794789D01*
X109469256Y-89750791D01*
X109471038Y-89749190D01*
X109518577Y-89728185D01*
X109566782Y-89724033D01*
X109617660Y-89727159D01*
X109667735Y-89739856D01*
X109681087Y-89746259D01*
X109718611Y-89780571D01*
X109737752Y-89820509D01*
X109748505Y-89869994D01*
X109753322Y-89923137D01*
X109754360Y-89968276D01*
X109752738Y-90021465D01*
X109747207Y-90070607D01*
X109737752Y-90109937D01*
X109713159Y-90154673D01*
X109680354Y-90180523D01*
X109631262Y-90196093D01*
X109579144Y-90201101D01*
X109565560Y-90201284D01*
X109516012Y-90197076D01*
X109472504Y-90179302D01*
X109443962Y-90139648D01*
X109430983Y-90097236D01*
X109262943Y-90097236D01*
X109266640Y-90148655D01*
X109275551Y-90197494D01*
X109292919Y-90244578D01*
X109294695Y-90247934D01*
X109326712Y-90288466D01*
X109369000Y-90315638D01*
X109388484Y-90323405D01*
X109439528Y-90336059D01*
X109490780Y-90342505D01*
X109543506Y-90345284D01*
X109572399Y-90345631D01*
X109622208Y-90344446D01*
X109674717Y-90340068D01*
X109727344Y-90331115D01*
X109777134Y-90316007D01*
X109786844Y-90311926D01*
X109829720Y-90286127D01*
X109864010Y-90251170D01*
X109889713Y-90207054D01*
X109893823Y-90197131D01*
X109909053Y-90146129D01*
X109918407Y-90091743D01*
X109923361Y-90037168D01*
X109925207Y-89985198D01*
X109925330Y-89966810D01*
X109924222Y-89912262D01*
X109920899Y-89862557D01*
X109918442Y-89843468D01*
X110127563Y-89843468D01*
X110127563Y-90001737D01*
X110127563Y-90330000D01*
X110287054Y-90330000D01*
X110287054Y-90247445D01*
X110298289Y-90247445D01*
X110330766Y-90287560D01*
X110370043Y-90319119D01*
X110380843Y-90324870D01*
X110429275Y-90339772D01*
X110479072Y-90345124D01*
X110502720Y-90345631D01*
X110556458Y-90344027D01*
X110607510Y-90338484D01*
X110656746Y-90326606D01*
X110660257Y-90325359D01*
X110704975Y-90300236D01*
X110737177Y-90259951D01*
X110738659Y-90256971D01*
X110754353Y-90207249D01*
X110760519Y-90157491D01*
X110761618Y-90120928D01*
X110759087Y-90066641D01*
X110756079Y-90048876D01*
X110996091Y-90048876D01*
X110997892Y-90103907D01*
X111004225Y-90157825D01*
X111016609Y-90207809D01*
X111024911Y-90228883D01*
X111051977Y-90271209D01*
X111090307Y-90303301D01*
X111122120Y-90319009D01*
X111170620Y-90333048D01*
X111223855Y-90341237D01*
X111278799Y-90344981D01*
X111316782Y-90345631D01*
X111369614Y-90344357D01*
X111423038Y-90339781D01*
X111474272Y-90330656D01*
X111511932Y-90319009D01*
X111557155Y-90293947D01*
X111593278Y-90255712D01*
X111607186Y-90230348D01*
X111622270Y-90181862D01*
X111629073Y-90133262D01*
X111630935Y-90083314D01*
X111630389Y-90055959D01*
X111451115Y-90055959D01*
X111448058Y-90106151D01*
X111431053Y-90152557D01*
X111424493Y-90160495D01*
X111377901Y-90183799D01*
X111325604Y-90189287D01*
X111320934Y-90189316D01*
X111270009Y-90186018D01*
X111232029Y-90176127D01*
X111193980Y-90144404D01*
X111187333Y-90131674D01*
X111175789Y-90082501D01*
X111173899Y-90043014D01*
X111173899Y-89864473D01*
X112570969Y-89864473D01*
X112570969Y-90330000D01*
X112726307Y-90330000D01*
X112726307Y-89884501D01*
X112727810Y-89832499D01*
X112734256Y-89781941D01*
X112741694Y-89758227D01*
X112778926Y-89726170D01*
X112797626Y-89724033D01*
X112845118Y-89739390D01*
X112846230Y-89740397D01*
X112868724Y-89785865D01*
X112870655Y-89795108D01*
X112875991Y-89844897D01*
X112877467Y-89895529D01*
X112877493Y-89904284D01*
X112877493Y-90330000D01*
X113031611Y-90330000D01*
X113028680Y-89884501D01*
X113029624Y-89832499D01*
X113036415Y-89781941D01*
X113044800Y-89758227D01*
X113083179Y-89727372D01*
X113110013Y-89724033D01*
X113155442Y-89741130D01*
X113175689Y-89785914D01*
X113177912Y-89797794D01*
X113182676Y-89849676D01*
X113183994Y-89902280D01*
X113184018Y-89911367D01*
X113184018Y-90330000D01*
X113339601Y-90330000D01*
X113339601Y-89864473D01*
X113410187Y-89864473D01*
X113410187Y-90330000D01*
X113565525Y-90330000D01*
X113565525Y-89884501D01*
X113567028Y-89832499D01*
X113573475Y-89781941D01*
X113580913Y-89758227D01*
X113618145Y-89726170D01*
X113636844Y-89724033D01*
X113684336Y-89739390D01*
X113685449Y-89740397D01*
X113707942Y-89785865D01*
X113709873Y-89795108D01*
X113715209Y-89844897D01*
X113716685Y-89895529D01*
X113716712Y-89904284D01*
X113716712Y-90330000D01*
X113870829Y-90330000D01*
X113867898Y-89884501D01*
X113868843Y-89832499D01*
X113875633Y-89781941D01*
X113884018Y-89758227D01*
X113922398Y-89727372D01*
X113949231Y-89724033D01*
X113994660Y-89741130D01*
X114014907Y-89785914D01*
X114017130Y-89797794D01*
X114021895Y-89849676D01*
X114023213Y-89902280D01*
X114023237Y-89911367D01*
X114023237Y-90330000D01*
X114178819Y-90330000D01*
X114178819Y-90011751D01*
X114318038Y-90011751D01*
X114319744Y-90064413D01*
X114325873Y-90118272D01*
X114338096Y-90170799D01*
X114353697Y-90210321D01*
X114380445Y-90251522D01*
X114420170Y-90287643D01*
X114465651Y-90312115D01*
X114470689Y-90314124D01*
X114520958Y-90329354D01*
X114573459Y-90338708D01*
X114625433Y-90343662D01*
X114674465Y-90345508D01*
X114691729Y-90345631D01*
X114741928Y-90344462D01*
X114791802Y-90340477D01*
X114836077Y-90333663D01*
X114850396Y-90330000D01*
X115339217Y-90330000D01*
X115605197Y-90330000D01*
X115605197Y-90079895D01*
X115339217Y-90079895D01*
X115339217Y-90330000D01*
X114850396Y-90330000D01*
X114886064Y-90320876D01*
X114934281Y-90303634D01*
X114963327Y-90291165D01*
X114963327Y-90117752D01*
X114915186Y-90141555D01*
X114867044Y-90162926D01*
X114820588Y-90180263D01*
X114812874Y-90182721D01*
X114763097Y-90194740D01*
X114712596Y-90200631D01*
X114689043Y-90201284D01*
X114637919Y-90198582D01*
X114585822Y-90187605D01*
X114540622Y-90163288D01*
X114534925Y-90158053D01*
X114508433Y-90116424D01*
X114495696Y-90067671D01*
X114492326Y-90023719D01*
X116013083Y-90023719D01*
X116014801Y-90074337D01*
X116020972Y-90126090D01*
X116033279Y-90176539D01*
X116048987Y-90214473D01*
X116078726Y-90257491D01*
X116118914Y-90291505D01*
X116164514Y-90314612D01*
X116214074Y-90329607D01*
X116266139Y-90338815D01*
X116317883Y-90343692D01*
X116366830Y-90345510D01*
X116384088Y-90345631D01*
X116434215Y-90344462D01*
X116483845Y-90340477D01*
X116527703Y-90333663D01*
X116541932Y-90330000D01*
X117628749Y-90330000D01*
X117821946Y-90330000D01*
X117987054Y-90088932D01*
X117992671Y-90088932D01*
X118157779Y-90330000D01*
X118350976Y-90330000D01*
X118238200Y-90173684D01*
X118499964Y-90173684D01*
X118499964Y-90330000D01*
X119155267Y-90330000D01*
X119155267Y-90099434D01*
X119109903Y-90064217D01*
X119067599Y-90031229D01*
X119028356Y-90000470D01*
X118983607Y-89965155D01*
X118943639Y-89933322D01*
X118901991Y-89899720D01*
X118878052Y-89880104D01*
X118840518Y-89848520D01*
X118801745Y-89814627D01*
X118763380Y-89779308D01*
X118733948Y-89750411D01*
X118704385Y-89710847D01*
X118697556Y-89696189D01*
X118688021Y-89647323D01*
X118687542Y-89630488D01*
X118692278Y-89579586D01*
X118700976Y-89554284D01*
X118736795Y-89520552D01*
X118746405Y-89516671D01*
X118797104Y-89506806D01*
X118837507Y-89505191D01*
X118887002Y-89507875D01*
X118929343Y-89517404D01*
X118969897Y-89545793D01*
X118977458Y-89557215D01*
X118992816Y-89603643D01*
X118996998Y-89636106D01*
X119176272Y-89636106D01*
X119171845Y-89584906D01*
X119162997Y-89534824D01*
X119146620Y-89484423D01*
X119139147Y-89469043D01*
X119107098Y-89427019D01*
X119066065Y-89398174D01*
X119037054Y-89385757D01*
X118987275Y-89372619D01*
X118933052Y-89364955D01*
X118877361Y-89361452D01*
X118838973Y-89360844D01*
X118785416Y-89362024D01*
X118731221Y-89366264D01*
X118679192Y-89374720D01*
X118640892Y-89385512D01*
X118594501Y-89408960D01*
X118556957Y-89445524D01*
X118542218Y-89470020D01*
X118525392Y-89516909D01*
X118516156Y-89569802D01*
X118512924Y-89619159D01*
X118512664Y-89639281D01*
X118515618Y-89691407D01*
X118525485Y-89739429D01*
X118533669Y-89761646D01*
X118559295Y-89805638D01*
X118592794Y-89846693D01*
X118613537Y-89868381D01*
X118650692Y-89904941D01*
X118688153Y-89939883D01*
X118725919Y-89973206D01*
X118763990Y-90004912D01*
X118805740Y-90037839D01*
X118848258Y-90069981D01*
X118889147Y-90100006D01*
X118934141Y-90132315D01*
X118974772Y-90160983D01*
X118974772Y-90173684D01*
X118499964Y-90173684D01*
X118238200Y-90173684D01*
X118080843Y-89955575D01*
X118335588Y-89595317D01*
X118148010Y-89595317D01*
X117992671Y-89837850D01*
X117987054Y-89837850D01*
X117831715Y-89595317D01*
X117644137Y-89595317D01*
X117898882Y-89957041D01*
X117628749Y-90330000D01*
X116541932Y-90330000D01*
X116577373Y-90320876D01*
X116625442Y-90303634D01*
X116654465Y-90291165D01*
X116654465Y-90118729D01*
X116608447Y-90142158D01*
X116562165Y-90163205D01*
X116513364Y-90181535D01*
X116509629Y-90182721D01*
X116460401Y-90194740D01*
X116409562Y-90200631D01*
X116385553Y-90201284D01*
X116334400Y-90198902D01*
X116282179Y-90189228D01*
X116236704Y-90167796D01*
X116230948Y-90163182D01*
X116202325Y-90122630D01*
X116189503Y-90073331D01*
X116186740Y-90028848D01*
X116191583Y-89977672D01*
X116211257Y-89930509D01*
X116221178Y-89918939D01*
X116263861Y-89894571D01*
X116313309Y-89885818D01*
X116337926Y-89884989D01*
X116387671Y-89887771D01*
X116441177Y-89895209D01*
X116490578Y-89904773D01*
X116490578Y-89735757D01*
X116242916Y-89520823D01*
X116634681Y-89520823D01*
X116634681Y-89376475D01*
X116049719Y-89376475D01*
X116049719Y-89534745D01*
X116291764Y-89734535D01*
X116291764Y-89741374D01*
X116242685Y-89738753D01*
X116237298Y-89738688D01*
X116187902Y-89741831D01*
X116139492Y-89753124D01*
X116095286Y-89775645D01*
X116065107Y-89804389D01*
X116039959Y-89848202D01*
X116024514Y-89898890D01*
X116016335Y-89952308D01*
X116013286Y-90004830D01*
X116013083Y-90023719D01*
X114492326Y-90023719D01*
X114491493Y-90012863D01*
X114491450Y-90006133D01*
X114495709Y-89954705D01*
X114513011Y-89907035D01*
X114521736Y-89895247D01*
X114562830Y-89867587D01*
X114612495Y-89855094D01*
X114626028Y-89853482D01*
X114676707Y-89849515D01*
X114701499Y-89849085D01*
X114753712Y-89851326D01*
X114809823Y-89857081D01*
X114866409Y-89865022D01*
X114920473Y-89873987D01*
X114939636Y-89877418D01*
X114897626Y-89376475D01*
X114358582Y-89376475D01*
X114358582Y-89520823D01*
X114742043Y-89520823D01*
X114756209Y-89704738D01*
X114706244Y-89704738D01*
X114694660Y-89704738D01*
X114643844Y-89707393D01*
X114606244Y-89710355D01*
X114554587Y-89717973D01*
X114503479Y-89729571D01*
X114455394Y-89746220D01*
X114434786Y-89756029D01*
X114393020Y-89784708D01*
X114358937Y-89824692D01*
X114345393Y-89850062D01*
X114329819Y-89896607D01*
X114321270Y-89947135D01*
X114318145Y-89999299D01*
X114318038Y-90011751D01*
X114178819Y-90011751D01*
X114178819Y-89595317D01*
X114027633Y-89595317D01*
X114027633Y-89682512D01*
X114016398Y-89682512D01*
X113990866Y-89638066D01*
X113959001Y-89601667D01*
X113913720Y-89582283D01*
X113883285Y-89579685D01*
X113834433Y-89582777D01*
X113787141Y-89596515D01*
X113778505Y-89601667D01*
X113745128Y-89640773D01*
X113727947Y-89682512D01*
X113726481Y-89682512D01*
X113705695Y-89635432D01*
X113676167Y-89601667D01*
X113628257Y-89583313D01*
X113582378Y-89579685D01*
X113531935Y-89583878D01*
X113484461Y-89600547D01*
X113477354Y-89605087D01*
X113444615Y-89641949D01*
X113426557Y-89687523D01*
X113425574Y-89691304D01*
X113416198Y-89744164D01*
X113412005Y-89793320D01*
X113410322Y-89843860D01*
X113410187Y-89864473D01*
X113339601Y-89864473D01*
X113339601Y-89595317D01*
X113188414Y-89595317D01*
X113188414Y-89682512D01*
X113177179Y-89682512D01*
X113151647Y-89638066D01*
X113119782Y-89601667D01*
X113074502Y-89582283D01*
X113044067Y-89579685D01*
X112995215Y-89582777D01*
X112947923Y-89596515D01*
X112939287Y-89601667D01*
X112905910Y-89640773D01*
X112888729Y-89682512D01*
X112887263Y-89682512D01*
X112866476Y-89635432D01*
X112836949Y-89601667D01*
X112789038Y-89583313D01*
X112743160Y-89579685D01*
X112692717Y-89583878D01*
X112645242Y-89600547D01*
X112638135Y-89605087D01*
X112605397Y-89641949D01*
X112587338Y-89687523D01*
X112586356Y-89691304D01*
X112576979Y-89744164D01*
X112572787Y-89793320D01*
X112571104Y-89843860D01*
X112570969Y-89864473D01*
X111173899Y-89864473D01*
X111173899Y-89376475D01*
X110996091Y-89376475D01*
X110996091Y-90048876D01*
X110756079Y-90048876D01*
X110750338Y-90014978D01*
X110733496Y-89968672D01*
X110729622Y-89961437D01*
X110696050Y-89920839D01*
X110651966Y-89893024D01*
X110620445Y-89881081D01*
X110571950Y-89869629D01*
X110520312Y-89862595D01*
X110468541Y-89858870D01*
X110419274Y-89857482D01*
X110401848Y-89857390D01*
X110291206Y-89857390D01*
X110291206Y-89848597D01*
X110296285Y-89797475D01*
X110318254Y-89753614D01*
X110321980Y-89750167D01*
X110370119Y-89729775D01*
X110422692Y-89724263D01*
X110438240Y-89724033D01*
X110488970Y-89726987D01*
X110536967Y-89741284D01*
X110542532Y-89745038D01*
X110565392Y-89789121D01*
X110566956Y-89825394D01*
X110737926Y-89825394D01*
X110737885Y-89774288D01*
X110731381Y-89721533D01*
X110716188Y-89676161D01*
X110686055Y-89636224D01*
X110644679Y-89609520D01*
X110625330Y-89601912D01*
X110573801Y-89589257D01*
X110521679Y-89582811D01*
X110467824Y-89580033D01*
X110438240Y-89579685D01*
X110387572Y-89580831D01*
X110336163Y-89584945D01*
X110286611Y-89593149D01*
X110249929Y-89603621D01*
X110205530Y-89625958D01*
X110169679Y-89660466D01*
X110155651Y-89683489D01*
X110138535Y-89732318D01*
X110130306Y-89783242D01*
X110127591Y-89837027D01*
X110127563Y-89843468D01*
X109918442Y-89843468D01*
X109914222Y-89810688D01*
X109902900Y-89759481D01*
X109893823Y-89731849D01*
X109869885Y-89684565D01*
X109837456Y-89646822D01*
X109796536Y-89618619D01*
X109787333Y-89614124D01*
X109740248Y-89597476D01*
X109690155Y-89587252D01*
X109639963Y-89581838D01*
X109583833Y-89579719D01*
X109575330Y-89579685D01*
X109525268Y-89580831D01*
X109474465Y-89584945D01*
X109425487Y-89593149D01*
X109389217Y-89603621D01*
X109345013Y-89626061D01*
X109308985Y-89660913D01*
X109294695Y-89684221D01*
X109276720Y-89733314D01*
X109267304Y-89784300D01*
X109263152Y-89838018D01*
X109262943Y-89844445D01*
X109071946Y-89844445D01*
X109071946Y-89313949D01*
X108904151Y-89313949D01*
X108904151Y-89919183D01*
X108594695Y-89595317D01*
X108392950Y-89595317D01*
X108713641Y-89924556D01*
X108360955Y-90330000D01*
X108093486Y-90330000D01*
X108123062Y-90323161D01*
X108171090Y-90301774D01*
X108209555Y-90268373D01*
X108224423Y-90245980D01*
X108241905Y-90198479D01*
X108249600Y-90149291D01*
X108251182Y-90097559D01*
X108251045Y-90091374D01*
X108078854Y-90091374D01*
X108070935Y-90139920D01*
X108062001Y-90158297D01*
X108022647Y-90187295D01*
X108009489Y-90191514D01*
X107961152Y-90199137D01*
X107912188Y-90201245D01*
X107903732Y-90201284D01*
X107853095Y-90199379D01*
X107803764Y-90190642D01*
X107790403Y-90185163D01*
X107761552Y-90145230D01*
X107759629Y-90125080D01*
X107777214Y-90077941D01*
X107819366Y-90051304D01*
X107836565Y-90044968D01*
X107883624Y-90031687D01*
X107932322Y-90021063D01*
X107955511Y-90016636D01*
X108008375Y-90005721D01*
X108060219Y-89992749D01*
X108108352Y-89977474D01*
X108128680Y-89969497D01*
X108172329Y-89945966D01*
X108210225Y-89910695D01*
X108215386Y-89903307D01*
X108234803Y-89856535D01*
X108241174Y-89804990D01*
X108241276Y-89796817D01*
X108238485Y-89747019D01*
X108227769Y-89697652D01*
X108212699Y-89665170D01*
X108176771Y-89627865D01*
X108131221Y-89604823D01*
X108114514Y-89599469D01*
X108065627Y-89589036D01*
X108012166Y-89582951D01*
X107957120Y-89580168D01*
X107919119Y-89579685D01*
X107867940Y-89580667D01*
X107816004Y-89584193D01*
X107765933Y-89591226D01*
X107728854Y-89600202D01*
X107680731Y-89621349D01*
X107643331Y-89654581D01*
X107633599Y-89669078D01*
X107615212Y-89715224D01*
X107606580Y-89764974D01*
X107604290Y-89807320D01*
X107772329Y-89807320D01*
X107786946Y-89759101D01*
X107806523Y-89741618D01*
X107854407Y-89727897D01*
X107905555Y-89724188D01*
X107920585Y-89724033D01*
X107969586Y-89725560D01*
X108020236Y-89732826D01*
X108039775Y-89739665D01*
X108070240Y-89780105D01*
X108071771Y-89797306D01*
X108038111Y-89833076D01*
X108027807Y-89837606D01*
X107978143Y-89853869D01*
X107927655Y-89867443D01*
X107879278Y-89879309D01*
X107856105Y-89884745D01*
X107806676Y-89897033D01*
X107758148Y-89911624D01*
X107709017Y-89930559D01*
X107693927Y-89937745D01*
X107650016Y-89965815D01*
X107616975Y-90002219D01*
X107612106Y-90010286D01*
X107594400Y-90056679D01*
X107587823Y-90106002D01*
X107587438Y-90122882D01*
X107437004Y-90122882D01*
X107437004Y-88504431D01*
X107605512Y-88504431D01*
X107605512Y-88648290D01*
X107657771Y-88654183D01*
X107712618Y-88659518D01*
X107767229Y-88663582D01*
X107818376Y-88665563D01*
X107828262Y-88665631D01*
X107881119Y-88663525D01*
X107930741Y-88656246D01*
X107949514Y-88650000D01*
X108433740Y-88650000D01*
X108604466Y-88650000D01*
X108604466Y-88552791D01*
X108615701Y-88552791D01*
X108644472Y-88595633D01*
X108681771Y-88631202D01*
X108698988Y-88641695D01*
X108748996Y-88658058D01*
X108800883Y-88664486D01*
X108839671Y-88665631D01*
X108890462Y-88663622D01*
X108943093Y-88655709D01*
X108988660Y-88640230D01*
X109028858Y-88611225D01*
X109057555Y-88568663D01*
X109063642Y-88554012D01*
X109076435Y-88506198D01*
X109083457Y-88452312D01*
X109085915Y-88402059D01*
X109086112Y-88381577D01*
X109086112Y-88176657D01*
X109228018Y-88176657D01*
X109228823Y-88234860D01*
X109231238Y-88288722D01*
X109235263Y-88338244D01*
X109242218Y-88391939D01*
X109253262Y-88446683D01*
X109260990Y-88474145D01*
X109280362Y-88522398D01*
X109309052Y-88567669D01*
X109345045Y-88603396D01*
X109373098Y-88621912D01*
X109422748Y-88643045D01*
X109475737Y-88656025D01*
X109528940Y-88662899D01*
X109579621Y-88665460D01*
X109597557Y-88665631D01*
X109649893Y-88664094D01*
X109705026Y-88658416D01*
X109753777Y-88648553D01*
X109801679Y-88632158D01*
X109822505Y-88621912D01*
X109863248Y-88592547D01*
X109896728Y-88553639D01*
X109922943Y-88505187D01*
X109934368Y-88474145D01*
X109947216Y-88424263D01*
X109955716Y-88374735D01*
X109961899Y-88318956D01*
X109963327Y-88297313D01*
X110941381Y-88297313D01*
X110942847Y-88353000D01*
X111439881Y-88353000D01*
X111433503Y-88401979D01*
X111419688Y-88450945D01*
X111417655Y-88455582D01*
X111385593Y-88495022D01*
X111365142Y-88506385D01*
X111315786Y-88518432D01*
X111265003Y-88521284D01*
X111213494Y-88517151D01*
X111173412Y-88502477D01*
X111140739Y-88463483D01*
X111127738Y-88431891D01*
X110954082Y-88431891D01*
X110963362Y-88479989D01*
X110978640Y-88529855D01*
X111000244Y-88573063D01*
X111034064Y-88611070D01*
X111079104Y-88638325D01*
X111094033Y-88644138D01*
X111141832Y-88656375D01*
X111194802Y-88663091D01*
X111243704Y-88665442D01*
X111263537Y-88665631D01*
X111312796Y-88664420D01*
X111364665Y-88659947D01*
X111416559Y-88650800D01*
X111465524Y-88635363D01*
X111475052Y-88631193D01*
X111517155Y-88604922D01*
X111550958Y-88569159D01*
X111576460Y-88523902D01*
X111580565Y-88513712D01*
X111595795Y-88461434D01*
X111604195Y-88413267D01*
X111609580Y-88358532D01*
X111611795Y-88306388D01*
X111612072Y-88278506D01*
X111611016Y-88224948D01*
X111608559Y-88187159D01*
X111787683Y-88187159D01*
X111787683Y-88650000D01*
X111958408Y-88650000D01*
X111958408Y-88178855D01*
X111962461Y-88127243D01*
X111980474Y-88080227D01*
X111987229Y-88072365D01*
X112031654Y-88050258D01*
X112084602Y-88044144D01*
X112094207Y-88044033D01*
X112144771Y-88047338D01*
X112192727Y-88060482D01*
X112199965Y-88064061D01*
X112236645Y-88097370D01*
X112253209Y-88131472D01*
X112264229Y-88180412D01*
X112268558Y-88229360D01*
X112269330Y-88265317D01*
X112269330Y-88650000D01*
X112440055Y-88650000D01*
X112440055Y-88505652D01*
X112603209Y-88505652D01*
X112603209Y-88650000D01*
X113248499Y-88650000D01*
X113248499Y-88505652D01*
X113004989Y-88505652D01*
X113004989Y-88493684D01*
X113438032Y-88493684D01*
X113438032Y-88650000D01*
X114098953Y-88650000D01*
X114098953Y-88562561D01*
X115361688Y-88562561D01*
X115364619Y-88583565D01*
X115374145Y-88610188D01*
X115522644Y-88915736D01*
X115689218Y-88915736D01*
X115585659Y-88590648D01*
X115582728Y-88568178D01*
X115582728Y-88493684D01*
X116049720Y-88493684D01*
X116049720Y-88650000D01*
X116574598Y-88650000D01*
X116773900Y-88650000D01*
X116965875Y-88650000D01*
X117031577Y-88364724D01*
X117048226Y-88318155D01*
X117082135Y-88280949D01*
X117131105Y-88264645D01*
X117184343Y-88259551D01*
X117205233Y-88259211D01*
X117294870Y-88259211D01*
X117294870Y-88650000D01*
X117472679Y-88650000D01*
X117472679Y-87696475D01*
X117306105Y-87696475D01*
X117257114Y-87696475D01*
X117223307Y-87696475D01*
X117168035Y-87697403D01*
X117117623Y-87700185D01*
X117064951Y-87705775D01*
X117012855Y-87715254D01*
X116984682Y-87722854D01*
X116936506Y-87742455D01*
X116894587Y-87771565D01*
X116864270Y-87808583D01*
X116843968Y-87854986D01*
X116832824Y-87906887D01*
X116828750Y-87961511D01*
X116828727Y-87963677D01*
X116828611Y-87974668D01*
X116831029Y-88027102D01*
X116839831Y-88075380D01*
X116843265Y-88086043D01*
X116869598Y-88129491D01*
X116893091Y-88148325D01*
X116938541Y-88167662D01*
X116988497Y-88178722D01*
X116992498Y-88179344D01*
X116992498Y-88191800D01*
X116943969Y-88206272D01*
X116905059Y-88235519D01*
X116879435Y-88277905D01*
X116860945Y-88327347D01*
X116853768Y-88352023D01*
X116773900Y-88650000D01*
X116574598Y-88650000D01*
X116574598Y-88493684D01*
X116399720Y-88493684D01*
X116399720Y-87852791D01*
X116564828Y-87852791D01*
X116564828Y-87696475D01*
X116059490Y-87696475D01*
X116059490Y-87852791D01*
X116224598Y-87852791D01*
X116224598Y-88493684D01*
X116049720Y-88493684D01*
X115582728Y-88493684D01*
X115582728Y-88431158D01*
X115361688Y-88431158D01*
X115361688Y-88562561D01*
X114098953Y-88562561D01*
X114098953Y-87696475D01*
X113919678Y-87696475D01*
X113919678Y-88493684D01*
X113438032Y-88493684D01*
X113004989Y-88493684D01*
X113004989Y-88059665D01*
X113234577Y-88059665D01*
X113234577Y-87915317D01*
X112836950Y-87915317D01*
X112836950Y-88505652D01*
X112603209Y-88505652D01*
X112440055Y-88505652D01*
X112440055Y-87915317D01*
X112269330Y-87915317D01*
X112269330Y-88013258D01*
X112258094Y-88013258D01*
X112228373Y-87970005D01*
X112192656Y-87934301D01*
X112177006Y-87923866D01*
X112129894Y-87906510D01*
X112081076Y-87900276D01*
X112057815Y-87899685D01*
X112007745Y-87901304D01*
X111958716Y-87906992D01*
X111909285Y-87919507D01*
X111894172Y-87925575D01*
X111852979Y-87952415D01*
X111822669Y-87990864D01*
X111812351Y-88012526D01*
X111798306Y-88060710D01*
X111791152Y-88109364D01*
X111788068Y-88159587D01*
X111787683Y-88187159D01*
X111608559Y-88187159D01*
X111607847Y-88176199D01*
X111601481Y-88125402D01*
X111590685Y-88075363D01*
X111582030Y-88048429D01*
X111559151Y-88002376D01*
X111524508Y-87962407D01*
X111479937Y-87933635D01*
X111428836Y-87915732D01*
X111379438Y-87906184D01*
X111330004Y-87901310D01*
X111274773Y-87899685D01*
X111221682Y-87901439D01*
X111167590Y-87907735D01*
X111115129Y-87920293D01*
X111075959Y-87936322D01*
X111035144Y-87963814D01*
X111002152Y-88000798D01*
X110976983Y-88047276D01*
X110972888Y-88057711D01*
X110957658Y-88111027D01*
X110949258Y-88160109D01*
X110944215Y-88212316D01*
X110943873Y-88215853D01*
X110941658Y-88268936D01*
X110941381Y-88297313D01*
X109963327Y-88297313D01*
X109965280Y-88267698D01*
X109967051Y-88212100D01*
X109967341Y-88176657D01*
X109966536Y-88117714D01*
X109964121Y-88063160D01*
X109960096Y-88012995D01*
X109953140Y-87958590D01*
X109943867Y-87910505D01*
X109934368Y-87875261D01*
X109919327Y-87837159D01*
X112831332Y-87837159D01*
X113045533Y-87837159D01*
X113045533Y-87633949D01*
X112831332Y-87633949D01*
X112831332Y-87837159D01*
X109919327Y-87837159D01*
X109915012Y-87826229D01*
X109886375Y-87780265D01*
X109850474Y-87744038D01*
X109822505Y-87725296D01*
X109772717Y-87703808D01*
X109719606Y-87690611D01*
X109666296Y-87683622D01*
X109615523Y-87681018D01*
X109597557Y-87680844D01*
X109545313Y-87682407D01*
X109490287Y-87688180D01*
X109441642Y-87698208D01*
X109393862Y-87714878D01*
X109373098Y-87725296D01*
X109332236Y-87755032D01*
X109298677Y-87794505D01*
X109274978Y-87837766D01*
X109260990Y-87875261D01*
X109248143Y-87925831D01*
X109239642Y-87976023D01*
X109233459Y-88032535D01*
X109230078Y-88084455D01*
X109228307Y-88140765D01*
X109228018Y-88176657D01*
X109086112Y-88176657D01*
X109086112Y-87915317D01*
X108915142Y-87915317D01*
X108915142Y-88386461D01*
X108911502Y-88438073D01*
X108895321Y-88485090D01*
X108889253Y-88492951D01*
X108845289Y-88515861D01*
X108795082Y-88521256D01*
X108790579Y-88521284D01*
X108739837Y-88518501D01*
X108690321Y-88507199D01*
X108677250Y-88501500D01*
X108638562Y-88468073D01*
X108621318Y-88434089D01*
X108609798Y-88384701D01*
X108605272Y-88335074D01*
X108604466Y-88298534D01*
X108604466Y-87915317D01*
X108433740Y-87915317D01*
X108433740Y-88650000D01*
X107949514Y-88650000D01*
X107977629Y-88640646D01*
X107980914Y-88639009D01*
X108022105Y-88608132D01*
X108048591Y-88565879D01*
X108051011Y-88559385D01*
X108062713Y-88509953D01*
X108067956Y-88458177D01*
X108069085Y-88414794D01*
X108069085Y-88059665D01*
X108249581Y-88059665D01*
X108216119Y-87915317D01*
X108063468Y-87915317D01*
X108063468Y-87766329D01*
X107901046Y-87697697D01*
X107901046Y-87915317D01*
X107627983Y-87915317D01*
X107627983Y-88059665D01*
X107901046Y-88059665D01*
X107901046Y-88413084D01*
X107897785Y-88462401D01*
X107893475Y-88480006D01*
X107859769Y-88511270D01*
X107811241Y-88520306D01*
X107780634Y-88521284D01*
X107727729Y-88518914D01*
X107677997Y-88514026D01*
X107626558Y-88507443D01*
X107605512Y-88504431D01*
X107437004Y-88504431D01*
X107437004Y-85144431D01*
X107605512Y-85144431D01*
X107605512Y-85288290D01*
X107657770Y-85294183D01*
X107712618Y-85299518D01*
X107767229Y-85303582D01*
X107818375Y-85305563D01*
X107828261Y-85305631D01*
X107881119Y-85303525D01*
X107930740Y-85296246D01*
X107977629Y-85280646D01*
X107980913Y-85279009D01*
X108022104Y-85248132D01*
X108048590Y-85205879D01*
X108051011Y-85199385D01*
X108062713Y-85149953D01*
X108063148Y-85145652D01*
X108407117Y-85145652D01*
X108407117Y-85290000D01*
X109052406Y-85290000D01*
X109052406Y-85145652D01*
X108808896Y-85145652D01*
X108808896Y-84914110D01*
X109236566Y-84914110D01*
X109237527Y-84969505D01*
X109240412Y-85019920D01*
X109246209Y-85072444D01*
X109256040Y-85124170D01*
X109263921Y-85152002D01*
X109284586Y-85199487D01*
X109315913Y-85240810D01*
X109356245Y-85270704D01*
X109402264Y-85289123D01*
X109452941Y-85299867D01*
X109505350Y-85304778D01*
X109541625Y-85305631D01*
X109592874Y-85302608D01*
X109640788Y-85291606D01*
X109651534Y-85287313D01*
X109694032Y-85260385D01*
X109730361Y-85226187D01*
X109738973Y-85216727D01*
X109750208Y-85216727D01*
X109750208Y-85290000D01*
X109919713Y-85290000D01*
X109919257Y-84973705D01*
X110925993Y-84973705D01*
X110925993Y-85118053D01*
X111056175Y-85118053D01*
X111056175Y-85290000D01*
X111224214Y-85290000D01*
X111224214Y-85133684D01*
X111786217Y-85133684D01*
X111786217Y-85290000D01*
X112441520Y-85290000D01*
X112441520Y-85059434D01*
X112396156Y-85024217D01*
X112353852Y-84991229D01*
X112314609Y-84960470D01*
X112269860Y-84925155D01*
X112229892Y-84893322D01*
X112188244Y-84859720D01*
X112164305Y-84840104D01*
X112126771Y-84808520D01*
X112087998Y-84774627D01*
X112049633Y-84739308D01*
X112020201Y-84710411D01*
X111990638Y-84670847D01*
X111983809Y-84656189D01*
X111974274Y-84607323D01*
X111973795Y-84590488D01*
X111978531Y-84539586D01*
X111987229Y-84514284D01*
X112023048Y-84480552D01*
X112032658Y-84476671D01*
X112083357Y-84466806D01*
X112123760Y-84465191D01*
X112173255Y-84467875D01*
X112215596Y-84477404D01*
X112256150Y-84505793D01*
X112263711Y-84517215D01*
X112279069Y-84563643D01*
X112283251Y-84596106D01*
X112462525Y-84596106D01*
X112458098Y-84544906D01*
X112449250Y-84494824D01*
X112432873Y-84444423D01*
X112425400Y-84429043D01*
X112393351Y-84387019D01*
X112352318Y-84358174D01*
X112323307Y-84345757D01*
X112273528Y-84332619D01*
X112219305Y-84324955D01*
X112163614Y-84321452D01*
X112125226Y-84320844D01*
X112071669Y-84322024D01*
X112017474Y-84326264D01*
X111965445Y-84334720D01*
X111927145Y-84345512D01*
X111880754Y-84368960D01*
X111843210Y-84405524D01*
X111828471Y-84430020D01*
X111811645Y-84476909D01*
X111802409Y-84529802D01*
X111799177Y-84579159D01*
X111798917Y-84599281D01*
X111801871Y-84651407D01*
X111811738Y-84699429D01*
X111819922Y-84721646D01*
X111845548Y-84765638D01*
X111879047Y-84806693D01*
X111899790Y-84828381D01*
X111936945Y-84864941D01*
X111974406Y-84899883D01*
X112012172Y-84933206D01*
X112050243Y-84964912D01*
X112091993Y-84997839D01*
X112134511Y-85029981D01*
X112175400Y-85060006D01*
X112220394Y-85092315D01*
X112261025Y-85120983D01*
X112261025Y-85133684D01*
X111786217Y-85133684D01*
X111224214Y-85133684D01*
X111224214Y-85118053D01*
X111612072Y-85118053D01*
X111612072Y-84965157D01*
X111305547Y-84320844D01*
X111117968Y-84320844D01*
X111435728Y-84973705D01*
X111224214Y-84973705D01*
X111224214Y-84742896D01*
X111056175Y-84742896D01*
X111056175Y-84973705D01*
X110925993Y-84973705D01*
X109919257Y-84973705D01*
X109919217Y-84946106D01*
X110170794Y-84946106D01*
X110702755Y-84946106D01*
X110702755Y-84789790D01*
X110170794Y-84789790D01*
X110170794Y-84946106D01*
X109919217Y-84946106D01*
X109918247Y-84273949D01*
X109748743Y-84273949D01*
X109750208Y-84613935D01*
X109738973Y-84613935D01*
X109705220Y-84575347D01*
X109664584Y-84546129D01*
X109659350Y-84543593D01*
X109608914Y-84528939D01*
X109560027Y-84524359D01*
X109541625Y-84524054D01*
X109491598Y-84525737D01*
X109440921Y-84531782D01*
X109392194Y-84543838D01*
X109356245Y-84559225D01*
X109315913Y-84588980D01*
X109284586Y-84630222D01*
X109263921Y-84677683D01*
X109250697Y-84730156D01*
X109243404Y-84778555D01*
X109238729Y-84833593D01*
X109236806Y-84886051D01*
X109236566Y-84914110D01*
X108808896Y-84914110D01*
X108808896Y-84699665D01*
X109038485Y-84699665D01*
X109038485Y-84555317D01*
X108640857Y-84555317D01*
X108640857Y-85145652D01*
X108407117Y-85145652D01*
X108063148Y-85145652D01*
X108067955Y-85098177D01*
X108069085Y-85054794D01*
X108069085Y-84699665D01*
X108249580Y-84699665D01*
X108216119Y-84555317D01*
X108063467Y-84555317D01*
X108063467Y-84477159D01*
X108635240Y-84477159D01*
X108849441Y-84477159D01*
X108849441Y-84273949D01*
X108635240Y-84273949D01*
X108635240Y-84477159D01*
X108063467Y-84477159D01*
X108063467Y-84406329D01*
X107901046Y-84337697D01*
X107901046Y-84555317D01*
X107627982Y-84555317D01*
X107627982Y-84699665D01*
X107901046Y-84699665D01*
X107901046Y-85053084D01*
X107897785Y-85102401D01*
X107893474Y-85120006D01*
X107859769Y-85151270D01*
X107811241Y-85160306D01*
X107780634Y-85161284D01*
X107727729Y-85158914D01*
X107677997Y-85154026D01*
X107626557Y-85147443D01*
X107605512Y-85144431D01*
X107437004Y-85144431D01*
X107437004Y-82991332D01*
X107605512Y-82991332D01*
X108010222Y-83465652D01*
X107605512Y-83465652D01*
X107605512Y-83610000D01*
X108234193Y-83610000D01*
X108418352Y-83610000D01*
X108597382Y-83610000D01*
X108597382Y-83187948D01*
X108919538Y-83187948D01*
X108919538Y-83610000D01*
X109098568Y-83610000D01*
X109200173Y-83610000D01*
X109414374Y-83610000D01*
X109743370Y-83211639D01*
X109743370Y-83610000D01*
X109911164Y-83610000D01*
X109911164Y-83453684D01*
X110107780Y-83453684D01*
X110107780Y-83610000D01*
X110763083Y-83610000D01*
X110763083Y-83379434D01*
X110717719Y-83344217D01*
X110675415Y-83311229D01*
X110636173Y-83280470D01*
X110591423Y-83245155D01*
X110551456Y-83213322D01*
X110509807Y-83179720D01*
X110485868Y-83160104D01*
X110448335Y-83128520D01*
X110409561Y-83094627D01*
X110371196Y-83059308D01*
X110341764Y-83030411D01*
X110312201Y-82990847D01*
X110305372Y-82976189D01*
X110304943Y-82973991D01*
X110951395Y-82973991D01*
X110952704Y-83024880D01*
X110957405Y-83079174D01*
X110965526Y-83129347D01*
X110978750Y-83180865D01*
X110997574Y-83230661D01*
X111020308Y-83276644D01*
X111048689Y-83324244D01*
X111078157Y-83367222D01*
X111107855Y-83406715D01*
X111142912Y-83450639D01*
X111176218Y-83490626D01*
X111213246Y-83533691D01*
X111245547Y-83570358D01*
X111280229Y-83608994D01*
X111298464Y-83629050D01*
X111514130Y-83629050D01*
X111494215Y-83610000D01*
X111940334Y-83610000D01*
X112113991Y-83610000D01*
X112113991Y-82950055D01*
X112108373Y-82864326D01*
X112162839Y-82908534D01*
X112414898Y-83061919D01*
X112414898Y-82879713D01*
X112113991Y-82656475D01*
X111940334Y-82656475D01*
X111940334Y-83610000D01*
X111494215Y-83610000D01*
X111474648Y-83591283D01*
X111438482Y-83556140D01*
X111399458Y-83517431D01*
X111365209Y-83482501D01*
X111331285Y-83446524D01*
X111318736Y-83432679D01*
X111286038Y-83394501D01*
X111251691Y-83351530D01*
X111220285Y-83309997D01*
X111187618Y-83264796D01*
X111178052Y-83251207D01*
X111189287Y-83251207D01*
X111228857Y-83282290D01*
X111241799Y-83288820D01*
X111291870Y-83297160D01*
X111304081Y-83297369D01*
X111359545Y-83296165D01*
X111408393Y-83292553D01*
X111461478Y-83284373D01*
X111503628Y-83272212D01*
X111546687Y-83247402D01*
X111580544Y-83207114D01*
X111593265Y-83179644D01*
X111606145Y-83130514D01*
X111613014Y-83081352D01*
X111616520Y-83031148D01*
X111617689Y-82974235D01*
X111616779Y-82923397D01*
X111613416Y-82870553D01*
X111606539Y-82818689D01*
X111594934Y-82771218D01*
X111591799Y-82762233D01*
X111566268Y-82716174D01*
X111528510Y-82682411D01*
X111496545Y-82666734D01*
X111446179Y-82653081D01*
X111395789Y-82645799D01*
X111344334Y-82642083D01*
X111294760Y-82640869D01*
X111286007Y-82640844D01*
X111234522Y-82641763D01*
X111181140Y-82645157D01*
X111128949Y-82652099D01*
X111081473Y-82663813D01*
X111072539Y-82666978D01*
X111026629Y-82692623D01*
X110992946Y-82730359D01*
X110977284Y-82762233D01*
X110963632Y-82812612D01*
X110956350Y-82863255D01*
X110952634Y-82915105D01*
X110951520Y-82961046D01*
X110951420Y-82965148D01*
X110951395Y-82973991D01*
X110304943Y-82973991D01*
X110295838Y-82927323D01*
X110295358Y-82910488D01*
X110300094Y-82859586D01*
X110308792Y-82834284D01*
X110344611Y-82800552D01*
X110354221Y-82796671D01*
X110404920Y-82786806D01*
X110445323Y-82785191D01*
X110494818Y-82787875D01*
X110537159Y-82797404D01*
X110577713Y-82825793D01*
X110585275Y-82837215D01*
X110600632Y-82883643D01*
X110604814Y-82916106D01*
X110784088Y-82916106D01*
X110779661Y-82864906D01*
X110770813Y-82814824D01*
X110754436Y-82764423D01*
X110746963Y-82749043D01*
X110714914Y-82707019D01*
X110673881Y-82678174D01*
X110644870Y-82665757D01*
X110595091Y-82652619D01*
X110540868Y-82644955D01*
X110485177Y-82641452D01*
X110446789Y-82640844D01*
X110393232Y-82642024D01*
X110339037Y-82646264D01*
X110287008Y-82654720D01*
X110248708Y-82665512D01*
X110202317Y-82688960D01*
X110164773Y-82725524D01*
X110150034Y-82750020D01*
X110133208Y-82796909D01*
X110123973Y-82849802D01*
X110120740Y-82899159D01*
X110120480Y-82919281D01*
X110123434Y-82971407D01*
X110133301Y-83019429D01*
X110141485Y-83041646D01*
X110167111Y-83085638D01*
X110200610Y-83126693D01*
X110221353Y-83148381D01*
X110258508Y-83184941D01*
X110295969Y-83219883D01*
X110333735Y-83253206D01*
X110371806Y-83284912D01*
X110413557Y-83317839D01*
X110456074Y-83349981D01*
X110496963Y-83380006D01*
X110541958Y-83412315D01*
X110582588Y-83440983D01*
X110582588Y-83453684D01*
X110107780Y-83453684D01*
X109911164Y-83453684D01*
X109911164Y-82593949D01*
X109743370Y-82593949D01*
X109743370Y-83199183D01*
X109433914Y-82875317D01*
X109232169Y-82875317D01*
X109552860Y-83204556D01*
X109200173Y-83610000D01*
X109098568Y-83610000D01*
X109098568Y-82656475D01*
X108919538Y-82656475D01*
X108919538Y-83031632D01*
X108597382Y-83031632D01*
X108597382Y-82656475D01*
X108418352Y-82656475D01*
X108418352Y-83610000D01*
X108234193Y-83610000D01*
X108234193Y-83491297D01*
X107835100Y-83019665D01*
X108209036Y-83019665D01*
X108209036Y-82875317D01*
X107605512Y-82875317D01*
X107605512Y-82991332D01*
X107437004Y-82991332D01*
X107437004Y-81672568D01*
X107548115Y-81672568D01*
X107553229Y-81723248D01*
X107562741Y-81772965D01*
X107579771Y-81823235D01*
X107587438Y-81838653D01*
X107616839Y-81877774D01*
X107656681Y-81907209D01*
X107689043Y-81921451D01*
X107737801Y-81934202D01*
X107791187Y-81941640D01*
X107846199Y-81945041D01*
X107884193Y-81945631D01*
X107937468Y-81944077D01*
X107993522Y-81938335D01*
X108034881Y-81930000D01*
X108358025Y-81930000D01*
X108534368Y-81930000D01*
X108595917Y-81726789D01*
X108918073Y-81726789D01*
X108978157Y-81930000D01*
X109153279Y-81930000D01*
X109023195Y-81470823D01*
X109229483Y-81470823D01*
X109230509Y-81526568D01*
X109233586Y-81578247D01*
X109239985Y-81634893D01*
X109249339Y-81685683D01*
X109263985Y-81737537D01*
X109271493Y-81757320D01*
X109296085Y-81804382D01*
X109327852Y-81844209D01*
X109366793Y-81876800D01*
X109412909Y-81902156D01*
X109460350Y-81919096D01*
X109515692Y-81931875D01*
X109569416Y-81939517D01*
X109618620Y-81943551D01*
X109671855Y-81945461D01*
X109694277Y-81945631D01*
X109748591Y-81944944D01*
X109800272Y-81943216D01*
X109855834Y-81940436D01*
X109906547Y-81937216D01*
X109941939Y-81934640D01*
X109941939Y-81930000D01*
X110875680Y-81930000D01*
X111052023Y-81930000D01*
X111113572Y-81726789D01*
X111435729Y-81726789D01*
X111495812Y-81930000D01*
X111670935Y-81930000D01*
X111626651Y-81773684D01*
X111786217Y-81773684D01*
X111786217Y-81930000D01*
X112441521Y-81930000D01*
X112441521Y-81699434D01*
X112396156Y-81664217D01*
X112353853Y-81631229D01*
X112314610Y-81600470D01*
X112269860Y-81565155D01*
X112229893Y-81533322D01*
X112188245Y-81499720D01*
X112164305Y-81480104D01*
X112142537Y-81461786D01*
X112605896Y-81461786D01*
X112606647Y-81514554D01*
X112609177Y-81566852D01*
X112612246Y-81602470D01*
X112618898Y-81651768D01*
X112628532Y-81701631D01*
X112633984Y-81724836D01*
X112648219Y-81774690D01*
X112666165Y-81821019D01*
X112690660Y-81864021D01*
X112692847Y-81866985D01*
X112727989Y-81901793D01*
X112772294Y-81925008D01*
X112786636Y-81929511D01*
X112838121Y-81939334D01*
X112892518Y-81944057D01*
X112943557Y-81945568D01*
X112957362Y-81945631D01*
X113009446Y-81944624D01*
X113060305Y-81941082D01*
X113111341Y-81933289D01*
X113124857Y-81930000D01*
X113618771Y-81930000D01*
X113792428Y-81930000D01*
X113792428Y-81611751D01*
X114318039Y-81611751D01*
X114319745Y-81664413D01*
X114325874Y-81718272D01*
X114338097Y-81770799D01*
X114353698Y-81810321D01*
X114380445Y-81851522D01*
X114420171Y-81887643D01*
X114465652Y-81912115D01*
X114470690Y-81914124D01*
X114520959Y-81929354D01*
X114573460Y-81938708D01*
X114625433Y-81943662D01*
X114674466Y-81945508D01*
X114691730Y-81945631D01*
X114741929Y-81944462D01*
X114791803Y-81940477D01*
X114836078Y-81933663D01*
X114850397Y-81930000D01*
X115099860Y-81930000D01*
X115264968Y-81930000D01*
X115264968Y-81447376D01*
X115248115Y-81199225D01*
X115253733Y-81199225D01*
X115400767Y-81601737D01*
X115542184Y-81601737D01*
X115689218Y-81199225D01*
X115694835Y-81199225D01*
X115677983Y-81447376D01*
X115677983Y-81930000D01*
X115843091Y-81930000D01*
X115843091Y-81672568D01*
X115940299Y-81672568D01*
X115945413Y-81723248D01*
X115954925Y-81772965D01*
X115971956Y-81823235D01*
X115979623Y-81838653D01*
X116009023Y-81877774D01*
X116048865Y-81907209D01*
X116081228Y-81921451D01*
X116129986Y-81934202D01*
X116183371Y-81941640D01*
X116238383Y-81945041D01*
X116276378Y-81945631D01*
X116329652Y-81944077D01*
X116385707Y-81938335D01*
X116435193Y-81928362D01*
X116483705Y-81911784D01*
X116504745Y-81901423D01*
X116545901Y-81871685D01*
X116579792Y-81832481D01*
X116603820Y-81789685D01*
X116618073Y-81752679D01*
X116631112Y-81702809D01*
X116639738Y-81653310D01*
X116646012Y-81597577D01*
X116649443Y-81546370D01*
X116651241Y-81490835D01*
X116651535Y-81455436D01*
X116650718Y-81396845D01*
X116648267Y-81342583D01*
X116644182Y-81292650D01*
X116642989Y-81283489D01*
X116797836Y-81283489D01*
X116799484Y-81332921D01*
X116805403Y-81383033D01*
X116817208Y-81431271D01*
X116832274Y-81466915D01*
X116861497Y-81506858D01*
X116902149Y-81538028D01*
X116949022Y-81558750D01*
X117000888Y-81571974D01*
X117056106Y-81580095D01*
X117111459Y-81584396D01*
X117164133Y-81585999D01*
X117182763Y-81586106D01*
X117285101Y-81586106D01*
X117285101Y-81930000D01*
X117464131Y-81930000D01*
X117464131Y-80976475D01*
X117245778Y-80976475D01*
X117192638Y-80977143D01*
X117143434Y-80979147D01*
X117089584Y-80983314D01*
X117033922Y-80990607D01*
X116985974Y-81000518D01*
X116973691Y-81003831D01*
X116924142Y-81022270D01*
X116879510Y-81049920D01*
X116843088Y-81089039D01*
X116837892Y-81097131D01*
X116816769Y-81143561D01*
X116804447Y-81194525D01*
X116798814Y-81247125D01*
X116798151Y-81271765D01*
X116797836Y-81283489D01*
X116642989Y-81283489D01*
X116637124Y-81238446D01*
X116627713Y-81190475D01*
X116618073Y-81155261D01*
X116598351Y-81106229D01*
X116569302Y-81060265D01*
X116532989Y-81024038D01*
X116504745Y-81005296D01*
X116454390Y-80983808D01*
X116400516Y-80970611D01*
X116346338Y-80963622D01*
X116294672Y-80961018D01*
X116276378Y-80960844D01*
X116224557Y-80962071D01*
X116171889Y-80966479D01*
X116120993Y-80975269D01*
X116083182Y-80986489D01*
X116037031Y-81010418D01*
X116001528Y-81044100D01*
X115983775Y-81071974D01*
X115965763Y-81119256D01*
X115954848Y-81172608D01*
X115949861Y-81222399D01*
X115948848Y-81242700D01*
X116123726Y-81242700D01*
X116135601Y-81193962D01*
X116156892Y-81149296D01*
X116170132Y-81134256D01*
X116216053Y-81111578D01*
X116267261Y-81105305D01*
X116276378Y-81105191D01*
X116325144Y-81108886D01*
X116372136Y-81122777D01*
X116395324Y-81136454D01*
X116429341Y-81175248D01*
X116448827Y-81220271D01*
X116454919Y-81242700D01*
X116464193Y-81295799D01*
X116469139Y-81347037D01*
X116471663Y-81398256D01*
X116472505Y-81455436D01*
X116471663Y-81511974D01*
X116469139Y-81562552D01*
X116464193Y-81613057D01*
X116454919Y-81665240D01*
X116438295Y-81714585D01*
X116410219Y-81757047D01*
X116395324Y-81770265D01*
X116348265Y-81792529D01*
X116299568Y-81800526D01*
X116276378Y-81801284D01*
X116225423Y-81798138D01*
X116177351Y-81785034D01*
X116160362Y-81774661D01*
X116130892Y-81732467D01*
X116116914Y-81681782D01*
X116115422Y-81672568D01*
X115940299Y-81672568D01*
X115843091Y-81672568D01*
X115843091Y-80976475D01*
X115631821Y-80976475D01*
X115479169Y-81429790D01*
X115463782Y-81429790D01*
X115308443Y-80976475D01*
X115099860Y-80976475D01*
X115099860Y-81930000D01*
X114850397Y-81930000D01*
X114886065Y-81920876D01*
X114934282Y-81903634D01*
X114963328Y-81891165D01*
X114963328Y-81717752D01*
X114915187Y-81741555D01*
X114867044Y-81762926D01*
X114820589Y-81780263D01*
X114812875Y-81782721D01*
X114763098Y-81794740D01*
X114712597Y-81800631D01*
X114689043Y-81801284D01*
X114637920Y-81798582D01*
X114585823Y-81787605D01*
X114540623Y-81763288D01*
X114534926Y-81758053D01*
X114508433Y-81716424D01*
X114495697Y-81667671D01*
X114491493Y-81612863D01*
X114491451Y-81606133D01*
X114495710Y-81554705D01*
X114513012Y-81507035D01*
X114521737Y-81495247D01*
X114562831Y-81467587D01*
X114612495Y-81455094D01*
X114626029Y-81453482D01*
X114676708Y-81449515D01*
X114701500Y-81449085D01*
X114753713Y-81451326D01*
X114809824Y-81457081D01*
X114866409Y-81465022D01*
X114920474Y-81473987D01*
X114939637Y-81477418D01*
X114897627Y-80976475D01*
X114358583Y-80976475D01*
X114358583Y-81120823D01*
X114742044Y-81120823D01*
X114756210Y-81304738D01*
X114706244Y-81304738D01*
X114694661Y-81304738D01*
X114643845Y-81307393D01*
X114606245Y-81310355D01*
X114554588Y-81317973D01*
X114503480Y-81329571D01*
X114455395Y-81346220D01*
X114434787Y-81356029D01*
X114393021Y-81384708D01*
X114358938Y-81424692D01*
X114345394Y-81450062D01*
X114329819Y-81496607D01*
X114321271Y-81547135D01*
X114318145Y-81599299D01*
X114318039Y-81611751D01*
X113792428Y-81611751D01*
X113792428Y-81270055D01*
X113786810Y-81184326D01*
X113841276Y-81228534D01*
X114093335Y-81381919D01*
X114093335Y-81199713D01*
X113792428Y-80976475D01*
X113618771Y-80976475D01*
X113618771Y-81930000D01*
X113124857Y-81930000D01*
X113126866Y-81929511D01*
X113173529Y-81909469D01*
X113210935Y-81877552D01*
X113219923Y-81866252D01*
X113245972Y-81819688D01*
X113263651Y-81772624D01*
X113277808Y-81721905D01*
X113288182Y-81670076D01*
X113296007Y-81614180D01*
X113300687Y-81563032D01*
X113303495Y-81508896D01*
X113304431Y-81451772D01*
X113303715Y-81402514D01*
X113300967Y-81346758D01*
X113296159Y-81294660D01*
X113289290Y-81246220D01*
X113278671Y-81194330D01*
X113275122Y-81180418D01*
X113261061Y-81131822D01*
X113241882Y-81082607D01*
X113218457Y-81041688D01*
X113181749Y-81005041D01*
X113137030Y-80981974D01*
X113126133Y-80978429D01*
X113074052Y-80967713D01*
X113025300Y-80962922D01*
X112974989Y-80960998D01*
X112954431Y-80960844D01*
X112901812Y-80961943D01*
X112850534Y-80965807D01*
X112799249Y-80974308D01*
X112783705Y-80978429D01*
X112737202Y-80999099D01*
X112698480Y-81032970D01*
X112692114Y-81041200D01*
X112666855Y-81085615D01*
X112647875Y-81135539D01*
X112635450Y-81178953D01*
X112623934Y-81230972D01*
X112616315Y-81279950D01*
X112610774Y-81332981D01*
X112607310Y-81390065D01*
X112606012Y-81440731D01*
X112605967Y-81448841D01*
X112605896Y-81461786D01*
X112142537Y-81461786D01*
X112126772Y-81448520D01*
X112087998Y-81414627D01*
X112049633Y-81379308D01*
X112020202Y-81350411D01*
X111990638Y-81310847D01*
X111983810Y-81296189D01*
X111974275Y-81247323D01*
X111973796Y-81230488D01*
X111978531Y-81179586D01*
X111987229Y-81154284D01*
X112023048Y-81120552D01*
X112032658Y-81116671D01*
X112083358Y-81106806D01*
X112123761Y-81105191D01*
X112173256Y-81107875D01*
X112215596Y-81117404D01*
X112256150Y-81145793D01*
X112263712Y-81157215D01*
X112279069Y-81203643D01*
X112283251Y-81236106D01*
X112462526Y-81236106D01*
X112458099Y-81184906D01*
X112449250Y-81134824D01*
X112432873Y-81084423D01*
X112425401Y-81069043D01*
X112393351Y-81027019D01*
X112352319Y-80998174D01*
X112323307Y-80985757D01*
X112273528Y-80972619D01*
X112219306Y-80964955D01*
X112163615Y-80961452D01*
X112125226Y-80960844D01*
X112071670Y-80962024D01*
X112017474Y-80966264D01*
X111965446Y-80974720D01*
X111927145Y-80985512D01*
X111880754Y-81008960D01*
X111843211Y-81045524D01*
X111828471Y-81070020D01*
X111811645Y-81116909D01*
X111802410Y-81169802D01*
X111799178Y-81219159D01*
X111798918Y-81239281D01*
X111801872Y-81291407D01*
X111811738Y-81339429D01*
X111819923Y-81361646D01*
X111845548Y-81405638D01*
X111879048Y-81446693D01*
X111899790Y-81468381D01*
X111936946Y-81504941D01*
X111974406Y-81539883D01*
X112012172Y-81573206D01*
X112050244Y-81604912D01*
X112091994Y-81637839D01*
X112134511Y-81669981D01*
X112175401Y-81700006D01*
X112220395Y-81732315D01*
X112261025Y-81760983D01*
X112261025Y-81773684D01*
X111786217Y-81773684D01*
X111626651Y-81773684D01*
X111400802Y-80976475D01*
X111151430Y-80976475D01*
X110979651Y-81570474D01*
X110875680Y-81930000D01*
X109941939Y-81930000D01*
X109941939Y-80976475D01*
X109892970Y-80976475D01*
X109841641Y-80976475D01*
X109788925Y-80976475D01*
X109779762Y-80976475D01*
X109726845Y-80977312D01*
X109677910Y-80979823D01*
X109636880Y-80983558D01*
X109579521Y-80990514D01*
X109527246Y-80999839D01*
X109472682Y-81013713D01*
X109425038Y-81030814D01*
X109389706Y-81048039D01*
X109349177Y-81075592D01*
X109311209Y-81114071D01*
X109284239Y-81154925D01*
X109265875Y-81195806D01*
X109251695Y-81242692D01*
X109240998Y-81297012D01*
X109234601Y-81349488D01*
X109230762Y-81407425D01*
X109229566Y-81457878D01*
X109229519Y-81459877D01*
X109229483Y-81470823D01*
X109023195Y-81470823D01*
X108883147Y-80976475D01*
X108633775Y-80976475D01*
X108461996Y-81570474D01*
X108358025Y-81930000D01*
X108034881Y-81930000D01*
X108043009Y-81928362D01*
X108091521Y-81911784D01*
X108112560Y-81901423D01*
X108153716Y-81871685D01*
X108187608Y-81832481D01*
X108211635Y-81789685D01*
X108225889Y-81752679D01*
X108238927Y-81702809D01*
X108247554Y-81653310D01*
X108253828Y-81597577D01*
X108257259Y-81546370D01*
X108259056Y-81490835D01*
X108259350Y-81455436D01*
X108258534Y-81396845D01*
X108256083Y-81342583D01*
X108251998Y-81292650D01*
X108244940Y-81238446D01*
X108235529Y-81190475D01*
X108225889Y-81155261D01*
X108206167Y-81106229D01*
X108177118Y-81060265D01*
X108140805Y-81024038D01*
X108112560Y-81005296D01*
X108062206Y-80983808D01*
X108008332Y-80970611D01*
X107954154Y-80963622D01*
X107902488Y-80961018D01*
X107884193Y-80960844D01*
X107832373Y-80962071D01*
X107779704Y-80966479D01*
X107728809Y-80975269D01*
X107690997Y-80986489D01*
X107644847Y-81010418D01*
X107609344Y-81044100D01*
X107591590Y-81071974D01*
X107573579Y-81119256D01*
X107562664Y-81172608D01*
X107557676Y-81222399D01*
X107556664Y-81242700D01*
X107731542Y-81242700D01*
X107743417Y-81193962D01*
X107764708Y-81149296D01*
X107777948Y-81134256D01*
X107823869Y-81111578D01*
X107875077Y-81105305D01*
X107884193Y-81105191D01*
X107932960Y-81108886D01*
X107979952Y-81122777D01*
X108003140Y-81136454D01*
X108037157Y-81175248D01*
X108056643Y-81220271D01*
X108062735Y-81242700D01*
X108072009Y-81295799D01*
X108076954Y-81347037D01*
X108079479Y-81398256D01*
X108080320Y-81455436D01*
X108079479Y-81511974D01*
X108076954Y-81562552D01*
X108072009Y-81613057D01*
X108062735Y-81665240D01*
X108046111Y-81714585D01*
X108018035Y-81757047D01*
X108003140Y-81770265D01*
X107956081Y-81792529D01*
X107907383Y-81800526D01*
X107884193Y-81801284D01*
X107833238Y-81798138D01*
X107785167Y-81785034D01*
X107768178Y-81774661D01*
X107738708Y-81732467D01*
X107724730Y-81681782D01*
X107723237Y-81672568D01*
X107548115Y-81672568D01*
X107437004Y-81672568D01*
X107437004Y-78362882D01*
X107587438Y-78362882D01*
X107590324Y-78413667D01*
X107601407Y-78464408D01*
X107616992Y-78498192D01*
X107650585Y-78534704D01*
X107696010Y-78558979D01*
X107717131Y-78565847D01*
X107766924Y-78576280D01*
X107821445Y-78582366D01*
X107877629Y-78585148D01*
X107916433Y-78585631D01*
X107972236Y-78584556D01*
X108022101Y-78581330D01*
X108071820Y-78575010D01*
X108123063Y-78563161D01*
X108171091Y-78541774D01*
X108209556Y-78508373D01*
X108224424Y-78485980D01*
X108241906Y-78438479D01*
X108249601Y-78389291D01*
X108251183Y-78337559D01*
X108251046Y-78331374D01*
X108078855Y-78331374D01*
X108070936Y-78379920D01*
X108062002Y-78398297D01*
X108022648Y-78427295D01*
X108009490Y-78431514D01*
X107961153Y-78439137D01*
X107912189Y-78441245D01*
X107903733Y-78441284D01*
X107853095Y-78439379D01*
X107803765Y-78430642D01*
X107790404Y-78425163D01*
X107761553Y-78385230D01*
X107759630Y-78365080D01*
X107777215Y-78317941D01*
X107819367Y-78291304D01*
X107836566Y-78284968D01*
X107883625Y-78271687D01*
X107932322Y-78261063D01*
X107955512Y-78256636D01*
X108008376Y-78245721D01*
X108060220Y-78232749D01*
X108108353Y-78217474D01*
X108128680Y-78209497D01*
X108172330Y-78185966D01*
X108210225Y-78150695D01*
X108215387Y-78143307D01*
X108234804Y-78096535D01*
X108236298Y-78084445D01*
X108423726Y-78084445D01*
X108593230Y-78084445D01*
X108604312Y-78034789D01*
X108630038Y-77990791D01*
X108631821Y-77989190D01*
X108679360Y-77968185D01*
X108727564Y-77964033D01*
X108778443Y-77967159D01*
X108828517Y-77979856D01*
X108841870Y-77986259D01*
X108879393Y-78020571D01*
X108898534Y-78060509D01*
X108909287Y-78109994D01*
X108914104Y-78163137D01*
X108915142Y-78208276D01*
X108913521Y-78261465D01*
X108907990Y-78310607D01*
X108898534Y-78349937D01*
X108873941Y-78394673D01*
X108841137Y-78420523D01*
X108792044Y-78436093D01*
X108739927Y-78441101D01*
X108726343Y-78441284D01*
X108676795Y-78437076D01*
X108633286Y-78419302D01*
X108604745Y-78379648D01*
X108591765Y-78337236D01*
X108423726Y-78337236D01*
X108427422Y-78388655D01*
X108436333Y-78437494D01*
X108453701Y-78484578D01*
X108455477Y-78487934D01*
X108487494Y-78528466D01*
X108529782Y-78555638D01*
X108549267Y-78563405D01*
X108600311Y-78576059D01*
X108651562Y-78582505D01*
X108704288Y-78585284D01*
X108733182Y-78585631D01*
X108782990Y-78584446D01*
X108835500Y-78580068D01*
X108888126Y-78571115D01*
X108937916Y-78556007D01*
X108947627Y-78551926D01*
X108990503Y-78526127D01*
X109024792Y-78491170D01*
X109050495Y-78447054D01*
X109054605Y-78437131D01*
X109069836Y-78386129D01*
X109079189Y-78331743D01*
X109084143Y-78277168D01*
X109085989Y-78225198D01*
X109086042Y-78217313D01*
X109262944Y-78217313D01*
X109264410Y-78273000D01*
X109761444Y-78273000D01*
X109755066Y-78321979D01*
X109741251Y-78370945D01*
X109739218Y-78375582D01*
X109707156Y-78415022D01*
X109686706Y-78426385D01*
X109637349Y-78438432D01*
X109586566Y-78441284D01*
X109535057Y-78437151D01*
X109494975Y-78422477D01*
X109462302Y-78383483D01*
X109449302Y-78351891D01*
X109275645Y-78351891D01*
X109284925Y-78399989D01*
X109300203Y-78449855D01*
X109321807Y-78493063D01*
X109355627Y-78531070D01*
X109400667Y-78558325D01*
X109415596Y-78564138D01*
X109463395Y-78576375D01*
X109516365Y-78583091D01*
X109565267Y-78585442D01*
X109585101Y-78585631D01*
X109634359Y-78584420D01*
X109686228Y-78579947D01*
X109738122Y-78570800D01*
X109787087Y-78555363D01*
X109796615Y-78551193D01*
X109838718Y-78524922D01*
X109872521Y-78489159D01*
X109898023Y-78443902D01*
X109902128Y-78433712D01*
X109917358Y-78381434D01*
X109925758Y-78333267D01*
X109931143Y-78278532D01*
X109933358Y-78226388D01*
X109933579Y-78204124D01*
X110103628Y-78204124D01*
X110104616Y-78257865D01*
X110107578Y-78306797D01*
X110113530Y-78357808D01*
X110123624Y-78408091D01*
X110131716Y-78435177D01*
X110152911Y-78481326D01*
X110184986Y-78521621D01*
X110226238Y-78550949D01*
X110273293Y-78569238D01*
X110325105Y-78579907D01*
X110378686Y-78584784D01*
X110415770Y-78585631D01*
X110466752Y-78583124D01*
X110517246Y-78572938D01*
X110530809Y-78567801D01*
X110572302Y-78539896D01*
X110606280Y-78500390D01*
X110617515Y-78500390D01*
X110617515Y-78866999D01*
X110786775Y-78866999D01*
X110786775Y-78313545D01*
X110915003Y-78313545D01*
X110917018Y-78363904D01*
X110924102Y-78413370D01*
X110939687Y-78463491D01*
X110947243Y-78478897D01*
X110977491Y-78517869D01*
X111020241Y-78547224D01*
X111055687Y-78561451D01*
X111103710Y-78573140D01*
X111155058Y-78580318D01*
X111206675Y-78584120D01*
X111255885Y-78585537D01*
X111273307Y-78585631D01*
X111325560Y-78584712D01*
X111380618Y-78581318D01*
X111429317Y-78575422D01*
X111477189Y-78565622D01*
X111498011Y-78559497D01*
X111542890Y-78539361D01*
X111581679Y-78508782D01*
X111609385Y-78469371D01*
X111627111Y-78419340D01*
X111635260Y-78369175D01*
X111637702Y-78317609D01*
X111637229Y-78289364D01*
X111462351Y-78289364D01*
X111455399Y-78340155D01*
X111440125Y-78382665D01*
X111404086Y-78418211D01*
X111380530Y-78428339D01*
X111330155Y-78438047D01*
X111280753Y-78441081D01*
X111262072Y-78441284D01*
X111212457Y-78439631D01*
X111162538Y-78432482D01*
X111157780Y-78431270D01*
X111114320Y-78407868D01*
X111105268Y-78396343D01*
X111090842Y-78347433D01*
X111089881Y-78326001D01*
X111098658Y-78277629D01*
X111112351Y-78253461D01*
X111148991Y-78219594D01*
X111185868Y-78198506D01*
X111234398Y-78177660D01*
X111281329Y-78160801D01*
X111330704Y-78145017D01*
X111379531Y-78129393D01*
X111429036Y-78111479D01*
X111476700Y-78091253D01*
X111511932Y-78073210D01*
X111554522Y-78044026D01*
X111588878Y-78008148D01*
X111602302Y-77986992D01*
X111620501Y-77938038D01*
X111627989Y-77887892D01*
X111628925Y-77859986D01*
X111626432Y-77806720D01*
X111617817Y-77756011D01*
X111599356Y-77706936D01*
X111597417Y-77703426D01*
X111564683Y-77663501D01*
X111521801Y-77636092D01*
X111491172Y-77624291D01*
X111438225Y-77611926D01*
X111387110Y-77605332D01*
X111335998Y-77601966D01*
X111278925Y-77600844D01*
X111223064Y-77601966D01*
X111173023Y-77605332D01*
X111122961Y-77611926D01*
X111071074Y-77624291D01*
X111025409Y-77644307D01*
X110986717Y-77675031D01*
X110965317Y-77704159D01*
X110945877Y-77753274D01*
X110936918Y-77804594D01*
X110934484Y-77858857D01*
X110934542Y-77865359D01*
X111112351Y-77865359D01*
X111121501Y-77816519D01*
X111132623Y-77792330D01*
X111171717Y-77760728D01*
X111184403Y-77756182D01*
X111233639Y-77747295D01*
X111284542Y-77745191D01*
X111333915Y-77746844D01*
X111382788Y-77753993D01*
X111387369Y-77755205D01*
X111430713Y-77778604D01*
X111438415Y-77787934D01*
X111453066Y-77836544D01*
X111453803Y-77854856D01*
X111434859Y-77900687D01*
X111400069Y-77928374D01*
X111352974Y-77951785D01*
X111306178Y-77970588D01*
X111256567Y-77988267D01*
X111207606Y-78004333D01*
X111159896Y-78020645D01*
X111111525Y-78039460D01*
X111064953Y-78060845D01*
X111030530Y-78080048D01*
X110988718Y-78111144D01*
X110954896Y-78150101D01*
X110941625Y-78173349D01*
X110924388Y-78222880D01*
X110916667Y-78272725D01*
X110915003Y-78313545D01*
X110786775Y-78313545D01*
X110786775Y-77835317D01*
X110617515Y-77835317D01*
X110617515Y-77905903D01*
X110606280Y-77905903D01*
X110570891Y-77870502D01*
X110529881Y-77841430D01*
X110522505Y-77837759D01*
X110474037Y-77823657D01*
X110424082Y-77819703D01*
X110420167Y-77819685D01*
X110368322Y-77821345D01*
X110315825Y-77827306D01*
X110265378Y-77839194D01*
X110228192Y-77854368D01*
X110186575Y-77883811D01*
X110154078Y-77924452D01*
X110132449Y-77971116D01*
X110118517Y-78022627D01*
X110109961Y-78077628D01*
X110105429Y-78132866D01*
X110103741Y-78185496D01*
X110103628Y-78204124D01*
X109933579Y-78204124D01*
X109933635Y-78198506D01*
X109932579Y-78144948D01*
X109929410Y-78096199D01*
X109923044Y-78045402D01*
X109912248Y-77995363D01*
X109903593Y-77968429D01*
X109880715Y-77922376D01*
X109846071Y-77882407D01*
X109801500Y-77853635D01*
X109750400Y-77835732D01*
X109701001Y-77826184D01*
X109651567Y-77821310D01*
X109596336Y-77819685D01*
X109543245Y-77821439D01*
X109489153Y-77827735D01*
X109436693Y-77840293D01*
X109397522Y-77856322D01*
X109356707Y-77883814D01*
X109323715Y-77920798D01*
X109298546Y-77967276D01*
X109294452Y-77977711D01*
X109279221Y-78031027D01*
X109270821Y-78080109D01*
X109265779Y-78132316D01*
X109265437Y-78135853D01*
X109263221Y-78188936D01*
X109262944Y-78217313D01*
X109086042Y-78217313D01*
X109086112Y-78206810D01*
X109085005Y-78152262D01*
X109081682Y-78102557D01*
X109075005Y-78050688D01*
X109063682Y-77999481D01*
X109054605Y-77971849D01*
X109030667Y-77924565D01*
X108998238Y-77886822D01*
X108957318Y-77858619D01*
X108948115Y-77854124D01*
X108901030Y-77837476D01*
X108850938Y-77827252D01*
X108800745Y-77821838D01*
X108744616Y-77819719D01*
X108736112Y-77819685D01*
X108686050Y-77820831D01*
X108635248Y-77824945D01*
X108586269Y-77833149D01*
X108549999Y-77843621D01*
X108505795Y-77866061D01*
X108469768Y-77900913D01*
X108455477Y-77924221D01*
X108437503Y-77973314D01*
X108428086Y-78024300D01*
X108423934Y-78078018D01*
X108423726Y-78084445D01*
X108236298Y-78084445D01*
X108241175Y-78044990D01*
X108241276Y-78036817D01*
X108238486Y-77987019D01*
X108227770Y-77937652D01*
X108212700Y-77905170D01*
X108176772Y-77867865D01*
X108131222Y-77844823D01*
X108114514Y-77839469D01*
X108065628Y-77829036D01*
X108012167Y-77822951D01*
X107957121Y-77820168D01*
X107919120Y-77819685D01*
X107867941Y-77820667D01*
X107816005Y-77824193D01*
X107765934Y-77831226D01*
X107728855Y-77840202D01*
X107680731Y-77861349D01*
X107643332Y-77894581D01*
X107633600Y-77909078D01*
X107615213Y-77955224D01*
X107606581Y-78004974D01*
X107604291Y-78047320D01*
X107772330Y-78047320D01*
X107786947Y-77999101D01*
X107806524Y-77981618D01*
X107854407Y-77967897D01*
X107905555Y-77964188D01*
X107920586Y-77964033D01*
X107969587Y-77965560D01*
X108020237Y-77972826D01*
X108039776Y-77979665D01*
X108070241Y-78020105D01*
X108071772Y-78037306D01*
X108038112Y-78073076D01*
X108027808Y-78077606D01*
X107978144Y-78093869D01*
X107927656Y-78107443D01*
X107879279Y-78119309D01*
X107856105Y-78124745D01*
X107806677Y-78137033D01*
X107758149Y-78151624D01*
X107709018Y-78170559D01*
X107693928Y-78177745D01*
X107650017Y-78205815D01*
X107616976Y-78242219D01*
X107612107Y-78250286D01*
X107594400Y-78296679D01*
X107587824Y-78346002D01*
X107587438Y-78362882D01*
X107437004Y-78362882D01*
X107437004Y-77489733D01*
X119287383Y-77489733D01*
X119287383Y-90456742D01*
G37*
D11*
X107040000Y-70900000D02*
X107040000Y-73500000D01*
X107040000Y-70900000D02*
X157960000Y-70900000D01*
X107040000Y-73500000D02*
X109640000Y-73500000D01*
X107040000Y-74770000D02*
X107040000Y-76100000D01*
X107040000Y-76100000D02*
X108370000Y-76100000D01*
X109640000Y-73500000D02*
X109640000Y-76100000D01*
X109640000Y-76100000D02*
X157960000Y-76100000D01*
X157960000Y-70900000D02*
X157960000Y-76100000D01*
D12*
G36*
X140940388Y-79904661D02*
G01*
X140940388Y-80940389D01*
X139904660Y-80940389D01*
X138868932Y-80940389D01*
X138868932Y-79904661D01*
X138868932Y-78868932D01*
X139904660Y-78868932D01*
X140940388Y-78868932D01*
X140940388Y-79904661D01*
G37*
G36*
X139559417Y-86809515D02*
G01*
X139559417Y-87154758D01*
X139214174Y-87154758D01*
X138868932Y-87154758D01*
X138868932Y-86809515D01*
X138868932Y-86464272D01*
X139214174Y-86464272D01*
X139559417Y-86464272D01*
X139559417Y-86809515D01*
G37*
G36*
X140249903Y-88190486D02*
G01*
X140249903Y-88535728D01*
X139904660Y-88535728D01*
X139559417Y-88535728D01*
X139559417Y-88190486D01*
X139559417Y-87845243D01*
X139904660Y-87845243D01*
X140249903Y-87845243D01*
X140249903Y-88190486D01*
G37*
G36*
X140249903Y-95785826D02*
G01*
X140249903Y-96131068D01*
X139904660Y-96131068D01*
X139559417Y-96131068D01*
X139559417Y-95785826D01*
X139559417Y-95440583D01*
X139904660Y-95440583D01*
X140249903Y-95440583D01*
X140249903Y-95785826D01*
G37*
G36*
X140940388Y-97166796D02*
G01*
X140940388Y-97512039D01*
X140249903Y-97512039D01*
X139559417Y-97512039D01*
X139559417Y-97166796D01*
X139559417Y-96821554D01*
X140249903Y-96821554D01*
X140940388Y-96821554D01*
X140940388Y-97166796D01*
G37*
G36*
X140940388Y-87154758D02*
G01*
X140940388Y-87845243D01*
X140595145Y-87845243D01*
X140249903Y-87845243D01*
X140249903Y-87154758D01*
X140249903Y-86464272D01*
X140595145Y-86464272D01*
X140940388Y-86464272D01*
X140940388Y-87154758D01*
G37*
G36*
X142321359Y-86809515D02*
G01*
X142321359Y-87154758D01*
X141976116Y-87154758D01*
X141630873Y-87154758D01*
X141630873Y-86809515D01*
X141630873Y-86464272D01*
X141976116Y-86464272D01*
X142321359Y-86464272D01*
X142321359Y-86809515D01*
G37*
G36*
X142321359Y-93023884D02*
G01*
X142321359Y-93369127D01*
X141976116Y-93369127D01*
X141630873Y-93369127D01*
X141630873Y-93023884D01*
X141630873Y-92678641D01*
X141976116Y-92678641D01*
X142321359Y-92678641D01*
X142321359Y-93023884D01*
G37*
G36*
X143702330Y-86119029D02*
G01*
X143702330Y-86464272D01*
X143357087Y-86464272D01*
X143011844Y-86464272D01*
X143011844Y-86119029D01*
X143011844Y-85773787D01*
X143357087Y-85773787D01*
X143702330Y-85773787D01*
X143702330Y-86119029D01*
G37*
G36*
X145083301Y-89571457D02*
G01*
X145083301Y-89916699D01*
X144738058Y-89916699D01*
X144392815Y-89916699D01*
X144392815Y-89571457D01*
X144392815Y-89226214D01*
X144738058Y-89226214D01*
X145083301Y-89226214D01*
X145083301Y-89571457D01*
G37*
G36*
X146464272Y-88535728D02*
G01*
X146464272Y-89226214D01*
X146119029Y-89226214D01*
X145773786Y-89226214D01*
X145773786Y-88535728D01*
X145773786Y-87845243D01*
X146119029Y-87845243D01*
X146464272Y-87845243D01*
X146464272Y-88535728D01*
G37*
G36*
X147154757Y-97166796D02*
G01*
X147154757Y-97512039D01*
X146809514Y-97512039D01*
X146464272Y-97512039D01*
X146464272Y-97166796D01*
X146464272Y-96821554D01*
X146809514Y-96821554D01*
X147154757Y-96821554D01*
X147154757Y-97166796D01*
G37*
G36*
X147845242Y-88880971D02*
G01*
X147845242Y-89226214D01*
X147500000Y-89226214D01*
X147154757Y-89226214D01*
X147154757Y-88880971D01*
X147154757Y-88535728D01*
X147500000Y-88535728D01*
X147845242Y-88535728D01*
X147845242Y-88880971D01*
G37*
G36*
X151988155Y-84738059D02*
G01*
X151988155Y-85083301D01*
X151642912Y-85083301D01*
X151297670Y-85083301D01*
X151297670Y-84738059D01*
X151297670Y-84392816D01*
X151642912Y-84392816D01*
X151988155Y-84392816D01*
X151988155Y-84738059D01*
G37*
G36*
X156131068Y-79904661D02*
G01*
X156131068Y-80940389D01*
X155095339Y-80940389D01*
X154059611Y-80940389D01*
X154059611Y-79904661D01*
X154059611Y-78868932D01*
X155095339Y-78868932D01*
X156131068Y-78868932D01*
X156131068Y-79904661D01*
G37*
G36*
X156131068Y-95095340D02*
G01*
X156131068Y-96131068D01*
X155095339Y-96131068D01*
X154059611Y-96131068D01*
X154059611Y-95095340D01*
X154059611Y-94059612D01*
X155095339Y-94059612D01*
X156131068Y-94059612D01*
X156131068Y-95095340D01*
G37*
G36*
X156821553Y-85428544D02*
G01*
X156821553Y-85773787D01*
X157166796Y-85773787D01*
X157512038Y-85773787D01*
X157512038Y-86119029D01*
X157512038Y-86464272D01*
X156821553Y-86464272D01*
X156131068Y-86464272D01*
X156131068Y-85773787D01*
X156131068Y-85083301D01*
X156476310Y-85083301D01*
X156821553Y-85083301D01*
X156821553Y-85428544D01*
G37*
G36*
X142321359Y-82321360D02*
G01*
X139904660Y-82321360D01*
X137487961Y-82321360D01*
X137487961Y-79904661D01*
X137487961Y-78178447D01*
X138178446Y-78178447D01*
X138178446Y-79904661D01*
X138178446Y-81630874D01*
X139904660Y-81630874D01*
X141630873Y-81630874D01*
X141630873Y-79904661D01*
X141630873Y-78178447D01*
X139904660Y-78178447D01*
X138178446Y-78178447D01*
X137487961Y-78178447D01*
X137487961Y-77487962D01*
X139904660Y-77487962D01*
X142321359Y-77487962D01*
X142321359Y-79904661D01*
X142321359Y-82321360D01*
G37*
G36*
X157512038Y-82321360D02*
G01*
X155095339Y-82321360D01*
X152678640Y-82321360D01*
X152678640Y-79904661D01*
X152678640Y-78178447D01*
X153369126Y-78178447D01*
X153369126Y-79904661D01*
X153369126Y-81630874D01*
X155095339Y-81630874D01*
X156821553Y-81630874D01*
X156821553Y-79904661D01*
X156821553Y-78178447D01*
X155095339Y-78178447D01*
X153369126Y-78178447D01*
X152678640Y-78178447D01*
X152678640Y-77487962D01*
X155095339Y-77487962D01*
X157512038Y-77487962D01*
X157512038Y-79904661D01*
X157512038Y-82321360D01*
G37*
G36*
X157512038Y-97512039D02*
G01*
X155095339Y-97512039D01*
X152678640Y-97512039D01*
X152678640Y-95095340D01*
X152678640Y-93369127D01*
X153369126Y-93369127D01*
X153369126Y-95095340D01*
X153369126Y-96821554D01*
X155095339Y-96821554D01*
X156821553Y-96821554D01*
X156821553Y-95095340D01*
X156821553Y-93369127D01*
X155095339Y-93369127D01*
X153369126Y-93369127D01*
X152678640Y-93369127D01*
X152678640Y-92678641D01*
X155095339Y-92678641D01*
X157512038Y-92678641D01*
X157512038Y-95095340D01*
X157512038Y-97512039D01*
G37*
G36*
X138868932Y-95785826D02*
G01*
X138868932Y-97512039D01*
X138523689Y-97512039D01*
X138178446Y-97512039D01*
X138178446Y-97166796D01*
X138178446Y-96821554D01*
X137833204Y-96821554D01*
X137487961Y-96821554D01*
X137487961Y-96131068D01*
X137487961Y-95440583D01*
X137833204Y-95440583D01*
X138178446Y-95440583D01*
X138178446Y-95095340D01*
X138178446Y-94750097D01*
X137833204Y-94750097D01*
X137487961Y-94750097D01*
X137487961Y-94404855D01*
X137487961Y-94059612D01*
X138178446Y-94059612D01*
X138868932Y-94059612D01*
X138868932Y-95785826D01*
G37*
G36*
X147154757Y-86809515D02*
G01*
X147154757Y-87154758D01*
X147500000Y-87154758D01*
X147845242Y-87154758D01*
X147845242Y-86809515D01*
X147845242Y-86464272D01*
X148190485Y-86464272D01*
X148535728Y-86464272D01*
X148535728Y-86809515D01*
X148535728Y-87154758D01*
X148190485Y-87154758D01*
X147845242Y-87154758D01*
X147845242Y-87500000D01*
X147845242Y-87845243D01*
X147154757Y-87845243D01*
X146464272Y-87845243D01*
X146464272Y-87154758D01*
X146464272Y-86464272D01*
X146809514Y-86464272D01*
X147154757Y-86464272D01*
X147154757Y-86809515D01*
G37*
G36*
X147845242Y-86119029D02*
G01*
X147845242Y-86464272D01*
X147500000Y-86464272D01*
X147154757Y-86464272D01*
X147154757Y-86119029D01*
X147154757Y-85773787D01*
X147500000Y-85773787D01*
X147845242Y-85773787D01*
X147845242Y-86119029D01*
G37*
G36*
X147154757Y-84047573D02*
G01*
X147154757Y-84392816D01*
X147500000Y-84392816D01*
X147845242Y-84392816D01*
X147845242Y-84047573D01*
X147845242Y-83702330D01*
X148535728Y-83702330D01*
X149226213Y-83702330D01*
X149226213Y-84047573D01*
X149226213Y-84392816D01*
X148880971Y-84392816D01*
X148535728Y-84392816D01*
X148535728Y-84738059D01*
X148535728Y-85083301D01*
X147845242Y-85083301D01*
X147154757Y-85083301D01*
X147154757Y-84738059D01*
X147154757Y-84392816D01*
X146809514Y-84392816D01*
X146464272Y-84392816D01*
X146464272Y-84047573D01*
X146464272Y-83702330D01*
X146809514Y-83702330D01*
X147154757Y-83702330D01*
X147154757Y-84047573D01*
G37*
G36*
X147845242Y-83357088D02*
G01*
X147845242Y-83702330D01*
X147500000Y-83702330D01*
X147154757Y-83702330D01*
X147154757Y-83357088D01*
X147154757Y-83011845D01*
X147500000Y-83011845D01*
X147845242Y-83011845D01*
X147845242Y-83357088D01*
G37*
G36*
X146464272Y-95440583D02*
G01*
X146464272Y-96131068D01*
X146119029Y-96131068D01*
X145773786Y-96131068D01*
X145773786Y-96821554D01*
X145773786Y-97512039D01*
X145428543Y-97512039D01*
X145083301Y-97512039D01*
X145083301Y-97166796D01*
X145083301Y-96821554D01*
X144738058Y-96821554D01*
X144392815Y-96821554D01*
X144392815Y-96476311D01*
X144392815Y-96131068D01*
X144047572Y-96131068D01*
X143702330Y-96131068D01*
X143702330Y-96821554D01*
X143702330Y-97512039D01*
X142666602Y-97512039D01*
X141630873Y-97512039D01*
X141630873Y-97166796D01*
X141630873Y-96821554D01*
X141285631Y-96821554D01*
X140940388Y-96821554D01*
X140940388Y-96476311D01*
X140940388Y-96131068D01*
X141285631Y-96131068D01*
X141630873Y-96131068D01*
X141630873Y-96476311D01*
X141630873Y-96821554D01*
X142321359Y-96821554D01*
X143011844Y-96821554D01*
X143011844Y-96476311D01*
X143011844Y-96131068D01*
X142666602Y-96131068D01*
X142321359Y-96131068D01*
X142321359Y-95785826D01*
X142321359Y-95440583D01*
X143357087Y-95440583D01*
X144392815Y-95440583D01*
X144392815Y-95785826D01*
X144392815Y-96131068D01*
X144738058Y-96131068D01*
X145083301Y-96131068D01*
X145083301Y-95785826D01*
X145083301Y-95440583D01*
X145428543Y-95440583D01*
X145773786Y-95440583D01*
X145773786Y-95095340D01*
X145773786Y-94750097D01*
X146119029Y-94750097D01*
X146464272Y-94750097D01*
X146464272Y-95440583D01*
G37*
G36*
X148190485Y-94750097D02*
G01*
X148535728Y-94750097D01*
X148535728Y-95095340D01*
X148535728Y-95440583D01*
X149571456Y-95440583D01*
X150607184Y-95440583D01*
X150607184Y-95095340D01*
X150607184Y-94750097D01*
X150952427Y-94750097D01*
X151297670Y-94750097D01*
X151297670Y-95440583D01*
X151297670Y-96131068D01*
X151642912Y-96131068D01*
X151988155Y-96131068D01*
X151988155Y-96476311D01*
X151988155Y-96821554D01*
X151642912Y-96821554D01*
X151297670Y-96821554D01*
X151297670Y-97166796D01*
X151297670Y-97512039D01*
X150952427Y-97512039D01*
X150607184Y-97512039D01*
X150607184Y-97166796D01*
X150607184Y-96821554D01*
X150261941Y-96821554D01*
X149916699Y-96821554D01*
X149916699Y-96476311D01*
X149916699Y-96131068D01*
X149571456Y-96131068D01*
X149226213Y-96131068D01*
X149226213Y-96476311D01*
X149226213Y-96821554D01*
X148880971Y-96821554D01*
X148535728Y-96821554D01*
X148535728Y-97166796D01*
X148535728Y-97512039D01*
X148190485Y-97512039D01*
X147845242Y-97512039D01*
X147845242Y-97166796D01*
X147845242Y-96821554D01*
X147500000Y-96821554D01*
X147154757Y-96821554D01*
X147154757Y-96476311D01*
X147154757Y-96131068D01*
X147500000Y-96131068D01*
X147845242Y-96131068D01*
X147845242Y-95440583D01*
X147845242Y-94750097D01*
X148190485Y-94750097D01*
G37*
G36*
X157512038Y-84392816D02*
G01*
X156131068Y-84392816D01*
X154750097Y-84392816D01*
X154750097Y-85083301D01*
X154750097Y-85773787D01*
X154059611Y-85773787D01*
X153369126Y-85773787D01*
X153369126Y-86119029D01*
X153369126Y-86464272D01*
X153023883Y-86464272D01*
X152678640Y-86464272D01*
X152678640Y-86119029D01*
X152678640Y-85773787D01*
X152333398Y-85773787D01*
X151988155Y-85773787D01*
X151988155Y-86119029D01*
X151988155Y-86464272D01*
X151642912Y-86464272D01*
X151297670Y-86464272D01*
X151297670Y-86809515D01*
X151297670Y-87154758D01*
X153023883Y-87154758D01*
X154750097Y-87154758D01*
X154750097Y-86809515D01*
X154750097Y-86464272D01*
X155440582Y-86464272D01*
X156131068Y-86464272D01*
X156131068Y-86809515D01*
X156131068Y-87154758D01*
X156821553Y-87154758D01*
X157512038Y-87154758D01*
X157512038Y-88535728D01*
X157512038Y-89916699D01*
X156821553Y-89916699D01*
X156131068Y-89916699D01*
X156131068Y-90607185D01*
X156131068Y-91297670D01*
X156821553Y-91297670D01*
X157512038Y-91297670D01*
X157512038Y-91642913D01*
X157512038Y-91988156D01*
X156131068Y-91988156D01*
X154750097Y-91988156D01*
X154750097Y-91642913D01*
X154750097Y-91297670D01*
X154059611Y-91297670D01*
X153369126Y-91297670D01*
X153369126Y-91642913D01*
X153369126Y-91988156D01*
X152678640Y-91988156D01*
X151988155Y-91988156D01*
X151988155Y-92333398D01*
X151988155Y-92678641D01*
X151297670Y-92678641D01*
X150607184Y-92678641D01*
X150607184Y-93023884D01*
X150607184Y-93369127D01*
X150261941Y-93369127D01*
X149916699Y-93369127D01*
X149916699Y-94059612D01*
X149916699Y-94750097D01*
X149226213Y-94750097D01*
X148535728Y-94750097D01*
X148535728Y-94404855D01*
X148535728Y-94059612D01*
X148190485Y-94059612D01*
X147845242Y-94059612D01*
X147845242Y-94404855D01*
X147845242Y-94750097D01*
X147500000Y-94750097D01*
X147154757Y-94750097D01*
X147154757Y-94404855D01*
X147154757Y-94059612D01*
X146809514Y-94059612D01*
X146464272Y-94059612D01*
X146464272Y-93714369D01*
X146464272Y-93369127D01*
X147845242Y-93369127D01*
X148190485Y-93369127D01*
X148535728Y-93369127D01*
X148535728Y-92678641D01*
X148535728Y-91988156D01*
X149226213Y-91988156D01*
X149226213Y-92333398D01*
X149226213Y-92678641D01*
X149916699Y-92678641D01*
X150607184Y-92678641D01*
X150607184Y-92333398D01*
X150607184Y-91988156D01*
X151297670Y-91988156D01*
X151642912Y-91988156D01*
X151988155Y-91988156D01*
X151988155Y-91642913D01*
X151988155Y-91297670D01*
X151642912Y-91297670D01*
X151297670Y-91297670D01*
X151297670Y-91642913D01*
X151297670Y-91988156D01*
X150607184Y-91988156D01*
X149916699Y-91988156D01*
X149226213Y-91988156D01*
X148535728Y-91988156D01*
X148190485Y-91988156D01*
X147845242Y-91988156D01*
X147845242Y-92678641D01*
X147845242Y-93023884D01*
X147845242Y-93369127D01*
X146464272Y-93369127D01*
X146119029Y-93369127D01*
X145773786Y-93369127D01*
X145773786Y-93714369D01*
X145773786Y-94059612D01*
X145428543Y-94059612D01*
X145083301Y-94059612D01*
X145083301Y-94404855D01*
X145083301Y-94750097D01*
X143357087Y-94750097D01*
X141630873Y-94750097D01*
X141630873Y-95095340D01*
X141630873Y-95440583D01*
X141285631Y-95440583D01*
X140940388Y-95440583D01*
X140940388Y-95095340D01*
X140940388Y-94750097D01*
X140595145Y-94750097D01*
X140249903Y-94750097D01*
X140249903Y-94404855D01*
X140249903Y-94059612D01*
X139904660Y-94059612D01*
X139559417Y-94059612D01*
X139559417Y-93714369D01*
X139559417Y-93369127D01*
X139904660Y-93369127D01*
X140249903Y-93369127D01*
X140249903Y-92678641D01*
X140249903Y-91988156D01*
X140940388Y-91988156D01*
X140940388Y-93023884D01*
X140940388Y-94059612D01*
X141976116Y-94059612D01*
X143011844Y-94059612D01*
X143011844Y-93369127D01*
X144392815Y-93369127D01*
X144738058Y-93369127D01*
X145083301Y-93369127D01*
X145083301Y-93023884D01*
X145083301Y-92678641D01*
X144738058Y-92678641D01*
X144392815Y-92678641D01*
X144392815Y-93023884D01*
X144392815Y-93369127D01*
X143011844Y-93369127D01*
X143011844Y-93023884D01*
X143011844Y-91988156D01*
X141976116Y-91988156D01*
X140940388Y-91988156D01*
X140249903Y-91988156D01*
X139904660Y-91988156D01*
X139559417Y-91988156D01*
X139559417Y-92333398D01*
X139559417Y-92678641D01*
X139214174Y-92678641D01*
X138868932Y-92678641D01*
X138868932Y-93023884D01*
X138868932Y-93369127D01*
X138178446Y-93369127D01*
X137487961Y-93369127D01*
X137487961Y-91988156D01*
X138178446Y-91988156D01*
X138178446Y-92333398D01*
X138178446Y-92678641D01*
X138523689Y-92678641D01*
X138868932Y-92678641D01*
X138868932Y-92333398D01*
X138868932Y-91988156D01*
X138523689Y-91988156D01*
X138178446Y-91988156D01*
X137487961Y-91988156D01*
X137487961Y-91297670D01*
X138868932Y-91297670D01*
X138868932Y-91988156D01*
X139214174Y-91988156D01*
X139559417Y-91988156D01*
X139559417Y-91297670D01*
X139559417Y-90607185D01*
X139214174Y-90607185D01*
X138868932Y-90607185D01*
X138868932Y-91297670D01*
X137487961Y-91297670D01*
X137487961Y-90952428D01*
X137487961Y-88535728D01*
X137833204Y-88535728D01*
X138178446Y-88535728D01*
X138178446Y-88190486D01*
X138178446Y-87845243D01*
X138523689Y-87845243D01*
X138868932Y-87845243D01*
X138868932Y-88535728D01*
X138868932Y-89226214D01*
X138523689Y-89226214D01*
X138178446Y-89226214D01*
X138178446Y-89916699D01*
X138178446Y-90607185D01*
X138523689Y-90607185D01*
X138868932Y-90607185D01*
X138868932Y-90261942D01*
X138868932Y-89916699D01*
X139559417Y-89916699D01*
X140249903Y-89916699D01*
X140249903Y-89571457D01*
X140249903Y-89226214D01*
X140595145Y-89226214D01*
X140940388Y-89226214D01*
X140940388Y-88535728D01*
X140940388Y-87845243D01*
X141630873Y-87845243D01*
X142321359Y-87845243D01*
X142321359Y-87500000D01*
X142321359Y-87154758D01*
X143011844Y-87154758D01*
X143702330Y-87154758D01*
X143702330Y-87500000D01*
X143702330Y-87845243D01*
X144047572Y-87845243D01*
X144392815Y-87845243D01*
X144392815Y-88190486D01*
X144392815Y-88535728D01*
X144047572Y-88535728D01*
X143702330Y-88535728D01*
X143702330Y-88880971D01*
X143702330Y-89226214D01*
X143011844Y-89226214D01*
X142321359Y-89226214D01*
X142321359Y-88880971D01*
X142321359Y-88535728D01*
X141976116Y-88535728D01*
X141630873Y-88535728D01*
X141630873Y-88880971D01*
X141630873Y-89226214D01*
X141976116Y-89226214D01*
X142321359Y-89226214D01*
X142321359Y-89571457D01*
X142321359Y-89916699D01*
X141630873Y-89916699D01*
X140940388Y-89916699D01*
X140940388Y-90607185D01*
X140940388Y-91297670D01*
X141976116Y-91297670D01*
X143011844Y-91297670D01*
X143702330Y-91297670D01*
X143702330Y-91642913D01*
X143702330Y-91988156D01*
X144392815Y-91988156D01*
X145083301Y-91988156D01*
X145083301Y-92333398D01*
X145083301Y-92678641D01*
X145428543Y-92678641D01*
X145773786Y-92678641D01*
X145773786Y-92333398D01*
X145773786Y-91988156D01*
X146464272Y-91988156D01*
X147154757Y-91988156D01*
X147154757Y-91642913D01*
X147154757Y-91297670D01*
X146464272Y-91297670D01*
X145773786Y-91297670D01*
X145773786Y-91642913D01*
X145773786Y-91988156D01*
X145428543Y-91988156D01*
X145083301Y-91988156D01*
X145083301Y-91642913D01*
X145083301Y-91297670D01*
X144392815Y-91297670D01*
X143702330Y-91297670D01*
X143011844Y-91297670D01*
X143011844Y-90952428D01*
X143011844Y-90607185D01*
X144738058Y-90607185D01*
X146464272Y-90607185D01*
X146464272Y-90261942D01*
X146464272Y-89916699D01*
X147154757Y-89916699D01*
X147845242Y-89916699D01*
X147845242Y-90261942D01*
X147845242Y-90607185D01*
X147500000Y-90607185D01*
X147154757Y-90607185D01*
X147154757Y-90952428D01*
X147154757Y-91297670D01*
X147500000Y-91297670D01*
X147845242Y-91297670D01*
X147845242Y-90952428D01*
X147845242Y-90607185D01*
X148190485Y-90607185D01*
X148535728Y-90607185D01*
X148535728Y-90952428D01*
X148535728Y-91297670D01*
X149571456Y-91297670D01*
X150607184Y-91297670D01*
X150607184Y-90952428D01*
X150607184Y-90607185D01*
X151642912Y-90607185D01*
X152678640Y-90607185D01*
X152678640Y-90952428D01*
X152678640Y-91297670D01*
X153023883Y-91297670D01*
X153369126Y-91297670D01*
X153369126Y-90952428D01*
X153369126Y-90607185D01*
X153023883Y-90607185D01*
X152678640Y-90607185D01*
X152678640Y-90261942D01*
X152678640Y-89916699D01*
X153369126Y-89916699D01*
X154059611Y-89916699D01*
X154059611Y-90261942D01*
X154059611Y-90607185D01*
X154404854Y-90607185D01*
X154750097Y-90607185D01*
X154750097Y-90952428D01*
X154750097Y-91297670D01*
X155095339Y-91297670D01*
X155440582Y-91297670D01*
X155440582Y-90607185D01*
X155440582Y-89916699D01*
X155095339Y-89916699D01*
X154750097Y-89916699D01*
X154750097Y-89571457D01*
X154750097Y-89226214D01*
X155785825Y-89226214D01*
X156821553Y-89226214D01*
X156821553Y-88880971D01*
X156821553Y-88535728D01*
X156476310Y-88535728D01*
X156131068Y-88535728D01*
X156131068Y-88190486D01*
X156131068Y-87845243D01*
X155785825Y-87845243D01*
X155440582Y-87845243D01*
X155440582Y-87500000D01*
X155440582Y-87154758D01*
X155095339Y-87154758D01*
X154750097Y-87154758D01*
X154750097Y-87500000D01*
X154750097Y-87845243D01*
X154750097Y-88190486D01*
X154750097Y-88535728D01*
X154404854Y-88535728D01*
X154059611Y-88535728D01*
X154059611Y-88880971D01*
X154059611Y-89226214D01*
X153369126Y-89226214D01*
X152678640Y-89226214D01*
X152678640Y-88880971D01*
X152678640Y-88535728D01*
X153023883Y-88535728D01*
X153369126Y-88535728D01*
X153369126Y-88190486D01*
X153369126Y-87845243D01*
X153023883Y-87845243D01*
X152678640Y-87845243D01*
X152678640Y-88190486D01*
X152678640Y-88535728D01*
X152333398Y-88535728D01*
X151988155Y-88535728D01*
X151988155Y-88880971D01*
X151988155Y-89226214D01*
X152333398Y-89226214D01*
X152678640Y-89226214D01*
X152678640Y-89571457D01*
X152678640Y-89916699D01*
X151642912Y-89916699D01*
X150607184Y-89916699D01*
X150607184Y-90261942D01*
X150607184Y-90607185D01*
X149571456Y-90607185D01*
X148535728Y-90607185D01*
X148535728Y-90261942D01*
X148535728Y-89916699D01*
X148190485Y-89916699D01*
X147845242Y-89916699D01*
X147845242Y-89571457D01*
X147845242Y-89226214D01*
X148535728Y-89226214D01*
X149226213Y-89226214D01*
X149226213Y-88880971D01*
X149226213Y-88535728D01*
X148535728Y-88535728D01*
X147845242Y-88535728D01*
X147845242Y-88190486D01*
X147845242Y-87845243D01*
X148190485Y-87845243D01*
X148535728Y-87845243D01*
X149916699Y-87845243D01*
X149916699Y-88190486D01*
X149916699Y-88535728D01*
X150261941Y-88535728D01*
X150607184Y-88535728D01*
X150607184Y-88190486D01*
X150607184Y-87845243D01*
X150261941Y-87845243D01*
X149916699Y-87845243D01*
X148535728Y-87845243D01*
X148535728Y-87500000D01*
X148535728Y-87154758D01*
X148880971Y-87154758D01*
X149226213Y-87154758D01*
X150607184Y-87154758D01*
X150607184Y-87500000D01*
X150607184Y-87845243D01*
X150952427Y-87845243D01*
X151297670Y-87845243D01*
X151297670Y-87500000D01*
X151297670Y-87154758D01*
X150952427Y-87154758D01*
X150607184Y-87154758D01*
X149226213Y-87154758D01*
X149226213Y-86809515D01*
X149226213Y-86464272D01*
X148880971Y-86464272D01*
X148535728Y-86464272D01*
X148535728Y-85773787D01*
X148535728Y-85083301D01*
X148880971Y-85083301D01*
X149226213Y-85083301D01*
X149226213Y-84738059D01*
X149226213Y-84392816D01*
X149571456Y-84392816D01*
X149916699Y-84392816D01*
X149916699Y-85083301D01*
X149916699Y-85773787D01*
X150952427Y-85773787D01*
X151988155Y-85773787D01*
X151988155Y-85428544D01*
X151988155Y-85083301D01*
X152333398Y-85083301D01*
X152678640Y-85083301D01*
X152678640Y-85428544D01*
X152678640Y-85773787D01*
X153023883Y-85773787D01*
X153369126Y-85773787D01*
X153369126Y-85428544D01*
X153369126Y-85083301D01*
X153023883Y-85083301D01*
X152678640Y-85083301D01*
X152678640Y-84738059D01*
X152678640Y-84392816D01*
X153023883Y-84392816D01*
X153369126Y-84392816D01*
X153369126Y-84047573D01*
X153369126Y-83702330D01*
X153023883Y-83702330D01*
X152678640Y-83702330D01*
X152678640Y-84047573D01*
X152678640Y-84392816D01*
X152333398Y-84392816D01*
X151988155Y-84392816D01*
X151988155Y-84047573D01*
X151988155Y-83702330D01*
X151642912Y-83702330D01*
X151297670Y-83702330D01*
X151297670Y-83357088D01*
X151297670Y-83011845D01*
X151642912Y-83011845D01*
X151988155Y-83011845D01*
X151988155Y-83357088D01*
X151988155Y-83702330D01*
X152333398Y-83702330D01*
X152678640Y-83702330D01*
X152678640Y-83357088D01*
X152678640Y-83011845D01*
X153023883Y-83011845D01*
X153369126Y-83011845D01*
X153369126Y-83357088D01*
X153369126Y-83702330D01*
X153714369Y-83702330D01*
X154059611Y-83702330D01*
X154059611Y-84047573D01*
X154059611Y-84392816D01*
X154404854Y-84392816D01*
X154750097Y-84392816D01*
X154750097Y-84047573D01*
X154750097Y-83702330D01*
X154404854Y-83702330D01*
X154059611Y-83702330D01*
X154059611Y-83357088D01*
X154059611Y-83011845D01*
X154404854Y-83011845D01*
X154750097Y-83011845D01*
X154750097Y-83357088D01*
X154750097Y-83702330D01*
X155440582Y-83702330D01*
X156131068Y-83702330D01*
X156131068Y-83357088D01*
X156131068Y-83011845D01*
X156476310Y-83011845D01*
X156821553Y-83011845D01*
X156821553Y-83357088D01*
X156821553Y-83702330D01*
X157166796Y-83702330D01*
X157512038Y-83702330D01*
X157512038Y-84047573D01*
X157512038Y-84392816D01*
G37*
G36*
X151642912Y-94059612D02*
G01*
X151988155Y-94059612D01*
X151988155Y-94404855D01*
X151988155Y-94750097D01*
X151642912Y-94750097D01*
X151297670Y-94750097D01*
X151297670Y-94404855D01*
X151297670Y-94059612D01*
X151642912Y-94059612D01*
G37*
G36*
X150952427Y-93369127D02*
G01*
X151297670Y-93369127D01*
X151297670Y-93714369D01*
X151297670Y-94059612D01*
X150952427Y-94059612D01*
X150607184Y-94059612D01*
X150607184Y-93714369D01*
X150607184Y-93369127D01*
X150952427Y-93369127D01*
G37*
G36*
X139559417Y-83357088D02*
G01*
X139559417Y-83702330D01*
X139904660Y-83702330D01*
X140249903Y-83702330D01*
X140249903Y-83357088D01*
X140249903Y-83011845D01*
X140940388Y-83011845D01*
X141630873Y-83011845D01*
X141630873Y-83357088D01*
X141630873Y-83702330D01*
X141976116Y-83702330D01*
X142321359Y-83702330D01*
X142321359Y-83357088D01*
X142321359Y-83011845D01*
X142666602Y-83011845D01*
X143011844Y-83011845D01*
X143011844Y-83357088D01*
X143011844Y-83702330D01*
X142666602Y-83702330D01*
X142321359Y-83702330D01*
X142321359Y-84047573D01*
X142321359Y-84392816D01*
X141976116Y-84392816D01*
X141630873Y-84392816D01*
X141630873Y-85428544D01*
X141630873Y-86464272D01*
X141285631Y-86464272D01*
X140940388Y-86464272D01*
X140940388Y-85428544D01*
X140940388Y-84392816D01*
X140595145Y-84392816D01*
X140249903Y-84392816D01*
X140249903Y-85428544D01*
X140249903Y-86464272D01*
X139904660Y-86464272D01*
X139559417Y-86464272D01*
X139559417Y-85773787D01*
X139559417Y-85083301D01*
X139214174Y-85083301D01*
X138868932Y-85083301D01*
X138868932Y-85428544D01*
X138868932Y-85773787D01*
X138523689Y-85773787D01*
X138178446Y-85773787D01*
X138178446Y-86809515D01*
X138178446Y-87845243D01*
X137833204Y-87845243D01*
X137487961Y-87845243D01*
X137487961Y-85773787D01*
X137487961Y-84738059D01*
X138178446Y-84738059D01*
X138178446Y-85083301D01*
X138523689Y-85083301D01*
X138868932Y-85083301D01*
X138868932Y-84738059D01*
X138868932Y-84392816D01*
X138523689Y-84392816D01*
X138178446Y-84392816D01*
X138178446Y-84738059D01*
X137487961Y-84738059D01*
X137487961Y-83702330D01*
X138178446Y-83702330D01*
X138868932Y-83702330D01*
X138868932Y-83357088D01*
X138868932Y-83011845D01*
X139214174Y-83011845D01*
X139559417Y-83011845D01*
X139559417Y-83357088D01*
G37*
G36*
X144392815Y-81285631D02*
G01*
X144392815Y-81630874D01*
X144047572Y-81630874D01*
X143702330Y-81630874D01*
X143702330Y-81976117D01*
X143702330Y-82321360D01*
X144047572Y-82321360D01*
X144392815Y-82321360D01*
X144392815Y-81976117D01*
X144392815Y-81630874D01*
X144738058Y-81630874D01*
X145083301Y-81630874D01*
X145083301Y-81976117D01*
X145083301Y-82321360D01*
X145428543Y-82321360D01*
X145773786Y-82321360D01*
X145773786Y-81976117D01*
X145773786Y-81630874D01*
X146119029Y-81630874D01*
X146464272Y-81630874D01*
X146464272Y-81976117D01*
X146464272Y-82321360D01*
X146809514Y-82321360D01*
X147154757Y-82321360D01*
X147154757Y-82666602D01*
X147154757Y-83011845D01*
X146809514Y-83011845D01*
X146464272Y-83011845D01*
X146464272Y-83357088D01*
X146464272Y-83702330D01*
X146119029Y-83702330D01*
X145773786Y-83702330D01*
X145773786Y-83357088D01*
X145773786Y-83011845D01*
X145428543Y-83011845D01*
X145083301Y-83011845D01*
X145083301Y-83702330D01*
X145083301Y-84392816D01*
X145428543Y-84392816D01*
X145773786Y-84392816D01*
X145773786Y-84738059D01*
X145773786Y-85083301D01*
X146119029Y-85083301D01*
X146464272Y-85083301D01*
X146464272Y-85428544D01*
X146464272Y-85773787D01*
X146119029Y-85773787D01*
X145773786Y-85773787D01*
X145773786Y-86464272D01*
X145773786Y-87154758D01*
X145428543Y-87154758D01*
X145083301Y-87154758D01*
X145083301Y-87500000D01*
X145083301Y-87845243D01*
X144738058Y-87845243D01*
X144392815Y-87845243D01*
X144392815Y-87154758D01*
X144392815Y-86464272D01*
X144738058Y-86464272D01*
X145083301Y-86464272D01*
X145083301Y-86119029D01*
X145083301Y-85773787D01*
X144392815Y-85773787D01*
X143702330Y-85773787D01*
X143702330Y-85428544D01*
X143702330Y-85083301D01*
X143357087Y-85083301D01*
X143011844Y-85083301D01*
X143011844Y-85428544D01*
X143011844Y-85773787D01*
X142666602Y-85773787D01*
X142321359Y-85773787D01*
X142321359Y-85083301D01*
X142321359Y-84392816D01*
X143011844Y-84392816D01*
X143702330Y-84392816D01*
X143702330Y-84738059D01*
X143702330Y-85083301D01*
X144047572Y-85083301D01*
X144392815Y-85083301D01*
X144392815Y-84392816D01*
X144392815Y-83702330D01*
X144047572Y-83702330D01*
X143702330Y-83702330D01*
X143702330Y-83011845D01*
X143702330Y-82321360D01*
X143357087Y-82321360D01*
X143011844Y-82321360D01*
X143011844Y-81630874D01*
X143011844Y-80940389D01*
X143702330Y-80940389D01*
X144392815Y-80940389D01*
X144392815Y-81285631D01*
G37*
G36*
X151988155Y-81285631D02*
G01*
X151988155Y-82321360D01*
X151642912Y-82321360D01*
X151297670Y-82321360D01*
X151297670Y-82666602D01*
X151297670Y-83011845D01*
X150607184Y-83011845D01*
X149916699Y-83011845D01*
X149916699Y-83357088D01*
X149916699Y-83702330D01*
X149571456Y-83702330D01*
X149226213Y-83702330D01*
X149226213Y-83357088D01*
X149226213Y-83011845D01*
X148535728Y-83011845D01*
X147845242Y-83011845D01*
X147845242Y-82666602D01*
X147845242Y-82321360D01*
X148190485Y-82321360D01*
X148535728Y-82321360D01*
X148535728Y-81976117D01*
X148535728Y-81630874D01*
X148190485Y-81630874D01*
X147845242Y-81630874D01*
X147845242Y-81976117D01*
X147845242Y-82321360D01*
X147500000Y-82321360D01*
X147154757Y-82321360D01*
X147154757Y-81976117D01*
X147154757Y-81630874D01*
X146809514Y-81630874D01*
X146464272Y-81630874D01*
X146464272Y-80595146D01*
X146464272Y-79559418D01*
X146809514Y-79559418D01*
X147154757Y-79559418D01*
X147154757Y-80595146D01*
X147154757Y-81630874D01*
X147500000Y-81630874D01*
X147845242Y-81630874D01*
X147845242Y-80940389D01*
X147845242Y-80249903D01*
X148190485Y-80249903D01*
X148535728Y-80249903D01*
X149226213Y-80249903D01*
X149226213Y-81285631D01*
X149226213Y-82321360D01*
X149571456Y-82321360D01*
X149916699Y-82321360D01*
X149916699Y-81976117D01*
X149916699Y-81630874D01*
X150261941Y-81630874D01*
X150607184Y-81630874D01*
X150607184Y-81976117D01*
X150607184Y-82321360D01*
X150952427Y-82321360D01*
X151297670Y-82321360D01*
X151297670Y-81630874D01*
X151297670Y-80940389D01*
X150607184Y-80940389D01*
X149916699Y-80940389D01*
X149916699Y-80595146D01*
X149916699Y-80249903D01*
X149571456Y-80249903D01*
X149226213Y-80249903D01*
X148535728Y-80249903D01*
X148535728Y-79559418D01*
X148535728Y-78868932D01*
X148880971Y-78868932D01*
X149226213Y-78868932D01*
X149226213Y-79214175D01*
X149226213Y-79559418D01*
X149571456Y-79559418D01*
X149916699Y-79559418D01*
X149916699Y-79904661D01*
X149916699Y-80249903D01*
X150261941Y-80249903D01*
X150607184Y-80249903D01*
X150607184Y-78868932D01*
X150607184Y-77487962D01*
X150952427Y-77487962D01*
X151297670Y-77487962D01*
X151297670Y-78178447D01*
X151297670Y-78868932D01*
X151642912Y-78868932D01*
X151988155Y-78868932D01*
X151988155Y-79214175D01*
X151988155Y-79559418D01*
X151642912Y-79559418D01*
X151297670Y-79559418D01*
X151297670Y-79904661D01*
X151297670Y-80249903D01*
X151642912Y-80249903D01*
X151988155Y-80249903D01*
X151988155Y-80940389D01*
X151988155Y-81285631D01*
G37*
G36*
X145083301Y-77833204D02*
G01*
X145083301Y-78178447D01*
X145428543Y-78178447D01*
X145773786Y-78178447D01*
X145773786Y-77833204D01*
X145773786Y-77487962D01*
X146119029Y-77487962D01*
X146464272Y-77487962D01*
X146464272Y-77833204D01*
X146464272Y-78178447D01*
X146119029Y-78178447D01*
X145773786Y-78178447D01*
X145773786Y-78523690D01*
X145773786Y-78868932D01*
X146119029Y-78868932D01*
X146464272Y-78868932D01*
X146464272Y-79214175D01*
X146464272Y-79559418D01*
X145773786Y-79559418D01*
X145083301Y-79559418D01*
X145083301Y-79904661D01*
X145083301Y-80249903D01*
X145428543Y-80249903D01*
X145773786Y-80249903D01*
X145773786Y-80940389D01*
X145773786Y-81630874D01*
X145428543Y-81630874D01*
X145083301Y-81630874D01*
X145083301Y-81285631D01*
X145083301Y-80940389D01*
X144738058Y-80940389D01*
X144392815Y-80940389D01*
X144392815Y-80595146D01*
X144392815Y-80249903D01*
X144047572Y-80249903D01*
X143702330Y-80249903D01*
X143702330Y-79904661D01*
X143702330Y-79559418D01*
X144047572Y-79559418D01*
X144392815Y-79559418D01*
X144392815Y-79214175D01*
X144392815Y-78868932D01*
X144047572Y-78868932D01*
X143702330Y-78868932D01*
X143702330Y-78523690D01*
X143702330Y-78178447D01*
X144047572Y-78178447D01*
X144392815Y-78178447D01*
X144392815Y-77833204D01*
X144392815Y-77487962D01*
X144738058Y-77487962D01*
X145083301Y-77487962D01*
X145083301Y-77833204D01*
G37*
G36*
X149226213Y-77833204D02*
G01*
X149226213Y-78178447D01*
X148880971Y-78178447D01*
X148535728Y-78178447D01*
X148535728Y-78523690D01*
X148535728Y-78868932D01*
X148190485Y-78868932D01*
X147845242Y-78868932D01*
X147845242Y-78523690D01*
X147845242Y-78178447D01*
X147500000Y-78178447D01*
X147154757Y-78178447D01*
X147154757Y-77833204D01*
X147154757Y-77487962D01*
X148190485Y-77487962D01*
X149226213Y-77487962D01*
X149226213Y-77833204D01*
G37*
M02*
