M48
; DRILL file {KiCad 8.0.5} date 2024-10-06T22:51:23+0100
; FORMAT={-:-/ absolute / inch / decimal}
; #@! TF.CreationDate,2024-10-06T22:51:23+01:00
; #@! TF.GenerationSoftware,Kicad,Pcbnew,8.0.5
; #@! TF.FileFunction,Plated,1,2,PTH
FMAT,2
INCH
; #@! TA.AperFunction,Plated,PTH,ViaDrill
T1C0.0236
; #@! TA.AperFunction,Plated,PTH,ComponentDrill
T2C0.0394
%
G90
G05
T1
X4.5079Y-3.6614
X4.9803Y-3.4055
X5.0984Y-3.2283
X5.3937Y-3.0512
X5.7874Y-3.3071
X5.8465Y-3.2874
X5.8661Y-3.6614
X5.9055Y-3.5236
X5.9843Y-3.2283
X6.0433Y-3.6614
X6.1614Y-3.3661
X6.1614Y-3.4646
X6.3189Y-3.5039
X6.4173Y-3.4646
T2
X4.2665Y-2.8437
X4.2665Y-2.9437
X4.3665Y-2.8437
X4.3665Y-2.9437
X4.4665Y-2.8437
X4.4665Y-2.9437
X4.5665Y-2.8437
X4.5665Y-2.9437
X4.6665Y-2.8437
X4.6665Y-2.9437
X4.7665Y-2.8437
X4.7665Y-2.9437
X4.8665Y-2.8437
X4.8665Y-2.9437
X4.9665Y-2.8437
X4.9665Y-2.9437
X5.0665Y-2.8437
X5.0665Y-2.9437
X5.1665Y-2.8437
X5.1665Y-2.9437
X5.2665Y-2.8437
X5.2665Y-2.9437
X5.3665Y-2.8437
X5.3665Y-2.9437
X5.4665Y-2.8437
X5.4665Y-2.9437
X5.5665Y-2.8437
X5.5665Y-2.9437
X5.6665Y-2.8437
X5.6665Y-2.9437
X5.7665Y-2.8437
X5.7665Y-2.9437
X5.8665Y-2.8437
X5.8665Y-2.9437
X5.9665Y-2.8437
X5.9665Y-2.9437
X6.0665Y-2.8437
X6.0665Y-2.9437
X6.1665Y-2.8437
X6.1665Y-2.9437
M30
